G04 #@! TF.GenerationSoftware,KiCad,Pcbnew,(6.0.10-0)*
G04 #@! TF.CreationDate,2023-03-08T15:24:42-06:00*
G04 #@! TF.ProjectId,v0.0,76302e30-2e6b-4696-9361-645f70636258,rev?*
G04 #@! TF.SameCoordinates,Original*
G04 #@! TF.FileFunction,Soldermask,Top*
G04 #@! TF.FilePolarity,Negative*
%FSLAX46Y46*%
G04 Gerber Fmt 4.6, Leading zero omitted, Abs format (unit mm)*
G04 Created by KiCad (PCBNEW (6.0.10-0)) date 2023-03-08 15:24:42*
%MOMM*%
%LPD*%
G01*
G04 APERTURE LIST*
G04 Aperture macros list*
%AMRoundRect*
0 Rectangle with rounded corners*
0 $1 Rounding radius*
0 $2 $3 $4 $5 $6 $7 $8 $9 X,Y pos of 4 corners*
0 Add a 4 corners polygon primitive as box body*
4,1,4,$2,$3,$4,$5,$6,$7,$8,$9,$2,$3,0*
0 Add four circle primitives for the rounded corners*
1,1,$1+$1,$2,$3*
1,1,$1+$1,$4,$5*
1,1,$1+$1,$6,$7*
1,1,$1+$1,$8,$9*
0 Add four rect primitives between the rounded corners*
20,1,$1+$1,$2,$3,$4,$5,0*
20,1,$1+$1,$4,$5,$6,$7,0*
20,1,$1+$1,$6,$7,$8,$9,0*
20,1,$1+$1,$8,$9,$2,$3,0*%
G04 Aperture macros list end*
%ADD10R,2.613000X3.502000*%
%ADD11R,1.505000X0.802000*%
%ADD12RoundRect,0.250000X-0.337500X-0.475000X0.337500X-0.475000X0.337500X0.475000X-0.337500X0.475000X0*%
%ADD13RoundRect,0.250000X0.337500X0.475000X-0.337500X0.475000X-0.337500X-0.475000X0.337500X-0.475000X0*%
%ADD14RoundRect,0.250000X-0.350000X-0.450000X0.350000X-0.450000X0.350000X0.450000X-0.350000X0.450000X0*%
%ADD15R,2.500000X2.500000*%
%ADD16RoundRect,0.250000X0.845000X-0.620000X0.845000X0.620000X-0.845000X0.620000X-0.845000X-0.620000X0*%
%ADD17O,2.190000X1.740000*%
%ADD18RoundRect,0.250000X-0.475000X0.337500X-0.475000X-0.337500X0.475000X-0.337500X0.475000X0.337500X0*%
%ADD19O,2.500000X3.000000*%
%ADD20R,2.000000X2.000000*%
%ADD21C,2.000000*%
%ADD22RoundRect,0.150000X-0.825000X-0.150000X0.825000X-0.150000X0.825000X0.150000X-0.825000X0.150000X0*%
%ADD23C,3.200000*%
%ADD24RoundRect,0.250000X-0.450000X0.350000X-0.450000X-0.350000X0.450000X-0.350000X0.450000X0.350000X0*%
%ADD25R,0.900000X1.200000*%
%ADD26RoundRect,0.250000X0.350000X0.450000X-0.350000X0.450000X-0.350000X-0.450000X0.350000X-0.450000X0*%
%ADD27RoundRect,0.250000X-0.845000X0.620000X-0.845000X-0.620000X0.845000X-0.620000X0.845000X0.620000X0*%
%ADD28C,2.600000*%
%ADD29R,2.600000X2.600000*%
%ADD30O,3.048000X1.524000*%
%ADD31C,0.475000*%
%ADD32R,4.200000X4.200000*%
%ADD33R,1.500000X0.900000*%
%ADD34R,0.900000X1.500000*%
%ADD35R,1.200000X0.900000*%
%ADD36R,1.600000X1.600000*%
%ADD37C,1.600000*%
%ADD38R,2.000000X3.800000*%
%ADD39R,2.000000X1.500000*%
%ADD40R,1.500000X0.450000*%
%ADD41O,1.100000X1.800000*%
%ADD42O,1.100000X2.200000*%
%ADD43C,1.500000*%
G04 APERTURE END LIST*
D10*
X128016000Y-87884000D03*
D11*
X125518500Y-89789000D03*
X125518500Y-88519000D03*
X125518500Y-87249000D03*
X125518500Y-85979000D03*
X130513500Y-85979000D03*
X130513500Y-87249000D03*
X130513500Y-88519000D03*
X130513500Y-89789000D03*
D12*
X133582500Y-89408000D03*
X135657500Y-89408000D03*
D13*
X146071500Y-100584000D03*
X143996500Y-100584000D03*
D14*
X130318000Y-70866000D03*
X132318000Y-70866000D03*
D15*
X161036000Y-84328000D03*
D16*
X118892000Y-101092000D03*
D17*
X118892000Y-98552000D03*
X118892000Y-96012000D03*
X118892000Y-93472000D03*
D18*
X164846000Y-89894500D03*
X164846000Y-91969500D03*
X166370000Y-69828500D03*
X166370000Y-71903500D03*
X123952000Y-79480500D03*
X123952000Y-81555500D03*
D19*
X121960000Y-117810000D03*
X121960000Y-105310000D03*
X126960000Y-117810000D03*
X126960000Y-105310000D03*
D20*
X152654000Y-87376000D03*
D21*
X152654000Y-82376000D03*
D15*
X173482000Y-59944000D03*
X140462000Y-81534000D03*
D22*
X158307000Y-64262000D03*
X158307000Y-65532000D03*
X158307000Y-66802000D03*
X158307000Y-68072000D03*
X158307000Y-69342000D03*
X158307000Y-70612000D03*
X158307000Y-71882000D03*
X163257000Y-71882000D03*
X163257000Y-70612000D03*
X163257000Y-69342000D03*
X163257000Y-68072000D03*
X163257000Y-66802000D03*
X163257000Y-65532000D03*
X163257000Y-64262000D03*
D18*
X117094000Y-79480500D03*
X117094000Y-81555500D03*
D15*
X166624000Y-60960000D03*
D23*
X180086000Y-54610000D03*
D24*
X130556000Y-79518000D03*
X130556000Y-81518000D03*
D18*
X169418000Y-69828500D03*
X169418000Y-71903500D03*
D19*
X168402000Y-117910000D03*
X168402000Y-105410000D03*
X163402000Y-117910000D03*
X163402000Y-105410000D03*
D25*
X159386000Y-60452000D03*
X162686000Y-60452000D03*
D26*
X160512000Y-75692000D03*
X158512000Y-75692000D03*
D27*
X172954000Y-76454000D03*
D17*
X172954000Y-78994000D03*
D13*
X132355500Y-75184000D03*
X130280500Y-75184000D03*
D18*
X161290000Y-89894500D03*
X161290000Y-91969500D03*
D13*
X126767500Y-75184000D03*
X124692500Y-75184000D03*
D28*
X149746000Y-108560000D03*
X145046000Y-111560000D03*
D29*
X145046000Y-105560000D03*
D15*
X165354000Y-77470000D03*
D30*
X144526000Y-91948000D03*
X144526000Y-94488000D03*
X144526000Y-89408000D03*
D26*
X135112000Y-93218000D03*
X133112000Y-93218000D03*
D14*
X130318000Y-60452000D03*
X132318000Y-60452000D03*
D31*
X144670000Y-67367500D03*
X146195000Y-67367500D03*
X143907500Y-66605000D03*
X144670000Y-65842500D03*
X145432500Y-66605000D03*
X143145000Y-67367500D03*
X143907500Y-65080000D03*
X145432500Y-68130000D03*
D32*
X144670000Y-66605000D03*
D31*
X143145000Y-65842500D03*
X146195000Y-65842500D03*
X145432500Y-65080000D03*
X143907500Y-68130000D03*
D33*
X154100000Y-59265000D03*
X154100000Y-60535000D03*
X154100000Y-61805000D03*
X154100000Y-63075000D03*
X154100000Y-64345000D03*
X154100000Y-65615000D03*
X154100000Y-66885000D03*
X154100000Y-68155000D03*
X154100000Y-69425000D03*
X154100000Y-70695000D03*
X154100000Y-71965000D03*
X154100000Y-73235000D03*
X154100000Y-74505000D03*
X154100000Y-75775000D03*
D34*
X151070000Y-77025000D03*
X149800000Y-77025000D03*
X148530000Y-77025000D03*
X147260000Y-77025000D03*
X145990000Y-77025000D03*
X144720000Y-77025000D03*
X143450000Y-77025000D03*
X142180000Y-77025000D03*
X140910000Y-77025000D03*
X139640000Y-77025000D03*
D33*
X136600000Y-75775000D03*
X136600000Y-74505000D03*
X136600000Y-73235000D03*
X136600000Y-71965000D03*
X136600000Y-70695000D03*
X136600000Y-69425000D03*
X136600000Y-68155000D03*
X136600000Y-66885000D03*
X136600000Y-65615000D03*
X136600000Y-64345000D03*
X136600000Y-63075000D03*
X136600000Y-61805000D03*
X136600000Y-60535000D03*
X136600000Y-59265000D03*
D18*
X120396000Y-79480500D03*
X120396000Y-81555500D03*
D26*
X160512000Y-79248000D03*
X158512000Y-79248000D03*
D15*
X122682000Y-65278000D03*
X168910000Y-93472000D03*
D35*
X164846000Y-83186000D03*
X164846000Y-86486000D03*
D23*
X180086000Y-116078000D03*
D26*
X126730000Y-60452000D03*
X124730000Y-60452000D03*
D23*
X110490000Y-116586000D03*
D36*
X152654000Y-98172651D03*
D37*
X152654000Y-94672651D03*
D15*
X138684000Y-95758000D03*
D38*
X174854000Y-86106000D03*
D39*
X168554000Y-88406000D03*
X168554000Y-86106000D03*
X168554000Y-83806000D03*
D15*
X144272000Y-81534000D03*
D17*
X118852000Y-88646000D03*
D27*
X118852000Y-86106000D03*
D23*
X110490000Y-54102000D03*
D13*
X126767500Y-70866000D03*
X124692500Y-70866000D03*
D18*
X127508000Y-79480500D03*
X127508000Y-81555500D03*
D14*
X160004000Y-102108000D03*
X158004000Y-102108000D03*
D40*
X172911000Y-69372000D03*
X172911000Y-68722000D03*
X172911000Y-68072000D03*
X172911000Y-67422000D03*
X172911000Y-66772000D03*
D41*
X172661000Y-70872000D03*
X172661000Y-65272000D03*
D42*
X174811000Y-68072000D03*
D43*
X126824000Y-65532000D03*
X130224000Y-65532000D03*
M02*
