G04 #@! TF.GenerationSoftware,KiCad,Pcbnew,(6.0.10-0)*
G04 #@! TF.CreationDate,2023-03-07T13:43:11-06:00*
G04 #@! TF.ProjectId,v0.0,76302e30-2e6b-4696-9361-645f70636258,rev?*
G04 #@! TF.SameCoordinates,Original*
G04 #@! TF.FileFunction,Soldermask,Top*
G04 #@! TF.FilePolarity,Negative*
%FSLAX46Y46*%
G04 Gerber Fmt 4.6, Leading zero omitted, Abs format (unit mm)*
G04 Created by KiCad (PCBNEW (6.0.10-0)) date 2023-03-07 13:43:11*
%MOMM*%
%LPD*%
G01*
G04 APERTURE LIST*
G04 Aperture macros list*
%AMRoundRect*
0 Rectangle with rounded corners*
0 $1 Rounding radius*
0 $2 $3 $4 $5 $6 $7 $8 $9 X,Y pos of 4 corners*
0 Add a 4 corners polygon primitive as box body*
4,1,4,$2,$3,$4,$5,$6,$7,$8,$9,$2,$3,0*
0 Add four circle primitives for the rounded corners*
1,1,$1+$1,$2,$3*
1,1,$1+$1,$4,$5*
1,1,$1+$1,$6,$7*
1,1,$1+$1,$8,$9*
0 Add four rect primitives between the rounded corners*
20,1,$1+$1,$2,$3,$4,$5,0*
20,1,$1+$1,$4,$5,$6,$7,0*
20,1,$1+$1,$6,$7,$8,$9,0*
20,1,$1+$1,$8,$9,$2,$3,0*%
G04 Aperture macros list end*
%ADD10R,2.500000X2.500000*%
%ADD11RoundRect,0.250000X0.337500X0.475000X-0.337500X0.475000X-0.337500X-0.475000X0.337500X-0.475000X0*%
%ADD12RoundRect,0.250000X-0.350000X-0.450000X0.350000X-0.450000X0.350000X0.450000X-0.350000X0.450000X0*%
%ADD13RoundRect,0.250000X0.845000X-0.620000X0.845000X0.620000X-0.845000X0.620000X-0.845000X-0.620000X0*%
%ADD14O,2.190000X1.740000*%
%ADD15RoundRect,0.250000X-0.475000X0.337500X-0.475000X-0.337500X0.475000X-0.337500X0.475000X0.337500X0*%
%ADD16O,2.500000X3.000000*%
%ADD17R,2.000000X2.000000*%
%ADD18C,2.000000*%
%ADD19RoundRect,0.150000X-0.825000X-0.150000X0.825000X-0.150000X0.825000X0.150000X-0.825000X0.150000X0*%
%ADD20C,3.200000*%
%ADD21RoundRect,0.250000X0.350000X0.450000X-0.350000X0.450000X-0.350000X-0.450000X0.350000X-0.450000X0*%
%ADD22R,0.900000X1.200000*%
%ADD23RoundRect,0.250000X-0.845000X0.620000X-0.845000X-0.620000X0.845000X-0.620000X0.845000X0.620000X0*%
%ADD24R,2.600000X2.600000*%
%ADD25C,2.600000*%
%ADD26O,3.048000X1.524000*%
%ADD27R,1.500000X0.900000*%
%ADD28R,0.900000X1.500000*%
%ADD29C,0.475000*%
%ADD30R,4.200000X4.200000*%
%ADD31R,1.200000X0.900000*%
%ADD32RoundRect,0.008100X0.126900X-0.411900X0.126900X0.411900X-0.126900X0.411900X-0.126900X-0.411900X0*%
%ADD33R,2.500000X1.700000*%
%ADD34R,1.600000X1.600000*%
%ADD35C,1.600000*%
%ADD36R,2.000000X1.500000*%
%ADD37R,2.000000X3.800000*%
%ADD38RoundRect,0.250000X0.450000X-0.350000X0.450000X0.350000X-0.450000X0.350000X-0.450000X-0.350000X0*%
%ADD39R,1.500000X0.450000*%
%ADD40O,1.100000X1.800000*%
%ADD41O,1.100000X2.200000*%
%ADD42C,1.500000*%
G04 APERTURE END LIST*
D10*
X173482000Y-59944000D03*
D11*
X135149500Y-97028000D03*
X133074500Y-97028000D03*
D12*
X130318000Y-70866000D03*
X132318000Y-70866000D03*
D10*
X161036000Y-84328000D03*
D13*
X124734000Y-101346000D03*
D14*
X124734000Y-98806000D03*
X124734000Y-96266000D03*
X124734000Y-93726000D03*
D15*
X164846000Y-89894500D03*
X164846000Y-91969500D03*
X166370000Y-69828500D03*
X166370000Y-71903500D03*
X128524000Y-79480500D03*
X128524000Y-81555500D03*
D16*
X130208000Y-117810000D03*
X130208000Y-105310000D03*
X135208000Y-117810000D03*
X135208000Y-105310000D03*
D17*
X152654000Y-87376000D03*
D18*
X152654000Y-82376000D03*
D10*
X138938000Y-81788000D03*
D19*
X158307000Y-64262000D03*
X158307000Y-65532000D03*
X158307000Y-66802000D03*
X158307000Y-68072000D03*
X158307000Y-69342000D03*
X158307000Y-70612000D03*
X158307000Y-71882000D03*
X163257000Y-71882000D03*
X163257000Y-70612000D03*
X163257000Y-69342000D03*
X163257000Y-68072000D03*
X163257000Y-66802000D03*
X163257000Y-65532000D03*
X163257000Y-64262000D03*
D15*
X122936000Y-79480500D03*
X122936000Y-81555500D03*
D10*
X166624000Y-60960000D03*
D20*
X180086000Y-54610000D03*
D21*
X132064000Y-86106000D03*
X130064000Y-86106000D03*
D15*
X169418000Y-69828500D03*
X169418000Y-71903500D03*
D16*
X161330000Y-105372000D03*
X161330000Y-117872000D03*
X166330000Y-105372000D03*
X166330000Y-117872000D03*
D22*
X159386000Y-60452000D03*
X162686000Y-60452000D03*
D21*
X160512000Y-75692000D03*
X158512000Y-75692000D03*
D14*
X172954000Y-78994000D03*
D23*
X172954000Y-76454000D03*
D11*
X132355500Y-75184000D03*
X130280500Y-75184000D03*
D15*
X161290000Y-89894500D03*
X161290000Y-91969500D03*
D11*
X126767500Y-75184000D03*
X124692500Y-75184000D03*
D24*
X148602000Y-105306000D03*
D25*
X148602000Y-111306000D03*
X153302000Y-108306000D03*
D10*
X165354000Y-77470000D03*
D26*
X144526000Y-89408000D03*
X144526000Y-94488000D03*
X144526000Y-91948000D03*
D21*
X135112000Y-93218000D03*
X133112000Y-93218000D03*
D12*
X130318000Y-60452000D03*
X132318000Y-60452000D03*
D27*
X136600000Y-59265000D03*
X136600000Y-60535000D03*
X136600000Y-61805000D03*
X136600000Y-63075000D03*
X136600000Y-64345000D03*
X136600000Y-65615000D03*
X136600000Y-66885000D03*
X136600000Y-68155000D03*
X136600000Y-69425000D03*
X136600000Y-70695000D03*
X136600000Y-71965000D03*
X136600000Y-73235000D03*
X136600000Y-74505000D03*
X136600000Y-75775000D03*
D28*
X139640000Y-77025000D03*
X140910000Y-77025000D03*
X142180000Y-77025000D03*
X143450000Y-77025000D03*
X144720000Y-77025000D03*
X145990000Y-77025000D03*
X147260000Y-77025000D03*
X148530000Y-77025000D03*
X149800000Y-77025000D03*
X151070000Y-77025000D03*
D27*
X154100000Y-75775000D03*
X154100000Y-74505000D03*
X154100000Y-73235000D03*
X154100000Y-71965000D03*
X154100000Y-70695000D03*
X154100000Y-69425000D03*
X154100000Y-68155000D03*
X154100000Y-66885000D03*
X154100000Y-65615000D03*
X154100000Y-64345000D03*
X154100000Y-63075000D03*
X154100000Y-61805000D03*
X154100000Y-60535000D03*
X154100000Y-59265000D03*
D29*
X143907500Y-68130000D03*
X145432500Y-65080000D03*
X146195000Y-65842500D03*
X143145000Y-65842500D03*
D30*
X144670000Y-66605000D03*
D29*
X145432500Y-68130000D03*
X143907500Y-65080000D03*
X143145000Y-67367500D03*
X145432500Y-66605000D03*
X144670000Y-65842500D03*
X143907500Y-66605000D03*
X146195000Y-67367500D03*
X144670000Y-67367500D03*
D15*
X125730000Y-79480500D03*
X125730000Y-81555500D03*
D21*
X160512000Y-79248000D03*
X158512000Y-79248000D03*
D10*
X122682000Y-65278000D03*
X168910000Y-93472000D03*
D31*
X164846000Y-83186000D03*
X164846000Y-86486000D03*
D32*
X134386000Y-87551000D03*
X134886000Y-87551000D03*
X135386000Y-87551000D03*
X135886000Y-87551000D03*
X136386000Y-87551000D03*
X136886000Y-87551000D03*
X136886000Y-84661000D03*
X136386000Y-84661000D03*
X135886000Y-84661000D03*
X135386000Y-84661000D03*
X134886000Y-84661000D03*
X134386000Y-84661000D03*
D33*
X135636000Y-86106000D03*
D20*
X180086000Y-116078000D03*
D21*
X126730000Y-60452000D03*
X124730000Y-60452000D03*
D20*
X116840000Y-116078000D03*
D34*
X152654000Y-98172651D03*
D35*
X152654000Y-94672651D03*
D10*
X138684000Y-95758000D03*
D36*
X168554000Y-83806000D03*
X168554000Y-86106000D03*
X168554000Y-88406000D03*
D37*
X174854000Y-86106000D03*
D10*
X142748000Y-81788000D03*
D14*
X124714000Y-88392000D03*
D23*
X124714000Y-85852000D03*
D20*
X116840000Y-54610000D03*
D11*
X126767500Y-70866000D03*
X124692500Y-70866000D03*
D15*
X131318000Y-79480500D03*
X131318000Y-81555500D03*
D38*
X134112000Y-81518000D03*
X134112000Y-79518000D03*
D39*
X172911000Y-69372000D03*
X172911000Y-68722000D03*
X172911000Y-68072000D03*
X172911000Y-67422000D03*
X172911000Y-66772000D03*
D40*
X172661000Y-70872000D03*
X172661000Y-65272000D03*
D41*
X174811000Y-68072000D03*
D42*
X126824000Y-65532000D03*
X130224000Y-65532000D03*
M02*
