M48
INCH,TZ
T1C0.0079
T2C0.0157
T3C0.0197
T4C0.0315
T5C0.0394
T6C0.0400
T7C0.0469
T8C0.0472
T9C0.0630
%
G90
G05
T1
X56356Y-25922
X56356Y-26523
X56656Y-25622
X56656Y-26222
X56656Y-26823
X56957Y-25922
X56957Y-26523
X57257Y-25622
X57257Y-26222
X57257Y-26823
X57557Y-25922
X57557Y-26523
T2
X48400Y-30300
X48500Y-26800
X49200Y-26500
X49400Y-24500
X50000Y-30300
X50700Y-27100
X50700Y-28800
X50700Y-33500
X51100Y-32700
X51100Y-39100
X52100Y-30200
X52300Y-34500
X53300Y-28300
X53398Y-32741
X53502Y-35002
X54400Y-23314
X54700Y-23900
X55400Y-23900
X57200Y-39500
X57700Y-32300
X61400Y-23800
X61600Y-35400
X62200Y-32200
X62200Y-39100
X62800Y-24700
X64300Y-31500
X64900Y-28100
X65000Y-37000
X66400Y-32000
X66700Y-29000
X66800Y-23800
T4
X49931Y-25800
X51269Y-25800
X60100Y-37273
X60100Y-38651
T5
X60100Y-32431
X60100Y-34400
T6
X56900Y-35200
X56900Y-36200
X56900Y-37200
T7
X49100Y-33800
X49100Y-34800
X49108Y-36900
X49108Y-37900
X49108Y-38900
X49108Y-39900
X68092Y-30100
X68092Y-31100
T8
X51263Y-41461
X51263Y-46382
X53231Y-41461
X53231Y-46382
X63516Y-41485
X63516Y-46406
X65484Y-41485
X65484Y-46406
T9
X58505Y-41459
X58505Y-43821
X60355Y-42640
T3
G00X67977Y-25835
M15
G01X67977Y-25560
M16
G05
G00X67977Y-28040
M15
G01X67977Y-27765
M16
G05
G00X68823Y-27017
M15
G01X68823Y-26583
M16
G05
T0
M30
