M48
INCH,TZ
T1C0.0079
T2C0.0157
T3C0.0197
T4C0.0315
T5C0.0394
T6C0.0400
T7C0.0469
T8C0.0472
T9C0.0630
%
G90
G05
T1
X56356Y-25922
X56356Y-26523
X56656Y-25622
X56656Y-26222
X56656Y-26823
X56957Y-25922
X56957Y-26523
X57257Y-25622
X57257Y-26222
X57257Y-26823
X57557Y-25922
X57557Y-26523
T2
X48500Y-26800
X49200Y-26500
X49400Y-24500
X50700Y-27100
X50700Y-28800
X50800Y-31800
X50900Y-30500
X51100Y-39100
X52100Y-30200
X52300Y-32800
X53300Y-28300
X53900Y-33500
X54200Y-32300
X54400Y-23314
X54700Y-23900
X55300Y-33500
X55400Y-23900
X55800Y-29500
X57700Y-32300
X61400Y-23800
X61600Y-35400
X62200Y-32200
X62200Y-39100
X62800Y-24700
X64300Y-31500
X64900Y-28100
X65000Y-37000
X66400Y-32000
X66700Y-29000
X66800Y-23800
T4
X49931Y-25800
X51269Y-25800
X60100Y-37273
X60100Y-38651
T5
X60100Y-32431
X60100Y-34400
T6
X56900Y-35200
X56900Y-36200
X56900Y-37200
T7
X46792Y-33900
X46792Y-34900
X46808Y-36800
X46808Y-37800
X46808Y-38800
X46808Y-39800
X68092Y-30100
X68092Y-31100
T8
X48016Y-41461
X48016Y-46382
X49984Y-41461
X49984Y-46382
X64331Y-41500
X64331Y-46421
X66300Y-41500
X66300Y-46421
T9
X57105Y-41559
X57105Y-43921
X58955Y-42740
T3
G00X67977Y-25835
M15
G01X67977Y-25560
M16
G05
G00X67977Y-28040
M15
G01X67977Y-27765
M16
G05
G00X68823Y-27017
M15
G01X68823Y-26583
M16
G05
T0
M30
