G04 #@! TF.GenerationSoftware,KiCad,Pcbnew,(6.0.10-0)*
G04 #@! TF.CreationDate,2023-03-08T15:24:42-06:00*
G04 #@! TF.ProjectId,v0.0,76302e30-2e6b-4696-9361-645f70636258,rev?*
G04 #@! TF.SameCoordinates,Original*
G04 #@! TF.FileFunction,Paste,Top*
G04 #@! TF.FilePolarity,Positive*
%FSLAX46Y46*%
G04 Gerber Fmt 4.6, Leading zero omitted, Abs format (unit mm)*
G04 Created by KiCad (PCBNEW (6.0.10-0)) date 2023-03-08 15:24:42*
%MOMM*%
%LPD*%
G01*
G04 APERTURE LIST*
G04 Aperture macros list*
%AMRoundRect*
0 Rectangle with rounded corners*
0 $1 Rounding radius*
0 $2 $3 $4 $5 $6 $7 $8 $9 X,Y pos of 4 corners*
0 Add a 4 corners polygon primitive as box body*
4,1,4,$2,$3,$4,$5,$6,$7,$8,$9,$2,$3,0*
0 Add four circle primitives for the rounded corners*
1,1,$1+$1,$2,$3*
1,1,$1+$1,$4,$5*
1,1,$1+$1,$6,$7*
1,1,$1+$1,$8,$9*
0 Add four rect primitives between the rounded corners*
20,1,$1+$1,$2,$3,$4,$5,0*
20,1,$1+$1,$4,$5,$6,$7,0*
20,1,$1+$1,$6,$7,$8,$9,0*
20,1,$1+$1,$8,$9,$2,$3,0*%
G04 Aperture macros list end*
%ADD10R,1.567800X2.101200*%
%ADD11R,1.505000X0.802000*%
%ADD12RoundRect,0.250000X-0.337500X-0.475000X0.337500X-0.475000X0.337500X0.475000X-0.337500X0.475000X0*%
%ADD13RoundRect,0.250000X0.337500X0.475000X-0.337500X0.475000X-0.337500X-0.475000X0.337500X-0.475000X0*%
%ADD14RoundRect,0.250000X-0.350000X-0.450000X0.350000X-0.450000X0.350000X0.450000X-0.350000X0.450000X0*%
%ADD15RoundRect,0.250000X-0.475000X0.337500X-0.475000X-0.337500X0.475000X-0.337500X0.475000X0.337500X0*%
%ADD16RoundRect,0.150000X-0.825000X-0.150000X0.825000X-0.150000X0.825000X0.150000X-0.825000X0.150000X0*%
%ADD17RoundRect,0.250000X-0.450000X0.350000X-0.450000X-0.350000X0.450000X-0.350000X0.450000X0.350000X0*%
%ADD18R,0.900000X1.200000*%
%ADD19RoundRect,0.250000X0.350000X0.450000X-0.350000X0.450000X-0.350000X-0.450000X0.350000X-0.450000X0*%
%ADD20R,1.050000X1.050000*%
%ADD21R,1.500000X0.900000*%
%ADD22R,0.900000X1.500000*%
%ADD23R,1.200000X0.900000*%
%ADD24R,2.000000X3.800000*%
%ADD25R,2.000000X1.500000*%
%ADD26R,1.500000X0.450000*%
G04 APERTURE END LIST*
D10*
X128016000Y-87884000D03*
D11*
X125518500Y-89789000D03*
X125518500Y-88519000D03*
X125518500Y-87249000D03*
X125518500Y-85979000D03*
X130513500Y-85979000D03*
X130513500Y-87249000D03*
X130513500Y-88519000D03*
X130513500Y-89789000D03*
D12*
X133582500Y-89408000D03*
X135657500Y-89408000D03*
D13*
X146071500Y-100584000D03*
X143996500Y-100584000D03*
D14*
X130318000Y-70866000D03*
X132318000Y-70866000D03*
D15*
X164846000Y-89894500D03*
X164846000Y-91969500D03*
X166370000Y-69828500D03*
X166370000Y-71903500D03*
X123952000Y-79480500D03*
X123952000Y-81555500D03*
D16*
X158307000Y-64262000D03*
X158307000Y-65532000D03*
X158307000Y-66802000D03*
X158307000Y-68072000D03*
X158307000Y-69342000D03*
X158307000Y-70612000D03*
X158307000Y-71882000D03*
X163257000Y-71882000D03*
X163257000Y-70612000D03*
X163257000Y-69342000D03*
X163257000Y-68072000D03*
X163257000Y-66802000D03*
X163257000Y-65532000D03*
X163257000Y-64262000D03*
D15*
X117094000Y-79480500D03*
X117094000Y-81555500D03*
D17*
X130556000Y-79518000D03*
X130556000Y-81518000D03*
D15*
X169418000Y-69828500D03*
X169418000Y-71903500D03*
D18*
X159386000Y-60452000D03*
X162686000Y-60452000D03*
D19*
X160512000Y-75692000D03*
X158512000Y-75692000D03*
D13*
X132355500Y-75184000D03*
X130280500Y-75184000D03*
D15*
X161290000Y-89894500D03*
X161290000Y-91969500D03*
D13*
X126767500Y-75184000D03*
X124692500Y-75184000D03*
D19*
X135112000Y-93218000D03*
X133112000Y-93218000D03*
D14*
X130318000Y-60452000D03*
X132318000Y-60452000D03*
D20*
X146195000Y-66605000D03*
X143145000Y-68130000D03*
X144670000Y-65080000D03*
X143145000Y-66605000D03*
X146195000Y-65080000D03*
X144670000Y-68130000D03*
X144670000Y-66605000D03*
X143145000Y-65080000D03*
X146195000Y-68130000D03*
D21*
X154100000Y-59265000D03*
X154100000Y-60535000D03*
X154100000Y-61805000D03*
X154100000Y-63075000D03*
X154100000Y-64345000D03*
X154100000Y-65615000D03*
X154100000Y-66885000D03*
X154100000Y-68155000D03*
X154100000Y-69425000D03*
X154100000Y-70695000D03*
X154100000Y-71965000D03*
X154100000Y-73235000D03*
X154100000Y-74505000D03*
X154100000Y-75775000D03*
D22*
X151070000Y-77025000D03*
X149800000Y-77025000D03*
X148530000Y-77025000D03*
X147260000Y-77025000D03*
X145990000Y-77025000D03*
X144720000Y-77025000D03*
X143450000Y-77025000D03*
X142180000Y-77025000D03*
X140910000Y-77025000D03*
X139640000Y-77025000D03*
D21*
X136600000Y-75775000D03*
X136600000Y-74505000D03*
X136600000Y-73235000D03*
X136600000Y-71965000D03*
X136600000Y-70695000D03*
X136600000Y-69425000D03*
X136600000Y-68155000D03*
X136600000Y-66885000D03*
X136600000Y-65615000D03*
X136600000Y-64345000D03*
X136600000Y-63075000D03*
X136600000Y-61805000D03*
X136600000Y-60535000D03*
X136600000Y-59265000D03*
D15*
X120396000Y-79480500D03*
X120396000Y-81555500D03*
D19*
X160512000Y-79248000D03*
X158512000Y-79248000D03*
D23*
X164846000Y-83186000D03*
X164846000Y-86486000D03*
D19*
X126730000Y-60452000D03*
X124730000Y-60452000D03*
D24*
X174854000Y-86106000D03*
D25*
X168554000Y-88406000D03*
X168554000Y-86106000D03*
X168554000Y-83806000D03*
D13*
X126767500Y-70866000D03*
X124692500Y-70866000D03*
D15*
X127508000Y-79480500D03*
X127508000Y-81555500D03*
D14*
X160004000Y-102108000D03*
X158004000Y-102108000D03*
D26*
X172911000Y-69372000D03*
X172911000Y-68722000D03*
X172911000Y-68072000D03*
X172911000Y-67422000D03*
X172911000Y-66772000D03*
M02*
