G04 #@! TF.GenerationSoftware,KiCad,Pcbnew,(6.0.10-0)*
G04 #@! TF.CreationDate,2023-03-29T16:12:45-05:00*
G04 #@! TF.ProjectId,v1.0,76312e30-2e6b-4696-9361-645f70636258,rev?*
G04 #@! TF.SameCoordinates,Original*
G04 #@! TF.FileFunction,Copper,L2,Bot*
G04 #@! TF.FilePolarity,Positive*
%FSLAX46Y46*%
G04 Gerber Fmt 4.6, Leading zero omitted, Abs format (unit mm)*
G04 Created by KiCad (PCBNEW (6.0.10-0)) date 2023-03-29 16:12:45*
%MOMM*%
%LPD*%
G01*
G04 APERTURE LIST*
G04 Aperture macros list*
%AMRoundRect*
0 Rectangle with rounded corners*
0 $1 Rounding radius*
0 $2 $3 $4 $5 $6 $7 $8 $9 X,Y pos of 4 corners*
0 Add a 4 corners polygon primitive as box body*
4,1,4,$2,$3,$4,$5,$6,$7,$8,$9,$2,$3,0*
0 Add four circle primitives for the rounded corners*
1,1,$1+$1,$2,$3*
1,1,$1+$1,$4,$5*
1,1,$1+$1,$6,$7*
1,1,$1+$1,$8,$9*
0 Add four rect primitives between the rounded corners*
20,1,$1+$1,$2,$3,$4,$5,0*
20,1,$1+$1,$4,$5,$6,$7,0*
20,1,$1+$1,$6,$7,$8,$9,0*
20,1,$1+$1,$8,$9,$2,$3,0*%
G04 Aperture macros list end*
G04 #@! TA.AperFunction,ComponentPad*
%ADD10RoundRect,0.250000X0.845000X-0.620000X0.845000X0.620000X-0.845000X0.620000X-0.845000X-0.620000X0*%
G04 #@! TD*
G04 #@! TA.AperFunction,ComponentPad*
%ADD11O,2.190000X1.740000*%
G04 #@! TD*
G04 #@! TA.AperFunction,ComponentPad*
%ADD12R,2.000000X2.000000*%
G04 #@! TD*
G04 #@! TA.AperFunction,ComponentPad*
%ADD13C,2.000000*%
G04 #@! TD*
G04 #@! TA.AperFunction,ComponentPad*
%ADD14RoundRect,0.250000X-0.845000X0.620000X-0.845000X-0.620000X0.845000X-0.620000X0.845000X0.620000X0*%
G04 #@! TD*
G04 #@! TA.AperFunction,ComponentPad*
%ADD15R,1.600000X1.600000*%
G04 #@! TD*
G04 #@! TA.AperFunction,ComponentPad*
%ADD16C,1.600000*%
G04 #@! TD*
G04 #@! TA.AperFunction,ComponentPad*
%ADD17C,1.500000*%
G04 #@! TD*
G04 #@! TA.AperFunction,ComponentPad*
%ADD18R,2.600000X2.600000*%
G04 #@! TD*
G04 #@! TA.AperFunction,ComponentPad*
%ADD19C,2.600000*%
G04 #@! TD*
G04 #@! TA.AperFunction,ComponentPad*
%ADD20O,3.048000X1.524000*%
G04 #@! TD*
G04 #@! TA.AperFunction,HeatsinkPad*
%ADD21C,0.475000*%
G04 #@! TD*
G04 #@! TA.AperFunction,ComponentPad*
%ADD22O,1.800000X1.100000*%
G04 #@! TD*
G04 #@! TA.AperFunction,ComponentPad*
%ADD23O,2.200000X1.100000*%
G04 #@! TD*
G04 #@! TA.AperFunction,ViaPad*
%ADD24C,0.800000*%
G04 #@! TD*
G04 #@! TA.AperFunction,Conductor*
%ADD25C,0.762000*%
G04 #@! TD*
G04 #@! TA.AperFunction,Conductor*
%ADD26C,0.254000*%
G04 #@! TD*
G04 #@! TA.AperFunction,Conductor*
%ADD27C,0.508000*%
G04 #@! TD*
G04 APERTURE END LIST*
D10*
X165120000Y-110744000D03*
D11*
X165120000Y-108204000D03*
X165120000Y-105664000D03*
X165120000Y-103124000D03*
X165120000Y-100584000D03*
X165120000Y-98044000D03*
D12*
X144861677Y-85090000D03*
D13*
X139861677Y-85090000D03*
D14*
X125476000Y-85598000D03*
D11*
X125476000Y-88138000D03*
X125476000Y-90678000D03*
X125476000Y-93218000D03*
D13*
X127726000Y-122884000D03*
X127726000Y-116384000D03*
X123226000Y-116384000D03*
X123226000Y-122884000D03*
D15*
X150531396Y-84074000D03*
D16*
X154031396Y-84074000D03*
D17*
X129364000Y-70104000D03*
X132764000Y-70104000D03*
D13*
X162596000Y-116638000D03*
X162596000Y-123138000D03*
X167096000Y-116638000D03*
X167096000Y-123138000D03*
D14*
X125476000Y-99060000D03*
D11*
X125476000Y-101600000D03*
D18*
X138684000Y-110236000D03*
D19*
X138684000Y-116236000D03*
X143384000Y-113236000D03*
D20*
X134112000Y-84582000D03*
X134112000Y-82042000D03*
X134112000Y-87122000D03*
D21*
X143907500Y-68130000D03*
X145432500Y-65080000D03*
X146195000Y-65842500D03*
X143145000Y-65842500D03*
X145432500Y-68130000D03*
X143907500Y-65080000D03*
X143145000Y-67367500D03*
X145432500Y-66605000D03*
X144670000Y-65842500D03*
X143907500Y-66605000D03*
X146195000Y-67367500D03*
X144670000Y-67367500D03*
D22*
X154438000Y-123249000D03*
X148838000Y-123249000D03*
D23*
X151638000Y-121099000D03*
D24*
X124460000Y-60198000D03*
X154940000Y-88646000D03*
X159343000Y-91440000D03*
X165608000Y-80518000D03*
X157226000Y-89154000D03*
X158750000Y-68072000D03*
X131318000Y-68580000D03*
X123698000Y-64516000D03*
X131572000Y-77216000D03*
X127762000Y-77470000D03*
X128270000Y-82042000D03*
X132842000Y-90424000D03*
X144780000Y-98806000D03*
X165100000Y-119380000D03*
X160020000Y-123444000D03*
X145034000Y-122174000D03*
X148082000Y-117856000D03*
X130810000Y-106426000D03*
X145542000Y-107950000D03*
X155448000Y-112776000D03*
X168148000Y-85852000D03*
X164338000Y-86106000D03*
X163322000Y-73914000D03*
X164084000Y-69596000D03*
X163576000Y-67056000D03*
X158750000Y-74422000D03*
X155702000Y-79248000D03*
X156464000Y-90678000D03*
X151638000Y-96266000D03*
X148844000Y-94488000D03*
X145542000Y-93218000D03*
X149606000Y-89916000D03*
X129540000Y-78486000D03*
X154178000Y-78486000D03*
X157480000Y-96774000D03*
X140208000Y-94742000D03*
X136652000Y-91948000D03*
X142240000Y-84328000D03*
X123444000Y-71882000D03*
X127254000Y-64262000D03*
X151130000Y-67056000D03*
X145796000Y-61214000D03*
X145542000Y-73914000D03*
X168402000Y-92964000D03*
X168148000Y-59690000D03*
X164846000Y-60452000D03*
X138938000Y-60706000D03*
X151892000Y-74422000D03*
X151638000Y-60706000D03*
X159125286Y-93604714D03*
X160049786Y-94548959D03*
X160776286Y-95255714D03*
X138719500Y-71628000D03*
X139192000Y-69850000D03*
X139735500Y-68326000D03*
X140462000Y-66802000D03*
X160020000Y-85852000D03*
X156718000Y-70612000D03*
X159004000Y-86360000D03*
D25*
X159512000Y-91440000D02*
X159343000Y-91440000D01*
X157226000Y-89154000D02*
X159512000Y-91440000D01*
D26*
X161736948Y-92009052D02*
X161736948Y-71943052D01*
D27*
X125476000Y-101600000D02*
X133350000Y-101600000D01*
X133350000Y-101600000D02*
X140208000Y-94742000D01*
X129540000Y-78486000D02*
X130302000Y-79248000D01*
X130302000Y-79248000D02*
X130302000Y-96774000D01*
X130302000Y-96774000D02*
X125476000Y-101600000D01*
D26*
X160776286Y-95255714D02*
X163322000Y-92710000D01*
X163322000Y-73914000D02*
X163322000Y-92710000D01*
X161736948Y-71943052D02*
X164084000Y-69596000D01*
X160049786Y-93696214D02*
X161736948Y-92009052D01*
X159125286Y-93604714D02*
X160747000Y-91983000D01*
X160747000Y-69885000D02*
X163576000Y-67056000D01*
X160747000Y-91983000D02*
X160747000Y-69885000D01*
X156718000Y-73660000D02*
X156718000Y-78232000D01*
X156718000Y-78232000D02*
X160020000Y-81534000D01*
X160020000Y-81534000D02*
X160020000Y-85852000D01*
X157480000Y-74422000D02*
X158750000Y-74422000D01*
X156718000Y-73660000D02*
X157480000Y-74422000D01*
X156718000Y-73660000D02*
X156718000Y-70612000D01*
X159004000Y-82550000D02*
X155702000Y-79248000D01*
X159004000Y-86360000D02*
X159004000Y-82550000D01*
X156464000Y-81280000D02*
X156464000Y-90678000D01*
X157480000Y-96774000D02*
X160020000Y-99314000D01*
X160020000Y-99314000D02*
X160020000Y-106680000D01*
X160020000Y-106680000D02*
X162596000Y-109256000D01*
X162596000Y-109256000D02*
X162596000Y-116638000D01*
X165120000Y-110744000D02*
X162737974Y-108361974D01*
X162737974Y-108361974D02*
X162737974Y-102804052D01*
X162737974Y-102804052D02*
X161960000Y-102026078D01*
X161960000Y-102026078D02*
X161960000Y-99683156D01*
X161960000Y-99683156D02*
X138719500Y-76442656D01*
X138719500Y-76442656D02*
X138719500Y-71628000D01*
X139192000Y-69850000D02*
X139446000Y-70104000D01*
X139446000Y-70104000D02*
X139446000Y-76527104D01*
X163191974Y-102616000D02*
X163191974Y-105653788D01*
X139446000Y-76527104D02*
X162414000Y-99495104D01*
X162414000Y-99495104D02*
X162414000Y-101838026D01*
X165120000Y-107581814D02*
X165120000Y-108204000D01*
X162414000Y-101838026D02*
X163191974Y-102616000D01*
X163191974Y-105653788D02*
X165120000Y-107581814D01*
X165120000Y-105664000D02*
X163645974Y-104189974D01*
X162868000Y-101514052D02*
X162868000Y-99307052D01*
X163645974Y-104189974D02*
X163645974Y-102292026D01*
X163645974Y-102292026D02*
X162868000Y-101514052D01*
X139954000Y-76393052D02*
X139954000Y-68544500D01*
X162868000Y-99307052D02*
X139954000Y-76393052D01*
X139954000Y-68544500D02*
X139735500Y-68326000D01*
X140462000Y-66802000D02*
X140462000Y-76259000D01*
X140462000Y-76259000D02*
X163322000Y-99119000D01*
X163322000Y-99119000D02*
X163322000Y-101326000D01*
X163322000Y-101326000D02*
X165120000Y-103124000D01*
X162596000Y-116638000D02*
X162596000Y-123138000D01*
X154178000Y-78740000D02*
X154178000Y-78486000D01*
X154178000Y-78994000D02*
X156464000Y-81280000D01*
X154178000Y-78994000D02*
X154178000Y-78740000D01*
X142240000Y-86360000D02*
X142240000Y-84328000D01*
X136652000Y-91948000D02*
X142240000Y-86360000D01*
D27*
X151638000Y-121040000D02*
X153103000Y-121040000D01*
X153103000Y-121040000D02*
X154438000Y-122375000D01*
X154438000Y-122375000D02*
X154438000Y-123190000D01*
X148838000Y-123190000D02*
X148838000Y-122375000D01*
X148838000Y-122375000D02*
X150173000Y-121040000D01*
X150173000Y-121040000D02*
X151638000Y-121040000D01*
D26*
X160049786Y-94548959D02*
X160049786Y-93696214D01*
G04 #@! TA.AperFunction,Conductor*
G36*
X121293002Y-53488957D02*
G01*
X121339046Y-53542999D01*
X121350000Y-53594384D01*
X121350000Y-57715000D01*
X169292000Y-57715000D01*
X169360121Y-57735002D01*
X169406614Y-57788658D01*
X169418000Y-57841000D01*
X169418000Y-122098064D01*
X169397998Y-122166185D01*
X169344342Y-122212678D01*
X169326627Y-122219212D01*
X169208229Y-122253051D01*
X169200642Y-122257838D01*
X169200640Y-122257839D01*
X169143449Y-122293924D01*
X169085042Y-122330776D01*
X168988622Y-122439951D01*
X168984808Y-122448074D01*
X168984807Y-122448076D01*
X168974749Y-122469500D01*
X168926719Y-122571800D01*
X168909500Y-122682386D01*
X168909500Y-123009822D01*
X168889498Y-123077943D01*
X168835842Y-123124436D01*
X168816748Y-123131356D01*
X168759446Y-123147032D01*
X168688463Y-123145714D01*
X168629460Y-123106229D01*
X168600587Y-123035384D01*
X168590428Y-122906301D01*
X168588885Y-122896554D01*
X168535783Y-122675373D01*
X168532734Y-122665988D01*
X168445687Y-122455837D01*
X168441205Y-122447042D01*
X168338568Y-122279555D01*
X168328110Y-122270093D01*
X168319334Y-122273876D01*
X166234920Y-124358290D01*
X166228160Y-124370670D01*
X166233887Y-124378320D01*
X166405042Y-124483205D01*
X166413837Y-124487687D01*
X166616271Y-124571537D01*
X166671552Y-124616085D01*
X166693973Y-124683448D01*
X166676415Y-124752240D01*
X166640957Y-124788906D01*
X166641218Y-124789208D01*
X166530873Y-124884287D01*
X166515027Y-124908734D01*
X166514186Y-124910032D01*
X166460351Y-124956316D01*
X166408454Y-124967500D01*
X123914211Y-124967500D01*
X123846090Y-124947498D01*
X123807650Y-124908736D01*
X123795224Y-124889042D01*
X123686049Y-124792622D01*
X123677926Y-124788808D01*
X123677924Y-124788807D01*
X123600038Y-124752240D01*
X123554200Y-124730719D01*
X123545335Y-124729339D01*
X123545333Y-124729338D01*
X123476254Y-124718582D01*
X123443614Y-124713500D01*
X123120537Y-124713500D01*
X123052416Y-124693498D01*
X123005923Y-124639842D01*
X123001764Y-124629561D01*
X122975264Y-124554725D01*
X122971380Y-124483838D01*
X123006438Y-124422101D01*
X123069308Y-124389119D01*
X123103922Y-124387056D01*
X123221069Y-124396275D01*
X123230930Y-124396275D01*
X123457699Y-124378428D01*
X123467446Y-124376885D01*
X123688627Y-124323783D01*
X123698012Y-124320734D01*
X123908163Y-124233687D01*
X123916958Y-124229205D01*
X124084445Y-124126568D01*
X124093907Y-124116110D01*
X124090124Y-124107334D01*
X122867922Y-122885132D01*
X123590408Y-122885132D01*
X123590539Y-122886965D01*
X123594790Y-122893580D01*
X124446290Y-123745080D01*
X124458670Y-123751840D01*
X124466320Y-123746113D01*
X124571205Y-123574958D01*
X124575687Y-123566163D01*
X124662734Y-123356012D01*
X124665783Y-123346627D01*
X124718885Y-123125446D01*
X124720428Y-123115699D01*
X124738275Y-122888930D01*
X124738275Y-122884000D01*
X126212835Y-122884000D01*
X126231465Y-123120711D01*
X126232619Y-123125518D01*
X126232620Y-123125524D01*
X126239156Y-123152746D01*
X126286895Y-123351594D01*
X126288788Y-123356165D01*
X126288789Y-123356167D01*
X126375772Y-123566163D01*
X126377760Y-123570963D01*
X126380346Y-123575183D01*
X126499241Y-123769202D01*
X126499245Y-123769208D01*
X126501824Y-123773416D01*
X126656031Y-123953969D01*
X126836584Y-124108176D01*
X126840792Y-124110755D01*
X126840798Y-124110759D01*
X127004665Y-124211177D01*
X127039037Y-124232240D01*
X127043607Y-124234133D01*
X127043611Y-124234135D01*
X127253833Y-124321211D01*
X127258406Y-124323105D01*
X127308840Y-124335213D01*
X127484476Y-124377380D01*
X127484482Y-124377381D01*
X127489289Y-124378535D01*
X127726000Y-124397165D01*
X127962711Y-124378535D01*
X127967518Y-124377381D01*
X127967524Y-124377380D01*
X128143160Y-124335213D01*
X128193594Y-124323105D01*
X128198167Y-124321211D01*
X128408389Y-124234135D01*
X128408393Y-124234133D01*
X128412963Y-124232240D01*
X128447335Y-124211177D01*
X128611202Y-124110759D01*
X128611208Y-124110755D01*
X128615416Y-124108176D01*
X128795969Y-123953969D01*
X128950176Y-123773416D01*
X128952755Y-123769208D01*
X128952759Y-123769202D01*
X129071654Y-123575183D01*
X129074240Y-123570963D01*
X129076229Y-123566163D01*
X129163211Y-123356167D01*
X129163212Y-123356165D01*
X129165105Y-123351594D01*
X129191518Y-123241575D01*
X147424404Y-123241575D01*
X147426313Y-123262554D01*
X147436959Y-123379524D01*
X147443218Y-123448303D01*
X147444956Y-123454209D01*
X147444957Y-123454213D01*
X147477906Y-123566163D01*
X147501827Y-123647440D01*
X147597999Y-123831400D01*
X147728071Y-123993177D01*
X147732788Y-123997135D01*
X147732790Y-123997137D01*
X147763853Y-124023202D01*
X147887089Y-124126609D01*
X147892481Y-124129573D01*
X147892485Y-124129576D01*
X148035082Y-124207969D01*
X148068995Y-124226613D01*
X148266861Y-124289379D01*
X148272978Y-124290065D01*
X148272982Y-124290066D01*
X148349598Y-124298659D01*
X148428413Y-124307500D01*
X149240237Y-124307500D01*
X149243293Y-124307200D01*
X149243300Y-124307200D01*
X149388466Y-124292966D01*
X149388469Y-124292965D01*
X149394592Y-124292365D01*
X149526546Y-124252526D01*
X149587407Y-124234152D01*
X149587410Y-124234151D01*
X149593315Y-124232368D01*
X149600635Y-124228476D01*
X149771153Y-124137809D01*
X149771155Y-124137808D01*
X149776599Y-124134913D01*
X149913571Y-124023202D01*
X149932689Y-124007610D01*
X149932692Y-124007607D01*
X149937464Y-124003715D01*
X149943479Y-123996445D01*
X150065855Y-123848518D01*
X150069783Y-123843770D01*
X150076008Y-123832257D01*
X150165584Y-123666590D01*
X150165586Y-123666585D01*
X150168514Y-123661170D01*
X150229898Y-123462871D01*
X150231429Y-123448303D01*
X150250952Y-123262554D01*
X150250952Y-123262552D01*
X150251596Y-123256425D01*
X150240715Y-123136868D01*
X150233341Y-123055836D01*
X150233340Y-123055833D01*
X150232782Y-123049697D01*
X150230298Y-123041255D01*
X150175912Y-122856469D01*
X150174173Y-122850560D01*
X150078001Y-122666600D01*
X149947929Y-122504823D01*
X149949836Y-122503290D01*
X149921519Y-122450159D01*
X149927300Y-122379398D01*
X149955809Y-122335529D01*
X150311728Y-121979610D01*
X150374040Y-121945584D01*
X150444855Y-121950649D01*
X150477100Y-121969436D01*
X150477284Y-121969167D01*
X150480966Y-121971688D01*
X150481812Y-121972181D01*
X150487089Y-121976609D01*
X150492481Y-121979573D01*
X150492485Y-121979576D01*
X150663598Y-122073646D01*
X150668995Y-122076613D01*
X150866861Y-122139379D01*
X150872978Y-122140065D01*
X150872982Y-122140066D01*
X150949598Y-122148659D01*
X151028413Y-122157500D01*
X152240237Y-122157500D01*
X152243293Y-122157200D01*
X152243300Y-122157200D01*
X152388466Y-122142966D01*
X152388469Y-122142965D01*
X152394592Y-122142365D01*
X152531989Y-122100883D01*
X152587407Y-122084152D01*
X152587410Y-122084151D01*
X152593315Y-122082368D01*
X152600635Y-122078476D01*
X152771153Y-121987809D01*
X152771155Y-121987808D01*
X152776599Y-121984913D01*
X152794661Y-121970182D01*
X152860093Y-121942628D01*
X152930034Y-121954823D01*
X152963392Y-121978730D01*
X153321035Y-122336373D01*
X153355061Y-122398685D01*
X153349996Y-122469500D01*
X153329026Y-122505781D01*
X153206217Y-122654230D01*
X153203288Y-122659647D01*
X153203286Y-122659650D01*
X153110416Y-122831410D01*
X153110414Y-122831415D01*
X153107486Y-122836830D01*
X153046102Y-123035129D01*
X153045458Y-123041254D01*
X153045458Y-123041255D01*
X153034220Y-123148185D01*
X153024404Y-123241575D01*
X153026313Y-123262554D01*
X153036959Y-123379524D01*
X153043218Y-123448303D01*
X153044956Y-123454209D01*
X153044957Y-123454213D01*
X153077906Y-123566163D01*
X153101827Y-123647440D01*
X153197999Y-123831400D01*
X153328071Y-123993177D01*
X153332788Y-123997135D01*
X153332790Y-123997137D01*
X153363853Y-124023202D01*
X153487089Y-124126609D01*
X153492481Y-124129573D01*
X153492485Y-124129576D01*
X153635082Y-124207969D01*
X153668995Y-124226613D01*
X153866861Y-124289379D01*
X153872978Y-124290065D01*
X153872982Y-124290066D01*
X153949598Y-124298659D01*
X154028413Y-124307500D01*
X154840237Y-124307500D01*
X154843293Y-124307200D01*
X154843300Y-124307200D01*
X154988466Y-124292966D01*
X154988469Y-124292965D01*
X154994592Y-124292365D01*
X155126546Y-124252526D01*
X155187407Y-124234152D01*
X155187410Y-124234151D01*
X155193315Y-124232368D01*
X155200635Y-124228476D01*
X155371153Y-124137809D01*
X155371155Y-124137808D01*
X155376599Y-124134913D01*
X155513571Y-124023202D01*
X155532689Y-124007610D01*
X155532692Y-124007607D01*
X155537464Y-124003715D01*
X155543479Y-123996445D01*
X155665855Y-123848518D01*
X155669783Y-123843770D01*
X155676008Y-123832257D01*
X155765584Y-123666590D01*
X155765586Y-123666585D01*
X155768514Y-123661170D01*
X155829898Y-123462871D01*
X155831429Y-123448303D01*
X155850952Y-123262554D01*
X155850952Y-123262552D01*
X155851596Y-123256425D01*
X155840715Y-123136868D01*
X155833341Y-123055836D01*
X155833340Y-123055833D01*
X155832782Y-123049697D01*
X155830298Y-123041255D01*
X155775912Y-122856469D01*
X155774173Y-122850560D01*
X155678001Y-122666600D01*
X155547929Y-122504823D01*
X155535371Y-122494285D01*
X155393629Y-122375350D01*
X155388911Y-122371391D01*
X155383515Y-122368425D01*
X155383507Y-122368419D01*
X155249623Y-122294815D01*
X155199564Y-122244470D01*
X155189395Y-122212374D01*
X155187633Y-122212790D01*
X155185949Y-122205665D01*
X155185101Y-122198393D01*
X155182603Y-122191511D01*
X155182602Y-122191507D01*
X155160055Y-122129393D01*
X155158645Y-122125289D01*
X155136013Y-122055425D01*
X155132213Y-122049162D01*
X155129675Y-122043620D01*
X155126933Y-122038144D01*
X155124434Y-122031259D01*
X155089668Y-121978231D01*
X155084185Y-121969868D01*
X155081870Y-121966200D01*
X155043773Y-121903419D01*
X155040057Y-121899212D01*
X155040054Y-121899208D01*
X155036332Y-121894995D01*
X155036362Y-121894969D01*
X155033764Y-121892041D01*
X155030960Y-121888687D01*
X155026946Y-121882565D01*
X154970395Y-121828994D01*
X154967954Y-121826617D01*
X153689810Y-120548472D01*
X153677423Y-120534059D01*
X153668795Y-120522335D01*
X153664454Y-120516436D01*
X153623945Y-120482021D01*
X153616429Y-120475091D01*
X153610685Y-120469347D01*
X153607811Y-120467073D01*
X153607804Y-120467067D01*
X153588289Y-120451628D01*
X153584885Y-120448837D01*
X153534528Y-120406055D01*
X153534524Y-120406052D01*
X153528949Y-120401316D01*
X153522432Y-120397988D01*
X153517368Y-120394611D01*
X153512144Y-120391384D01*
X153506400Y-120386840D01*
X153443797Y-120357581D01*
X153439918Y-120355768D01*
X153435967Y-120353837D01*
X153377117Y-120323787D01*
X153370596Y-120320457D01*
X153363481Y-120318716D01*
X153357735Y-120316579D01*
X153351952Y-120314655D01*
X153345321Y-120311556D01*
X153273443Y-120296606D01*
X153269171Y-120295639D01*
X153197888Y-120278196D01*
X153192289Y-120277849D01*
X153192285Y-120277848D01*
X153186670Y-120277500D01*
X153186672Y-120277461D01*
X153182771Y-120277228D01*
X153178412Y-120276839D01*
X153171244Y-120275348D01*
X153163927Y-120275546D01*
X153093423Y-120277454D01*
X153090014Y-120277500D01*
X152901640Y-120277500D01*
X152833519Y-120257498D01*
X152820649Y-120248022D01*
X152793629Y-120225350D01*
X152788911Y-120221391D01*
X152783519Y-120218427D01*
X152783515Y-120218424D01*
X152612402Y-120124354D01*
X152607005Y-120121387D01*
X152409139Y-120058621D01*
X152403022Y-120057935D01*
X152403018Y-120057934D01*
X152326402Y-120049341D01*
X152247587Y-120040500D01*
X151035763Y-120040500D01*
X151032707Y-120040800D01*
X151032700Y-120040800D01*
X150887534Y-120055034D01*
X150887531Y-120055035D01*
X150881408Y-120055635D01*
X150749454Y-120095474D01*
X150688593Y-120113848D01*
X150688590Y-120113849D01*
X150682685Y-120115632D01*
X150677240Y-120118527D01*
X150677238Y-120118528D01*
X150504847Y-120210191D01*
X150504845Y-120210192D01*
X150499401Y-120213087D01*
X150484365Y-120225350D01*
X150455192Y-120249143D01*
X150389760Y-120276697D01*
X150375556Y-120277500D01*
X150240376Y-120277500D01*
X150221426Y-120276067D01*
X150207027Y-120273876D01*
X150207021Y-120273876D01*
X150199792Y-120272776D01*
X150192500Y-120273369D01*
X150192497Y-120273369D01*
X150146817Y-120277085D01*
X150136602Y-120277500D01*
X150128475Y-120277500D01*
X150124839Y-120277924D01*
X150124837Y-120277924D01*
X150121385Y-120278327D01*
X150100076Y-120280811D01*
X150095756Y-120281238D01*
X150022574Y-120287191D01*
X150015612Y-120289447D01*
X150009624Y-120290643D01*
X150003667Y-120292051D01*
X149996393Y-120292899D01*
X149989511Y-120295397D01*
X149989507Y-120295398D01*
X149927393Y-120317945D01*
X149923289Y-120319355D01*
X149853425Y-120341987D01*
X149847162Y-120345787D01*
X149841620Y-120348325D01*
X149836144Y-120351067D01*
X149829259Y-120353566D01*
X149823135Y-120357581D01*
X149767868Y-120393815D01*
X149764200Y-120396130D01*
X149701419Y-120434227D01*
X149697212Y-120437943D01*
X149697208Y-120437946D01*
X149692995Y-120441668D01*
X149692969Y-120441638D01*
X149690041Y-120444236D01*
X149686687Y-120447040D01*
X149680565Y-120451054D01*
X149675532Y-120456367D01*
X149626995Y-120507604D01*
X149624617Y-120510046D01*
X148346472Y-121788190D01*
X148332059Y-121800577D01*
X148314436Y-121813546D01*
X148309692Y-121819129D01*
X148309693Y-121819129D01*
X148280021Y-121854055D01*
X148273091Y-121861571D01*
X148267347Y-121867315D01*
X148265073Y-121870189D01*
X148265067Y-121870196D01*
X148249628Y-121889711D01*
X148246837Y-121893115D01*
X148204055Y-121943472D01*
X148204052Y-121943476D01*
X148199316Y-121949051D01*
X148195988Y-121955568D01*
X148192611Y-121960632D01*
X148189384Y-121965856D01*
X148184840Y-121971600D01*
X148181741Y-121978231D01*
X148153768Y-122038082D01*
X148151837Y-122042033D01*
X148118457Y-122107404D01*
X148116716Y-122114519D01*
X148114579Y-122120265D01*
X148112656Y-122126047D01*
X148109556Y-122132679D01*
X148102587Y-122166185D01*
X148094606Y-122204555D01*
X148093635Y-122208846D01*
X148092711Y-122212622D01*
X148057090Y-122274036D01*
X148029476Y-122293924D01*
X147904847Y-122360191D01*
X147904845Y-122360192D01*
X147899401Y-122363087D01*
X147839632Y-122411833D01*
X147743311Y-122490390D01*
X147743308Y-122490393D01*
X147738536Y-122494285D01*
X147734608Y-122499033D01*
X147734607Y-122499034D01*
X147669435Y-122577813D01*
X147606217Y-122654230D01*
X147603288Y-122659647D01*
X147603286Y-122659650D01*
X147510416Y-122831410D01*
X147510414Y-122831415D01*
X147507486Y-122836830D01*
X147446102Y-123035129D01*
X147445458Y-123041254D01*
X147445458Y-123041255D01*
X147434220Y-123148185D01*
X147424404Y-123241575D01*
X129191518Y-123241575D01*
X129212844Y-123152746D01*
X129219380Y-123125524D01*
X129219381Y-123125518D01*
X129220535Y-123120711D01*
X129239165Y-122884000D01*
X129220535Y-122647289D01*
X129205991Y-122586706D01*
X129177852Y-122469500D01*
X129165105Y-122416406D01*
X129148099Y-122375350D01*
X129076135Y-122201611D01*
X129076133Y-122201607D01*
X129074240Y-122197037D01*
X129070851Y-122191507D01*
X128952759Y-121998798D01*
X128952755Y-121998792D01*
X128950176Y-121994584D01*
X128816968Y-121838618D01*
X128799177Y-121817787D01*
X128795969Y-121814031D01*
X128790319Y-121809205D01*
X128727767Y-121755781D01*
X128615416Y-121659824D01*
X128611208Y-121657245D01*
X128611202Y-121657241D01*
X128417183Y-121538346D01*
X128412963Y-121535760D01*
X128408393Y-121533867D01*
X128408389Y-121533865D01*
X128198167Y-121446789D01*
X128198165Y-121446788D01*
X128193594Y-121444895D01*
X128113391Y-121425640D01*
X127967524Y-121390620D01*
X127967518Y-121390619D01*
X127962711Y-121389465D01*
X127726000Y-121370835D01*
X127489289Y-121389465D01*
X127484482Y-121390619D01*
X127484476Y-121390620D01*
X127338609Y-121425640D01*
X127258406Y-121444895D01*
X127253835Y-121446788D01*
X127253833Y-121446789D01*
X127043611Y-121533865D01*
X127043607Y-121533867D01*
X127039037Y-121535760D01*
X127034817Y-121538346D01*
X126840798Y-121657241D01*
X126840792Y-121657245D01*
X126836584Y-121659824D01*
X126724233Y-121755781D01*
X126661682Y-121809205D01*
X126656031Y-121814031D01*
X126652823Y-121817787D01*
X126635032Y-121838618D01*
X126501824Y-121994584D01*
X126499245Y-121998792D01*
X126499241Y-121998798D01*
X126381149Y-122191507D01*
X126377760Y-122197037D01*
X126375867Y-122201607D01*
X126375865Y-122201611D01*
X126303901Y-122375350D01*
X126286895Y-122416406D01*
X126274148Y-122469500D01*
X126246010Y-122586706D01*
X126231465Y-122647289D01*
X126212835Y-122884000D01*
X124738275Y-122884000D01*
X124738275Y-122879070D01*
X124720428Y-122652301D01*
X124718885Y-122642554D01*
X124665783Y-122421373D01*
X124662734Y-122411988D01*
X124575687Y-122201837D01*
X124571205Y-122193042D01*
X124468568Y-122025555D01*
X124458110Y-122016093D01*
X124449334Y-122019876D01*
X123598022Y-122871188D01*
X123590408Y-122885132D01*
X122867922Y-122885132D01*
X122005710Y-122022920D01*
X121993330Y-122016160D01*
X121985680Y-122021887D01*
X121880795Y-122193042D01*
X121876313Y-122201837D01*
X121789266Y-122411988D01*
X121786217Y-122421373D01*
X121733115Y-122642554D01*
X121731572Y-122652301D01*
X121713725Y-122879070D01*
X121713725Y-122888930D01*
X121723814Y-123017120D01*
X121709218Y-123086600D01*
X121659376Y-123137159D01*
X121590111Y-123152746D01*
X121563686Y-123148186D01*
X121503980Y-123131178D01*
X121443946Y-123093279D01*
X121413932Y-123028938D01*
X121412500Y-123009999D01*
X121412500Y-122685487D01*
X121397080Y-122577813D01*
X121390653Y-122563677D01*
X121340508Y-122453390D01*
X121340507Y-122453388D01*
X121336792Y-122445218D01*
X121241713Y-122334873D01*
X121119485Y-122255648D01*
X120993898Y-122218090D01*
X120934365Y-122179409D01*
X120905194Y-122114682D01*
X120904000Y-122097373D01*
X120904000Y-121651890D01*
X122358093Y-121651890D01*
X122361876Y-121660666D01*
X123213188Y-122511978D01*
X123227132Y-122519592D01*
X123228965Y-122519461D01*
X123235580Y-122515210D01*
X124087080Y-121663710D01*
X124093840Y-121651330D01*
X124088113Y-121643680D01*
X123916958Y-121538795D01*
X123908163Y-121534313D01*
X123698012Y-121447266D01*
X123688627Y-121444217D01*
X123467446Y-121391115D01*
X123457699Y-121389572D01*
X123230930Y-121371725D01*
X123221070Y-121371725D01*
X122994301Y-121389572D01*
X122984554Y-121391115D01*
X122763373Y-121444217D01*
X122753988Y-121447266D01*
X122543837Y-121534313D01*
X122535042Y-121538795D01*
X122367555Y-121641432D01*
X122358093Y-121651890D01*
X120904000Y-121651890D01*
X120904000Y-117616670D01*
X122358160Y-117616670D01*
X122363887Y-117624320D01*
X122535042Y-117729205D01*
X122543837Y-117733687D01*
X122753988Y-117820734D01*
X122763373Y-117823783D01*
X122984554Y-117876885D01*
X122994301Y-117878428D01*
X123221070Y-117896275D01*
X123230930Y-117896275D01*
X123457699Y-117878428D01*
X123467446Y-117876885D01*
X123688627Y-117823783D01*
X123698012Y-117820734D01*
X123908163Y-117733687D01*
X123916958Y-117729205D01*
X124084445Y-117626568D01*
X124093907Y-117616110D01*
X124090124Y-117607334D01*
X123238812Y-116756022D01*
X123224868Y-116748408D01*
X123223035Y-116748539D01*
X123216420Y-116752790D01*
X122364920Y-117604290D01*
X122358160Y-117616670D01*
X120904000Y-117616670D01*
X120904000Y-116388930D01*
X121713725Y-116388930D01*
X121731572Y-116615699D01*
X121733115Y-116625446D01*
X121786217Y-116846627D01*
X121789266Y-116856012D01*
X121876313Y-117066163D01*
X121880795Y-117074958D01*
X121983432Y-117242445D01*
X121993890Y-117251907D01*
X122002666Y-117248124D01*
X122853978Y-116396812D01*
X122860356Y-116385132D01*
X123590408Y-116385132D01*
X123590539Y-116386965D01*
X123594790Y-116393580D01*
X124446290Y-117245080D01*
X124458670Y-117251840D01*
X124466320Y-117246113D01*
X124571205Y-117074958D01*
X124575687Y-117066163D01*
X124662734Y-116856012D01*
X124665783Y-116846627D01*
X124718885Y-116625446D01*
X124720428Y-116615699D01*
X124738275Y-116388930D01*
X124738275Y-116384000D01*
X126212835Y-116384000D01*
X126231465Y-116620711D01*
X126232619Y-116625518D01*
X126232620Y-116625524D01*
X126262122Y-116748408D01*
X126286895Y-116851594D01*
X126288788Y-116856165D01*
X126288789Y-116856167D01*
X126375772Y-117066163D01*
X126377760Y-117070963D01*
X126380346Y-117075183D01*
X126499241Y-117269202D01*
X126499245Y-117269208D01*
X126501824Y-117273416D01*
X126656031Y-117453969D01*
X126836584Y-117608176D01*
X126840792Y-117610755D01*
X126840798Y-117610759D01*
X127004665Y-117711177D01*
X127039037Y-117732240D01*
X127043607Y-117734133D01*
X127043611Y-117734135D01*
X127253833Y-117821211D01*
X127258406Y-117823105D01*
X127336060Y-117841748D01*
X127484476Y-117877380D01*
X127484482Y-117877381D01*
X127489289Y-117878535D01*
X127726000Y-117897165D01*
X127962711Y-117878535D01*
X127967518Y-117877381D01*
X127967524Y-117877380D01*
X128115940Y-117841748D01*
X128193594Y-117823105D01*
X128198167Y-117821211D01*
X128408389Y-117734135D01*
X128408393Y-117734133D01*
X128412963Y-117732240D01*
X128447335Y-117711177D01*
X128496733Y-117680906D01*
X137603839Y-117680906D01*
X137612553Y-117692427D01*
X137719452Y-117770809D01*
X137727351Y-117775745D01*
X137956905Y-117896519D01*
X137965454Y-117900236D01*
X138210327Y-117985749D01*
X138219336Y-117988163D01*
X138474166Y-118036544D01*
X138483423Y-118037598D01*
X138742607Y-118047783D01*
X138751921Y-118047457D01*
X139009753Y-118019220D01*
X139018930Y-118017519D01*
X139269758Y-117951481D01*
X139278574Y-117948445D01*
X139516880Y-117846062D01*
X139525167Y-117841748D01*
X139745718Y-117705266D01*
X139753268Y-117699780D01*
X139758559Y-117695301D01*
X139766997Y-117682497D01*
X139760935Y-117672145D01*
X138696812Y-116608022D01*
X138682868Y-116600408D01*
X138681035Y-116600539D01*
X138674420Y-116604790D01*
X137610497Y-117668713D01*
X137603839Y-117680906D01*
X128496733Y-117680906D01*
X128611202Y-117610759D01*
X128611208Y-117610755D01*
X128615416Y-117608176D01*
X128795969Y-117453969D01*
X128950176Y-117273416D01*
X128952755Y-117269208D01*
X128952759Y-117269202D01*
X129071654Y-117075183D01*
X129074240Y-117070963D01*
X129076229Y-117066163D01*
X129163211Y-116856167D01*
X129163212Y-116856165D01*
X129165105Y-116851594D01*
X129189878Y-116748408D01*
X129219380Y-116625524D01*
X129219381Y-116625518D01*
X129220535Y-116620711D01*
X129239165Y-116384000D01*
X129224149Y-116193211D01*
X136871775Y-116193211D01*
X136884220Y-116452288D01*
X136885356Y-116461543D01*
X136935961Y-116715945D01*
X136938449Y-116724917D01*
X137026095Y-116969033D01*
X137029895Y-116977568D01*
X137152658Y-117206042D01*
X137157666Y-117213904D01*
X137227720Y-117307716D01*
X137238979Y-117316165D01*
X137251397Y-117309393D01*
X138311978Y-116248812D01*
X138318356Y-116237132D01*
X139048408Y-116237132D01*
X139048539Y-116238965D01*
X139052790Y-116245580D01*
X140120094Y-117312884D01*
X140132474Y-117319644D01*
X140140815Y-117313400D01*
X140274832Y-117105048D01*
X140279275Y-117096864D01*
X140385807Y-116860370D01*
X140389001Y-116851594D01*
X140459402Y-116601972D01*
X140461262Y-116592830D01*
X140494187Y-116334019D01*
X140494668Y-116327733D01*
X140496987Y-116239160D01*
X140496836Y-116232851D01*
X140477501Y-115972663D01*
X140476125Y-115963457D01*
X140418878Y-115710467D01*
X140416154Y-115701556D01*
X140322143Y-115459806D01*
X140318132Y-115451397D01*
X140189422Y-115226202D01*
X140184211Y-115218476D01*
X140140996Y-115163658D01*
X140129071Y-115155187D01*
X140117537Y-115161673D01*
X139056022Y-116223188D01*
X139048408Y-116237132D01*
X138318356Y-116237132D01*
X138319592Y-116234868D01*
X138319461Y-116233035D01*
X138315210Y-116226420D01*
X137249816Y-115161026D01*
X137236507Y-115153758D01*
X137226472Y-115160878D01*
X137210937Y-115179556D01*
X137205531Y-115187135D01*
X137070965Y-115408891D01*
X137066736Y-115417192D01*
X136966432Y-115656389D01*
X136963471Y-115665239D01*
X136899628Y-115916625D01*
X136898006Y-115925822D01*
X136872020Y-116183885D01*
X136871775Y-116193211D01*
X129224149Y-116193211D01*
X129220535Y-116147289D01*
X129165105Y-115916406D01*
X129146543Y-115871592D01*
X129076135Y-115701611D01*
X129076133Y-115701607D01*
X129074240Y-115697037D01*
X129049331Y-115656389D01*
X128952759Y-115498798D01*
X128952755Y-115498792D01*
X128950176Y-115494584D01*
X128795969Y-115314031D01*
X128615416Y-115159824D01*
X128611208Y-115157245D01*
X128611202Y-115157241D01*
X128417183Y-115038346D01*
X128412963Y-115035760D01*
X128408393Y-115033867D01*
X128408389Y-115033865D01*
X128198167Y-114946789D01*
X128198165Y-114946788D01*
X128193594Y-114944895D01*
X128113391Y-114925640D01*
X127967524Y-114890620D01*
X127967518Y-114890619D01*
X127962711Y-114889465D01*
X127726000Y-114870835D01*
X127489289Y-114889465D01*
X127484482Y-114890619D01*
X127484476Y-114890620D01*
X127338609Y-114925640D01*
X127258406Y-114944895D01*
X127253835Y-114946788D01*
X127253833Y-114946789D01*
X127043611Y-115033865D01*
X127043607Y-115033867D01*
X127039037Y-115035760D01*
X127034817Y-115038346D01*
X126840798Y-115157241D01*
X126840792Y-115157245D01*
X126836584Y-115159824D01*
X126656031Y-115314031D01*
X126501824Y-115494584D01*
X126499245Y-115498792D01*
X126499241Y-115498798D01*
X126402669Y-115656389D01*
X126377760Y-115697037D01*
X126375867Y-115701607D01*
X126375865Y-115701611D01*
X126305457Y-115871592D01*
X126286895Y-115916406D01*
X126231465Y-116147289D01*
X126212835Y-116384000D01*
X124738275Y-116384000D01*
X124738275Y-116379070D01*
X124720428Y-116152301D01*
X124718885Y-116142554D01*
X124665783Y-115921373D01*
X124662734Y-115911988D01*
X124575687Y-115701837D01*
X124571205Y-115693042D01*
X124468568Y-115525555D01*
X124458110Y-115516093D01*
X124449334Y-115519876D01*
X123598022Y-116371188D01*
X123590408Y-116385132D01*
X122860356Y-116385132D01*
X122861592Y-116382868D01*
X122861461Y-116381035D01*
X122857210Y-116374420D01*
X122005710Y-115522920D01*
X121993330Y-115516160D01*
X121985680Y-115521887D01*
X121880795Y-115693042D01*
X121876313Y-115701837D01*
X121789266Y-115911988D01*
X121786217Y-115921373D01*
X121733115Y-116142554D01*
X121731572Y-116152301D01*
X121713725Y-116379070D01*
X121713725Y-116388930D01*
X120904000Y-116388930D01*
X120904000Y-115151890D01*
X122358093Y-115151890D01*
X122361876Y-115160666D01*
X123213188Y-116011978D01*
X123227132Y-116019592D01*
X123228965Y-116019461D01*
X123235580Y-116015210D01*
X124087080Y-115163710D01*
X124093840Y-115151330D01*
X124088113Y-115143680D01*
X123916958Y-115038795D01*
X123908163Y-115034313D01*
X123698012Y-114947266D01*
X123688627Y-114944217D01*
X123467446Y-114891115D01*
X123457699Y-114889572D01*
X123230930Y-114871725D01*
X123221070Y-114871725D01*
X122994301Y-114889572D01*
X122984554Y-114891115D01*
X122763373Y-114944217D01*
X122753988Y-114947266D01*
X122543837Y-115034313D01*
X122535042Y-115038795D01*
X122367555Y-115141432D01*
X122358093Y-115151890D01*
X120904000Y-115151890D01*
X120904000Y-114788689D01*
X137601102Y-114788689D01*
X137605675Y-114798465D01*
X138671188Y-115863978D01*
X138685132Y-115871592D01*
X138686965Y-115871461D01*
X138693580Y-115867210D01*
X139758349Y-114802441D01*
X139764733Y-114790751D01*
X139755321Y-114778641D01*
X139608045Y-114676471D01*
X139600010Y-114671738D01*
X139367376Y-114557016D01*
X139358743Y-114553528D01*
X139111703Y-114474450D01*
X139102643Y-114472274D01*
X138846630Y-114430580D01*
X138837343Y-114429768D01*
X138577992Y-114426373D01*
X138568681Y-114426943D01*
X138311682Y-114461919D01*
X138302546Y-114463860D01*
X138053543Y-114536439D01*
X138044800Y-114539707D01*
X137809252Y-114648296D01*
X137801097Y-114652816D01*
X137610240Y-114777947D01*
X137601102Y-114788689D01*
X120904000Y-114788689D01*
X120904000Y-113188526D01*
X141571050Y-113188526D01*
X141583947Y-113457019D01*
X141636388Y-113720656D01*
X141727220Y-113973646D01*
X141854450Y-114210431D01*
X141857241Y-114214168D01*
X141857245Y-114214175D01*
X141938887Y-114323506D01*
X142015281Y-114425810D01*
X142018590Y-114429090D01*
X142018595Y-114429096D01*
X142147637Y-114557016D01*
X142206180Y-114615050D01*
X142209942Y-114617808D01*
X142209945Y-114617811D01*
X142322299Y-114700192D01*
X142422954Y-114773995D01*
X142427089Y-114776171D01*
X142427093Y-114776173D01*
X142656698Y-114896975D01*
X142660840Y-114899154D01*
X142914613Y-114987775D01*
X142919206Y-114988647D01*
X143174109Y-115037042D01*
X143174112Y-115037042D01*
X143178698Y-115037913D01*
X143306370Y-115042929D01*
X143442625Y-115048283D01*
X143442630Y-115048283D01*
X143447293Y-115048466D01*
X143551607Y-115037042D01*
X143709844Y-115019713D01*
X143709850Y-115019712D01*
X143714497Y-115019203D01*
X143719021Y-115018012D01*
X143969918Y-114951956D01*
X143969920Y-114951955D01*
X143974441Y-114950765D01*
X143982585Y-114947266D01*
X144217120Y-114846502D01*
X144217122Y-114846501D01*
X144221414Y-114844657D01*
X144340071Y-114771230D01*
X144446017Y-114705669D01*
X144446021Y-114705666D01*
X144449990Y-114703210D01*
X144655149Y-114529530D01*
X144832382Y-114327434D01*
X144977797Y-114101361D01*
X145088199Y-113856278D01*
X145125209Y-113725051D01*
X145159893Y-113602072D01*
X145159894Y-113602069D01*
X145161163Y-113597568D01*
X145179043Y-113457019D01*
X145194688Y-113334045D01*
X145194688Y-113334041D01*
X145195086Y-113330915D01*
X145197571Y-113236000D01*
X145177650Y-112967937D01*
X145118327Y-112705763D01*
X145020902Y-112455238D01*
X144887518Y-112221864D01*
X144721105Y-112010769D01*
X144525317Y-111826591D01*
X144334443Y-111694176D01*
X144308299Y-111676039D01*
X144308296Y-111676037D01*
X144304457Y-111673374D01*
X144300264Y-111671306D01*
X144067564Y-111556551D01*
X144067561Y-111556550D01*
X144063376Y-111554486D01*
X144015745Y-111539239D01*
X143930718Y-111512022D01*
X143807370Y-111472538D01*
X143802763Y-111471788D01*
X143802760Y-111471787D01*
X143546674Y-111430081D01*
X143546675Y-111430081D01*
X143542063Y-111429330D01*
X143411719Y-111427624D01*
X143277961Y-111425873D01*
X143277958Y-111425873D01*
X143273284Y-111425812D01*
X143006937Y-111462060D01*
X142748874Y-111537278D01*
X142504763Y-111649815D01*
X142500854Y-111652378D01*
X142283881Y-111794631D01*
X142283876Y-111794635D01*
X142279968Y-111797197D01*
X142179697Y-111886692D01*
X142089557Y-111967146D01*
X142079426Y-111976188D01*
X141907544Y-112182854D01*
X141768096Y-112412656D01*
X141664148Y-112660545D01*
X141597981Y-112921077D01*
X141571050Y-113188526D01*
X120904000Y-113188526D01*
X120904000Y-111584134D01*
X136875500Y-111584134D01*
X136882255Y-111646316D01*
X136933385Y-111782705D01*
X137020739Y-111899261D01*
X137137295Y-111986615D01*
X137273684Y-112037745D01*
X137335866Y-112044500D01*
X140032134Y-112044500D01*
X140094316Y-112037745D01*
X140230705Y-111986615D01*
X140347261Y-111899261D01*
X140434615Y-111782705D01*
X140485745Y-111646316D01*
X140492500Y-111584134D01*
X140492500Y-108887866D01*
X140485745Y-108825684D01*
X140434615Y-108689295D01*
X140347261Y-108572739D01*
X140230705Y-108485385D01*
X140094316Y-108434255D01*
X140032134Y-108427500D01*
X137335866Y-108427500D01*
X137273684Y-108434255D01*
X137137295Y-108485385D01*
X137020739Y-108572739D01*
X136933385Y-108689295D01*
X136882255Y-108825684D01*
X136875500Y-108887866D01*
X136875500Y-111584134D01*
X120904000Y-111584134D01*
X120904000Y-101534829D01*
X123869052Y-101534829D01*
X123877828Y-101768604D01*
X123878923Y-101773822D01*
X123922435Y-101981196D01*
X123925868Y-101997559D01*
X124011797Y-102215146D01*
X124014566Y-102219709D01*
X124103721Y-102366631D01*
X124133159Y-102415144D01*
X124286483Y-102591834D01*
X124467386Y-102740165D01*
X124670695Y-102855896D01*
X124890596Y-102935716D01*
X124895845Y-102936665D01*
X124895848Y-102936666D01*
X124970572Y-102950178D01*
X125120803Y-102977344D01*
X125124942Y-102977539D01*
X125124949Y-102977540D01*
X125143828Y-102978430D01*
X125143835Y-102978430D01*
X125145316Y-102978500D01*
X125759738Y-102978500D01*
X125827641Y-102972738D01*
X125928791Y-102964156D01*
X125928795Y-102964155D01*
X125934102Y-102963705D01*
X125939259Y-102962367D01*
X125939262Y-102962366D01*
X126155371Y-102906275D01*
X126155375Y-102906274D01*
X126160540Y-102904933D01*
X126165406Y-102902741D01*
X126165409Y-102902740D01*
X126368964Y-102811045D01*
X126373837Y-102808850D01*
X126567896Y-102678202D01*
X126737168Y-102516724D01*
X126814127Y-102413287D01*
X126870837Y-102370574D01*
X126915216Y-102362500D01*
X133282624Y-102362500D01*
X133301574Y-102363933D01*
X133315973Y-102366124D01*
X133315979Y-102366124D01*
X133323208Y-102367224D01*
X133330500Y-102366631D01*
X133330503Y-102366631D01*
X133376183Y-102362915D01*
X133386398Y-102362500D01*
X133394525Y-102362500D01*
X133398161Y-102362076D01*
X133398163Y-102362076D01*
X133401615Y-102361673D01*
X133422924Y-102359189D01*
X133427244Y-102358762D01*
X133500426Y-102352809D01*
X133507388Y-102350553D01*
X133513376Y-102349357D01*
X133519333Y-102347949D01*
X133526607Y-102347101D01*
X133533489Y-102344603D01*
X133533493Y-102344602D01*
X133595607Y-102322055D01*
X133599711Y-102320645D01*
X133669575Y-102298013D01*
X133675838Y-102294213D01*
X133681380Y-102291675D01*
X133686856Y-102288933D01*
X133693741Y-102286434D01*
X133755132Y-102246185D01*
X133758800Y-102243870D01*
X133821581Y-102205773D01*
X133825786Y-102202059D01*
X133825789Y-102202057D01*
X133830005Y-102198333D01*
X133830031Y-102198362D01*
X133832962Y-102195762D01*
X133836316Y-102192958D01*
X133842435Y-102188946D01*
X133895989Y-102132413D01*
X133898366Y-102129972D01*
X140371515Y-95656823D01*
X140434412Y-95622672D01*
X140483824Y-95612169D01*
X140483833Y-95612166D01*
X140490288Y-95610794D01*
X140496319Y-95608109D01*
X140658722Y-95535803D01*
X140658724Y-95535802D01*
X140664752Y-95533118D01*
X140819253Y-95420866D01*
X140947040Y-95278944D01*
X141042527Y-95113556D01*
X141101542Y-94931928D01*
X141121504Y-94742000D01*
X141106090Y-94595344D01*
X141102232Y-94558635D01*
X141102232Y-94558633D01*
X141101542Y-94552072D01*
X141042527Y-94370444D01*
X140947040Y-94205056D01*
X140887026Y-94138403D01*
X140823675Y-94068045D01*
X140823674Y-94068044D01*
X140819253Y-94063134D01*
X140664752Y-93950882D01*
X140658724Y-93948198D01*
X140658722Y-93948197D01*
X140496319Y-93875891D01*
X140496318Y-93875891D01*
X140490288Y-93873206D01*
X140396888Y-93853353D01*
X140309944Y-93834872D01*
X140309939Y-93834872D01*
X140303487Y-93833500D01*
X140112513Y-93833500D01*
X140106061Y-93834872D01*
X140106056Y-93834872D01*
X140019112Y-93853353D01*
X139925712Y-93873206D01*
X139919682Y-93875891D01*
X139919681Y-93875891D01*
X139757278Y-93948197D01*
X139757276Y-93948198D01*
X139751248Y-93950882D01*
X139596747Y-94063134D01*
X139592326Y-94068044D01*
X139592325Y-94068045D01*
X139528975Y-94138403D01*
X139468960Y-94205056D01*
X139373473Y-94370444D01*
X139354432Y-94429045D01*
X139321335Y-94530907D01*
X139290597Y-94581065D01*
X133071067Y-100800595D01*
X133008755Y-100834621D01*
X132981972Y-100837500D01*
X127621028Y-100837500D01*
X127552907Y-100817498D01*
X127506414Y-100763842D01*
X127496310Y-100693568D01*
X127525804Y-100628988D01*
X127531933Y-100622405D01*
X130793528Y-97360810D01*
X130807941Y-97348423D01*
X130819665Y-97339795D01*
X130825564Y-97335454D01*
X130859979Y-97294945D01*
X130866909Y-97287429D01*
X130872653Y-97281685D01*
X130874927Y-97278811D01*
X130874933Y-97278804D01*
X130890372Y-97259289D01*
X130893163Y-97255885D01*
X130935945Y-97205528D01*
X130935948Y-97205524D01*
X130940684Y-97199949D01*
X130944012Y-97193432D01*
X130947389Y-97188368D01*
X130950616Y-97183144D01*
X130955160Y-97177400D01*
X130986242Y-97110896D01*
X130988147Y-97106999D01*
X131021543Y-97041596D01*
X131023284Y-97034482D01*
X131025416Y-97028748D01*
X131027344Y-97022952D01*
X131030444Y-97016320D01*
X131045395Y-96944440D01*
X131046365Y-96940156D01*
X131063804Y-96868888D01*
X131064500Y-96857670D01*
X131064537Y-96857672D01*
X131064773Y-96853773D01*
X131065163Y-96849402D01*
X131066652Y-96842243D01*
X131064546Y-96764423D01*
X131064500Y-96761014D01*
X131064500Y-91948000D01*
X135738496Y-91948000D01*
X135739186Y-91954565D01*
X135753351Y-92089334D01*
X135758458Y-92137928D01*
X135817473Y-92319556D01*
X135912960Y-92484944D01*
X135917378Y-92489851D01*
X135917379Y-92489852D01*
X136036325Y-92621955D01*
X136040747Y-92626866D01*
X136113922Y-92680031D01*
X136182865Y-92730121D01*
X136195248Y-92739118D01*
X136201276Y-92741802D01*
X136201278Y-92741803D01*
X136362529Y-92813596D01*
X136369712Y-92816794D01*
X136447136Y-92833251D01*
X136550056Y-92855128D01*
X136550061Y-92855128D01*
X136556513Y-92856500D01*
X136747487Y-92856500D01*
X136753939Y-92855128D01*
X136753944Y-92855128D01*
X136856864Y-92833251D01*
X136934288Y-92816794D01*
X136941471Y-92813596D01*
X137102722Y-92741803D01*
X137102724Y-92741802D01*
X137108752Y-92739118D01*
X137121136Y-92730121D01*
X137190078Y-92680031D01*
X137263253Y-92626866D01*
X137267675Y-92621955D01*
X137386621Y-92489852D01*
X137386622Y-92489851D01*
X137391040Y-92484944D01*
X137486527Y-92319556D01*
X137545542Y-92137928D01*
X137550650Y-92089334D01*
X137562575Y-91975867D01*
X137589588Y-91910210D01*
X137598790Y-91899942D01*
X142633477Y-86865255D01*
X142641803Y-86857678D01*
X142648303Y-86853553D01*
X142695107Y-86803712D01*
X142697862Y-86800870D01*
X142717638Y-86781094D01*
X142720129Y-86777883D01*
X142727838Y-86768856D01*
X142752789Y-86742286D01*
X142758217Y-86736506D01*
X142768022Y-86718671D01*
X142778876Y-86702147D01*
X142786491Y-86692330D01*
X142786492Y-86692329D01*
X142791349Y-86686067D01*
X142808969Y-86645350D01*
X142814192Y-86634689D01*
X142831749Y-86602753D01*
X142831751Y-86602748D01*
X142835569Y-86595803D01*
X142837539Y-86588129D01*
X142837542Y-86588122D01*
X142840632Y-86576087D01*
X142847036Y-86557382D01*
X142851967Y-86545987D01*
X142855117Y-86538708D01*
X142862060Y-86494873D01*
X142864467Y-86483251D01*
X142875500Y-86440282D01*
X142875500Y-86419935D01*
X142877051Y-86400224D01*
X142878995Y-86387950D01*
X142880235Y-86380121D01*
X142876059Y-86335944D01*
X142875500Y-86324086D01*
X142875500Y-85028303D01*
X142895502Y-84960182D01*
X142907864Y-84943993D01*
X142974621Y-84869852D01*
X142974622Y-84869851D01*
X142979040Y-84864944D01*
X143074527Y-84699556D01*
X143107344Y-84598556D01*
X143147418Y-84539950D01*
X143212814Y-84512313D01*
X143282771Y-84524420D01*
X143335077Y-84572426D01*
X143353177Y-84637492D01*
X143353177Y-86138134D01*
X143359932Y-86200316D01*
X143411062Y-86336705D01*
X143498416Y-86453261D01*
X143614972Y-86540615D01*
X143751361Y-86591745D01*
X143813543Y-86598500D01*
X145909811Y-86598500D01*
X145971993Y-86591745D01*
X146108382Y-86540615D01*
X146224938Y-86453261D01*
X146312292Y-86336705D01*
X146363422Y-86200316D01*
X146370177Y-86138134D01*
X146370177Y-85296255D01*
X146390179Y-85228134D01*
X146443835Y-85181641D01*
X146514109Y-85171537D01*
X146578689Y-85201031D01*
X146585272Y-85207160D01*
X157127311Y-95749199D01*
X157161337Y-95811511D01*
X157156272Y-95882326D01*
X157113725Y-95939162D01*
X157089465Y-95953401D01*
X157023248Y-95982882D01*
X156868747Y-96095134D01*
X156740960Y-96237056D01*
X156645473Y-96402444D01*
X156586458Y-96584072D01*
X156585768Y-96590633D01*
X156585768Y-96590635D01*
X156570309Y-96737725D01*
X156566496Y-96774000D01*
X156567186Y-96780565D01*
X156573669Y-96842243D01*
X156586458Y-96963928D01*
X156645473Y-97145556D01*
X156740960Y-97310944D01*
X156745378Y-97315851D01*
X156745379Y-97315852D01*
X156864325Y-97447955D01*
X156868747Y-97452866D01*
X157023248Y-97565118D01*
X157029276Y-97567802D01*
X157029278Y-97567803D01*
X157191681Y-97640109D01*
X157197712Y-97642794D01*
X157291113Y-97662647D01*
X157378056Y-97681128D01*
X157378061Y-97681128D01*
X157384513Y-97682500D01*
X157437578Y-97682500D01*
X157505699Y-97702502D01*
X157526673Y-97719405D01*
X159347595Y-99540327D01*
X159381621Y-99602639D01*
X159384500Y-99629422D01*
X159384500Y-106600980D01*
X159383970Y-106612214D01*
X159382292Y-106619719D01*
X159382541Y-106627638D01*
X159384438Y-106688012D01*
X159384500Y-106691969D01*
X159384500Y-106719983D01*
X159384996Y-106723908D01*
X159384996Y-106723909D01*
X159385008Y-106724004D01*
X159385941Y-106735849D01*
X159387335Y-106780205D01*
X159389547Y-106787817D01*
X159393013Y-106799748D01*
X159397023Y-106819112D01*
X159399573Y-106839299D01*
X159402489Y-106846663D01*
X159402490Y-106846668D01*
X159415907Y-106880556D01*
X159419752Y-106891785D01*
X159432131Y-106934393D01*
X159436169Y-106941220D01*
X159436170Y-106941223D01*
X159442488Y-106951906D01*
X159451188Y-106969664D01*
X159455761Y-106981215D01*
X159455765Y-106981221D01*
X159458681Y-106988588D01*
X159463339Y-106994999D01*
X159463340Y-106995001D01*
X159484764Y-107024488D01*
X159491281Y-107034410D01*
X159509826Y-107065768D01*
X159509829Y-107065772D01*
X159513866Y-107072598D01*
X159528250Y-107086982D01*
X159541091Y-107102016D01*
X159553058Y-107118487D01*
X159559166Y-107123540D01*
X159587255Y-107146777D01*
X159596035Y-107154767D01*
X161923595Y-109482328D01*
X161957621Y-109544640D01*
X161960500Y-109571423D01*
X161960500Y-115187660D01*
X161940498Y-115255781D01*
X161900336Y-115295092D01*
X161706584Y-115413824D01*
X161526031Y-115568031D01*
X161371824Y-115748584D01*
X161369245Y-115752792D01*
X161369241Y-115752798D01*
X161296524Y-115871461D01*
X161247760Y-115951037D01*
X161245867Y-115955607D01*
X161245865Y-115955611D01*
X161164394Y-116152301D01*
X161156895Y-116170406D01*
X161140389Y-116239160D01*
X161103316Y-116393580D01*
X161101465Y-116401289D01*
X161082835Y-116638000D01*
X161101465Y-116874711D01*
X161102619Y-116879518D01*
X161102620Y-116879524D01*
X161126159Y-116977568D01*
X161156895Y-117105594D01*
X161158788Y-117110165D01*
X161158789Y-117110167D01*
X161245772Y-117320163D01*
X161247760Y-117324963D01*
X161250346Y-117329183D01*
X161369241Y-117523202D01*
X161369245Y-117523208D01*
X161371824Y-117527416D01*
X161526031Y-117707969D01*
X161706584Y-117862176D01*
X161900336Y-117980908D01*
X161947966Y-118033555D01*
X161960500Y-118088340D01*
X161960500Y-121687660D01*
X161940498Y-121755781D01*
X161900336Y-121795092D01*
X161706584Y-121913824D01*
X161526031Y-122068031D01*
X161371824Y-122248584D01*
X161369245Y-122252792D01*
X161369241Y-122252798D01*
X161251326Y-122445218D01*
X161247760Y-122451037D01*
X161245867Y-122455607D01*
X161245865Y-122455611D01*
X161164394Y-122652301D01*
X161156895Y-122670406D01*
X161152852Y-122687248D01*
X161103316Y-122893580D01*
X161101465Y-122901289D01*
X161082835Y-123138000D01*
X161101465Y-123374711D01*
X161102619Y-123379518D01*
X161102620Y-123379524D01*
X161122630Y-123462871D01*
X161156895Y-123605594D01*
X161158788Y-123610165D01*
X161158789Y-123610167D01*
X161245772Y-123820163D01*
X161247760Y-123824963D01*
X161250346Y-123829183D01*
X161369241Y-124023202D01*
X161369245Y-124023208D01*
X161371824Y-124027416D01*
X161526031Y-124207969D01*
X161706584Y-124362176D01*
X161710792Y-124364755D01*
X161710798Y-124364759D01*
X161904084Y-124483205D01*
X161909037Y-124486240D01*
X161913607Y-124488133D01*
X161913611Y-124488135D01*
X162123833Y-124575211D01*
X162128406Y-124577105D01*
X162187191Y-124591218D01*
X162354476Y-124631380D01*
X162354482Y-124631381D01*
X162359289Y-124632535D01*
X162596000Y-124651165D01*
X162832711Y-124632535D01*
X162837518Y-124631381D01*
X162837524Y-124631380D01*
X163004809Y-124591218D01*
X163063594Y-124577105D01*
X163068167Y-124575211D01*
X163278389Y-124488135D01*
X163278393Y-124488133D01*
X163282963Y-124486240D01*
X163287916Y-124483205D01*
X163481202Y-124364759D01*
X163481208Y-124364755D01*
X163485416Y-124362176D01*
X163665969Y-124207969D01*
X163820176Y-124027416D01*
X163822755Y-124023208D01*
X163822759Y-124023202D01*
X163941654Y-123829183D01*
X163944240Y-123824963D01*
X163946229Y-123820163D01*
X164033211Y-123610167D01*
X164033212Y-123610165D01*
X164035105Y-123605594D01*
X164069370Y-123462871D01*
X164089380Y-123379524D01*
X164089381Y-123379518D01*
X164090535Y-123374711D01*
X164108777Y-123142930D01*
X165583725Y-123142930D01*
X165601572Y-123369699D01*
X165603115Y-123379446D01*
X165656217Y-123600627D01*
X165659266Y-123610012D01*
X165746313Y-123820163D01*
X165750795Y-123828958D01*
X165853432Y-123996445D01*
X165863890Y-124005907D01*
X165872666Y-124002124D01*
X166723978Y-123150812D01*
X166731592Y-123136868D01*
X166731461Y-123135035D01*
X166727210Y-123128420D01*
X165875710Y-122276920D01*
X165863330Y-122270160D01*
X165855680Y-122275887D01*
X165750795Y-122447042D01*
X165746313Y-122455837D01*
X165659266Y-122665988D01*
X165656217Y-122675373D01*
X165603115Y-122896554D01*
X165601572Y-122906301D01*
X165583725Y-123133070D01*
X165583725Y-123142930D01*
X164108777Y-123142930D01*
X164109165Y-123138000D01*
X164090535Y-122901289D01*
X164088685Y-122893580D01*
X164039148Y-122687248D01*
X164035105Y-122670406D01*
X164027606Y-122652301D01*
X163946135Y-122455611D01*
X163946133Y-122455607D01*
X163944240Y-122451037D01*
X163940674Y-122445218D01*
X163822759Y-122252798D01*
X163822755Y-122252792D01*
X163820176Y-122248584D01*
X163665969Y-122068031D01*
X163485416Y-121913824D01*
X163472469Y-121905890D01*
X166228093Y-121905890D01*
X166231876Y-121914666D01*
X167083188Y-122765978D01*
X167097132Y-122773592D01*
X167098965Y-122773461D01*
X167105580Y-122769210D01*
X167957080Y-121917710D01*
X167963840Y-121905330D01*
X167958113Y-121897680D01*
X167786958Y-121792795D01*
X167778163Y-121788313D01*
X167568012Y-121701266D01*
X167558627Y-121698217D01*
X167337446Y-121645115D01*
X167327699Y-121643572D01*
X167100930Y-121625725D01*
X167091070Y-121625725D01*
X166864301Y-121643572D01*
X166854554Y-121645115D01*
X166633373Y-121698217D01*
X166623988Y-121701266D01*
X166413837Y-121788313D01*
X166405042Y-121792795D01*
X166237555Y-121895432D01*
X166228093Y-121905890D01*
X163472469Y-121905890D01*
X163291664Y-121795092D01*
X163244034Y-121742445D01*
X163231500Y-121687660D01*
X163231500Y-118088340D01*
X163251502Y-118020219D01*
X163291664Y-117980908D01*
X163471555Y-117870670D01*
X166228160Y-117870670D01*
X166233887Y-117878320D01*
X166405042Y-117983205D01*
X166413837Y-117987687D01*
X166623988Y-118074734D01*
X166633373Y-118077783D01*
X166854554Y-118130885D01*
X166864301Y-118132428D01*
X167091070Y-118150275D01*
X167100930Y-118150275D01*
X167327699Y-118132428D01*
X167337446Y-118130885D01*
X167558627Y-118077783D01*
X167568012Y-118074734D01*
X167778163Y-117987687D01*
X167786958Y-117983205D01*
X167954445Y-117880568D01*
X167963907Y-117870110D01*
X167960124Y-117861334D01*
X167108812Y-117010022D01*
X167094868Y-117002408D01*
X167093035Y-117002539D01*
X167086420Y-117006790D01*
X166234920Y-117858290D01*
X166228160Y-117870670D01*
X163471555Y-117870670D01*
X163485416Y-117862176D01*
X163665969Y-117707969D01*
X163820176Y-117527416D01*
X163822755Y-117523208D01*
X163822759Y-117523202D01*
X163941654Y-117329183D01*
X163944240Y-117324963D01*
X163946229Y-117320163D01*
X164033211Y-117110167D01*
X164033212Y-117110165D01*
X164035105Y-117105594D01*
X164065841Y-116977568D01*
X164089380Y-116879524D01*
X164089381Y-116879518D01*
X164090535Y-116874711D01*
X164108777Y-116642930D01*
X165583725Y-116642930D01*
X165601572Y-116869699D01*
X165603115Y-116879446D01*
X165656217Y-117100627D01*
X165659266Y-117110012D01*
X165746313Y-117320163D01*
X165750795Y-117328958D01*
X165853432Y-117496445D01*
X165863890Y-117505907D01*
X165872666Y-117502124D01*
X166723978Y-116650812D01*
X166730356Y-116639132D01*
X167460408Y-116639132D01*
X167460539Y-116640965D01*
X167464790Y-116647580D01*
X168316290Y-117499080D01*
X168328670Y-117505840D01*
X168336320Y-117500113D01*
X168441205Y-117328958D01*
X168445687Y-117320163D01*
X168532734Y-117110012D01*
X168535783Y-117100627D01*
X168588885Y-116879446D01*
X168590428Y-116869699D01*
X168608275Y-116642930D01*
X168608275Y-116633070D01*
X168590428Y-116406301D01*
X168588885Y-116396554D01*
X168535783Y-116175373D01*
X168532734Y-116165988D01*
X168445687Y-115955837D01*
X168441205Y-115947042D01*
X168338568Y-115779555D01*
X168328110Y-115770093D01*
X168319334Y-115773876D01*
X167468022Y-116625188D01*
X167460408Y-116639132D01*
X166730356Y-116639132D01*
X166731592Y-116636868D01*
X166731461Y-116635035D01*
X166727210Y-116628420D01*
X165875710Y-115776920D01*
X165863330Y-115770160D01*
X165855680Y-115775887D01*
X165750795Y-115947042D01*
X165746313Y-115955837D01*
X165659266Y-116165988D01*
X165656217Y-116175373D01*
X165603115Y-116396554D01*
X165601572Y-116406301D01*
X165583725Y-116633070D01*
X165583725Y-116642930D01*
X164108777Y-116642930D01*
X164109165Y-116638000D01*
X164090535Y-116401289D01*
X164088685Y-116393580D01*
X164051611Y-116239160D01*
X164035105Y-116170406D01*
X164027606Y-116152301D01*
X163946135Y-115955611D01*
X163946133Y-115955607D01*
X163944240Y-115951037D01*
X163895476Y-115871461D01*
X163822759Y-115752798D01*
X163822755Y-115752792D01*
X163820176Y-115748584D01*
X163665969Y-115568031D01*
X163485416Y-115413824D01*
X163472469Y-115405890D01*
X166228093Y-115405890D01*
X166231876Y-115414666D01*
X167083188Y-116265978D01*
X167097132Y-116273592D01*
X167098965Y-116273461D01*
X167105580Y-116269210D01*
X167957080Y-115417710D01*
X167963840Y-115405330D01*
X167958113Y-115397680D01*
X167786958Y-115292795D01*
X167778163Y-115288313D01*
X167568012Y-115201266D01*
X167558627Y-115198217D01*
X167337446Y-115145115D01*
X167327699Y-115143572D01*
X167100930Y-115125725D01*
X167091070Y-115125725D01*
X166864301Y-115143572D01*
X166854554Y-115145115D01*
X166633373Y-115198217D01*
X166623988Y-115201266D01*
X166413837Y-115288313D01*
X166405042Y-115292795D01*
X166237555Y-115395432D01*
X166228093Y-115405890D01*
X163472469Y-115405890D01*
X163291664Y-115295092D01*
X163244034Y-115242445D01*
X163231500Y-115187660D01*
X163231500Y-110058422D01*
X163251502Y-109990301D01*
X163305158Y-109943808D01*
X163375432Y-109933704D01*
X163440012Y-109963198D01*
X163446595Y-109969327D01*
X163479595Y-110002327D01*
X163513621Y-110064639D01*
X163516500Y-110091422D01*
X163516500Y-111414400D01*
X163516837Y-111417646D01*
X163516837Y-111417650D01*
X163521581Y-111463368D01*
X163527474Y-111520166D01*
X163529655Y-111526702D01*
X163529655Y-111526704D01*
X163533183Y-111537278D01*
X163583450Y-111687946D01*
X163676522Y-111838348D01*
X163801697Y-111963305D01*
X163807927Y-111967145D01*
X163807928Y-111967146D01*
X163945090Y-112051694D01*
X163952262Y-112056115D01*
X164032005Y-112082564D01*
X164113611Y-112109632D01*
X164113613Y-112109632D01*
X164120139Y-112111797D01*
X164126975Y-112112497D01*
X164126978Y-112112498D01*
X164170031Y-112116909D01*
X164224600Y-112122500D01*
X166015400Y-112122500D01*
X166018646Y-112122163D01*
X166018650Y-112122163D01*
X166114308Y-112112238D01*
X166114312Y-112112237D01*
X166121166Y-112111526D01*
X166127702Y-112109345D01*
X166127704Y-112109345D01*
X166259806Y-112065272D01*
X166288946Y-112055550D01*
X166439348Y-111962478D01*
X166564305Y-111837303D01*
X166572553Y-111823923D01*
X166653275Y-111692968D01*
X166653276Y-111692966D01*
X166657115Y-111686738D01*
X166706038Y-111539239D01*
X166710632Y-111525389D01*
X166710632Y-111525387D01*
X166712797Y-111518861D01*
X166723500Y-111414400D01*
X166723500Y-110073600D01*
X166721925Y-110058422D01*
X166713238Y-109974692D01*
X166713237Y-109974688D01*
X166712526Y-109967834D01*
X166701140Y-109933704D01*
X166658868Y-109807002D01*
X166656550Y-109800054D01*
X166563478Y-109649652D01*
X166438303Y-109524695D01*
X166287738Y-109431885D01*
X166289062Y-109429738D01*
X166244710Y-109390688D01*
X166225248Y-109322411D01*
X166245788Y-109254451D01*
X166264272Y-109232239D01*
X166377306Y-109124410D01*
X166377316Y-109124398D01*
X166381168Y-109120724D01*
X166520813Y-108933035D01*
X166543779Y-108887866D01*
X166624420Y-108729256D01*
X166624420Y-108729255D01*
X166626838Y-108724500D01*
X166696210Y-108501083D01*
X166698291Y-108485385D01*
X166726248Y-108274455D01*
X166726248Y-108274451D01*
X166726948Y-108269171D01*
X166725936Y-108242200D01*
X166718372Y-108040727D01*
X166718172Y-108035396D01*
X166670132Y-107806441D01*
X166584203Y-107588854D01*
X166462841Y-107388856D01*
X166309517Y-107212166D01*
X166128614Y-107063835D01*
X166123984Y-107061199D01*
X166123979Y-107061196D01*
X166091484Y-107042699D01*
X166042178Y-106991616D01*
X166028317Y-106921985D01*
X166054301Y-106855915D01*
X166083450Y-106828677D01*
X166167216Y-106772282D01*
X166211896Y-106742202D01*
X166218549Y-106735856D01*
X166286240Y-106671281D01*
X166381168Y-106580724D01*
X166520813Y-106393035D01*
X166626838Y-106184500D01*
X166696210Y-105961083D01*
X166726948Y-105729171D01*
X166718172Y-105495396D01*
X166670132Y-105266441D01*
X166584203Y-105048854D01*
X166462841Y-104848856D01*
X166309517Y-104672166D01*
X166128614Y-104523835D01*
X166123984Y-104521199D01*
X166123979Y-104521196D01*
X166091484Y-104502699D01*
X166042178Y-104451616D01*
X166028317Y-104381985D01*
X166054301Y-104315915D01*
X166083450Y-104288677D01*
X166123148Y-104261951D01*
X166211896Y-104202202D01*
X166381168Y-104040724D01*
X166520813Y-103853035D01*
X166626838Y-103644500D01*
X166696210Y-103421083D01*
X166726948Y-103189171D01*
X166718172Y-102955396D01*
X166697295Y-102855896D01*
X166671229Y-102731668D01*
X166671228Y-102731665D01*
X166670132Y-102726441D01*
X166584203Y-102508854D01*
X166524571Y-102410583D01*
X166465609Y-102313417D01*
X166465607Y-102313414D01*
X166462841Y-102308856D01*
X166309517Y-102132166D01*
X166128614Y-101983835D01*
X166123984Y-101981199D01*
X166123979Y-101981196D01*
X166091484Y-101962699D01*
X166042178Y-101911616D01*
X166028317Y-101841985D01*
X166054301Y-101775915D01*
X166083450Y-101748677D01*
X166123148Y-101721951D01*
X166211896Y-101662202D01*
X166381168Y-101500724D01*
X166520813Y-101313035D01*
X166525958Y-101302917D01*
X166624420Y-101109256D01*
X166624420Y-101109255D01*
X166626838Y-101104500D01*
X166696210Y-100881083D01*
X166706878Y-100800595D01*
X166726248Y-100654455D01*
X166726248Y-100654451D01*
X166726948Y-100649171D01*
X166718172Y-100415396D01*
X166670132Y-100186441D01*
X166584203Y-99968854D01*
X166462841Y-99768856D01*
X166309517Y-99592166D01*
X166128614Y-99443835D01*
X166123984Y-99441199D01*
X166123979Y-99441196D01*
X166091484Y-99422699D01*
X166042178Y-99371616D01*
X166028317Y-99301985D01*
X166054301Y-99235915D01*
X166083450Y-99208677D01*
X166127113Y-99179281D01*
X166211896Y-99122202D01*
X166225720Y-99109015D01*
X166377311Y-98964403D01*
X166381168Y-98960724D01*
X166520813Y-98773035D01*
X166626838Y-98564500D01*
X166696210Y-98341083D01*
X166696911Y-98335795D01*
X166726248Y-98114455D01*
X166726248Y-98114451D01*
X166726948Y-98109171D01*
X166718172Y-97875396D01*
X166691214Y-97746917D01*
X166671229Y-97651668D01*
X166671228Y-97651665D01*
X166670132Y-97646441D01*
X166584203Y-97428854D01*
X166502945Y-97294945D01*
X166465609Y-97233417D01*
X166465607Y-97233414D01*
X166462841Y-97228856D01*
X166309517Y-97052166D01*
X166128614Y-96903835D01*
X165925305Y-96788104D01*
X165705404Y-96708284D01*
X165700155Y-96707335D01*
X165700152Y-96707334D01*
X165618960Y-96692652D01*
X165475197Y-96666656D01*
X165471058Y-96666461D01*
X165471051Y-96666460D01*
X165452172Y-96665570D01*
X165452165Y-96665570D01*
X165450684Y-96665500D01*
X164836262Y-96665500D01*
X164768359Y-96671262D01*
X164667209Y-96679844D01*
X164667205Y-96679845D01*
X164661898Y-96680295D01*
X164656741Y-96681633D01*
X164656738Y-96681634D01*
X164440629Y-96737725D01*
X164440625Y-96737726D01*
X164435460Y-96739067D01*
X164430594Y-96741259D01*
X164430591Y-96741260D01*
X164320739Y-96790745D01*
X164222163Y-96835150D01*
X164028104Y-96965798D01*
X163858832Y-97127276D01*
X163719187Y-97314965D01*
X163716771Y-97319716D01*
X163716769Y-97319720D01*
X163658756Y-97433823D01*
X163613162Y-97523500D01*
X163543790Y-97746917D01*
X163543089Y-97752204D01*
X163543089Y-97752205D01*
X163514799Y-97965652D01*
X163513052Y-97978829D01*
X163513252Y-97984158D01*
X163513252Y-97984160D01*
X163517875Y-98107316D01*
X163500443Y-98176139D01*
X163448569Y-98224612D01*
X163378723Y-98237344D01*
X163313082Y-98210295D01*
X163302869Y-98201137D01*
X161288428Y-96186696D01*
X161254402Y-96124384D01*
X161259467Y-96053569D01*
X161303461Y-95995667D01*
X161361634Y-95953401D01*
X161382195Y-95938463D01*
X161382197Y-95938461D01*
X161387539Y-95934580D01*
X161391961Y-95929669D01*
X161510907Y-95797566D01*
X161510908Y-95797565D01*
X161515326Y-95792658D01*
X161610813Y-95627270D01*
X161669828Y-95445642D01*
X161686861Y-95283581D01*
X161713874Y-95217924D01*
X161723076Y-95207656D01*
X163715477Y-93215255D01*
X163723803Y-93207678D01*
X163730303Y-93203553D01*
X163777101Y-93153718D01*
X163779855Y-93150877D01*
X163799638Y-93131094D01*
X163802129Y-93127883D01*
X163809838Y-93118856D01*
X163834789Y-93092286D01*
X163840217Y-93086506D01*
X163850022Y-93068671D01*
X163860876Y-93052147D01*
X163868491Y-93042330D01*
X163868492Y-93042329D01*
X163873349Y-93036067D01*
X163890969Y-92995350D01*
X163896192Y-92984689D01*
X163913749Y-92952753D01*
X163913751Y-92952748D01*
X163917569Y-92945803D01*
X163919539Y-92938129D01*
X163919542Y-92938122D01*
X163922632Y-92926087D01*
X163929036Y-92907382D01*
X163933967Y-92895987D01*
X163937117Y-92888708D01*
X163944060Y-92844873D01*
X163946467Y-92833251D01*
X163949756Y-92820441D01*
X163957500Y-92790282D01*
X163957500Y-92769935D01*
X163959051Y-92750224D01*
X163960995Y-92737950D01*
X163962235Y-92730121D01*
X163959633Y-92702595D01*
X163958059Y-92685944D01*
X163957500Y-92674086D01*
X163957500Y-74614303D01*
X163977502Y-74546182D01*
X163989864Y-74529993D01*
X164056621Y-74455852D01*
X164056622Y-74455851D01*
X164061040Y-74450944D01*
X164156527Y-74285556D01*
X164215542Y-74103928D01*
X164235504Y-73914000D01*
X164231946Y-73880148D01*
X164216232Y-73730635D01*
X164216232Y-73730633D01*
X164215542Y-73724072D01*
X164156527Y-73542444D01*
X164061040Y-73377056D01*
X164055911Y-73371359D01*
X163937675Y-73240045D01*
X163937674Y-73240044D01*
X163933253Y-73235134D01*
X163778752Y-73122882D01*
X163772724Y-73120198D01*
X163772722Y-73120197D01*
X163610319Y-73047891D01*
X163610318Y-73047891D01*
X163604288Y-73045206D01*
X163510887Y-73025353D01*
X163423944Y-73006872D01*
X163423939Y-73006872D01*
X163417487Y-73005500D01*
X163226513Y-73005500D01*
X163220061Y-73006872D01*
X163220056Y-73006872D01*
X163133113Y-73025353D01*
X163039712Y-73045206D01*
X163033682Y-73047891D01*
X163033681Y-73047891D01*
X162871278Y-73120197D01*
X162871276Y-73120198D01*
X162865248Y-73122882D01*
X162710747Y-73235134D01*
X162706326Y-73240044D01*
X162706325Y-73240045D01*
X162592084Y-73366923D01*
X162531638Y-73404163D01*
X162460655Y-73402811D01*
X162401670Y-73363298D01*
X162373412Y-73298167D01*
X162372448Y-73282613D01*
X162372448Y-72258474D01*
X162392450Y-72190353D01*
X162409353Y-72169379D01*
X164037328Y-70541405D01*
X164099640Y-70507379D01*
X164126423Y-70504500D01*
X164179487Y-70504500D01*
X164185939Y-70503128D01*
X164185944Y-70503128D01*
X164272888Y-70484647D01*
X164366288Y-70464794D01*
X164462244Y-70422072D01*
X164534722Y-70389803D01*
X164534724Y-70389802D01*
X164540752Y-70387118D01*
X164695253Y-70274866D01*
X164731400Y-70234721D01*
X164818621Y-70137852D01*
X164818622Y-70137851D01*
X164823040Y-70132944D01*
X164918527Y-69967556D01*
X164977542Y-69785928D01*
X164982177Y-69741834D01*
X164996814Y-69602565D01*
X164997504Y-69596000D01*
X164988307Y-69508494D01*
X164978232Y-69412635D01*
X164978232Y-69412633D01*
X164977542Y-69406072D01*
X164918527Y-69224444D01*
X164823040Y-69059056D01*
X164778820Y-69009944D01*
X164699675Y-68922045D01*
X164699674Y-68922044D01*
X164695253Y-68917134D01*
X164540752Y-68804882D01*
X164534724Y-68802198D01*
X164534722Y-68802197D01*
X164372319Y-68729891D01*
X164372318Y-68729891D01*
X164366288Y-68727206D01*
X164272888Y-68707353D01*
X164185944Y-68688872D01*
X164185939Y-68688872D01*
X164179487Y-68687500D01*
X163988513Y-68687500D01*
X163982061Y-68688872D01*
X163982056Y-68688872D01*
X163895112Y-68707353D01*
X163801712Y-68727206D01*
X163795682Y-68729891D01*
X163795681Y-68729891D01*
X163633278Y-68802197D01*
X163633276Y-68802198D01*
X163627248Y-68804882D01*
X163472747Y-68917134D01*
X163468326Y-68922044D01*
X163468325Y-68922045D01*
X163389181Y-69009944D01*
X163344960Y-69059056D01*
X163249473Y-69224444D01*
X163190458Y-69406072D01*
X163189768Y-69412633D01*
X163189768Y-69412635D01*
X163173425Y-69568133D01*
X163146412Y-69633790D01*
X163137210Y-69644058D01*
X161597595Y-71183672D01*
X161535283Y-71217698D01*
X161464467Y-71212633D01*
X161407632Y-71170086D01*
X161382821Y-71103566D01*
X161382500Y-71094577D01*
X161382500Y-70200422D01*
X161402502Y-70132301D01*
X161419405Y-70111327D01*
X163529327Y-68001405D01*
X163591639Y-67967379D01*
X163618422Y-67964500D01*
X163671487Y-67964500D01*
X163677939Y-67963128D01*
X163677944Y-67963128D01*
X163764888Y-67944647D01*
X163858288Y-67924794D01*
X163864319Y-67922109D01*
X164026722Y-67849803D01*
X164026724Y-67849802D01*
X164032752Y-67847118D01*
X164187253Y-67734866D01*
X164204071Y-67716188D01*
X164310621Y-67597852D01*
X164310622Y-67597851D01*
X164315040Y-67592944D01*
X164395296Y-67453937D01*
X164407223Y-67433279D01*
X164407224Y-67433278D01*
X164410527Y-67427556D01*
X164469542Y-67245928D01*
X164489504Y-67056000D01*
X164487734Y-67039159D01*
X164470232Y-66872635D01*
X164470232Y-66872633D01*
X164469542Y-66866072D01*
X164410527Y-66684444D01*
X164387251Y-66644128D01*
X164362947Y-66602033D01*
X164315040Y-66519056D01*
X164235254Y-66430444D01*
X164191675Y-66382045D01*
X164191674Y-66382044D01*
X164187253Y-66377134D01*
X164032752Y-66264882D01*
X164026724Y-66262198D01*
X164026722Y-66262197D01*
X163864319Y-66189891D01*
X163864318Y-66189891D01*
X163858288Y-66187206D01*
X163750275Y-66164247D01*
X163677944Y-66148872D01*
X163677939Y-66148872D01*
X163671487Y-66147500D01*
X163480513Y-66147500D01*
X163474061Y-66148872D01*
X163474056Y-66148872D01*
X163401725Y-66164247D01*
X163293712Y-66187206D01*
X163287682Y-66189891D01*
X163287681Y-66189891D01*
X163125278Y-66262197D01*
X163125276Y-66262198D01*
X163119248Y-66264882D01*
X162964747Y-66377134D01*
X162960326Y-66382044D01*
X162960325Y-66382045D01*
X162916747Y-66430444D01*
X162836960Y-66519056D01*
X162789053Y-66602033D01*
X162764750Y-66644128D01*
X162741473Y-66684444D01*
X162682458Y-66866072D01*
X162681768Y-66872633D01*
X162681768Y-66872635D01*
X162665425Y-67028132D01*
X162638412Y-67093789D01*
X162629210Y-67104057D01*
X160353517Y-69379750D01*
X160345191Y-69387326D01*
X160338697Y-69391447D01*
X160333274Y-69397222D01*
X160291915Y-69441265D01*
X160289160Y-69444107D01*
X160269361Y-69463906D01*
X160266937Y-69467031D01*
X160266929Y-69467040D01*
X160266863Y-69467126D01*
X160259155Y-69476151D01*
X160228783Y-69508494D01*
X160224965Y-69515438D01*
X160224964Y-69515440D01*
X160218978Y-69526329D01*
X160208127Y-69542847D01*
X160195650Y-69558933D01*
X160178024Y-69599666D01*
X160172807Y-69610314D01*
X160151431Y-69649197D01*
X160149460Y-69656872D01*
X160149458Y-69656878D01*
X160146369Y-69668911D01*
X160139966Y-69687613D01*
X160131883Y-69706292D01*
X160130644Y-69714117D01*
X160124940Y-69750127D01*
X160122535Y-69761740D01*
X160111500Y-69804718D01*
X160111500Y-69825065D01*
X160109949Y-69844776D01*
X160106765Y-69864879D01*
X160107511Y-69872771D01*
X160110941Y-69909056D01*
X160111500Y-69920914D01*
X160111500Y-80422577D01*
X160091498Y-80490698D01*
X160037842Y-80537191D01*
X159967568Y-80547295D01*
X159902988Y-80517801D01*
X159896405Y-80511672D01*
X157390405Y-78005672D01*
X157356379Y-77943360D01*
X157353500Y-77916577D01*
X157353500Y-75186942D01*
X157373502Y-75118821D01*
X157427158Y-75072328D01*
X157467643Y-75061501D01*
X157479839Y-75060348D01*
X157504057Y-75058059D01*
X157515914Y-75057500D01*
X158043601Y-75057500D01*
X158111722Y-75077502D01*
X158128908Y-75092109D01*
X158129420Y-75091540D01*
X158134332Y-75095963D01*
X158138747Y-75100866D01*
X158293248Y-75213118D01*
X158299276Y-75215802D01*
X158299278Y-75215803D01*
X158461681Y-75288109D01*
X158467712Y-75290794D01*
X158561112Y-75310647D01*
X158648056Y-75329128D01*
X158648061Y-75329128D01*
X158654513Y-75330500D01*
X158845487Y-75330500D01*
X158851939Y-75329128D01*
X158851944Y-75329128D01*
X158938888Y-75310647D01*
X159032288Y-75290794D01*
X159038319Y-75288109D01*
X159200722Y-75215803D01*
X159200724Y-75215802D01*
X159206752Y-75213118D01*
X159361253Y-75100866D01*
X159386949Y-75072328D01*
X159484621Y-74963852D01*
X159484622Y-74963851D01*
X159489040Y-74958944D01*
X159584527Y-74793556D01*
X159643542Y-74611928D01*
X159663504Y-74422000D01*
X159643542Y-74232072D01*
X159584527Y-74050444D01*
X159489040Y-73885056D01*
X159361253Y-73743134D01*
X159206752Y-73630882D01*
X159200724Y-73628198D01*
X159200722Y-73628197D01*
X159038319Y-73555891D01*
X159038318Y-73555891D01*
X159032288Y-73553206D01*
X158938887Y-73533353D01*
X158851944Y-73514872D01*
X158851939Y-73514872D01*
X158845487Y-73513500D01*
X158654513Y-73513500D01*
X158648061Y-73514872D01*
X158648056Y-73514872D01*
X158561113Y-73533353D01*
X158467712Y-73553206D01*
X158461682Y-73555891D01*
X158461681Y-73555891D01*
X158299278Y-73628197D01*
X158299276Y-73628198D01*
X158293248Y-73630882D01*
X158287907Y-73634762D01*
X158287906Y-73634763D01*
X158236697Y-73671969D01*
X158138747Y-73743134D01*
X158134332Y-73748037D01*
X158129420Y-73752460D01*
X158127779Y-73750638D01*
X158076790Y-73782050D01*
X158043601Y-73786500D01*
X157795423Y-73786500D01*
X157727302Y-73766498D01*
X157706327Y-73749595D01*
X157390404Y-73433671D01*
X157356379Y-73371359D01*
X157353500Y-73344576D01*
X157353500Y-71312303D01*
X157373502Y-71244182D01*
X157385864Y-71227993D01*
X157452621Y-71153852D01*
X157452622Y-71153851D01*
X157457040Y-71148944D01*
X157552527Y-70983556D01*
X157611542Y-70801928D01*
X157620206Y-70719500D01*
X157630814Y-70618565D01*
X157631504Y-70612000D01*
X157620508Y-70507379D01*
X157612232Y-70428635D01*
X157612232Y-70428633D01*
X157611542Y-70422072D01*
X157552527Y-70240444D01*
X157457040Y-70075056D01*
X157431064Y-70046206D01*
X157333675Y-69938045D01*
X157333674Y-69938044D01*
X157329253Y-69933134D01*
X157207639Y-69844776D01*
X157180094Y-69824763D01*
X157180093Y-69824762D01*
X157174752Y-69820882D01*
X157168724Y-69818198D01*
X157168722Y-69818197D01*
X157006319Y-69745891D01*
X157006318Y-69745891D01*
X157000288Y-69743206D01*
X156906888Y-69723353D01*
X156819944Y-69704872D01*
X156819939Y-69704872D01*
X156813487Y-69703500D01*
X156622513Y-69703500D01*
X156616061Y-69704872D01*
X156616056Y-69704872D01*
X156529112Y-69723353D01*
X156435712Y-69743206D01*
X156429682Y-69745891D01*
X156429681Y-69745891D01*
X156267278Y-69818197D01*
X156267276Y-69818198D01*
X156261248Y-69820882D01*
X156255907Y-69824762D01*
X156255906Y-69824763D01*
X156228361Y-69844776D01*
X156106747Y-69933134D01*
X156102326Y-69938044D01*
X156102325Y-69938045D01*
X156004937Y-70046206D01*
X155978960Y-70075056D01*
X155883473Y-70240444D01*
X155824458Y-70422072D01*
X155823768Y-70428633D01*
X155823768Y-70428635D01*
X155815492Y-70507379D01*
X155804496Y-70612000D01*
X155805186Y-70618565D01*
X155815795Y-70719500D01*
X155824458Y-70801928D01*
X155883473Y-70983556D01*
X155978960Y-71148944D01*
X155983378Y-71153851D01*
X155983379Y-71153852D01*
X156050136Y-71227993D01*
X156080854Y-71292000D01*
X156082500Y-71312303D01*
X156082500Y-73580980D01*
X156081970Y-73592214D01*
X156080292Y-73599719D01*
X156080541Y-73607638D01*
X156082438Y-73668012D01*
X156082500Y-73671969D01*
X156082500Y-78152980D01*
X156081970Y-78164214D01*
X156080292Y-78171719D01*
X156080541Y-78179638D01*
X156082438Y-78240012D01*
X156082500Y-78243969D01*
X156082500Y-78244484D01*
X156062498Y-78312605D01*
X156008842Y-78359098D01*
X155938568Y-78369202D01*
X155930303Y-78367731D01*
X155803944Y-78340872D01*
X155803939Y-78340872D01*
X155797487Y-78339500D01*
X155606513Y-78339500D01*
X155600061Y-78340872D01*
X155600056Y-78340872D01*
X155514312Y-78359098D01*
X155419712Y-78379206D01*
X155413682Y-78381891D01*
X155413681Y-78381891D01*
X155369481Y-78401570D01*
X155253884Y-78453037D01*
X155183518Y-78462471D01*
X155119221Y-78432365D01*
X155081407Y-78372276D01*
X155077326Y-78351101D01*
X155072232Y-78302635D01*
X155072232Y-78302633D01*
X155071542Y-78296072D01*
X155012527Y-78114444D01*
X154917040Y-77949056D01*
X154789253Y-77807134D01*
X154634752Y-77694882D01*
X154628724Y-77692198D01*
X154628722Y-77692197D01*
X154466319Y-77619891D01*
X154466318Y-77619891D01*
X154460288Y-77617206D01*
X154366887Y-77597353D01*
X154279944Y-77578872D01*
X154279939Y-77578872D01*
X154273487Y-77577500D01*
X154082513Y-77577500D01*
X154076061Y-77578872D01*
X154076056Y-77578872D01*
X153989113Y-77597353D01*
X153895712Y-77617206D01*
X153889682Y-77619891D01*
X153889681Y-77619891D01*
X153727278Y-77692197D01*
X153727276Y-77692198D01*
X153721248Y-77694882D01*
X153566747Y-77807134D01*
X153438960Y-77949056D01*
X153343473Y-78114444D01*
X153284458Y-78296072D01*
X153283768Y-78302633D01*
X153283768Y-78302635D01*
X153267556Y-78456882D01*
X153264496Y-78486000D01*
X153284458Y-78675928D01*
X153343473Y-78857556D01*
X153438960Y-79022944D01*
X153443378Y-79027851D01*
X153443379Y-79027852D01*
X153543376Y-79138910D01*
X153566893Y-79176839D01*
X153573908Y-79194558D01*
X153577752Y-79205785D01*
X153579442Y-79211602D01*
X153590131Y-79248393D01*
X153594169Y-79255220D01*
X153594170Y-79255223D01*
X153600488Y-79265906D01*
X153609188Y-79283664D01*
X153613761Y-79295215D01*
X153613765Y-79295221D01*
X153616681Y-79302588D01*
X153621339Y-79308999D01*
X153621340Y-79309001D01*
X153642764Y-79338488D01*
X153649281Y-79348410D01*
X153667826Y-79379768D01*
X153667829Y-79379772D01*
X153671866Y-79386598D01*
X153686250Y-79400982D01*
X153699091Y-79416016D01*
X153711058Y-79432487D01*
X153717166Y-79437540D01*
X153745255Y-79460777D01*
X153754035Y-79468767D01*
X155791595Y-81506327D01*
X155825621Y-81568639D01*
X155828500Y-81595422D01*
X155828500Y-89977697D01*
X155808498Y-90045818D01*
X155796136Y-90062006D01*
X155724960Y-90141056D01*
X155721661Y-90146769D01*
X155721658Y-90146774D01*
X155630575Y-90304534D01*
X155579192Y-90353528D01*
X155509478Y-90366963D01*
X155443568Y-90340576D01*
X155432361Y-90330629D01*
X150699328Y-85597595D01*
X150665302Y-85535283D01*
X150670367Y-85464468D01*
X150712914Y-85407632D01*
X150779434Y-85382821D01*
X150788423Y-85382500D01*
X151379530Y-85382500D01*
X151441712Y-85375745D01*
X151578101Y-85324615D01*
X151694657Y-85237261D01*
X151752515Y-85160062D01*
X153309889Y-85160062D01*
X153319185Y-85172077D01*
X153370390Y-85207931D01*
X153379885Y-85213414D01*
X153577343Y-85305490D01*
X153587635Y-85309236D01*
X153798084Y-85365625D01*
X153808877Y-85367528D01*
X154025921Y-85386517D01*
X154036871Y-85386517D01*
X154253915Y-85367528D01*
X154264708Y-85365625D01*
X154475157Y-85309236D01*
X154485449Y-85305490D01*
X154682907Y-85213414D01*
X154692402Y-85207931D01*
X154744444Y-85171491D01*
X154752820Y-85161012D01*
X154745752Y-85147566D01*
X154044208Y-84446022D01*
X154030264Y-84438408D01*
X154028431Y-84438539D01*
X154021816Y-84442790D01*
X153316319Y-85148287D01*
X153309889Y-85160062D01*
X151752515Y-85160062D01*
X151782011Y-85120705D01*
X151833141Y-84984316D01*
X151839896Y-84922134D01*
X151839896Y-84079475D01*
X152718879Y-84079475D01*
X152737868Y-84296519D01*
X152739771Y-84307312D01*
X152796160Y-84517761D01*
X152799906Y-84528053D01*
X152891982Y-84725511D01*
X152897465Y-84735006D01*
X152933905Y-84787048D01*
X152944384Y-84795424D01*
X152957830Y-84788356D01*
X153659374Y-84086812D01*
X153665752Y-84075132D01*
X154395804Y-84075132D01*
X154395935Y-84076965D01*
X154400186Y-84083580D01*
X155105683Y-84789077D01*
X155117458Y-84795507D01*
X155129473Y-84786211D01*
X155165327Y-84735006D01*
X155170810Y-84725511D01*
X155262886Y-84528053D01*
X155266632Y-84517761D01*
X155323021Y-84307312D01*
X155324924Y-84296519D01*
X155343913Y-84079475D01*
X155343913Y-84068525D01*
X155324924Y-83851481D01*
X155323021Y-83840688D01*
X155266632Y-83630239D01*
X155262886Y-83619947D01*
X155170810Y-83422489D01*
X155165327Y-83412994D01*
X155128887Y-83360952D01*
X155118408Y-83352576D01*
X155104962Y-83359644D01*
X154403418Y-84061188D01*
X154395804Y-84075132D01*
X153665752Y-84075132D01*
X153666988Y-84072868D01*
X153666857Y-84071035D01*
X153662606Y-84064420D01*
X152957109Y-83358923D01*
X152945334Y-83352493D01*
X152933319Y-83361789D01*
X152897465Y-83412994D01*
X152891982Y-83422489D01*
X152799906Y-83619947D01*
X152796160Y-83630239D01*
X152739771Y-83840688D01*
X152737868Y-83851481D01*
X152718879Y-84068525D01*
X152718879Y-84079475D01*
X151839896Y-84079475D01*
X151839896Y-83225866D01*
X151833141Y-83163684D01*
X151782011Y-83027295D01*
X151751803Y-82986988D01*
X153309972Y-82986988D01*
X153317040Y-83000434D01*
X154018584Y-83701978D01*
X154032528Y-83709592D01*
X154034361Y-83709461D01*
X154040976Y-83705210D01*
X154746473Y-82999713D01*
X154752903Y-82987938D01*
X154743607Y-82975923D01*
X154692402Y-82940069D01*
X154682907Y-82934586D01*
X154485449Y-82842510D01*
X154475157Y-82838764D01*
X154264708Y-82782375D01*
X154253915Y-82780472D01*
X154036871Y-82761483D01*
X154025921Y-82761483D01*
X153808877Y-82780472D01*
X153798084Y-82782375D01*
X153587635Y-82838764D01*
X153577343Y-82842510D01*
X153379885Y-82934586D01*
X153370390Y-82940069D01*
X153318348Y-82976509D01*
X153309972Y-82986988D01*
X151751803Y-82986988D01*
X151694657Y-82910739D01*
X151578101Y-82823385D01*
X151441712Y-82772255D01*
X151379530Y-82765500D01*
X149683262Y-82765500D01*
X149621080Y-82772255D01*
X149484691Y-82823385D01*
X149368135Y-82910739D01*
X149280781Y-83027295D01*
X149229651Y-83163684D01*
X149222896Y-83225866D01*
X149222896Y-83816973D01*
X149202894Y-83885094D01*
X149149238Y-83931587D01*
X149078964Y-83941691D01*
X149014384Y-83912197D01*
X149007801Y-83906068D01*
X141134405Y-76032672D01*
X141100379Y-75970360D01*
X141097500Y-75943577D01*
X141097500Y-68800420D01*
X143578575Y-68800420D01*
X143581358Y-68804138D01*
X143719400Y-68855475D01*
X143732991Y-68858864D01*
X143884808Y-68879121D01*
X143898804Y-68879414D01*
X144051331Y-68865533D01*
X144065055Y-68862716D01*
X144210719Y-68815387D01*
X144223469Y-68809603D01*
X144225299Y-68808512D01*
X144232802Y-68800420D01*
X145103575Y-68800420D01*
X145106358Y-68804138D01*
X145244400Y-68855475D01*
X145257991Y-68858864D01*
X145409808Y-68879121D01*
X145423804Y-68879414D01*
X145576331Y-68865533D01*
X145590055Y-68862716D01*
X145735719Y-68815387D01*
X145748469Y-68809603D01*
X145750299Y-68808512D01*
X145759887Y-68798171D01*
X145756381Y-68789757D01*
X145445312Y-68478688D01*
X145431368Y-68471074D01*
X145429533Y-68471205D01*
X145422923Y-68475453D01*
X145110334Y-68788041D01*
X145103575Y-68800420D01*
X144232802Y-68800420D01*
X144234887Y-68798171D01*
X144231381Y-68789757D01*
X143920312Y-68478688D01*
X143906368Y-68471074D01*
X143904533Y-68471205D01*
X143897923Y-68475453D01*
X143585334Y-68788041D01*
X143578575Y-68800420D01*
X141097500Y-68800420D01*
X141097500Y-68037920D01*
X142816075Y-68037920D01*
X142818858Y-68041638D01*
X142956900Y-68092975D01*
X142970491Y-68096364D01*
X143058542Y-68108112D01*
X143123419Y-68136947D01*
X143162407Y-68196280D01*
X143167277Y-68220709D01*
X143172990Y-68278971D01*
X143175901Y-68292664D01*
X143224246Y-68437993D01*
X143229213Y-68448743D01*
X143238988Y-68457680D01*
X143247607Y-68454018D01*
X143558816Y-68142808D01*
X143565193Y-68131129D01*
X144248574Y-68131129D01*
X144248705Y-68132967D01*
X144252955Y-68139579D01*
X144565122Y-68451747D01*
X144577501Y-68458506D01*
X144597006Y-68443905D01*
X144663527Y-68419094D01*
X144732901Y-68434186D01*
X144757533Y-68451779D01*
X144763988Y-68457680D01*
X144772607Y-68454018D01*
X145083816Y-68142808D01*
X145090193Y-68131129D01*
X145773574Y-68131129D01*
X145773705Y-68132967D01*
X145777955Y-68139579D01*
X146090122Y-68451747D01*
X146102501Y-68458506D01*
X146106317Y-68455649D01*
X146156646Y-68323157D01*
X146160128Y-68309596D01*
X146173321Y-68215724D01*
X146202609Y-68151050D01*
X146262213Y-68112477D01*
X146286676Y-68107778D01*
X146338840Y-68103031D01*
X146352555Y-68100216D01*
X146498219Y-68052887D01*
X146510969Y-68047103D01*
X146512799Y-68046012D01*
X146522387Y-68035671D01*
X146518881Y-68027257D01*
X146207812Y-67716188D01*
X146193868Y-67708574D01*
X146192033Y-67708705D01*
X146185423Y-67712953D01*
X145807505Y-68090870D01*
X145807503Y-68090872D01*
X145781185Y-68117191D01*
X145773574Y-68131129D01*
X145090193Y-68131129D01*
X145091427Y-68128870D01*
X145091295Y-68127034D01*
X145087046Y-68120422D01*
X144709130Y-67742505D01*
X144709128Y-67742503D01*
X144682809Y-67716185D01*
X144668871Y-67708574D01*
X144667033Y-67708705D01*
X144660421Y-67712955D01*
X144282505Y-68090870D01*
X144282503Y-68090872D01*
X144256185Y-68117191D01*
X144248574Y-68131129D01*
X143565193Y-68131129D01*
X143566427Y-68128870D01*
X143566295Y-68127034D01*
X143562046Y-68120422D01*
X143184130Y-67742505D01*
X143184128Y-67742503D01*
X143157809Y-67716185D01*
X143143871Y-67708574D01*
X143142033Y-67708705D01*
X143135421Y-67712955D01*
X142822834Y-68025541D01*
X142816075Y-68037920D01*
X141097500Y-68037920D01*
X141097500Y-67502303D01*
X141117502Y-67434182D01*
X141129864Y-67417993D01*
X141178446Y-67364037D01*
X142395544Y-67364037D01*
X142410490Y-67516470D01*
X142413401Y-67530164D01*
X142461746Y-67675493D01*
X142466713Y-67686243D01*
X142476488Y-67695180D01*
X142485107Y-67691518D01*
X142796316Y-67380308D01*
X142802693Y-67368629D01*
X143486074Y-67368629D01*
X143486205Y-67370468D01*
X143490453Y-67377077D01*
X143520005Y-67406630D01*
X143520004Y-67406630D01*
X143520005Y-67406631D01*
X143894690Y-67781315D01*
X143908630Y-67788927D01*
X143910466Y-67788795D01*
X143917078Y-67784546D01*
X144294995Y-67406630D01*
X144294997Y-67406628D01*
X144321315Y-67380309D01*
X144327693Y-67368629D01*
X145011074Y-67368629D01*
X145011205Y-67370468D01*
X145015453Y-67377077D01*
X145045005Y-67406630D01*
X145045004Y-67406630D01*
X145045005Y-67406631D01*
X145419690Y-67781315D01*
X145433630Y-67788927D01*
X145435466Y-67788795D01*
X145442078Y-67784546D01*
X145819995Y-67406630D01*
X145819997Y-67406628D01*
X145846315Y-67380309D01*
X145852692Y-67368630D01*
X146536073Y-67368630D01*
X146536205Y-67370466D01*
X146540454Y-67377078D01*
X146852622Y-67689247D01*
X146865001Y-67696006D01*
X146868817Y-67693149D01*
X146919146Y-67560657D01*
X146922628Y-67547096D01*
X146944374Y-67392369D01*
X146944980Y-67384487D01*
X146945162Y-67371447D01*
X146944777Y-67363577D01*
X146927359Y-67208290D01*
X146924257Y-67194637D01*
X146873889Y-67050000D01*
X146871976Y-67046009D01*
X146864271Y-67039159D01*
X146855220Y-67043155D01*
X146543684Y-67354692D01*
X146536073Y-67368630D01*
X145852692Y-67368630D01*
X145853926Y-67366371D01*
X145853795Y-67364533D01*
X145849545Y-67357921D01*
X145471630Y-66980005D01*
X145471628Y-66980003D01*
X145445309Y-66953685D01*
X145431371Y-66946074D01*
X145429533Y-66946205D01*
X145422921Y-66950455D01*
X145045005Y-67328370D01*
X145045003Y-67328372D01*
X145018685Y-67354691D01*
X145011074Y-67368629D01*
X144327693Y-67368629D01*
X144328926Y-67366371D01*
X144328795Y-67364533D01*
X144324545Y-67357921D01*
X143946630Y-66980005D01*
X143946628Y-66980003D01*
X143920309Y-66953685D01*
X143906371Y-66946074D01*
X143904533Y-66946205D01*
X143897921Y-66950455D01*
X143520005Y-67328370D01*
X143520003Y-67328372D01*
X143493685Y-67354691D01*
X143486074Y-67368629D01*
X142802693Y-67368629D01*
X142803927Y-67366370D01*
X142803795Y-67364534D01*
X142799546Y-67357922D01*
X142486825Y-67045201D01*
X142474445Y-67038441D01*
X142470231Y-67041596D01*
X142418227Y-67184473D01*
X142414935Y-67198081D01*
X142395740Y-67350031D01*
X142395544Y-67364037D01*
X141178446Y-67364037D01*
X141196621Y-67343852D01*
X141196622Y-67343851D01*
X141201040Y-67338944D01*
X141276473Y-67208290D01*
X141293223Y-67179279D01*
X141293224Y-67179278D01*
X141296527Y-67173556D01*
X141355542Y-66991928D01*
X141356796Y-66980003D01*
X141374814Y-66808565D01*
X141375504Y-66802000D01*
X141361410Y-66667899D01*
X141356232Y-66618635D01*
X141356232Y-66618633D01*
X141355542Y-66612072D01*
X141323325Y-66512920D01*
X142816075Y-66512920D01*
X142830362Y-66532005D01*
X142855173Y-66598525D01*
X142840082Y-66667899D01*
X142823075Y-66691886D01*
X142817003Y-66698621D01*
X142820827Y-66707451D01*
X143132188Y-67018812D01*
X143146132Y-67026426D01*
X143147967Y-67026295D01*
X143154577Y-67022047D01*
X143532495Y-66644130D01*
X143532497Y-66644128D01*
X143558815Y-66617809D01*
X143565193Y-66606129D01*
X144248574Y-66606129D01*
X144248705Y-66607968D01*
X144252953Y-66614577D01*
X144282505Y-66644130D01*
X144282504Y-66644130D01*
X144282505Y-66644131D01*
X144657190Y-67018815D01*
X144671130Y-67026427D01*
X144672966Y-67026295D01*
X144679578Y-67022046D01*
X145057495Y-66644130D01*
X145057497Y-66644128D01*
X145083815Y-66617809D01*
X145090193Y-66606129D01*
X145773574Y-66606129D01*
X145773705Y-66607968D01*
X145777953Y-66614577D01*
X145807505Y-66644130D01*
X145807504Y-66644130D01*
X145807505Y-66644131D01*
X146182190Y-67018815D01*
X146196130Y-67026427D01*
X146197966Y-67026295D01*
X146204578Y-67022046D01*
X146516900Y-66709725D01*
X146523659Y-66697347D01*
X146508745Y-66677425D01*
X146483934Y-66610905D01*
X146499025Y-66541530D01*
X146517218Y-66516246D01*
X146522387Y-66510671D01*
X146518881Y-66502257D01*
X146207812Y-66191188D01*
X146193868Y-66183574D01*
X146192033Y-66183705D01*
X146185423Y-66187953D01*
X145807505Y-66565870D01*
X145807503Y-66565872D01*
X145781185Y-66592191D01*
X145773574Y-66606129D01*
X145090193Y-66606129D01*
X145091426Y-66603871D01*
X145091295Y-66602033D01*
X145087045Y-66595421D01*
X144709130Y-66217505D01*
X144709128Y-66217503D01*
X144682809Y-66191185D01*
X144668871Y-66183574D01*
X144667033Y-66183705D01*
X144660421Y-66187955D01*
X144282505Y-66565870D01*
X144282503Y-66565872D01*
X144256185Y-66592191D01*
X144248574Y-66606129D01*
X143565193Y-66606129D01*
X143566426Y-66603871D01*
X143566295Y-66602033D01*
X143562045Y-66595421D01*
X143184130Y-66217505D01*
X143184128Y-66217503D01*
X143157809Y-66191185D01*
X143143871Y-66183574D01*
X143142033Y-66183705D01*
X143135421Y-66187955D01*
X142822834Y-66500541D01*
X142816075Y-66512920D01*
X141323325Y-66512920D01*
X141296527Y-66430444D01*
X141201040Y-66265056D01*
X141127674Y-66183574D01*
X141077675Y-66128045D01*
X141077674Y-66128044D01*
X141073253Y-66123134D01*
X140918752Y-66010882D01*
X140912724Y-66008198D01*
X140912722Y-66008197D01*
X140750319Y-65935891D01*
X140750318Y-65935891D01*
X140744288Y-65933206D01*
X140650888Y-65913353D01*
X140563944Y-65894872D01*
X140563939Y-65894872D01*
X140557487Y-65893500D01*
X140366513Y-65893500D01*
X140360061Y-65894872D01*
X140360056Y-65894872D01*
X140273112Y-65913353D01*
X140179712Y-65933206D01*
X140173682Y-65935891D01*
X140173681Y-65935891D01*
X140011278Y-66008197D01*
X140011276Y-66008198D01*
X140005248Y-66010882D01*
X139850747Y-66123134D01*
X139846326Y-66128044D01*
X139846325Y-66128045D01*
X139796327Y-66183574D01*
X139722960Y-66265056D01*
X139627473Y-66430444D01*
X139568458Y-66612072D01*
X139567768Y-66618633D01*
X139567768Y-66618635D01*
X139562590Y-66667899D01*
X139548496Y-66802000D01*
X139549186Y-66808565D01*
X139567205Y-66980003D01*
X139568458Y-66991928D01*
X139627473Y-67173556D01*
X139630776Y-67179278D01*
X139630777Y-67179279D01*
X139667578Y-67243020D01*
X139684316Y-67312015D01*
X139661096Y-67379107D01*
X139605288Y-67422994D01*
X139584661Y-67429266D01*
X139453212Y-67457206D01*
X139447182Y-67459891D01*
X139447181Y-67459891D01*
X139284778Y-67532197D01*
X139284776Y-67532198D01*
X139278748Y-67534882D01*
X139124247Y-67647134D01*
X139119826Y-67652044D01*
X139119825Y-67652045D01*
X139041757Y-67738749D01*
X138996460Y-67789056D01*
X138900973Y-67954444D01*
X138841958Y-68136072D01*
X138821996Y-68326000D01*
X138841958Y-68515928D01*
X138900973Y-68697556D01*
X138963070Y-68805111D01*
X138979807Y-68874103D01*
X138956587Y-68941195D01*
X138905199Y-68983215D01*
X138741278Y-69056197D01*
X138741276Y-69056198D01*
X138735248Y-69058882D01*
X138580747Y-69171134D01*
X138576326Y-69176044D01*
X138576325Y-69176045D01*
X138532747Y-69224444D01*
X138452960Y-69313056D01*
X138449659Y-69318774D01*
X138365867Y-69463906D01*
X138357473Y-69478444D01*
X138298458Y-69660072D01*
X138297768Y-69666633D01*
X138297768Y-69666635D01*
X138289720Y-69743206D01*
X138278496Y-69850000D01*
X138279186Y-69856565D01*
X138286826Y-69929251D01*
X138298458Y-70039928D01*
X138357473Y-70221556D01*
X138452960Y-70386944D01*
X138457378Y-70391851D01*
X138457379Y-70391852D01*
X138484589Y-70422072D01*
X138577784Y-70525575D01*
X138577785Y-70525577D01*
X138580747Y-70528866D01*
X138580145Y-70529408D01*
X138614599Y-70585335D01*
X138613245Y-70656319D01*
X138573730Y-70715302D01*
X138519245Y-70741768D01*
X138443678Y-70757831D01*
X138443673Y-70757833D01*
X138437212Y-70759206D01*
X138431182Y-70761891D01*
X138431181Y-70761891D01*
X138268778Y-70834197D01*
X138268776Y-70834198D01*
X138262748Y-70836882D01*
X138108247Y-70949134D01*
X137980460Y-71091056D01*
X137884973Y-71256444D01*
X137825958Y-71438072D01*
X137805996Y-71628000D01*
X137825958Y-71817928D01*
X137884973Y-71999556D01*
X137980460Y-72164944D01*
X137984878Y-72169851D01*
X137984879Y-72169852D01*
X138051636Y-72243993D01*
X138082354Y-72308000D01*
X138084000Y-72328303D01*
X138084000Y-76363636D01*
X138083470Y-76374870D01*
X138081792Y-76382375D01*
X138082041Y-76390294D01*
X138083938Y-76450668D01*
X138084000Y-76454625D01*
X138084000Y-76482639D01*
X138084496Y-76486564D01*
X138084496Y-76486565D01*
X138084508Y-76486660D01*
X138085441Y-76498505D01*
X138086835Y-76542861D01*
X138089047Y-76550473D01*
X138092513Y-76562404D01*
X138096523Y-76581768D01*
X138099073Y-76601955D01*
X138101989Y-76609319D01*
X138101990Y-76609324D01*
X138115407Y-76643212D01*
X138119252Y-76654441D01*
X138131631Y-76697049D01*
X138135669Y-76703876D01*
X138135670Y-76703879D01*
X138141988Y-76714562D01*
X138150688Y-76732320D01*
X138155261Y-76743871D01*
X138155265Y-76743877D01*
X138158181Y-76751244D01*
X138162839Y-76757655D01*
X138162840Y-76757657D01*
X138184264Y-76787144D01*
X138190781Y-76797066D01*
X138209326Y-76828424D01*
X138209329Y-76828428D01*
X138213366Y-76835254D01*
X138227750Y-76849638D01*
X138240591Y-76864672D01*
X138252558Y-76881143D01*
X138258666Y-76886196D01*
X138286755Y-76909433D01*
X138295535Y-76917423D01*
X144744517Y-83366405D01*
X144778543Y-83428717D01*
X144773478Y-83499532D01*
X144730931Y-83556368D01*
X144664411Y-83581179D01*
X144655422Y-83581500D01*
X143813543Y-83581500D01*
X143751361Y-83588255D01*
X143614972Y-83639385D01*
X143498416Y-83726739D01*
X143411062Y-83843295D01*
X143359932Y-83979684D01*
X143359079Y-83987540D01*
X143353786Y-84036259D01*
X143326544Y-84101821D01*
X143268181Y-84142247D01*
X143197227Y-84144702D01*
X143136209Y-84108407D01*
X143108690Y-84061587D01*
X143108561Y-84061188D01*
X143074527Y-83956444D01*
X142979040Y-83791056D01*
X142937387Y-83744795D01*
X142855675Y-83654045D01*
X142855674Y-83654044D01*
X142851253Y-83649134D01*
X142696752Y-83536882D01*
X142690724Y-83534198D01*
X142690722Y-83534197D01*
X142528319Y-83461891D01*
X142528318Y-83461891D01*
X142522288Y-83459206D01*
X142428888Y-83439353D01*
X142341944Y-83420872D01*
X142341939Y-83420872D01*
X142335487Y-83419500D01*
X142144513Y-83419500D01*
X142138061Y-83420872D01*
X142138056Y-83420872D01*
X142051112Y-83439353D01*
X141957712Y-83459206D01*
X141951682Y-83461891D01*
X141951681Y-83461891D01*
X141789278Y-83534197D01*
X141789276Y-83534198D01*
X141783248Y-83536882D01*
X141628747Y-83649134D01*
X141624326Y-83654044D01*
X141624325Y-83654045D01*
X141542614Y-83744795D01*
X141500960Y-83791056D01*
X141405473Y-83956444D01*
X141346458Y-84138072D01*
X141345768Y-84144633D01*
X141345768Y-84144635D01*
X141341409Y-84186108D01*
X141314395Y-84251765D01*
X141256173Y-84292394D01*
X141185228Y-84295097D01*
X141124084Y-84259014D01*
X141108665Y-84238770D01*
X141104242Y-84231552D01*
X141093787Y-84222093D01*
X141085011Y-84225876D01*
X140233699Y-85077188D01*
X140226085Y-85091132D01*
X140226216Y-85092965D01*
X140230467Y-85099580D01*
X141081967Y-85951080D01*
X141094347Y-85957840D01*
X141101997Y-85952113D01*
X141206882Y-85780958D01*
X141211364Y-85772163D01*
X141298411Y-85562012D01*
X141301460Y-85552627D01*
X141355717Y-85326633D01*
X141357642Y-85327095D01*
X141384462Y-85270518D01*
X141444730Y-85232990D01*
X141515719Y-85234003D01*
X141574892Y-85273234D01*
X141603461Y-85338229D01*
X141604500Y-85354380D01*
X141604500Y-86044577D01*
X141584498Y-86112698D01*
X141567595Y-86133672D01*
X136698672Y-91002595D01*
X136636360Y-91036621D01*
X136609577Y-91039500D01*
X136556513Y-91039500D01*
X136550061Y-91040872D01*
X136550056Y-91040872D01*
X136482279Y-91055279D01*
X136369712Y-91079206D01*
X136363682Y-91081891D01*
X136363681Y-91081891D01*
X136201278Y-91154197D01*
X136201276Y-91154198D01*
X136195248Y-91156882D01*
X136040747Y-91269134D01*
X136036326Y-91274044D01*
X136036325Y-91274045D01*
X135958257Y-91360749D01*
X135912960Y-91411056D01*
X135817473Y-91576444D01*
X135758458Y-91758072D01*
X135757768Y-91764633D01*
X135757768Y-91764635D01*
X135749566Y-91842677D01*
X135738496Y-91948000D01*
X131064500Y-91948000D01*
X131064500Y-87162069D01*
X132074994Y-87162069D01*
X132102241Y-87387219D01*
X132103891Y-87392581D01*
X132103891Y-87392583D01*
X132108931Y-87408965D01*
X132168927Y-87603987D01*
X132272946Y-87805519D01*
X132411009Y-87985447D01*
X132501234Y-88067545D01*
X132574605Y-88134308D01*
X132574608Y-88134310D01*
X132578752Y-88138081D01*
X132583503Y-88141062D01*
X132583504Y-88141062D01*
X132766118Y-88255616D01*
X132766122Y-88255618D01*
X132770874Y-88258599D01*
X132981301Y-88343190D01*
X133203382Y-88389181D01*
X133207993Y-88389447D01*
X133207994Y-88389447D01*
X133259121Y-88392395D01*
X133259125Y-88392395D01*
X133260944Y-88392500D01*
X134931535Y-88392500D01*
X134934322Y-88392251D01*
X134934328Y-88392251D01*
X135004506Y-88385987D01*
X135099895Y-88377474D01*
X135318651Y-88317630D01*
X135323709Y-88315218D01*
X135323713Y-88315216D01*
X135518284Y-88222410D01*
X135518285Y-88222409D01*
X135523351Y-88219993D01*
X135554180Y-88197840D01*
X135702966Y-88090926D01*
X135702968Y-88090924D01*
X135707526Y-88087649D01*
X135822122Y-87969396D01*
X135861452Y-87928811D01*
X135861454Y-87928808D01*
X135865355Y-87924783D01*
X135985715Y-87745668D01*
X135988721Y-87741195D01*
X135988724Y-87741190D01*
X135991847Y-87736542D01*
X136083007Y-87528876D01*
X136115728Y-87392583D01*
X136134640Y-87313808D01*
X136134641Y-87313802D01*
X136135950Y-87308349D01*
X136144862Y-87153803D01*
X136148683Y-87087537D01*
X136148683Y-87087534D01*
X136149006Y-87081931D01*
X136121759Y-86856781D01*
X136110548Y-86820337D01*
X136082620Y-86729557D01*
X136055073Y-86640013D01*
X135958683Y-86453261D01*
X135953626Y-86443464D01*
X135953626Y-86443463D01*
X135951054Y-86438481D01*
X135862189Y-86322670D01*
X138993837Y-86322670D01*
X138999564Y-86330320D01*
X139170719Y-86435205D01*
X139179514Y-86439687D01*
X139389665Y-86526734D01*
X139399050Y-86529783D01*
X139620231Y-86582885D01*
X139629978Y-86584428D01*
X139856747Y-86602275D01*
X139866607Y-86602275D01*
X140093376Y-86584428D01*
X140103123Y-86582885D01*
X140324304Y-86529783D01*
X140333689Y-86526734D01*
X140543840Y-86439687D01*
X140552635Y-86435205D01*
X140720122Y-86332568D01*
X140729584Y-86322110D01*
X140725801Y-86313334D01*
X139874489Y-85462022D01*
X139860545Y-85454408D01*
X139858712Y-85454539D01*
X139852097Y-85458790D01*
X139000597Y-86310290D01*
X138993837Y-86322670D01*
X135862189Y-86322670D01*
X135812991Y-86258553D01*
X135676897Y-86134717D01*
X135649395Y-86109692D01*
X135649392Y-86109690D01*
X135645248Y-86105919D01*
X135640496Y-86102938D01*
X135457882Y-85988384D01*
X135457878Y-85988382D01*
X135453126Y-85985401D01*
X135410094Y-85968102D01*
X135354351Y-85924136D01*
X135331226Y-85857011D01*
X135348063Y-85788040D01*
X135402848Y-85737470D01*
X135518284Y-85682410D01*
X135518285Y-85682409D01*
X135523351Y-85679993D01*
X135551596Y-85659697D01*
X135702966Y-85550926D01*
X135702968Y-85550924D01*
X135707526Y-85547649D01*
X135865355Y-85384783D01*
X135924843Y-85296255D01*
X135988721Y-85201195D01*
X135988724Y-85201190D01*
X135991847Y-85196542D01*
X135998389Y-85181641D01*
X136036453Y-85094930D01*
X138349402Y-85094930D01*
X138367249Y-85321699D01*
X138368792Y-85331446D01*
X138421894Y-85552627D01*
X138424943Y-85562012D01*
X138511990Y-85772163D01*
X138516472Y-85780958D01*
X138619109Y-85948445D01*
X138629567Y-85957907D01*
X138638343Y-85954124D01*
X139489655Y-85102812D01*
X139497269Y-85088868D01*
X139497138Y-85087035D01*
X139492887Y-85080420D01*
X138641387Y-84228920D01*
X138629007Y-84222160D01*
X138621357Y-84227887D01*
X138516472Y-84399042D01*
X138511990Y-84407837D01*
X138424943Y-84617988D01*
X138421894Y-84627373D01*
X138368792Y-84848554D01*
X138367249Y-84858301D01*
X138349402Y-85085070D01*
X138349402Y-85094930D01*
X136036453Y-85094930D01*
X136052389Y-85058626D01*
X136083007Y-84988876D01*
X136098477Y-84924438D01*
X136134640Y-84773808D01*
X136134641Y-84773802D01*
X136135950Y-84768349D01*
X136149006Y-84541931D01*
X136121759Y-84316781D01*
X136055073Y-84100013D01*
X135978017Y-83950721D01*
X135953626Y-83903464D01*
X135953626Y-83903463D01*
X135951054Y-83898481D01*
X135919908Y-83857890D01*
X138993770Y-83857890D01*
X138997553Y-83866666D01*
X139848865Y-84717978D01*
X139862809Y-84725592D01*
X139864642Y-84725461D01*
X139871257Y-84721210D01*
X140722757Y-83869710D01*
X140729517Y-83857330D01*
X140723790Y-83849680D01*
X140552635Y-83744795D01*
X140543840Y-83740313D01*
X140333689Y-83653266D01*
X140324304Y-83650217D01*
X140103123Y-83597115D01*
X140093376Y-83595572D01*
X139866607Y-83577725D01*
X139856747Y-83577725D01*
X139629978Y-83595572D01*
X139620231Y-83597115D01*
X139399050Y-83650217D01*
X139389665Y-83653266D01*
X139179514Y-83740313D01*
X139170719Y-83744795D01*
X139003232Y-83847432D01*
X138993770Y-83857890D01*
X135919908Y-83857890D01*
X135812991Y-83718553D01*
X135679532Y-83597115D01*
X135649395Y-83569692D01*
X135649392Y-83569690D01*
X135645248Y-83565919D01*
X135640496Y-83562938D01*
X135457882Y-83448384D01*
X135457878Y-83448382D01*
X135453126Y-83445401D01*
X135410094Y-83428102D01*
X135354351Y-83384136D01*
X135331226Y-83317011D01*
X135348063Y-83248040D01*
X135402848Y-83197470D01*
X135518284Y-83142410D01*
X135518285Y-83142409D01*
X135523351Y-83139993D01*
X135527913Y-83136715D01*
X135702966Y-83010926D01*
X135702968Y-83010924D01*
X135707526Y-83007649D01*
X135806567Y-82905447D01*
X135861452Y-82848811D01*
X135861454Y-82848808D01*
X135865355Y-82844783D01*
X135911355Y-82776327D01*
X135988721Y-82661195D01*
X135988724Y-82661190D01*
X135991847Y-82656542D01*
X136083007Y-82448876D01*
X136115728Y-82312583D01*
X136134640Y-82233808D01*
X136134641Y-82233802D01*
X136135950Y-82228349D01*
X136149006Y-82001931D01*
X136121759Y-81776781D01*
X136116390Y-81759327D01*
X136065966Y-81595422D01*
X136055073Y-81560013D01*
X135951054Y-81358481D01*
X135812991Y-81178553D01*
X135697071Y-81073074D01*
X135649395Y-81029692D01*
X135649392Y-81029690D01*
X135645248Y-81025919D01*
X135519895Y-80947285D01*
X135457882Y-80908384D01*
X135457878Y-80908382D01*
X135453126Y-80905401D01*
X135242699Y-80820810D01*
X135020618Y-80774819D01*
X135016007Y-80774553D01*
X135016006Y-80774553D01*
X134964879Y-80771605D01*
X134964875Y-80771605D01*
X134963056Y-80771500D01*
X133292465Y-80771500D01*
X133289678Y-80771749D01*
X133289672Y-80771749D01*
X133219494Y-80778013D01*
X133124105Y-80786526D01*
X132905349Y-80846370D01*
X132900291Y-80848782D01*
X132900287Y-80848784D01*
X132775334Y-80908384D01*
X132700649Y-80944007D01*
X132696088Y-80947284D01*
X132696087Y-80947285D01*
X132590806Y-81022938D01*
X132516474Y-81076351D01*
X132358645Y-81239217D01*
X132355518Y-81243871D01*
X132235279Y-81422805D01*
X132235276Y-81422810D01*
X132232153Y-81427458D01*
X132229900Y-81432590D01*
X132229898Y-81432594D01*
X132181331Y-81543232D01*
X132140993Y-81635124D01*
X132139683Y-81640581D01*
X132089360Y-81850192D01*
X132089359Y-81850198D01*
X132088050Y-81855651D01*
X132087727Y-81861257D01*
X132077895Y-82031767D01*
X132074994Y-82082069D01*
X132102241Y-82307219D01*
X132168927Y-82523987D01*
X132272946Y-82725519D01*
X132411009Y-82905447D01*
X132488461Y-82975923D01*
X132574605Y-83054308D01*
X132574608Y-83054310D01*
X132578752Y-83058081D01*
X132583503Y-83061062D01*
X132583504Y-83061062D01*
X132766118Y-83175616D01*
X132766122Y-83175618D01*
X132770874Y-83178599D01*
X132813906Y-83195898D01*
X132869649Y-83239864D01*
X132892774Y-83306989D01*
X132875937Y-83375960D01*
X132821152Y-83426530D01*
X132700649Y-83484007D01*
X132696088Y-83487284D01*
X132696087Y-83487285D01*
X132543244Y-83597115D01*
X132516474Y-83616351D01*
X132480701Y-83653266D01*
X132414715Y-83721358D01*
X132358645Y-83779217D01*
X132333274Y-83816973D01*
X132235279Y-83962805D01*
X132235276Y-83962810D01*
X132232153Y-83967458D01*
X132229900Y-83972590D01*
X132229898Y-83972594D01*
X132201951Y-84036259D01*
X132140993Y-84175124D01*
X132139683Y-84180581D01*
X132089360Y-84390192D01*
X132089359Y-84390198D01*
X132088050Y-84395651D01*
X132082103Y-84498792D01*
X132077857Y-84572426D01*
X132074994Y-84622069D01*
X132102241Y-84847219D01*
X132168927Y-85063987D01*
X132212066Y-85147566D01*
X132242825Y-85207160D01*
X132272946Y-85265519D01*
X132411009Y-85445447D01*
X132425673Y-85458790D01*
X132574605Y-85594308D01*
X132574608Y-85594310D01*
X132578752Y-85598081D01*
X132583503Y-85601062D01*
X132583504Y-85601062D01*
X132766118Y-85715616D01*
X132766122Y-85715618D01*
X132770874Y-85718599D01*
X132813906Y-85735898D01*
X132869649Y-85779864D01*
X132892774Y-85846989D01*
X132875937Y-85915960D01*
X132821152Y-85966530D01*
X132762032Y-85994729D01*
X132700649Y-86024007D01*
X132696088Y-86027284D01*
X132696087Y-86027285D01*
X132546581Y-86134717D01*
X132516474Y-86156351D01*
X132358645Y-86319217D01*
X132351184Y-86330320D01*
X132235279Y-86502805D01*
X132235276Y-86502810D01*
X132232153Y-86507458D01*
X132229900Y-86512590D01*
X132229898Y-86512594D01*
X132196371Y-86588971D01*
X132140993Y-86715124D01*
X132139683Y-86720581D01*
X132089360Y-86930192D01*
X132089359Y-86930198D01*
X132088050Y-86935651D01*
X132082098Y-87038866D01*
X132075471Y-87153803D01*
X132074994Y-87162069D01*
X131064500Y-87162069D01*
X131064500Y-79315376D01*
X131065933Y-79296426D01*
X131068124Y-79282027D01*
X131068124Y-79282021D01*
X131069224Y-79274792D01*
X131068502Y-79265906D01*
X131064915Y-79221817D01*
X131064500Y-79211602D01*
X131064500Y-79203475D01*
X131061189Y-79175076D01*
X131060760Y-79170736D01*
X131060599Y-79168749D01*
X131054809Y-79097574D01*
X131052553Y-79090612D01*
X131051357Y-79084624D01*
X131049949Y-79078667D01*
X131049101Y-79071393D01*
X131046603Y-79064511D01*
X131046602Y-79064507D01*
X131024055Y-79002393D01*
X131022645Y-78998289D01*
X131000013Y-78928425D01*
X130996213Y-78922162D01*
X130993675Y-78916620D01*
X130990933Y-78911144D01*
X130988434Y-78904259D01*
X130948185Y-78842868D01*
X130945870Y-78839200D01*
X130907773Y-78776419D01*
X130900333Y-78767995D01*
X130900362Y-78767969D01*
X130897762Y-78765038D01*
X130894958Y-78761684D01*
X130890946Y-78755565D01*
X130834413Y-78702011D01*
X130831972Y-78699634D01*
X130457403Y-78325065D01*
X130426665Y-78274907D01*
X130376568Y-78120726D01*
X130374527Y-78114444D01*
X130279040Y-77949056D01*
X130151253Y-77807134D01*
X129996752Y-77694882D01*
X129990724Y-77692198D01*
X129990722Y-77692197D01*
X129828319Y-77619891D01*
X129828318Y-77619891D01*
X129822288Y-77617206D01*
X129728887Y-77597353D01*
X129641944Y-77578872D01*
X129641939Y-77578872D01*
X129635487Y-77577500D01*
X129444513Y-77577500D01*
X129438061Y-77578872D01*
X129438056Y-77578872D01*
X129351113Y-77597353D01*
X129257712Y-77617206D01*
X129251682Y-77619891D01*
X129251681Y-77619891D01*
X129089278Y-77692197D01*
X129089276Y-77692198D01*
X129083248Y-77694882D01*
X128928747Y-77807134D01*
X128800960Y-77949056D01*
X128705473Y-78114444D01*
X128646458Y-78296072D01*
X128645768Y-78302633D01*
X128645768Y-78302635D01*
X128629556Y-78456882D01*
X128626496Y-78486000D01*
X128646458Y-78675928D01*
X128705473Y-78857556D01*
X128800960Y-79022944D01*
X128805378Y-79027851D01*
X128805379Y-79027852D01*
X128868157Y-79097574D01*
X128928747Y-79164866D01*
X129000111Y-79216715D01*
X129043712Y-79248393D01*
X129083248Y-79277118D01*
X129089276Y-79279802D01*
X129089278Y-79279803D01*
X129169177Y-79315376D01*
X129257712Y-79354794D01*
X129264167Y-79356166D01*
X129264176Y-79356169D01*
X129313588Y-79366672D01*
X129376485Y-79400823D01*
X129502595Y-79526933D01*
X129536621Y-79589245D01*
X129539500Y-79616028D01*
X129539500Y-96405972D01*
X129519498Y-96474093D01*
X129502595Y-96495067D01*
X127294595Y-98703067D01*
X127232283Y-98737093D01*
X127161468Y-98732028D01*
X127104632Y-98689481D01*
X127079821Y-98622961D01*
X127079500Y-98613972D01*
X127079500Y-98389600D01*
X127074466Y-98341083D01*
X127069238Y-98290692D01*
X127069237Y-98290688D01*
X127068526Y-98283834D01*
X127043992Y-98210295D01*
X127014868Y-98123002D01*
X127012550Y-98116054D01*
X126919478Y-97965652D01*
X126794303Y-97840695D01*
X126788072Y-97836854D01*
X126649968Y-97751725D01*
X126649966Y-97751724D01*
X126643738Y-97747885D01*
X126483254Y-97694655D01*
X126482389Y-97694368D01*
X126482387Y-97694368D01*
X126475861Y-97692203D01*
X126469025Y-97691503D01*
X126469022Y-97691502D01*
X126425969Y-97687091D01*
X126371400Y-97681500D01*
X124580600Y-97681500D01*
X124577354Y-97681837D01*
X124577350Y-97681837D01*
X124481692Y-97691762D01*
X124481688Y-97691763D01*
X124474834Y-97692474D01*
X124468298Y-97694655D01*
X124468296Y-97694655D01*
X124394112Y-97719405D01*
X124307054Y-97748450D01*
X124156652Y-97841522D01*
X124031695Y-97966697D01*
X124027855Y-97972927D01*
X124027854Y-97972928D01*
X124020931Y-97984160D01*
X123938885Y-98117262D01*
X123912436Y-98197005D01*
X123908028Y-98210295D01*
X123883203Y-98285139D01*
X123872500Y-98389600D01*
X123872500Y-99730400D01*
X123872837Y-99733646D01*
X123872837Y-99733650D01*
X123876072Y-99764822D01*
X123883474Y-99836166D01*
X123885655Y-99842702D01*
X123885655Y-99842704D01*
X123920247Y-99946388D01*
X123939450Y-100003946D01*
X124032522Y-100154348D01*
X124157697Y-100279305D01*
X124163927Y-100283145D01*
X124163928Y-100283146D01*
X124308262Y-100372115D01*
X124306938Y-100374262D01*
X124351290Y-100413312D01*
X124370752Y-100481589D01*
X124350212Y-100549549D01*
X124331728Y-100571761D01*
X124218694Y-100679590D01*
X124218684Y-100679602D01*
X124214832Y-100683276D01*
X124211649Y-100687554D01*
X124154964Y-100763741D01*
X124075187Y-100870965D01*
X124072771Y-100875716D01*
X124072769Y-100875720D01*
X123971580Y-101074744D01*
X123969162Y-101079500D01*
X123899790Y-101302917D01*
X123899089Y-101308204D01*
X123899089Y-101308205D01*
X123873085Y-101504403D01*
X123869052Y-101534829D01*
X120904000Y-101534829D01*
X120904000Y-93152829D01*
X123869052Y-93152829D01*
X123869252Y-93158158D01*
X123869252Y-93158160D01*
X123871160Y-93208979D01*
X123877828Y-93386604D01*
X123925868Y-93615559D01*
X124011797Y-93833146D01*
X124014566Y-93837709D01*
X124120338Y-94012015D01*
X124133159Y-94033144D01*
X124286483Y-94209834D01*
X124467386Y-94358165D01*
X124670695Y-94473896D01*
X124890596Y-94553716D01*
X124895845Y-94554665D01*
X124895848Y-94554666D01*
X124977040Y-94569348D01*
X125120803Y-94595344D01*
X125124942Y-94595539D01*
X125124949Y-94595540D01*
X125143828Y-94596430D01*
X125143835Y-94596430D01*
X125145316Y-94596500D01*
X125759738Y-94596500D01*
X125827641Y-94590738D01*
X125928791Y-94582156D01*
X125928795Y-94582155D01*
X125934102Y-94581705D01*
X125939259Y-94580367D01*
X125939262Y-94580366D01*
X126155371Y-94524275D01*
X126155375Y-94524274D01*
X126160540Y-94522933D01*
X126165406Y-94520741D01*
X126165409Y-94520740D01*
X126368964Y-94429045D01*
X126373837Y-94426850D01*
X126567896Y-94296202D01*
X126737168Y-94134724D01*
X126758054Y-94106653D01*
X126797036Y-94054259D01*
X126876813Y-93947035D01*
X126885541Y-93929870D01*
X126980420Y-93743256D01*
X126980420Y-93743255D01*
X126982838Y-93738500D01*
X127052210Y-93515083D01*
X127069239Y-93386604D01*
X127082248Y-93288455D01*
X127082248Y-93288451D01*
X127082948Y-93283171D01*
X127080099Y-93207265D01*
X127077121Y-93127958D01*
X127074172Y-93049396D01*
X127047214Y-92920917D01*
X127027229Y-92825668D01*
X127027228Y-92825665D01*
X127026132Y-92820441D01*
X126940203Y-92602854D01*
X126868495Y-92484683D01*
X126821609Y-92407417D01*
X126821607Y-92407414D01*
X126818841Y-92402856D01*
X126665517Y-92226166D01*
X126484614Y-92077835D01*
X126479984Y-92075199D01*
X126479979Y-92075196D01*
X126447484Y-92056699D01*
X126398178Y-92005616D01*
X126384317Y-91935985D01*
X126410301Y-91869915D01*
X126439450Y-91842677D01*
X126480885Y-91814781D01*
X126567896Y-91756202D01*
X126737168Y-91594724D01*
X126876813Y-91407035D01*
X126902321Y-91356866D01*
X126980420Y-91203256D01*
X126980420Y-91203255D01*
X126982838Y-91198500D01*
X127052210Y-90975083D01*
X127052911Y-90969795D01*
X127082248Y-90748455D01*
X127082248Y-90748451D01*
X127082948Y-90743171D01*
X127080502Y-90678000D01*
X127074372Y-90514727D01*
X127074172Y-90509396D01*
X127026132Y-90280441D01*
X126940203Y-90062854D01*
X126818841Y-89862856D01*
X126665517Y-89686166D01*
X126484614Y-89537835D01*
X126479984Y-89535199D01*
X126479979Y-89535196D01*
X126447484Y-89516699D01*
X126398178Y-89465616D01*
X126384317Y-89395985D01*
X126410301Y-89329915D01*
X126439450Y-89302677D01*
X126480885Y-89274781D01*
X126567896Y-89216202D01*
X126737168Y-89054724D01*
X126876813Y-88867035D01*
X126932398Y-88757709D01*
X126980420Y-88663256D01*
X126980420Y-88663255D01*
X126982838Y-88658500D01*
X127052210Y-88435083D01*
X127058418Y-88388244D01*
X127082248Y-88208455D01*
X127082248Y-88208451D01*
X127082948Y-88203171D01*
X127080505Y-88138081D01*
X127074916Y-87989219D01*
X127074172Y-87969396D01*
X127026132Y-87740441D01*
X126940203Y-87522854D01*
X126868495Y-87404683D01*
X126821609Y-87327417D01*
X126821607Y-87327414D01*
X126818841Y-87322856D01*
X126665517Y-87146166D01*
X126627799Y-87115239D01*
X126587804Y-87056579D01*
X126585873Y-86985609D01*
X126622617Y-86924861D01*
X126645157Y-86909780D01*
X126644732Y-86909094D01*
X126788807Y-86819937D01*
X126800208Y-86810901D01*
X126914739Y-86696171D01*
X126923751Y-86684760D01*
X127008816Y-86546757D01*
X127014963Y-86533576D01*
X127066138Y-86379290D01*
X127069005Y-86365914D01*
X127078672Y-86271562D01*
X127079000Y-86265146D01*
X127079000Y-85870115D01*
X127074525Y-85854876D01*
X127073135Y-85853671D01*
X127065452Y-85852000D01*
X123891116Y-85852000D01*
X123875877Y-85856475D01*
X123874672Y-85857865D01*
X123873001Y-85865548D01*
X123873001Y-86265095D01*
X123873338Y-86271614D01*
X123883257Y-86367206D01*
X123886149Y-86380600D01*
X123937588Y-86534784D01*
X123943761Y-86547962D01*
X124029063Y-86685807D01*
X124038099Y-86697208D01*
X124152829Y-86811739D01*
X124164240Y-86820751D01*
X124308475Y-86909658D01*
X124307183Y-86911755D01*
X124351692Y-86950956D01*
X124371144Y-87019236D01*
X124350593Y-87087193D01*
X124332122Y-87109386D01*
X124214832Y-87221276D01*
X124075187Y-87408965D01*
X124072771Y-87413716D01*
X124072769Y-87413720D01*
X124016995Y-87523419D01*
X123969162Y-87617500D01*
X123899790Y-87840917D01*
X123899089Y-87846204D01*
X123899089Y-87846205D01*
X123880634Y-87985447D01*
X123869052Y-88072829D01*
X123877828Y-88306604D01*
X123925868Y-88535559D01*
X124011797Y-88753146D01*
X124133159Y-88953144D01*
X124286483Y-89129834D01*
X124467386Y-89278165D01*
X124472016Y-89280801D01*
X124472021Y-89280804D01*
X124504516Y-89299301D01*
X124553822Y-89350384D01*
X124567683Y-89420015D01*
X124541699Y-89486085D01*
X124512550Y-89513323D01*
X124480061Y-89535196D01*
X124384104Y-89599798D01*
X124214832Y-89761276D01*
X124075187Y-89948965D01*
X124072771Y-89953716D01*
X124072769Y-89953720D01*
X123974615Y-90146774D01*
X123969162Y-90157500D01*
X123899790Y-90380917D01*
X123899089Y-90386204D01*
X123899089Y-90386205D01*
X123882055Y-90514727D01*
X123869052Y-90612829D01*
X123869252Y-90618158D01*
X123869252Y-90618160D01*
X123871745Y-90684565D01*
X123877828Y-90846604D01*
X123925868Y-91075559D01*
X124011797Y-91293146D01*
X124014566Y-91297709D01*
X124118580Y-91469118D01*
X124133159Y-91493144D01*
X124286483Y-91669834D01*
X124467386Y-91818165D01*
X124472016Y-91820801D01*
X124472021Y-91820804D01*
X124504516Y-91839301D01*
X124553822Y-91890384D01*
X124567683Y-91960015D01*
X124541699Y-92026085D01*
X124512550Y-92053323D01*
X124504017Y-92059068D01*
X124384104Y-92139798D01*
X124380247Y-92143477D01*
X124380245Y-92143479D01*
X124379483Y-92144206D01*
X124214832Y-92301276D01*
X124075187Y-92488965D01*
X124072771Y-92493716D01*
X124072769Y-92493720D01*
X124014756Y-92607823D01*
X123969162Y-92697500D01*
X123899790Y-92920917D01*
X123899089Y-92926204D01*
X123899089Y-92926205D01*
X123871933Y-93131094D01*
X123869052Y-93152829D01*
X120904000Y-93152829D01*
X120904000Y-85325885D01*
X123873000Y-85325885D01*
X123877475Y-85341124D01*
X123878865Y-85342329D01*
X123886548Y-85344000D01*
X125203885Y-85344000D01*
X125219124Y-85339525D01*
X125220329Y-85338135D01*
X125222000Y-85330452D01*
X125222000Y-85325885D01*
X125730000Y-85325885D01*
X125734475Y-85341124D01*
X125735865Y-85342329D01*
X125743548Y-85344000D01*
X127060884Y-85344000D01*
X127076123Y-85339525D01*
X127077328Y-85338135D01*
X127078999Y-85330452D01*
X127078999Y-84930905D01*
X127078662Y-84924386D01*
X127068743Y-84828794D01*
X127065851Y-84815400D01*
X127014412Y-84661216D01*
X127008239Y-84648038D01*
X126922937Y-84510193D01*
X126913901Y-84498792D01*
X126799171Y-84384261D01*
X126787760Y-84375249D01*
X126649757Y-84290184D01*
X126636576Y-84284037D01*
X126482290Y-84232862D01*
X126468914Y-84229995D01*
X126374562Y-84220328D01*
X126368145Y-84220000D01*
X125748115Y-84220000D01*
X125732876Y-84224475D01*
X125731671Y-84225865D01*
X125730000Y-84233548D01*
X125730000Y-85325885D01*
X125222000Y-85325885D01*
X125222000Y-84238116D01*
X125217525Y-84222877D01*
X125216135Y-84221672D01*
X125208452Y-84220001D01*
X124583905Y-84220001D01*
X124577386Y-84220338D01*
X124481794Y-84230257D01*
X124468400Y-84233149D01*
X124314216Y-84284588D01*
X124301038Y-84290761D01*
X124163193Y-84376063D01*
X124151792Y-84385099D01*
X124037261Y-84499829D01*
X124028249Y-84511240D01*
X123943184Y-84649243D01*
X123937037Y-84662424D01*
X123885862Y-84816710D01*
X123882995Y-84830086D01*
X123873328Y-84924438D01*
X123873000Y-84930855D01*
X123873000Y-85325885D01*
X120904000Y-85325885D01*
X120904000Y-70104000D01*
X128100693Y-70104000D01*
X128119885Y-70323371D01*
X128176880Y-70536076D01*
X128179205Y-70541061D01*
X128267618Y-70730666D01*
X128267621Y-70730671D01*
X128269944Y-70735653D01*
X128396251Y-70916038D01*
X128551962Y-71071749D01*
X128556471Y-71074906D01*
X128556473Y-71074908D01*
X128587701Y-71096774D01*
X128732346Y-71198056D01*
X128931924Y-71291120D01*
X129144629Y-71348115D01*
X129364000Y-71367307D01*
X129583371Y-71348115D01*
X129796076Y-71291120D01*
X129995654Y-71198056D01*
X130140299Y-71096774D01*
X130171527Y-71074908D01*
X130171529Y-71074906D01*
X130176038Y-71071749D01*
X130331749Y-70916038D01*
X130458056Y-70735653D01*
X130460379Y-70730671D01*
X130460382Y-70730666D01*
X130548795Y-70541061D01*
X130551120Y-70536076D01*
X130608115Y-70323371D01*
X130627307Y-70104000D01*
X131500693Y-70104000D01*
X131519885Y-70323371D01*
X131576880Y-70536076D01*
X131579205Y-70541061D01*
X131667618Y-70730666D01*
X131667621Y-70730671D01*
X131669944Y-70735653D01*
X131796251Y-70916038D01*
X131951962Y-71071749D01*
X131956471Y-71074906D01*
X131956473Y-71074908D01*
X131987701Y-71096774D01*
X132132346Y-71198056D01*
X132331924Y-71291120D01*
X132544629Y-71348115D01*
X132764000Y-71367307D01*
X132983371Y-71348115D01*
X133196076Y-71291120D01*
X133395654Y-71198056D01*
X133540299Y-71096774D01*
X133571527Y-71074908D01*
X133571529Y-71074906D01*
X133576038Y-71071749D01*
X133731749Y-70916038D01*
X133858056Y-70735653D01*
X133860379Y-70730671D01*
X133860382Y-70730666D01*
X133948795Y-70541061D01*
X133951120Y-70536076D01*
X134008115Y-70323371D01*
X134027307Y-70104000D01*
X134008115Y-69884629D01*
X133951120Y-69671924D01*
X133902722Y-69568133D01*
X133860382Y-69477334D01*
X133860379Y-69477329D01*
X133858056Y-69472347D01*
X133798814Y-69387740D01*
X133734908Y-69296473D01*
X133734906Y-69296470D01*
X133731749Y-69291962D01*
X133576038Y-69136251D01*
X133395654Y-69009944D01*
X133196076Y-68916880D01*
X132983371Y-68859885D01*
X132764000Y-68840693D01*
X132544629Y-68859885D01*
X132331924Y-68916880D01*
X132267908Y-68946731D01*
X132137334Y-69007618D01*
X132137329Y-69007621D01*
X132132347Y-69009944D01*
X132127840Y-69013100D01*
X132127838Y-69013101D01*
X131956473Y-69133092D01*
X131956470Y-69133094D01*
X131951962Y-69136251D01*
X131796251Y-69291962D01*
X131793094Y-69296470D01*
X131793092Y-69296473D01*
X131729186Y-69387740D01*
X131669944Y-69472347D01*
X131667621Y-69477329D01*
X131667618Y-69477334D01*
X131625278Y-69568133D01*
X131576880Y-69671924D01*
X131519885Y-69884629D01*
X131500693Y-70104000D01*
X130627307Y-70104000D01*
X130608115Y-69884629D01*
X130551120Y-69671924D01*
X130502722Y-69568133D01*
X130460382Y-69477334D01*
X130460379Y-69477329D01*
X130458056Y-69472347D01*
X130398814Y-69387740D01*
X130334908Y-69296473D01*
X130334906Y-69296470D01*
X130331749Y-69291962D01*
X130176038Y-69136251D01*
X129995654Y-69009944D01*
X129796076Y-68916880D01*
X129583371Y-68859885D01*
X129364000Y-68840693D01*
X129144629Y-68859885D01*
X128931924Y-68916880D01*
X128867908Y-68946731D01*
X128737334Y-69007618D01*
X128737329Y-69007621D01*
X128732347Y-69009944D01*
X128727840Y-69013100D01*
X128727838Y-69013101D01*
X128556473Y-69133092D01*
X128556470Y-69133094D01*
X128551962Y-69136251D01*
X128396251Y-69291962D01*
X128393094Y-69296470D01*
X128393092Y-69296473D01*
X128329186Y-69387740D01*
X128269944Y-69472347D01*
X128267621Y-69477329D01*
X128267618Y-69477334D01*
X128225278Y-69568133D01*
X128176880Y-69671924D01*
X128119885Y-69884629D01*
X128100693Y-70104000D01*
X120904000Y-70104000D01*
X120904000Y-65839037D01*
X142395544Y-65839037D01*
X142410490Y-65991470D01*
X142413401Y-66005164D01*
X142461746Y-66150493D01*
X142466713Y-66161243D01*
X142476488Y-66170180D01*
X142485107Y-66166518D01*
X142796316Y-65855308D01*
X142802693Y-65843629D01*
X143486074Y-65843629D01*
X143486205Y-65845468D01*
X143490453Y-65852077D01*
X143520005Y-65881630D01*
X143520004Y-65881630D01*
X143520005Y-65881631D01*
X143894690Y-66256315D01*
X143908630Y-66263927D01*
X143910466Y-66263795D01*
X143917078Y-66259546D01*
X144294995Y-65881630D01*
X144294997Y-65881628D01*
X144321315Y-65855309D01*
X144327693Y-65843629D01*
X145011074Y-65843629D01*
X145011205Y-65845468D01*
X145015453Y-65852077D01*
X145045005Y-65881630D01*
X145045004Y-65881630D01*
X145045005Y-65881631D01*
X145419690Y-66256315D01*
X145433630Y-66263927D01*
X145435466Y-66263795D01*
X145442078Y-66259546D01*
X145819995Y-65881630D01*
X145819997Y-65881628D01*
X145846315Y-65855309D01*
X145852692Y-65843630D01*
X146536073Y-65843630D01*
X146536205Y-65845466D01*
X146540454Y-65852078D01*
X146852622Y-66164247D01*
X146865001Y-66171006D01*
X146868817Y-66168149D01*
X146919146Y-66035657D01*
X146922628Y-66022096D01*
X146944374Y-65867369D01*
X146944980Y-65859487D01*
X146945162Y-65846447D01*
X146944777Y-65838577D01*
X146927359Y-65683290D01*
X146924257Y-65669637D01*
X146873889Y-65525000D01*
X146871976Y-65521009D01*
X146864271Y-65514159D01*
X146855220Y-65518155D01*
X146543684Y-65829692D01*
X146536073Y-65843630D01*
X145852692Y-65843630D01*
X145853926Y-65841371D01*
X145853795Y-65839533D01*
X145849545Y-65832921D01*
X145471630Y-65455005D01*
X145471628Y-65455003D01*
X145445309Y-65428685D01*
X145431371Y-65421074D01*
X145429533Y-65421205D01*
X145422921Y-65425455D01*
X145045005Y-65803370D01*
X145045003Y-65803372D01*
X145018685Y-65829691D01*
X145011074Y-65843629D01*
X144327693Y-65843629D01*
X144328926Y-65841371D01*
X144328795Y-65839533D01*
X144324545Y-65832921D01*
X143946630Y-65455005D01*
X143946628Y-65455003D01*
X143920309Y-65428685D01*
X143906371Y-65421074D01*
X143904533Y-65421205D01*
X143897921Y-65425455D01*
X143520005Y-65803370D01*
X143520003Y-65803372D01*
X143493685Y-65829691D01*
X143486074Y-65843629D01*
X142802693Y-65843629D01*
X142803927Y-65841370D01*
X142803795Y-65839534D01*
X142799546Y-65832922D01*
X142486825Y-65520201D01*
X142474445Y-65513441D01*
X142470231Y-65516596D01*
X142418227Y-65659473D01*
X142414935Y-65673081D01*
X142395740Y-65825031D01*
X142395544Y-65839037D01*
X120904000Y-65839037D01*
X120904000Y-65173621D01*
X142817003Y-65173621D01*
X142820827Y-65182451D01*
X143132188Y-65493812D01*
X143146132Y-65501426D01*
X143147967Y-65501295D01*
X143154577Y-65497047D01*
X143532495Y-65119130D01*
X143532497Y-65119128D01*
X143558815Y-65092809D01*
X143565192Y-65081130D01*
X144248573Y-65081130D01*
X144248705Y-65082966D01*
X144252954Y-65089578D01*
X144282505Y-65119130D01*
X144282504Y-65119130D01*
X144282505Y-65119131D01*
X144657190Y-65493815D01*
X144671130Y-65501427D01*
X144672966Y-65501295D01*
X144679578Y-65497046D01*
X145057495Y-65119130D01*
X145057497Y-65119128D01*
X145083815Y-65092809D01*
X145090192Y-65081130D01*
X145773573Y-65081130D01*
X145773705Y-65082966D01*
X145777954Y-65089578D01*
X145807505Y-65119130D01*
X145807504Y-65119130D01*
X145807505Y-65119131D01*
X146182190Y-65493815D01*
X146196130Y-65501427D01*
X146197966Y-65501295D01*
X146204578Y-65497046D01*
X146516900Y-65184725D01*
X146523659Y-65172346D01*
X146519689Y-65167043D01*
X146517232Y-65165844D01*
X146372948Y-65114467D01*
X146359323Y-65111272D01*
X146283041Y-65102175D01*
X146217768Y-65074247D01*
X146177956Y-65015464D01*
X146172746Y-64991106D01*
X146164859Y-64920790D01*
X146161757Y-64907137D01*
X146111389Y-64762500D01*
X146109476Y-64758509D01*
X146101771Y-64751659D01*
X146092720Y-64755655D01*
X145781184Y-65067192D01*
X145773573Y-65081130D01*
X145090192Y-65081130D01*
X145091426Y-65078871D01*
X145091295Y-65077034D01*
X145087044Y-65070420D01*
X144774325Y-64757701D01*
X144761945Y-64750941D01*
X144743329Y-64764877D01*
X144676809Y-64789688D01*
X144607435Y-64774597D01*
X144584110Y-64758183D01*
X144576771Y-64751659D01*
X144567720Y-64755655D01*
X144256184Y-65067192D01*
X144248573Y-65081130D01*
X143565192Y-65081130D01*
X143566426Y-65078871D01*
X143566295Y-65077034D01*
X143562044Y-65070420D01*
X143249325Y-64757701D01*
X143236945Y-64750941D01*
X143232731Y-64754096D01*
X143180727Y-64896973D01*
X143177435Y-64910582D01*
X143167052Y-64992770D01*
X143138670Y-65057847D01*
X143079610Y-65097248D01*
X143055217Y-65102288D01*
X142990902Y-65109048D01*
X142977238Y-65112053D01*
X142832243Y-65161412D01*
X142824889Y-65164873D01*
X142817003Y-65173621D01*
X120904000Y-65173621D01*
X120904000Y-64411121D01*
X143579503Y-64411121D01*
X143583327Y-64419951D01*
X143894688Y-64731312D01*
X143908632Y-64738926D01*
X143910467Y-64738795D01*
X143917077Y-64734547D01*
X144229400Y-64422225D01*
X144235463Y-64411121D01*
X145104503Y-64411121D01*
X145108327Y-64419951D01*
X145419688Y-64731312D01*
X145433632Y-64738926D01*
X145435467Y-64738795D01*
X145442077Y-64734547D01*
X145754400Y-64422225D01*
X145761159Y-64409846D01*
X145757189Y-64404543D01*
X145754732Y-64403344D01*
X145610448Y-64351967D01*
X145596822Y-64348771D01*
X145444729Y-64330635D01*
X145430733Y-64330537D01*
X145278402Y-64346548D01*
X145264738Y-64349553D01*
X145119743Y-64398912D01*
X145112389Y-64402373D01*
X145104503Y-64411121D01*
X144235463Y-64411121D01*
X144236159Y-64409846D01*
X144232189Y-64404543D01*
X144229732Y-64403344D01*
X144085448Y-64351967D01*
X144071822Y-64348771D01*
X143919729Y-64330635D01*
X143905733Y-64330537D01*
X143753402Y-64346548D01*
X143739738Y-64349553D01*
X143594743Y-64398912D01*
X143587389Y-64402373D01*
X143579503Y-64411121D01*
X120904000Y-64411121D01*
X120904000Y-53669936D01*
X120924002Y-53601815D01*
X120977658Y-53555322D01*
X120995373Y-53548788D01*
X121113771Y-53514949D01*
X121156765Y-53487822D01*
X121225050Y-53468388D01*
X121293002Y-53488957D01*
G37*
G04 #@! TD.AperFunction*
G04 #@! TA.AperFunction,Conductor*
G36*
X157308012Y-81753198D02*
G01*
X157314595Y-81759327D01*
X158331595Y-82776327D01*
X158365621Y-82838639D01*
X158368500Y-82865422D01*
X158368500Y-85659697D01*
X158348498Y-85727818D01*
X158336136Y-85744006D01*
X158264960Y-85823056D01*
X158220069Y-85900810D01*
X158187104Y-85957907D01*
X158169473Y-85988444D01*
X158110458Y-86170072D01*
X158109768Y-86176633D01*
X158109768Y-86176635D01*
X158101555Y-86254781D01*
X158090496Y-86360000D01*
X158091186Y-86366565D01*
X158104672Y-86494873D01*
X158110458Y-86549928D01*
X158169473Y-86731556D01*
X158172776Y-86737278D01*
X158172777Y-86737279D01*
X158186184Y-86760500D01*
X158264960Y-86896944D01*
X158269378Y-86901851D01*
X158269379Y-86901852D01*
X158375072Y-87019236D01*
X158392747Y-87038866D01*
X158547248Y-87151118D01*
X158553276Y-87153802D01*
X158553278Y-87153803D01*
X158715681Y-87226109D01*
X158721712Y-87228794D01*
X158815113Y-87248647D01*
X158902056Y-87267128D01*
X158902061Y-87267128D01*
X158908513Y-87268500D01*
X159099487Y-87268500D01*
X159105939Y-87267128D01*
X159105944Y-87267128D01*
X159192888Y-87248647D01*
X159286288Y-87228794D01*
X159292319Y-87226109D01*
X159454722Y-87153803D01*
X159454724Y-87153802D01*
X159460752Y-87151118D01*
X159615253Y-87038866D01*
X159632928Y-87019236D01*
X159738621Y-86901852D01*
X159738622Y-86901851D01*
X159743040Y-86896944D01*
X159787270Y-86820336D01*
X159838651Y-86771344D01*
X159908365Y-86757908D01*
X159912517Y-86758545D01*
X159918053Y-86759127D01*
X159924513Y-86760500D01*
X159985500Y-86760500D01*
X160053621Y-86780502D01*
X160100114Y-86834158D01*
X160111500Y-86886500D01*
X160111500Y-91667577D01*
X160091498Y-91735698D01*
X160074595Y-91756673D01*
X159171957Y-92659310D01*
X159109645Y-92693335D01*
X159082862Y-92696214D01*
X159029799Y-92696214D01*
X159023347Y-92697586D01*
X159023342Y-92697586D01*
X158936399Y-92716067D01*
X158842998Y-92735920D01*
X158836968Y-92738605D01*
X158836967Y-92738605D01*
X158674564Y-92810911D01*
X158674562Y-92810912D01*
X158668534Y-92813596D01*
X158663193Y-92817476D01*
X158663192Y-92817477D01*
X158651918Y-92825668D01*
X158514033Y-92925848D01*
X158386246Y-93067770D01*
X158382947Y-93073484D01*
X158382243Y-93074453D01*
X158326019Y-93117805D01*
X158255282Y-93123877D01*
X158191215Y-93089483D01*
X156808279Y-91706546D01*
X156774253Y-91644234D01*
X156779318Y-91573418D01*
X156821865Y-91516583D01*
X156846125Y-91502344D01*
X156914722Y-91471803D01*
X156914724Y-91471802D01*
X156920752Y-91469118D01*
X157075253Y-91356866D01*
X157154247Y-91269134D01*
X157198621Y-91219852D01*
X157198622Y-91219851D01*
X157203040Y-91214944D01*
X157298527Y-91049556D01*
X157357542Y-90867928D01*
X157377504Y-90678000D01*
X157357542Y-90488072D01*
X157298527Y-90306444D01*
X157203040Y-90141056D01*
X157131864Y-90062007D01*
X157101146Y-89998000D01*
X157099500Y-89977697D01*
X157099500Y-81848422D01*
X157119502Y-81780301D01*
X157173158Y-81733808D01*
X157243432Y-81723704D01*
X157308012Y-81753198D01*
G37*
G04 #@! TD.AperFunction*
M02*
