M48
INCH,TZ
T1C0.0079
T2C0.0157
T3C0.0197
T4C0.0315
T5C0.0394
T6C0.0400
T7C0.0433
T8C0.0469
T9C0.0630
%
G90
G05
T1
X56356Y-25922
X56356Y-26523
X56656Y-25622
X56656Y-26222
X56656Y-26823
X56957Y-25922
X56957Y-26523
X57257Y-25622
X57257Y-26222
X57257Y-26823
X57557Y-25922
X57557Y-26523
T2
X48600Y-28300
X48700Y-25400
X49000Y-23700
X50100Y-25300
X50300Y-30500
X50500Y-32300
X51000Y-30900
X51500Y-41900
X51700Y-27000
X51800Y-30400
X52300Y-35600
X53800Y-36200
X54614Y-28200
X54700Y-23900
X54800Y-27500
X55014Y-26900
X55200Y-37300
X55300Y-26300
X56000Y-33200
X57000Y-38900
X57100Y-48100
X57300Y-29100
X57300Y-36700
X57300Y-42500
X57400Y-24100
X58300Y-46400
X58600Y-37200
X58900Y-35400
X59500Y-26400
X59700Y-23900
X59700Y-37900
X59800Y-29300
X60700Y-30900
X61000Y-34900
X61200Y-44400
X61300Y-31200
X61600Y-35700
X61700Y-27800
X61900Y-35100
X62000Y-38100
X62500Y-26800
X62500Y-29300
X62600Y-34000
X62648Y-36852
X62733Y-36000
X63000Y-33800
X63000Y-48600
X63012Y-37224
X63298Y-37502
X64300Y-29100
X64400Y-26400
X64600Y-27400
X64700Y-33900
X64900Y-23800
X65000Y-47000
X65200Y-31700
X66200Y-23500
X66200Y-33800
X66300Y-36600
T4
X50931Y-27600
X52269Y-27600
X59264Y-33100
X60642Y-33100
T5
X55064Y-33500
X57032Y-33500
T6
X52800Y-32300
X52800Y-33300
X52800Y-34300
T7
X48514Y-45820
X48514Y-48380
X50286Y-45820
X50286Y-48380
X64014Y-45920
X64014Y-48480
X65786Y-45920
X65786Y-48480
T8
X49400Y-33700
X49400Y-34700
X49400Y-35700
X49400Y-36700
X49400Y-39000
X49400Y-40000
X65008Y-38600
X65008Y-39600
X65008Y-40600
X65008Y-41600
X65008Y-42600
X65008Y-43600
T9
X54600Y-43400
X54600Y-45762
X56450Y-44581
T3
G00X58735Y-48523
M15
G01X58460Y-48523
M16
G05
G00X59917Y-47677
M15
G01X59483Y-47677
M16
G05
G00X60940Y-48523
M15
G01X60665Y-48523
M16
G05
T0
M30
