G04 #@! TF.GenerationSoftware,KiCad,Pcbnew,(6.0.10-0)*
G04 #@! TF.CreationDate,2023-03-29T16:12:46-05:00*
G04 #@! TF.ProjectId,v1.0,76312e30-2e6b-4696-9361-645f70636258,rev?*
G04 #@! TF.SameCoordinates,Original*
G04 #@! TF.FileFunction,Paste,Top*
G04 #@! TF.FilePolarity,Positive*
%FSLAX46Y46*%
G04 Gerber Fmt 4.6, Leading zero omitted, Abs format (unit mm)*
G04 Created by KiCad (PCBNEW (6.0.10-0)) date 2023-03-29 16:12:46*
%MOMM*%
%LPD*%
G01*
G04 APERTURE LIST*
G04 Aperture macros list*
%AMRoundRect*
0 Rectangle with rounded corners*
0 $1 Rounding radius*
0 $2 $3 $4 $5 $6 $7 $8 $9 X,Y pos of 4 corners*
0 Add a 4 corners polygon primitive as box body*
4,1,4,$2,$3,$4,$5,$6,$7,$8,$9,$2,$3,0*
0 Add four circle primitives for the rounded corners*
1,1,$1+$1,$2,$3*
1,1,$1+$1,$4,$5*
1,1,$1+$1,$6,$7*
1,1,$1+$1,$8,$9*
0 Add four rect primitives between the rounded corners*
20,1,$1+$1,$2,$3,$4,$5,0*
20,1,$1+$1,$4,$5,$6,$7,0*
20,1,$1+$1,$6,$7,$8,$9,0*
20,1,$1+$1,$8,$9,$2,$3,0*%
%AMFreePoly0*
4,1,9,5.362500,-0.866500,1.237500,-0.866500,1.237500,-0.450000,-1.237500,-0.450000,-1.237500,0.450000,1.237500,0.450000,1.237500,0.866500,5.362500,0.866500,5.362500,-0.866500,5.362500,-0.866500,$1*%
G04 Aperture macros list end*
%ADD10RoundRect,0.150000X-0.825000X-0.150000X0.825000X-0.150000X0.825000X0.150000X-0.825000X0.150000X0*%
%ADD11RoundRect,0.250000X-0.350000X-0.450000X0.350000X-0.450000X0.350000X0.450000X-0.350000X0.450000X0*%
%ADD12RoundRect,0.250000X0.475000X-0.337500X0.475000X0.337500X-0.475000X0.337500X-0.475000X-0.337500X0*%
%ADD13RoundRect,0.250000X-0.475000X0.337500X-0.475000X-0.337500X0.475000X-0.337500X0.475000X0.337500X0*%
%ADD14R,0.900000X1.200000*%
%ADD15RoundRect,0.250000X0.350000X0.450000X-0.350000X0.450000X-0.350000X-0.450000X0.350000X-0.450000X0*%
%ADD16R,2.300000X0.900000*%
%ADD17FreePoly0,0.000000*%
%ADD18R,1.500000X0.900000*%
%ADD19R,0.900000X1.500000*%
%ADD20R,1.050000X1.050000*%
%ADD21R,1.505000X0.802000*%
%ADD22R,1.567800X2.101200*%
%ADD23R,0.450000X1.500000*%
G04 APERTURE END LIST*
D10*
X161863000Y-65532000D03*
X161863000Y-66802000D03*
X161863000Y-68072000D03*
X161863000Y-69342000D03*
X161863000Y-70612000D03*
X161863000Y-71882000D03*
X161863000Y-73152000D03*
X166813000Y-73152000D03*
X166813000Y-71882000D03*
X166813000Y-70612000D03*
X166813000Y-69342000D03*
X166813000Y-68072000D03*
X166813000Y-66802000D03*
X166813000Y-65532000D03*
D11*
X133366000Y-100838000D03*
X135366000Y-100838000D03*
D12*
X131572000Y-113051500D03*
X131572000Y-110976500D03*
D11*
X131842000Y-75184000D03*
X133842000Y-75184000D03*
D12*
X144018000Y-95017500D03*
X144018000Y-92942500D03*
D13*
X166370000Y-59922500D03*
X166370000Y-61997500D03*
D12*
X161290000Y-84349500D03*
X161290000Y-82274500D03*
X166878000Y-84349500D03*
X166878000Y-82274500D03*
X163068000Y-61997500D03*
X163068000Y-59922500D03*
D14*
X129666000Y-75438000D03*
X126366000Y-75438000D03*
D11*
X133366000Y-97282000D03*
X135366000Y-97282000D03*
D12*
X130810000Y-60176500D03*
X130810000Y-62251500D03*
D13*
X147066000Y-92942500D03*
X147066000Y-95017500D03*
D12*
X133604000Y-62251500D03*
X133604000Y-60176500D03*
D15*
X135366000Y-93980000D03*
X133366000Y-93980000D03*
D11*
X130064000Y-65532000D03*
X132064000Y-65532000D03*
D16*
X150680000Y-91790000D03*
D17*
X150767500Y-93290000D03*
D16*
X150680000Y-94790000D03*
D18*
X136600000Y-59265000D03*
X136600000Y-60535000D03*
X136600000Y-61805000D03*
X136600000Y-63075000D03*
X136600000Y-64345000D03*
X136600000Y-65615000D03*
X136600000Y-66885000D03*
X136600000Y-68155000D03*
X136600000Y-69425000D03*
X136600000Y-70695000D03*
X136600000Y-71965000D03*
X136600000Y-73235000D03*
X136600000Y-74505000D03*
X136600000Y-75775000D03*
D19*
X139640000Y-77025000D03*
X140910000Y-77025000D03*
X142180000Y-77025000D03*
X143450000Y-77025000D03*
X144720000Y-77025000D03*
X145990000Y-77025000D03*
X147260000Y-77025000D03*
X148530000Y-77025000D03*
X149800000Y-77025000D03*
X151070000Y-77025000D03*
D18*
X154100000Y-75775000D03*
X154100000Y-74505000D03*
X154100000Y-73235000D03*
X154100000Y-71965000D03*
X154100000Y-70695000D03*
X154100000Y-69425000D03*
X154100000Y-68155000D03*
X154100000Y-66885000D03*
X154100000Y-65615000D03*
X154100000Y-64345000D03*
X154100000Y-63075000D03*
X154100000Y-61805000D03*
X154100000Y-60535000D03*
X154100000Y-59265000D03*
D20*
X146195000Y-68130000D03*
X143145000Y-65080000D03*
X144670000Y-66605000D03*
X144670000Y-68130000D03*
X146195000Y-65080000D03*
X143145000Y-66605000D03*
X144670000Y-65080000D03*
X143145000Y-68130000D03*
X146195000Y-66605000D03*
D12*
X164084000Y-84349500D03*
X164084000Y-82274500D03*
D14*
X160146000Y-60452000D03*
X156846000Y-60452000D03*
D21*
X164338000Y-91440000D03*
X164338000Y-90170000D03*
X164338000Y-88900000D03*
X164338000Y-87630000D03*
X159343000Y-87630000D03*
X159343000Y-88900000D03*
X159343000Y-90170000D03*
X159343000Y-91440000D03*
D22*
X161840500Y-89535000D03*
D12*
X167682500Y-91080500D03*
X167682500Y-89005500D03*
X128016000Y-60176500D03*
X128016000Y-62251500D03*
X158496000Y-84349500D03*
X158496000Y-82274500D03*
D23*
X152938000Y-122999000D03*
X152288000Y-122999000D03*
X151638000Y-122999000D03*
X150988000Y-122999000D03*
X150338000Y-122999000D03*
M02*
