G04 #@! TF.GenerationSoftware,KiCad,Pcbnew,(6.0.10-0)*
G04 #@! TF.CreationDate,2023-04-17T00:01:30-05:00*
G04 #@! TF.ProjectId,v2.0,76322e30-2e6b-4696-9361-645f70636258,v2.0*
G04 #@! TF.SameCoordinates,Original*
G04 #@! TF.FileFunction,Copper,L1,Top*
G04 #@! TF.FilePolarity,Positive*
%FSLAX46Y46*%
G04 Gerber Fmt 4.6, Leading zero omitted, Abs format (unit mm)*
G04 Created by KiCad (PCBNEW (6.0.10-0)) date 2023-04-17 00:01:30*
%MOMM*%
%LPD*%
G01*
G04 APERTURE LIST*
G04 Aperture macros list*
%AMRoundRect*
0 Rectangle with rounded corners*
0 $1 Rounding radius*
0 $2 $3 $4 $5 $6 $7 $8 $9 X,Y pos of 4 corners*
0 Add a 4 corners polygon primitive as box body*
4,1,4,$2,$3,$4,$5,$6,$7,$8,$9,$2,$3,0*
0 Add four circle primitives for the rounded corners*
1,1,$1+$1,$2,$3*
1,1,$1+$1,$4,$5*
1,1,$1+$1,$6,$7*
1,1,$1+$1,$8,$9*
0 Add four rect primitives between the rounded corners*
20,1,$1+$1,$2,$3,$4,$5,0*
20,1,$1+$1,$4,$5,$6,$7,0*
20,1,$1+$1,$6,$7,$8,$9,0*
20,1,$1+$1,$8,$9,$2,$3,0*%
G04 Aperture macros list end*
G04 #@! TA.AperFunction,ComponentPad*
%ADD10RoundRect,0.250000X0.620000X0.845000X-0.620000X0.845000X-0.620000X-0.845000X0.620000X-0.845000X0*%
G04 #@! TD*
G04 #@! TA.AperFunction,ComponentPad*
%ADD11O,1.740000X2.190000*%
G04 #@! TD*
G04 #@! TA.AperFunction,ComponentPad*
%ADD12R,2.000000X2.000000*%
G04 #@! TD*
G04 #@! TA.AperFunction,ComponentPad*
%ADD13C,2.000000*%
G04 #@! TD*
G04 #@! TA.AperFunction,SMDPad,CuDef*
%ADD14RoundRect,0.250000X-0.475000X0.337500X-0.475000X-0.337500X0.475000X-0.337500X0.475000X0.337500X0*%
G04 #@! TD*
G04 #@! TA.AperFunction,SMDPad,CuDef*
%ADD15R,2.500000X2.500000*%
G04 #@! TD*
G04 #@! TA.AperFunction,ComponentPad*
%ADD16R,1.600000X1.600000*%
G04 #@! TD*
G04 #@! TA.AperFunction,ComponentPad*
%ADD17C,1.600000*%
G04 #@! TD*
G04 #@! TA.AperFunction,ComponentPad*
%ADD18O,1.600000X1.600000*%
G04 #@! TD*
G04 #@! TA.AperFunction,SMDPad,CuDef*
%ADD19RoundRect,0.250000X0.475000X-0.337500X0.475000X0.337500X-0.475000X0.337500X-0.475000X-0.337500X0*%
G04 #@! TD*
G04 #@! TA.AperFunction,SMDPad,CuDef*
%ADD20RoundRect,0.250000X-0.350000X-0.450000X0.350000X-0.450000X0.350000X0.450000X-0.350000X0.450000X0*%
G04 #@! TD*
G04 #@! TA.AperFunction,ComponentPad*
%ADD21R,1.700000X1.700000*%
G04 #@! TD*
G04 #@! TA.AperFunction,ComponentPad*
%ADD22O,1.700000X1.700000*%
G04 #@! TD*
G04 #@! TA.AperFunction,ComponentPad*
%ADD23R,2.000000X1.905000*%
G04 #@! TD*
G04 #@! TA.AperFunction,ComponentPad*
%ADD24O,2.000000X1.905000*%
G04 #@! TD*
G04 #@! TA.AperFunction,ComponentPad*
%ADD25C,1.500000*%
G04 #@! TD*
G04 #@! TA.AperFunction,ComponentPad*
%ADD26R,2.600000X2.600000*%
G04 #@! TD*
G04 #@! TA.AperFunction,ComponentPad*
%ADD27C,2.600000*%
G04 #@! TD*
G04 #@! TA.AperFunction,ViaPad*
%ADD28C,0.800000*%
G04 #@! TD*
G04 #@! TA.AperFunction,Conductor*
%ADD29C,0.508000*%
G04 #@! TD*
G04 #@! TA.AperFunction,Conductor*
%ADD30C,0.762000*%
G04 #@! TD*
G04 #@! TA.AperFunction,Conductor*
%ADD31C,0.254000*%
G04 #@! TD*
G04 APERTURE END LIST*
D10*
X213360000Y-101072000D03*
D11*
X210820000Y-101072000D03*
X208280000Y-101072000D03*
X205740000Y-101072000D03*
X203200000Y-101072000D03*
X200660000Y-101072000D03*
D12*
X204342248Y-90170000D03*
D13*
X199342248Y-90170000D03*
D14*
X207772000Y-116056500D03*
X207772000Y-118131500D03*
D15*
X225044000Y-129032000D03*
D16*
X214808134Y-89662000D03*
D17*
X211308134Y-89662000D03*
D15*
X207772000Y-123190000D03*
X230632000Y-72898000D03*
D16*
X222504000Y-87376000D03*
D18*
X222504000Y-89916000D03*
X222504000Y-92456000D03*
X222504000Y-94996000D03*
X222504000Y-97536000D03*
X222504000Y-100076000D03*
X222504000Y-102616000D03*
X222504000Y-105156000D03*
X230124000Y-105156000D03*
X230124000Y-102616000D03*
X230124000Y-100076000D03*
X230124000Y-97536000D03*
X230124000Y-94996000D03*
X230124000Y-92456000D03*
X230124000Y-89916000D03*
X230124000Y-87376000D03*
D19*
X217170000Y-105939500D03*
X217170000Y-103864500D03*
D20*
X229378000Y-48788000D03*
X231378000Y-48788000D03*
D15*
X229616000Y-37846000D03*
D21*
X203962000Y-35560000D03*
D22*
X203962000Y-38100000D03*
X203962000Y-40640000D03*
X203962000Y-43180000D03*
X203962000Y-45720000D03*
X203962000Y-48260000D03*
X203962000Y-50800000D03*
X203962000Y-53340000D03*
X203962000Y-55880000D03*
X203962000Y-58420000D03*
X203962000Y-60960000D03*
X203962000Y-63500000D03*
X203962000Y-66040000D03*
X203962000Y-68580000D03*
X203962000Y-71120000D03*
X203962000Y-73660000D03*
X203962000Y-76200000D03*
X203962000Y-78740000D03*
X203962000Y-81280000D03*
D20*
X229632000Y-68072000D03*
X231632000Y-68072000D03*
D10*
X232156000Y-55098000D03*
D11*
X229616000Y-55098000D03*
D19*
X232918000Y-89937500D03*
X232918000Y-87862500D03*
D20*
X197628000Y-80772000D03*
X199628000Y-80772000D03*
D23*
X199319000Y-65278000D03*
D24*
X199319000Y-62738000D03*
X199319000Y-60198000D03*
D21*
X225298000Y-81280000D03*
D22*
X225298000Y-78740000D03*
X225298000Y-76200000D03*
X225298000Y-73660000D03*
X225298000Y-71120000D03*
X225298000Y-68580000D03*
X225298000Y-66040000D03*
X225298000Y-63500000D03*
X225298000Y-60960000D03*
X225298000Y-58420000D03*
X225298000Y-55880000D03*
X225298000Y-53340000D03*
X225298000Y-50800000D03*
X225298000Y-48260000D03*
X225298000Y-45720000D03*
X225298000Y-43180000D03*
X225298000Y-40640000D03*
X225298000Y-38100000D03*
X225298000Y-35560000D03*
D19*
X219710000Y-100605500D03*
X219710000Y-98530500D03*
X219710000Y-105939500D03*
X219710000Y-103864500D03*
D25*
X232586000Y-62992000D03*
X229186000Y-62992000D03*
D15*
X199390000Y-37084000D03*
D23*
X224282000Y-117856000D03*
D24*
X224282000Y-120396000D03*
X224282000Y-122936000D03*
D15*
X207772000Y-128778000D03*
D10*
X199898000Y-73132000D03*
D11*
X197358000Y-73132000D03*
D14*
X221742000Y-127994500D03*
X221742000Y-130069500D03*
D15*
X229616000Y-42926000D03*
X198628000Y-53594000D03*
D19*
X217170000Y-100605500D03*
X217170000Y-98530500D03*
D26*
X215221000Y-116482000D03*
D27*
X215221000Y-122482000D03*
X219921000Y-119482000D03*
D28*
X214630000Y-67056000D03*
X197612000Y-44958000D03*
X214122000Y-104902000D03*
X231902000Y-120650000D03*
X205994000Y-84836000D03*
X207518000Y-49784000D03*
X220472000Y-55118000D03*
X229362000Y-83566000D03*
X232410000Y-39624000D03*
X199390000Y-83058000D03*
X214630000Y-76962000D03*
X201676000Y-122174000D03*
X231902000Y-108966000D03*
X198374000Y-106680000D03*
X220980000Y-38862000D03*
X215392000Y-126746000D03*
X216408000Y-94996000D03*
X220980000Y-85344000D03*
X224536000Y-100584000D03*
X225552000Y-93726000D03*
D29*
X203962000Y-81280000D02*
X218678000Y-81280000D01*
X224006500Y-127994500D02*
X225044000Y-129032000D01*
X218678000Y-81280000D02*
X224774000Y-87376000D01*
X221742000Y-127994500D02*
X224006500Y-127994500D01*
X226406000Y-120812000D02*
X226406000Y-89008000D01*
X221742000Y-127994500D02*
X224282000Y-125454500D01*
X226406000Y-89008000D02*
X224774000Y-87376000D01*
X224774000Y-87376000D02*
X230124000Y-87376000D01*
X230124000Y-87376000D02*
X232431500Y-87376000D01*
X232431500Y-87376000D02*
X232918000Y-87862500D01*
X224282000Y-125454500D02*
X224282000Y-122936000D01*
X224282000Y-122936000D02*
X226406000Y-120812000D01*
D30*
X217170000Y-100518211D02*
X214808134Y-98156345D01*
X213951000Y-109158500D02*
X217170000Y-105939500D01*
X219710000Y-105939500D02*
X221212500Y-105939500D01*
X207772000Y-116056500D02*
X208197500Y-116482000D01*
X217170000Y-100605500D02*
X219710000Y-100605500D01*
X213792976Y-116482000D02*
X215221000Y-116482000D01*
X222908000Y-116482000D02*
X224282000Y-117856000D01*
X221016000Y-101911500D02*
X221016000Y-105743000D01*
X214480000Y-116482000D02*
X207772000Y-123190000D01*
X208197500Y-116482000D02*
X215221000Y-116482000D01*
X214808134Y-98156345D02*
X214808134Y-89662000D01*
X214808134Y-98156345D02*
X206821789Y-90170000D01*
X197628000Y-80772000D02*
X197628000Y-100317024D01*
X206821789Y-90170000D02*
X204342248Y-90170000D01*
X215221000Y-116482000D02*
X214480000Y-116482000D01*
X213951000Y-116503500D02*
X213951000Y-109158500D01*
X217170000Y-100605500D02*
X217170000Y-100518211D01*
X221720500Y-105939500D02*
X222504000Y-105156000D01*
X217170000Y-105939500D02*
X219710000Y-105939500D01*
X215221000Y-116482000D02*
X222908000Y-116482000D01*
X221016000Y-105743000D02*
X221212500Y-105939500D01*
X219710000Y-100605500D02*
X221016000Y-101911500D01*
X197628000Y-100317024D02*
X213792976Y-116482000D01*
X221212500Y-105939500D02*
X221720500Y-105939500D01*
D31*
X229616000Y-37846000D02*
X226475000Y-40987000D01*
X226475000Y-54703000D02*
X225298000Y-55880000D01*
X220980000Y-88392000D02*
X220980000Y-85344000D01*
X222504000Y-89916000D02*
X220980000Y-88392000D01*
X226475000Y-40987000D02*
X226475000Y-54703000D01*
X228346000Y-42926000D02*
X229616000Y-42926000D01*
X227076000Y-56642000D02*
X227076000Y-44196000D01*
X227076000Y-44196000D02*
X228346000Y-42926000D01*
X225298000Y-58420000D02*
X227076000Y-56642000D01*
X200660000Y-55626000D02*
X200660000Y-64262000D01*
X200660000Y-64262000D02*
X199644000Y-65278000D01*
X198628000Y-53594000D02*
X200660000Y-55626000D01*
X199319000Y-66477000D02*
X199319000Y-65278000D01*
X203962000Y-71120000D02*
X199319000Y-66477000D01*
X199644000Y-65278000D02*
X199319000Y-65278000D01*
D29*
X199390000Y-37084000D02*
X202438000Y-37084000D01*
D31*
X232586000Y-58068000D02*
X229616000Y-55098000D01*
D29*
X202438000Y-37084000D02*
X203962000Y-35560000D01*
D31*
X232586000Y-62992000D02*
X232586000Y-58068000D01*
X229632000Y-68072000D02*
X227330000Y-68072000D01*
X228346000Y-62992000D02*
X229186000Y-62992000D01*
X227330000Y-68072000D02*
X225298000Y-66040000D01*
X230632000Y-69072000D02*
X229632000Y-68072000D01*
X230632000Y-72898000D02*
X230632000Y-69072000D01*
X225298000Y-66040000D02*
X228346000Y-62992000D01*
D30*
X199628000Y-80772000D02*
X199628000Y-73148000D01*
X199628000Y-73148000D02*
X199644000Y-73132000D01*
X198744500Y-62738000D02*
X199319000Y-62738000D01*
X197104000Y-64378500D02*
X198744500Y-62738000D01*
X197104000Y-73132000D02*
X197104000Y-64378500D01*
D29*
X224028000Y-100076000D02*
X222504000Y-100076000D01*
X224536000Y-100584000D02*
X224028000Y-100076000D01*
X224282000Y-92456000D02*
X222504000Y-92456000D01*
X225552000Y-93726000D02*
X224282000Y-92456000D01*
D31*
X232156000Y-51566000D02*
X229378000Y-48788000D01*
X232156000Y-55098000D02*
X232156000Y-51566000D01*
G04 #@! TA.AperFunction,Conductor*
G36*
X235146121Y-33294502D02*
G01*
X235192614Y-33348158D01*
X235204000Y-33400500D01*
X235204000Y-130938000D01*
X235183998Y-131006121D01*
X235130342Y-131052614D01*
X235078000Y-131064000D01*
X222928167Y-131064000D01*
X222860046Y-131043998D01*
X222813553Y-130990342D01*
X222803449Y-130920068D01*
X222820907Y-130871884D01*
X222904816Y-130735757D01*
X222910963Y-130722576D01*
X222962138Y-130568290D01*
X222965005Y-130554914D01*
X222974672Y-130460562D01*
X222975000Y-130454146D01*
X222975000Y-130341615D01*
X222970525Y-130326376D01*
X222969135Y-130325171D01*
X222961452Y-130323500D01*
X220527116Y-130323500D01*
X220511877Y-130327975D01*
X220510672Y-130329365D01*
X220509001Y-130337048D01*
X220509001Y-130454095D01*
X220509338Y-130460614D01*
X220519257Y-130556206D01*
X220522149Y-130569600D01*
X220573588Y-130723784D01*
X220579762Y-130736962D01*
X220663138Y-130871697D01*
X220681976Y-130940149D01*
X220660815Y-131007919D01*
X220606374Y-131053490D01*
X220555994Y-131064000D01*
X195452328Y-131064000D01*
X195384207Y-131043998D01*
X195337714Y-130990342D01*
X195326328Y-130937673D01*
X195326853Y-130735767D01*
X195328575Y-130072669D01*
X206014001Y-130072669D01*
X206014371Y-130079490D01*
X206019895Y-130130352D01*
X206023521Y-130145604D01*
X206068676Y-130266054D01*
X206077214Y-130281649D01*
X206153715Y-130383724D01*
X206166276Y-130396285D01*
X206268351Y-130472786D01*
X206283946Y-130481324D01*
X206404394Y-130526478D01*
X206419649Y-130530105D01*
X206470514Y-130535631D01*
X206477328Y-130536000D01*
X207499885Y-130536000D01*
X207515124Y-130531525D01*
X207516329Y-130530135D01*
X207518000Y-130522452D01*
X207518000Y-130517884D01*
X208026000Y-130517884D01*
X208030475Y-130533123D01*
X208031865Y-130534328D01*
X208039548Y-130535999D01*
X209066669Y-130535999D01*
X209073490Y-130535629D01*
X209124352Y-130530105D01*
X209139604Y-130526479D01*
X209260054Y-130481324D01*
X209275649Y-130472786D01*
X209377724Y-130396285D01*
X209390285Y-130383724D01*
X209466786Y-130281649D01*
X209475324Y-130266054D01*
X209520478Y-130145606D01*
X209524105Y-130130351D01*
X209529631Y-130079486D01*
X209530000Y-130072672D01*
X209530000Y-129050115D01*
X209525525Y-129034876D01*
X209524135Y-129033671D01*
X209516452Y-129032000D01*
X208044115Y-129032000D01*
X208028876Y-129036475D01*
X208027671Y-129037865D01*
X208026000Y-129045548D01*
X208026000Y-130517884D01*
X207518000Y-130517884D01*
X207518000Y-129050115D01*
X207513525Y-129034876D01*
X207512135Y-129033671D01*
X207504452Y-129032000D01*
X206032116Y-129032000D01*
X206016877Y-129036475D01*
X206015672Y-129037865D01*
X206014001Y-129045548D01*
X206014001Y-130072669D01*
X195328575Y-130072669D01*
X195332645Y-128505885D01*
X206014000Y-128505885D01*
X206018475Y-128521124D01*
X206019865Y-128522329D01*
X206027548Y-128524000D01*
X207499885Y-128524000D01*
X207515124Y-128519525D01*
X207516329Y-128518135D01*
X207518000Y-128510452D01*
X207518000Y-128505885D01*
X208026000Y-128505885D01*
X208030475Y-128521124D01*
X208031865Y-128522329D01*
X208039548Y-128524000D01*
X209511884Y-128524000D01*
X209527123Y-128519525D01*
X209528328Y-128518135D01*
X209529999Y-128510452D01*
X209529999Y-127483331D01*
X209529629Y-127476510D01*
X209524105Y-127425648D01*
X209520479Y-127410396D01*
X209475324Y-127289946D01*
X209466786Y-127274351D01*
X209390285Y-127172276D01*
X209377724Y-127159715D01*
X209275649Y-127083214D01*
X209260054Y-127074676D01*
X209139606Y-127029522D01*
X209124351Y-127025895D01*
X209073486Y-127020369D01*
X209066672Y-127020000D01*
X208044115Y-127020000D01*
X208028876Y-127024475D01*
X208027671Y-127025865D01*
X208026000Y-127033548D01*
X208026000Y-128505885D01*
X207518000Y-128505885D01*
X207518000Y-127038116D01*
X207513525Y-127022877D01*
X207512135Y-127021672D01*
X207504452Y-127020001D01*
X206477331Y-127020001D01*
X206470510Y-127020371D01*
X206419648Y-127025895D01*
X206404396Y-127029521D01*
X206283946Y-127074676D01*
X206268351Y-127083214D01*
X206166276Y-127159715D01*
X206153715Y-127172276D01*
X206077214Y-127274351D01*
X206068676Y-127289946D01*
X206023522Y-127410394D01*
X206019895Y-127425649D01*
X206014369Y-127476514D01*
X206014000Y-127483328D01*
X206014000Y-128505885D01*
X195332645Y-128505885D01*
X195358592Y-118516095D01*
X206539001Y-118516095D01*
X206539338Y-118522614D01*
X206549257Y-118618206D01*
X206552149Y-118631600D01*
X206603588Y-118785784D01*
X206609761Y-118798962D01*
X206695063Y-118936807D01*
X206704099Y-118948208D01*
X206818829Y-119062739D01*
X206830240Y-119071751D01*
X206968243Y-119156816D01*
X206981424Y-119162963D01*
X207135710Y-119214138D01*
X207149086Y-119217005D01*
X207243438Y-119226672D01*
X207249854Y-119227000D01*
X207499885Y-119227000D01*
X207515124Y-119222525D01*
X207516329Y-119221135D01*
X207518000Y-119213452D01*
X207518000Y-119208884D01*
X208026000Y-119208884D01*
X208030475Y-119224123D01*
X208031865Y-119225328D01*
X208039548Y-119226999D01*
X208294095Y-119226999D01*
X208300614Y-119226662D01*
X208396206Y-119216743D01*
X208409600Y-119213851D01*
X208563784Y-119162412D01*
X208576962Y-119156239D01*
X208714807Y-119070937D01*
X208726208Y-119061901D01*
X208840739Y-118947171D01*
X208849751Y-118935760D01*
X208934816Y-118797757D01*
X208940963Y-118784576D01*
X208992138Y-118630290D01*
X208995005Y-118616914D01*
X209004672Y-118522562D01*
X209005000Y-118516146D01*
X209005000Y-118403615D01*
X209000525Y-118388376D01*
X208999135Y-118387171D01*
X208991452Y-118385500D01*
X208044115Y-118385500D01*
X208028876Y-118389975D01*
X208027671Y-118391365D01*
X208026000Y-118399048D01*
X208026000Y-119208884D01*
X207518000Y-119208884D01*
X207518000Y-118403615D01*
X207513525Y-118388376D01*
X207512135Y-118387171D01*
X207504452Y-118385500D01*
X206557116Y-118385500D01*
X206541877Y-118389975D01*
X206540672Y-118391365D01*
X206539001Y-118399048D01*
X206539001Y-118516095D01*
X195358592Y-118516095D01*
X195366003Y-115662884D01*
X195475736Y-73415738D01*
X195979500Y-73415738D01*
X195994295Y-73590102D01*
X195995633Y-73595259D01*
X195995634Y-73595262D01*
X196030582Y-73729908D01*
X196053067Y-73816540D01*
X196149150Y-74029837D01*
X196279798Y-74223896D01*
X196441276Y-74393168D01*
X196628965Y-74532813D01*
X196633716Y-74535229D01*
X196633720Y-74535231D01*
X196747794Y-74593229D01*
X196837500Y-74638838D01*
X197060917Y-74708210D01*
X197066204Y-74708911D01*
X197066205Y-74708911D01*
X197287545Y-74738248D01*
X197287549Y-74738248D01*
X197292829Y-74738948D01*
X197298158Y-74738748D01*
X197298160Y-74738748D01*
X197409716Y-74734560D01*
X197526604Y-74730172D01*
X197650523Y-74704171D01*
X197750332Y-74683229D01*
X197750335Y-74683228D01*
X197755559Y-74682132D01*
X197973146Y-74596203D01*
X198082860Y-74529627D01*
X198168583Y-74477609D01*
X198168586Y-74477607D01*
X198173144Y-74474841D01*
X198349834Y-74321517D01*
X198380408Y-74284229D01*
X198439067Y-74244236D01*
X198510038Y-74242305D01*
X198570786Y-74279050D01*
X198585733Y-74301390D01*
X198586450Y-74300946D01*
X198679522Y-74451348D01*
X198684704Y-74456521D01*
X198684708Y-74456526D01*
X198701518Y-74473307D01*
X198735597Y-74535589D01*
X198738500Y-74562479D01*
X198738500Y-79705575D01*
X198718498Y-79773696D01*
X198664842Y-79820189D01*
X198594568Y-79830293D01*
X198529988Y-79800799D01*
X198523482Y-79794748D01*
X198456483Y-79727866D01*
X198451303Y-79722695D01*
X198442457Y-79717242D01*
X198306968Y-79633725D01*
X198306966Y-79633724D01*
X198300738Y-79629885D01*
X198140254Y-79576655D01*
X198139389Y-79576368D01*
X198139387Y-79576368D01*
X198132861Y-79574203D01*
X198126025Y-79573503D01*
X198126022Y-79573502D01*
X198082969Y-79569091D01*
X198028400Y-79563500D01*
X197227600Y-79563500D01*
X197224354Y-79563837D01*
X197224350Y-79563837D01*
X197128692Y-79573762D01*
X197128688Y-79573763D01*
X197121834Y-79574474D01*
X197115298Y-79576655D01*
X197115296Y-79576655D01*
X196987498Y-79619292D01*
X196954054Y-79630450D01*
X196803652Y-79723522D01*
X196678695Y-79848697D01*
X196674855Y-79854927D01*
X196674854Y-79854928D01*
X196629655Y-79928255D01*
X196585885Y-79999262D01*
X196530203Y-80167139D01*
X196529503Y-80173975D01*
X196529502Y-80173978D01*
X196527686Y-80191703D01*
X196519500Y-80271600D01*
X196519500Y-81272400D01*
X196530474Y-81378166D01*
X196586450Y-81545946D01*
X196679522Y-81696348D01*
X196684704Y-81701521D01*
X196684708Y-81701526D01*
X196701518Y-81718307D01*
X196735597Y-81780589D01*
X196738500Y-81807479D01*
X196738500Y-100237099D01*
X196736949Y-100256809D01*
X196734826Y-100270214D01*
X196735171Y-100276802D01*
X196735171Y-100276806D01*
X196738327Y-100337023D01*
X196738500Y-100343617D01*
X196738500Y-100363644D01*
X196738844Y-100366915D01*
X196738844Y-100366919D01*
X196740593Y-100383563D01*
X196741110Y-100390137D01*
X196744611Y-100456939D01*
X196746320Y-100463316D01*
X196746320Y-100463317D01*
X196748124Y-100470047D01*
X196751728Y-100489494D01*
X196753145Y-100502980D01*
X196755187Y-100509264D01*
X196773818Y-100566606D01*
X196775691Y-100572930D01*
X196793006Y-100637548D01*
X196799167Y-100649640D01*
X196806730Y-100667899D01*
X196810925Y-100680809D01*
X196838033Y-100727762D01*
X196844376Y-100738748D01*
X196847523Y-100744544D01*
X196877893Y-100804149D01*
X196882050Y-100809282D01*
X196886432Y-100814694D01*
X196897625Y-100830979D01*
X196901116Y-100837026D01*
X196901119Y-100837029D01*
X196904415Y-100842739D01*
X196908827Y-100847639D01*
X196908830Y-100847643D01*
X196949175Y-100892449D01*
X196953463Y-100897470D01*
X196966063Y-100913030D01*
X196980210Y-100927177D01*
X196984751Y-100931961D01*
X197029530Y-100981693D01*
X197040518Y-100989676D01*
X197055546Y-101002513D01*
X211430438Y-115377405D01*
X211464464Y-115439717D01*
X211459399Y-115510532D01*
X211416852Y-115567368D01*
X211350332Y-115592179D01*
X211341343Y-115592500D01*
X209095214Y-115592500D01*
X209027093Y-115572498D01*
X208980600Y-115518842D01*
X208975690Y-115506376D01*
X208940868Y-115402002D01*
X208938550Y-115395054D01*
X208845478Y-115244652D01*
X208720303Y-115119695D01*
X208630412Y-115064285D01*
X208575968Y-115030725D01*
X208575966Y-115030724D01*
X208569738Y-115026885D01*
X208409254Y-114973655D01*
X208408389Y-114973368D01*
X208408387Y-114973368D01*
X208401861Y-114971203D01*
X208395025Y-114970503D01*
X208395022Y-114970502D01*
X208351969Y-114966091D01*
X208297400Y-114960500D01*
X207246600Y-114960500D01*
X207243354Y-114960837D01*
X207243350Y-114960837D01*
X207147692Y-114970762D01*
X207147688Y-114970763D01*
X207140834Y-114971474D01*
X207134298Y-114973655D01*
X207134296Y-114973655D01*
X207002194Y-115017728D01*
X206973054Y-115027450D01*
X206822652Y-115120522D01*
X206697695Y-115245697D01*
X206693855Y-115251927D01*
X206693854Y-115251928D01*
X206616509Y-115377405D01*
X206604885Y-115396262D01*
X206602581Y-115403209D01*
X206566984Y-115510532D01*
X206549203Y-115564139D01*
X206548503Y-115570975D01*
X206548502Y-115570978D01*
X206546638Y-115589171D01*
X206538500Y-115668600D01*
X206538500Y-116444400D01*
X206549474Y-116550166D01*
X206605450Y-116717946D01*
X206698522Y-116868348D01*
X206823697Y-116993305D01*
X206828235Y-116996102D01*
X206868824Y-117053353D01*
X206872054Y-117124276D01*
X206836428Y-117185687D01*
X206827932Y-117193062D01*
X206817793Y-117201098D01*
X206703261Y-117315829D01*
X206694249Y-117327240D01*
X206609184Y-117465243D01*
X206603037Y-117478424D01*
X206551862Y-117632710D01*
X206548995Y-117646086D01*
X206539328Y-117740438D01*
X206539000Y-117746855D01*
X206539000Y-117859385D01*
X206543475Y-117874624D01*
X206544865Y-117875829D01*
X206552548Y-117877500D01*
X208986884Y-117877500D01*
X209002123Y-117873025D01*
X209003328Y-117871635D01*
X209004999Y-117863952D01*
X209004999Y-117746905D01*
X209004662Y-117740386D01*
X208994743Y-117644794D01*
X208991850Y-117631397D01*
X208960483Y-117537375D01*
X208957899Y-117466426D01*
X208994083Y-117405342D01*
X209057548Y-117373518D01*
X209080007Y-117371500D01*
X212028367Y-117371500D01*
X212096488Y-117391502D01*
X212142981Y-117445158D01*
X212153085Y-117515432D01*
X212123591Y-117580012D01*
X212117462Y-117586595D01*
X208309462Y-121394595D01*
X208247150Y-121428621D01*
X208220367Y-121431500D01*
X206473866Y-121431500D01*
X206411684Y-121438255D01*
X206275295Y-121489385D01*
X206158739Y-121576739D01*
X206071385Y-121693295D01*
X206020255Y-121829684D01*
X206013500Y-121891866D01*
X206013500Y-124488134D01*
X206020255Y-124550316D01*
X206071385Y-124686705D01*
X206158739Y-124803261D01*
X206275295Y-124890615D01*
X206411684Y-124941745D01*
X206473866Y-124948500D01*
X209070134Y-124948500D01*
X209132316Y-124941745D01*
X209268705Y-124890615D01*
X209385261Y-124803261D01*
X209472615Y-124686705D01*
X209523745Y-124550316D01*
X209530500Y-124488134D01*
X209530500Y-123926906D01*
X214140839Y-123926906D01*
X214149553Y-123938427D01*
X214256452Y-124016809D01*
X214264351Y-124021745D01*
X214493905Y-124142519D01*
X214502454Y-124146236D01*
X214747327Y-124231749D01*
X214756336Y-124234163D01*
X215011166Y-124282544D01*
X215020423Y-124283598D01*
X215279607Y-124293783D01*
X215288921Y-124293457D01*
X215546753Y-124265220D01*
X215555930Y-124263519D01*
X215806758Y-124197481D01*
X215815574Y-124194445D01*
X216053880Y-124092062D01*
X216062167Y-124087748D01*
X216282718Y-123951266D01*
X216290268Y-123945780D01*
X216295559Y-123941301D01*
X216303997Y-123928497D01*
X216297935Y-123918145D01*
X215233812Y-122854022D01*
X215219868Y-122846408D01*
X215218035Y-122846539D01*
X215211420Y-122850790D01*
X214147497Y-123914713D01*
X214140839Y-123926906D01*
X209530500Y-123926906D01*
X209530500Y-122741633D01*
X209550502Y-122673512D01*
X209567405Y-122652538D01*
X209780732Y-122439211D01*
X213408775Y-122439211D01*
X213421220Y-122698288D01*
X213422356Y-122707543D01*
X213472961Y-122961945D01*
X213475449Y-122970917D01*
X213563095Y-123215033D01*
X213566895Y-123223568D01*
X213689658Y-123452042D01*
X213694666Y-123459904D01*
X213764720Y-123553716D01*
X213775979Y-123562165D01*
X213788397Y-123555393D01*
X214848978Y-122494812D01*
X214855356Y-122483132D01*
X215585408Y-122483132D01*
X215585539Y-122484965D01*
X215589790Y-122491580D01*
X216657094Y-123558884D01*
X216669474Y-123565644D01*
X216677815Y-123559400D01*
X216811832Y-123351048D01*
X216816275Y-123342864D01*
X216922807Y-123106370D01*
X216925997Y-123097605D01*
X216996402Y-122847972D01*
X216998262Y-122838830D01*
X217031187Y-122580019D01*
X217031668Y-122573733D01*
X217033987Y-122485160D01*
X217033836Y-122478851D01*
X217014501Y-122218663D01*
X217013125Y-122209457D01*
X216955878Y-121956467D01*
X216953154Y-121947556D01*
X216859143Y-121705806D01*
X216855132Y-121697397D01*
X216726422Y-121472202D01*
X216721211Y-121464476D01*
X216677996Y-121409658D01*
X216666071Y-121401187D01*
X216654537Y-121407673D01*
X215593022Y-122469188D01*
X215585408Y-122483132D01*
X214855356Y-122483132D01*
X214856592Y-122480868D01*
X214856461Y-122479035D01*
X214852210Y-122472420D01*
X213786816Y-121407026D01*
X213773507Y-121399758D01*
X213763472Y-121406878D01*
X213747937Y-121425556D01*
X213742531Y-121433135D01*
X213607965Y-121654891D01*
X213603736Y-121663192D01*
X213503432Y-121902389D01*
X213500471Y-121911239D01*
X213436628Y-122162625D01*
X213435006Y-122171822D01*
X213409020Y-122429885D01*
X213408775Y-122439211D01*
X209780732Y-122439211D01*
X211185254Y-121034689D01*
X214138102Y-121034689D01*
X214142675Y-121044465D01*
X215208188Y-122109978D01*
X215222132Y-122117592D01*
X215223965Y-122117461D01*
X215230580Y-122113210D01*
X216295349Y-121048441D01*
X216301733Y-121036751D01*
X216292321Y-121024641D01*
X216145045Y-120922471D01*
X216137010Y-120917738D01*
X215904376Y-120803016D01*
X215895743Y-120799528D01*
X215648703Y-120720450D01*
X215639643Y-120718274D01*
X215383630Y-120676580D01*
X215374343Y-120675768D01*
X215114992Y-120672373D01*
X215105681Y-120672943D01*
X214848682Y-120707919D01*
X214839546Y-120709860D01*
X214590543Y-120782439D01*
X214581800Y-120785707D01*
X214346252Y-120894296D01*
X214338097Y-120898816D01*
X214147240Y-121023947D01*
X214138102Y-121034689D01*
X211185254Y-121034689D01*
X212785417Y-119434526D01*
X218108050Y-119434526D01*
X218108274Y-119439192D01*
X218108274Y-119439197D01*
X218110179Y-119478851D01*
X218120947Y-119703019D01*
X218173388Y-119966656D01*
X218264220Y-120219646D01*
X218391450Y-120456431D01*
X218394241Y-120460168D01*
X218394245Y-120460175D01*
X218441906Y-120524000D01*
X218552281Y-120671810D01*
X218555590Y-120675090D01*
X218555595Y-120675096D01*
X218682324Y-120800723D01*
X218743180Y-120861050D01*
X218746942Y-120863808D01*
X218746945Y-120863811D01*
X218859299Y-120946192D01*
X218959954Y-121019995D01*
X218964089Y-121022171D01*
X218964093Y-121022173D01*
X219193698Y-121142975D01*
X219197840Y-121145154D01*
X219451613Y-121233775D01*
X219456206Y-121234647D01*
X219711109Y-121283042D01*
X219711112Y-121283042D01*
X219715698Y-121283913D01*
X219843370Y-121288929D01*
X219979625Y-121294283D01*
X219979630Y-121294283D01*
X219984293Y-121294466D01*
X220088607Y-121283042D01*
X220246844Y-121265713D01*
X220246850Y-121265712D01*
X220251497Y-121265203D01*
X220333824Y-121243528D01*
X220506918Y-121197956D01*
X220506920Y-121197955D01*
X220511441Y-121196765D01*
X220515738Y-121194919D01*
X220754120Y-121092502D01*
X220754122Y-121092501D01*
X220758414Y-121090657D01*
X220933283Y-120982445D01*
X220983017Y-120951669D01*
X220983021Y-120951666D01*
X220986990Y-120949210D01*
X221192149Y-120775530D01*
X221369382Y-120573434D01*
X221514797Y-120347361D01*
X221625199Y-120102278D01*
X221662209Y-119971051D01*
X221696893Y-119848072D01*
X221696894Y-119848069D01*
X221698163Y-119843568D01*
X221716043Y-119703019D01*
X221731688Y-119580045D01*
X221731688Y-119580041D01*
X221732086Y-119576915D01*
X221734571Y-119482000D01*
X221714650Y-119213937D01*
X221713507Y-119208884D01*
X221656361Y-118956331D01*
X221656360Y-118956326D01*
X221655327Y-118951763D01*
X221557902Y-118701238D01*
X221424518Y-118467864D01*
X221373869Y-118403615D01*
X221358416Y-118384014D01*
X221258105Y-118256769D01*
X221062317Y-118072591D01*
X220841457Y-117919374D01*
X220837264Y-117917306D01*
X220604564Y-117802551D01*
X220604561Y-117802550D01*
X220600376Y-117800486D01*
X220552745Y-117785239D01*
X220498621Y-117767914D01*
X220344370Y-117718538D01*
X220339763Y-117717788D01*
X220339760Y-117717787D01*
X220083674Y-117676081D01*
X220083675Y-117676081D01*
X220079063Y-117675330D01*
X219948719Y-117673624D01*
X219814961Y-117671873D01*
X219814958Y-117671873D01*
X219810284Y-117671812D01*
X219543937Y-117708060D01*
X219285874Y-117783278D01*
X219041763Y-117895815D01*
X219037854Y-117898378D01*
X218820881Y-118040631D01*
X218820876Y-118040635D01*
X218816968Y-118043197D01*
X218616426Y-118222188D01*
X218444544Y-118428854D01*
X218305096Y-118658656D01*
X218303287Y-118662970D01*
X218303285Y-118662974D01*
X218251787Y-118785784D01*
X218201148Y-118906545D01*
X218134981Y-119167077D01*
X218108050Y-119434526D01*
X212785417Y-119434526D01*
X213892538Y-118327405D01*
X213954850Y-118293379D01*
X213981633Y-118290500D01*
X216569134Y-118290500D01*
X216631316Y-118283745D01*
X216767705Y-118232615D01*
X216884261Y-118145261D01*
X216971615Y-118028705D01*
X217022745Y-117892316D01*
X217029500Y-117830134D01*
X217029500Y-117497500D01*
X217049502Y-117429379D01*
X217103158Y-117382886D01*
X217155500Y-117371500D01*
X222487367Y-117371500D01*
X222555488Y-117391502D01*
X222576462Y-117408405D01*
X222736595Y-117568538D01*
X222770621Y-117630850D01*
X222773500Y-117657633D01*
X222773500Y-118856634D01*
X222780255Y-118918816D01*
X222831385Y-119055205D01*
X222918739Y-119171761D01*
X223035295Y-119259115D01*
X223055683Y-119266758D01*
X223112447Y-119309401D01*
X223137146Y-119375962D01*
X223121938Y-119445311D01*
X223110334Y-119462832D01*
X223017055Y-119580944D01*
X223011350Y-119589531D01*
X222900286Y-119790722D01*
X222896056Y-119800134D01*
X222819341Y-120016768D01*
X222816707Y-120026739D01*
X222799353Y-120124163D01*
X222800813Y-120137460D01*
X222815370Y-120142000D01*
X224410000Y-120142000D01*
X224478121Y-120162002D01*
X224524614Y-120215658D01*
X224536000Y-120268000D01*
X224536000Y-120524000D01*
X224515998Y-120592121D01*
X224462342Y-120638614D01*
X224410000Y-120650000D01*
X222813904Y-120650000D01*
X222800560Y-120653918D01*
X222798573Y-120668194D01*
X222808110Y-120730515D01*
X222810499Y-120740543D01*
X222881898Y-120958988D01*
X222885895Y-120968497D01*
X222992011Y-121172344D01*
X222997505Y-121181069D01*
X223135493Y-121364852D01*
X223142336Y-121372559D01*
X223308491Y-121531339D01*
X223316498Y-121537823D01*
X223349356Y-121560237D01*
X223394359Y-121615148D01*
X223402532Y-121685672D01*
X223371278Y-121749420D01*
X223346796Y-121770116D01*
X223344365Y-121771689D01*
X223340023Y-121774498D01*
X223162330Y-121936186D01*
X223159128Y-121940241D01*
X223016633Y-122120670D01*
X223016630Y-122120675D01*
X223013432Y-122124724D01*
X223010939Y-122129240D01*
X223010937Y-122129243D01*
X222966657Y-122209457D01*
X222897326Y-122335050D01*
X222895602Y-122339919D01*
X222895600Y-122339923D01*
X222818856Y-122556640D01*
X222817130Y-122561515D01*
X222816223Y-122566608D01*
X222816222Y-122566611D01*
X222794343Y-122689443D01*
X222774999Y-122798037D01*
X222772064Y-123038263D01*
X222808404Y-123275744D01*
X222830342Y-123342864D01*
X222881434Y-123499183D01*
X222881437Y-123499189D01*
X222883042Y-123504101D01*
X222993975Y-123717200D01*
X223138223Y-123909320D01*
X223311912Y-124075301D01*
X223316186Y-124078216D01*
X223316189Y-124078219D01*
X223464504Y-124179393D01*
X223509507Y-124234304D01*
X223519500Y-124283481D01*
X223519500Y-125086472D01*
X223499498Y-125154593D01*
X223482595Y-125175567D01*
X221796567Y-126861595D01*
X221734255Y-126895621D01*
X221707472Y-126898500D01*
X221216600Y-126898500D01*
X221213354Y-126898837D01*
X221213350Y-126898837D01*
X221117692Y-126908762D01*
X221117688Y-126908763D01*
X221110834Y-126909474D01*
X221104298Y-126911655D01*
X221104296Y-126911655D01*
X220972194Y-126955728D01*
X220943054Y-126965450D01*
X220792652Y-127058522D01*
X220667695Y-127183697D01*
X220663855Y-127189927D01*
X220663854Y-127189928D01*
X220606466Y-127283029D01*
X220574885Y-127334262D01*
X220519203Y-127502139D01*
X220508500Y-127606600D01*
X220508500Y-128382400D01*
X220519474Y-128488166D01*
X220521655Y-128494702D01*
X220521655Y-128494704D01*
X220530872Y-128522329D01*
X220575450Y-128655946D01*
X220668522Y-128806348D01*
X220793697Y-128931305D01*
X220798235Y-128934102D01*
X220838824Y-128991353D01*
X220842054Y-129062276D01*
X220806428Y-129123687D01*
X220797932Y-129131062D01*
X220787793Y-129139098D01*
X220673261Y-129253829D01*
X220664249Y-129265240D01*
X220579184Y-129403243D01*
X220573037Y-129416424D01*
X220521862Y-129570710D01*
X220518995Y-129584086D01*
X220509328Y-129678438D01*
X220509000Y-129684855D01*
X220509000Y-129797385D01*
X220513475Y-129812624D01*
X220514865Y-129813829D01*
X220522548Y-129815500D01*
X222956884Y-129815500D01*
X222972123Y-129811025D01*
X222973328Y-129809635D01*
X222974999Y-129801952D01*
X222974999Y-129684905D01*
X222974662Y-129678386D01*
X222964743Y-129582794D01*
X222961851Y-129569400D01*
X222910412Y-129415216D01*
X222904239Y-129402038D01*
X222818937Y-129264193D01*
X222809901Y-129252792D01*
X222695172Y-129138262D01*
X222686238Y-129131206D01*
X222645177Y-129073288D01*
X222641947Y-129002365D01*
X222677574Y-128940954D01*
X222685407Y-128934154D01*
X222691348Y-128930478D01*
X222816305Y-128805303D01*
X222817334Y-128803634D01*
X222873456Y-128763845D01*
X222914419Y-128757000D01*
X223159500Y-128757000D01*
X223227621Y-128777002D01*
X223274114Y-128830658D01*
X223285500Y-128883000D01*
X223285500Y-130330134D01*
X223292255Y-130392316D01*
X223343385Y-130528705D01*
X223430739Y-130645261D01*
X223547295Y-130732615D01*
X223683684Y-130783745D01*
X223745866Y-130790500D01*
X226342134Y-130790500D01*
X226404316Y-130783745D01*
X226540705Y-130732615D01*
X226657261Y-130645261D01*
X226744615Y-130528705D01*
X226795745Y-130392316D01*
X226802500Y-130330134D01*
X226802500Y-127733866D01*
X226795745Y-127671684D01*
X226744615Y-127535295D01*
X226657261Y-127418739D01*
X226540705Y-127331385D01*
X226404316Y-127280255D01*
X226342134Y-127273500D01*
X224288920Y-127273500D01*
X224251929Y-127267509D01*
X224248821Y-127266056D01*
X224241656Y-127264566D01*
X224241654Y-127264565D01*
X224201792Y-127256274D01*
X224176943Y-127251106D01*
X224172671Y-127250139D01*
X224101388Y-127232696D01*
X224095789Y-127232349D01*
X224095785Y-127232348D01*
X224090170Y-127232000D01*
X224090172Y-127231961D01*
X224086271Y-127231728D01*
X224081912Y-127231339D01*
X224074744Y-127229848D01*
X224067427Y-127230046D01*
X223996923Y-127231954D01*
X223993514Y-127232000D01*
X223887028Y-127232000D01*
X223818907Y-127211998D01*
X223772414Y-127158342D01*
X223762310Y-127088068D01*
X223791804Y-127023488D01*
X223797933Y-127016905D01*
X224773528Y-126041310D01*
X224787941Y-126028923D01*
X224799665Y-126020295D01*
X224805564Y-126015954D01*
X224839979Y-125975445D01*
X224846909Y-125967929D01*
X224852653Y-125962185D01*
X224854927Y-125959311D01*
X224854933Y-125959304D01*
X224870372Y-125939789D01*
X224873163Y-125936385D01*
X224915945Y-125886028D01*
X224915948Y-125886024D01*
X224920684Y-125880449D01*
X224924011Y-125873934D01*
X224927392Y-125868864D01*
X224930617Y-125863642D01*
X224935160Y-125857900D01*
X224966246Y-125791388D01*
X224968152Y-125787488D01*
X224998213Y-125728617D01*
X225001543Y-125722096D01*
X225003284Y-125714979D01*
X225005411Y-125709261D01*
X225007342Y-125703455D01*
X225010443Y-125696821D01*
X225025391Y-125624961D01*
X225026359Y-125620681D01*
X225042469Y-125554843D01*
X225043804Y-125549388D01*
X225044500Y-125538170D01*
X225044539Y-125538172D01*
X225044772Y-125534271D01*
X225045161Y-125529912D01*
X225046652Y-125522744D01*
X225044546Y-125444924D01*
X225044500Y-125441515D01*
X225044500Y-124282166D01*
X225064502Y-124214045D01*
X225102060Y-124176374D01*
X225219637Y-124100310D01*
X225219640Y-124100308D01*
X225223977Y-124097502D01*
X225401670Y-123935814D01*
X225462347Y-123858983D01*
X225547367Y-123751330D01*
X225547370Y-123751325D01*
X225550568Y-123747276D01*
X225564885Y-123721342D01*
X225664177Y-123541474D01*
X225664179Y-123541470D01*
X225666674Y-123536950D01*
X225746870Y-123310485D01*
X225752183Y-123280659D01*
X225788095Y-123079052D01*
X225788096Y-123079046D01*
X225789001Y-123073963D01*
X225791936Y-122833737D01*
X225767418Y-122673512D01*
X225757877Y-122611160D01*
X225767345Y-122540797D01*
X225793332Y-122503006D01*
X226897528Y-121398810D01*
X226911941Y-121386423D01*
X226923665Y-121377795D01*
X226929564Y-121373454D01*
X226963979Y-121332945D01*
X226970909Y-121325429D01*
X226976653Y-121319685D01*
X226978927Y-121316811D01*
X226978933Y-121316804D01*
X226994372Y-121297289D01*
X226997163Y-121293885D01*
X227039945Y-121243528D01*
X227039948Y-121243524D01*
X227044684Y-121237949D01*
X227048012Y-121231432D01*
X227051389Y-121226368D01*
X227054616Y-121221144D01*
X227059160Y-121215400D01*
X227090242Y-121148896D01*
X227092147Y-121144999D01*
X227125543Y-121079596D01*
X227127284Y-121072482D01*
X227129416Y-121066748D01*
X227131344Y-121060952D01*
X227134444Y-121054320D01*
X227149395Y-120982440D01*
X227150365Y-120978156D01*
X227167804Y-120906888D01*
X227168500Y-120895670D01*
X227168537Y-120895672D01*
X227168773Y-120891773D01*
X227169163Y-120887402D01*
X227170652Y-120880243D01*
X227168546Y-120802423D01*
X227168500Y-120799014D01*
X227168500Y-105156000D01*
X228810502Y-105156000D01*
X228830457Y-105384087D01*
X228889716Y-105605243D01*
X228892039Y-105610224D01*
X228892039Y-105610225D01*
X228984151Y-105807762D01*
X228984154Y-105807767D01*
X228986477Y-105812749D01*
X229117802Y-106000300D01*
X229279700Y-106162198D01*
X229284208Y-106165355D01*
X229284211Y-106165357D01*
X229362389Y-106220098D01*
X229467251Y-106293523D01*
X229472233Y-106295846D01*
X229472238Y-106295849D01*
X229669775Y-106387961D01*
X229674757Y-106390284D01*
X229680065Y-106391706D01*
X229680067Y-106391707D01*
X229890598Y-106448119D01*
X229890600Y-106448119D01*
X229895913Y-106449543D01*
X230124000Y-106469498D01*
X230352087Y-106449543D01*
X230357400Y-106448119D01*
X230357402Y-106448119D01*
X230567933Y-106391707D01*
X230567935Y-106391706D01*
X230573243Y-106390284D01*
X230578225Y-106387961D01*
X230775762Y-106295849D01*
X230775767Y-106295846D01*
X230780749Y-106293523D01*
X230885611Y-106220098D01*
X230963789Y-106165357D01*
X230963792Y-106165355D01*
X230968300Y-106162198D01*
X231130198Y-106000300D01*
X231261523Y-105812749D01*
X231263846Y-105807767D01*
X231263849Y-105807762D01*
X231355961Y-105610225D01*
X231355961Y-105610224D01*
X231358284Y-105605243D01*
X231417543Y-105384087D01*
X231437498Y-105156000D01*
X231417543Y-104927913D01*
X231412864Y-104910450D01*
X231359707Y-104712067D01*
X231359706Y-104712065D01*
X231358284Y-104706757D01*
X231355961Y-104701775D01*
X231263849Y-104504238D01*
X231263846Y-104504233D01*
X231261523Y-104499251D01*
X231167239Y-104364600D01*
X231133357Y-104316211D01*
X231133355Y-104316208D01*
X231130198Y-104311700D01*
X230968300Y-104149802D01*
X230963792Y-104146645D01*
X230963789Y-104146643D01*
X230885611Y-104091902D01*
X230780749Y-104018477D01*
X230775767Y-104016154D01*
X230775762Y-104016151D01*
X230741543Y-104000195D01*
X230688258Y-103953278D01*
X230668797Y-103885001D01*
X230689339Y-103817041D01*
X230741543Y-103771805D01*
X230775762Y-103755849D01*
X230775767Y-103755846D01*
X230780749Y-103753523D01*
X230885611Y-103680098D01*
X230963789Y-103625357D01*
X230963792Y-103625355D01*
X230968300Y-103622198D01*
X231130198Y-103460300D01*
X231261523Y-103272749D01*
X231263846Y-103267767D01*
X231263849Y-103267762D01*
X231355961Y-103070225D01*
X231355961Y-103070224D01*
X231358284Y-103065243D01*
X231395846Y-102925063D01*
X231416119Y-102849402D01*
X231416119Y-102849400D01*
X231417543Y-102844087D01*
X231437498Y-102616000D01*
X231417543Y-102387913D01*
X231375920Y-102232576D01*
X231359707Y-102172067D01*
X231359706Y-102172065D01*
X231358284Y-102166757D01*
X231318115Y-102080614D01*
X231263849Y-101964238D01*
X231263846Y-101964233D01*
X231261523Y-101959251D01*
X231130198Y-101771700D01*
X230968300Y-101609802D01*
X230963792Y-101606645D01*
X230963789Y-101606643D01*
X230876228Y-101545332D01*
X230780749Y-101478477D01*
X230775767Y-101476154D01*
X230775762Y-101476151D01*
X230741543Y-101460195D01*
X230688258Y-101413278D01*
X230668797Y-101345001D01*
X230689339Y-101277041D01*
X230741543Y-101231805D01*
X230775762Y-101215849D01*
X230775767Y-101215846D01*
X230780749Y-101213523D01*
X230934730Y-101105704D01*
X230963789Y-101085357D01*
X230963792Y-101085355D01*
X230968300Y-101082198D01*
X231130198Y-100920300D01*
X231145139Y-100898963D01*
X231192741Y-100830979D01*
X231261523Y-100732749D01*
X231263846Y-100727767D01*
X231263849Y-100727762D01*
X231355961Y-100530225D01*
X231355961Y-100530224D01*
X231358284Y-100525243D01*
X231363508Y-100505749D01*
X231416119Y-100309402D01*
X231416119Y-100309400D01*
X231417543Y-100304087D01*
X231437498Y-100076000D01*
X231417543Y-99847913D01*
X231403004Y-99793652D01*
X231359707Y-99632067D01*
X231359706Y-99632065D01*
X231358284Y-99626757D01*
X231344704Y-99597635D01*
X231263849Y-99424238D01*
X231263846Y-99424233D01*
X231261523Y-99419251D01*
X231173470Y-99293498D01*
X231133357Y-99236211D01*
X231133355Y-99236208D01*
X231130198Y-99231700D01*
X230968300Y-99069802D01*
X230963792Y-99066645D01*
X230963789Y-99066643D01*
X230885611Y-99011902D01*
X230780749Y-98938477D01*
X230775767Y-98936154D01*
X230775762Y-98936151D01*
X230740951Y-98919919D01*
X230687666Y-98873002D01*
X230668205Y-98804725D01*
X230688747Y-98736765D01*
X230740951Y-98691529D01*
X230775511Y-98675414D01*
X230785007Y-98669931D01*
X230963467Y-98544972D01*
X230971875Y-98537916D01*
X231125916Y-98383875D01*
X231132972Y-98375467D01*
X231257931Y-98197007D01*
X231263414Y-98187511D01*
X231355490Y-97990053D01*
X231359236Y-97979761D01*
X231405394Y-97807497D01*
X231405058Y-97793401D01*
X231397116Y-97790000D01*
X228856033Y-97790000D01*
X228842502Y-97793973D01*
X228841273Y-97802522D01*
X228888764Y-97979761D01*
X228892510Y-97990053D01*
X228984586Y-98187511D01*
X228990069Y-98197007D01*
X229115028Y-98375467D01*
X229122084Y-98383875D01*
X229276125Y-98537916D01*
X229284533Y-98544972D01*
X229462993Y-98669931D01*
X229472489Y-98675414D01*
X229507049Y-98691529D01*
X229560334Y-98738446D01*
X229579795Y-98806723D01*
X229559253Y-98874683D01*
X229507049Y-98919919D01*
X229472238Y-98936151D01*
X229472233Y-98936154D01*
X229467251Y-98938477D01*
X229362389Y-99011902D01*
X229284211Y-99066643D01*
X229284208Y-99066645D01*
X229279700Y-99069802D01*
X229117802Y-99231700D01*
X229114645Y-99236208D01*
X229114643Y-99236211D01*
X229074530Y-99293498D01*
X228986477Y-99419251D01*
X228984154Y-99424233D01*
X228984151Y-99424238D01*
X228903296Y-99597635D01*
X228889716Y-99626757D01*
X228888294Y-99632065D01*
X228888293Y-99632067D01*
X228844996Y-99793652D01*
X228830457Y-99847913D01*
X228810502Y-100076000D01*
X228830457Y-100304087D01*
X228831881Y-100309400D01*
X228831881Y-100309402D01*
X228884493Y-100505749D01*
X228889716Y-100525243D01*
X228892039Y-100530224D01*
X228892039Y-100530225D01*
X228984151Y-100727762D01*
X228984154Y-100727767D01*
X228986477Y-100732749D01*
X229055259Y-100830979D01*
X229102862Y-100898963D01*
X229117802Y-100920300D01*
X229279700Y-101082198D01*
X229284208Y-101085355D01*
X229284211Y-101085357D01*
X229313270Y-101105704D01*
X229467251Y-101213523D01*
X229472233Y-101215846D01*
X229472238Y-101215849D01*
X229506457Y-101231805D01*
X229559742Y-101278722D01*
X229579203Y-101346999D01*
X229558661Y-101414959D01*
X229506457Y-101460195D01*
X229472238Y-101476151D01*
X229472233Y-101476154D01*
X229467251Y-101478477D01*
X229371772Y-101545332D01*
X229284211Y-101606643D01*
X229284208Y-101606645D01*
X229279700Y-101609802D01*
X229117802Y-101771700D01*
X228986477Y-101959251D01*
X228984154Y-101964233D01*
X228984151Y-101964238D01*
X228929885Y-102080614D01*
X228889716Y-102166757D01*
X228888294Y-102172065D01*
X228888293Y-102172067D01*
X228872080Y-102232576D01*
X228830457Y-102387913D01*
X228810502Y-102616000D01*
X228830457Y-102844087D01*
X228831881Y-102849400D01*
X228831881Y-102849402D01*
X228852155Y-102925063D01*
X228889716Y-103065243D01*
X228892039Y-103070224D01*
X228892039Y-103070225D01*
X228984151Y-103267762D01*
X228984154Y-103267767D01*
X228986477Y-103272749D01*
X229117802Y-103460300D01*
X229279700Y-103622198D01*
X229284208Y-103625355D01*
X229284211Y-103625357D01*
X229362389Y-103680098D01*
X229467251Y-103753523D01*
X229472233Y-103755846D01*
X229472238Y-103755849D01*
X229506457Y-103771805D01*
X229559742Y-103818722D01*
X229579203Y-103886999D01*
X229558661Y-103954959D01*
X229506457Y-104000195D01*
X229472238Y-104016151D01*
X229472233Y-104016154D01*
X229467251Y-104018477D01*
X229362389Y-104091902D01*
X229284211Y-104146643D01*
X229284208Y-104146645D01*
X229279700Y-104149802D01*
X229117802Y-104311700D01*
X229114645Y-104316208D01*
X229114643Y-104316211D01*
X229080761Y-104364600D01*
X228986477Y-104499251D01*
X228984154Y-104504233D01*
X228984151Y-104504238D01*
X228892039Y-104701775D01*
X228889716Y-104706757D01*
X228888294Y-104712065D01*
X228888293Y-104712067D01*
X228835136Y-104910450D01*
X228830457Y-104927913D01*
X228810502Y-105156000D01*
X227168500Y-105156000D01*
X227168500Y-95262522D01*
X228841273Y-95262522D01*
X228888764Y-95439761D01*
X228892510Y-95450053D01*
X228984586Y-95647511D01*
X228990069Y-95657007D01*
X229115028Y-95835467D01*
X229122084Y-95843875D01*
X229276125Y-95997916D01*
X229284533Y-96004972D01*
X229462993Y-96129931D01*
X229472489Y-96135414D01*
X229507641Y-96151805D01*
X229560926Y-96198722D01*
X229580387Y-96266999D01*
X229559845Y-96334959D01*
X229507641Y-96380195D01*
X229472489Y-96396586D01*
X229462993Y-96402069D01*
X229284533Y-96527028D01*
X229276125Y-96534084D01*
X229122084Y-96688125D01*
X229115028Y-96696533D01*
X228990069Y-96874993D01*
X228984586Y-96884489D01*
X228892510Y-97081947D01*
X228888764Y-97092239D01*
X228842606Y-97264503D01*
X228842942Y-97278599D01*
X228850884Y-97282000D01*
X229851885Y-97282000D01*
X229867124Y-97277525D01*
X229868329Y-97276135D01*
X229870000Y-97268452D01*
X229870000Y-97263885D01*
X230378000Y-97263885D01*
X230382475Y-97279124D01*
X230383865Y-97280329D01*
X230391548Y-97282000D01*
X231391967Y-97282000D01*
X231405498Y-97278027D01*
X231406727Y-97269478D01*
X231359236Y-97092239D01*
X231355490Y-97081947D01*
X231263414Y-96884489D01*
X231257931Y-96874993D01*
X231132972Y-96696533D01*
X231125916Y-96688125D01*
X230971875Y-96534084D01*
X230963467Y-96527028D01*
X230785007Y-96402069D01*
X230775511Y-96396586D01*
X230740359Y-96380195D01*
X230687074Y-96333278D01*
X230667613Y-96265001D01*
X230688155Y-96197041D01*
X230740359Y-96151805D01*
X230775511Y-96135414D01*
X230785007Y-96129931D01*
X230963467Y-96004972D01*
X230971875Y-95997916D01*
X231125916Y-95843875D01*
X231132972Y-95835467D01*
X231257931Y-95657007D01*
X231263414Y-95647511D01*
X231355490Y-95450053D01*
X231359236Y-95439761D01*
X231405394Y-95267497D01*
X231405058Y-95253401D01*
X231397116Y-95250000D01*
X230396115Y-95250000D01*
X230380876Y-95254475D01*
X230379671Y-95255865D01*
X230378000Y-95263548D01*
X230378000Y-97263885D01*
X229870000Y-97263885D01*
X229870000Y-95268115D01*
X229865525Y-95252876D01*
X229864135Y-95251671D01*
X229856452Y-95250000D01*
X228856033Y-95250000D01*
X228842502Y-95253973D01*
X228841273Y-95262522D01*
X227168500Y-95262522D01*
X227168500Y-89075376D01*
X227169933Y-89056426D01*
X227172124Y-89042027D01*
X227172124Y-89042023D01*
X227173224Y-89034793D01*
X227170972Y-89007098D01*
X227168915Y-88981814D01*
X227168500Y-88971600D01*
X227168500Y-88963475D01*
X227165193Y-88935110D01*
X227164760Y-88930735D01*
X227164155Y-88923295D01*
X227158810Y-88857574D01*
X227156556Y-88850617D01*
X227155367Y-88844663D01*
X227153949Y-88838665D01*
X227153101Y-88831393D01*
X227128052Y-88762383D01*
X227126635Y-88758256D01*
X227122798Y-88746410D01*
X227104013Y-88688426D01*
X227100218Y-88682173D01*
X227097673Y-88676613D01*
X227094931Y-88671139D01*
X227092434Y-88664259D01*
X227052190Y-88602876D01*
X227049844Y-88599158D01*
X227036423Y-88577041D01*
X227011773Y-88536420D01*
X227004333Y-88527995D01*
X227004362Y-88527970D01*
X227001766Y-88525044D01*
X226998961Y-88521690D01*
X226994946Y-88515565D01*
X226984764Y-88505919D01*
X226938414Y-88462012D01*
X226935972Y-88459634D01*
X226829933Y-88353595D01*
X226795907Y-88291283D01*
X226800972Y-88220468D01*
X226843519Y-88163632D01*
X226910039Y-88138821D01*
X226919028Y-88138500D01*
X228994933Y-88138500D01*
X229063054Y-88158502D01*
X229098145Y-88192228D01*
X229112101Y-88212158D01*
X229117802Y-88220300D01*
X229279700Y-88382198D01*
X229284208Y-88385355D01*
X229284211Y-88385357D01*
X229321383Y-88411385D01*
X229467251Y-88513523D01*
X229472233Y-88515846D01*
X229472238Y-88515849D01*
X229506457Y-88531805D01*
X229559742Y-88578722D01*
X229579203Y-88646999D01*
X229558661Y-88714959D01*
X229506457Y-88760195D01*
X229472238Y-88776151D01*
X229472233Y-88776154D01*
X229467251Y-88778477D01*
X229385757Y-88835540D01*
X229284211Y-88906643D01*
X229284208Y-88906645D01*
X229279700Y-88909802D01*
X229117802Y-89071700D01*
X228986477Y-89259251D01*
X228984154Y-89264233D01*
X228984151Y-89264238D01*
X228897143Y-89450830D01*
X228889716Y-89466757D01*
X228888294Y-89472065D01*
X228888293Y-89472067D01*
X228832410Y-89680624D01*
X228830457Y-89687913D01*
X228810502Y-89916000D01*
X228830457Y-90144087D01*
X228831881Y-90149400D01*
X228831881Y-90149402D01*
X228878399Y-90323006D01*
X228889716Y-90365243D01*
X228892039Y-90370224D01*
X228892039Y-90370225D01*
X228984151Y-90567762D01*
X228984154Y-90567767D01*
X228986477Y-90572749D01*
X229117802Y-90760300D01*
X229279700Y-90922198D01*
X229284208Y-90925355D01*
X229284211Y-90925357D01*
X229324582Y-90953625D01*
X229467251Y-91053523D01*
X229472233Y-91055846D01*
X229472238Y-91055849D01*
X229506457Y-91071805D01*
X229559742Y-91118722D01*
X229579203Y-91186999D01*
X229558661Y-91254959D01*
X229506457Y-91300195D01*
X229472238Y-91316151D01*
X229472233Y-91316154D01*
X229467251Y-91318477D01*
X229362389Y-91391902D01*
X229284211Y-91446643D01*
X229284208Y-91446645D01*
X229279700Y-91449802D01*
X229117802Y-91611700D01*
X229114645Y-91616208D01*
X229114643Y-91616211D01*
X229091545Y-91649199D01*
X228986477Y-91799251D01*
X228984154Y-91804233D01*
X228984151Y-91804238D01*
X228892039Y-92001775D01*
X228889716Y-92006757D01*
X228830457Y-92227913D01*
X228810502Y-92456000D01*
X228830457Y-92684087D01*
X228889716Y-92905243D01*
X228892039Y-92910224D01*
X228892039Y-92910225D01*
X228984151Y-93107762D01*
X228984154Y-93107767D01*
X228986477Y-93112749D01*
X228989634Y-93117257D01*
X229098146Y-93272228D01*
X229117802Y-93300300D01*
X229279700Y-93462198D01*
X229284208Y-93465355D01*
X229284211Y-93465357D01*
X229362389Y-93520098D01*
X229467251Y-93593523D01*
X229472233Y-93595846D01*
X229472238Y-93595849D01*
X229507049Y-93612081D01*
X229560334Y-93658998D01*
X229579795Y-93727275D01*
X229559253Y-93795235D01*
X229507049Y-93840471D01*
X229472489Y-93856586D01*
X229462993Y-93862069D01*
X229284533Y-93987028D01*
X229276125Y-93994084D01*
X229122084Y-94148125D01*
X229115028Y-94156533D01*
X228990069Y-94334993D01*
X228984586Y-94344489D01*
X228892510Y-94541947D01*
X228888764Y-94552239D01*
X228842606Y-94724503D01*
X228842942Y-94738599D01*
X228850884Y-94742000D01*
X231391967Y-94742000D01*
X231405498Y-94738027D01*
X231406727Y-94729478D01*
X231359236Y-94552239D01*
X231355490Y-94541947D01*
X231263414Y-94344489D01*
X231257931Y-94334993D01*
X231132972Y-94156533D01*
X231125916Y-94148125D01*
X230971875Y-93994084D01*
X230963467Y-93987028D01*
X230785007Y-93862069D01*
X230775511Y-93856586D01*
X230740951Y-93840471D01*
X230687666Y-93793554D01*
X230668205Y-93725277D01*
X230688747Y-93657317D01*
X230740951Y-93612081D01*
X230775762Y-93595849D01*
X230775767Y-93595846D01*
X230780749Y-93593523D01*
X230885611Y-93520098D01*
X230963789Y-93465357D01*
X230963792Y-93465355D01*
X230968300Y-93462198D01*
X231130198Y-93300300D01*
X231149855Y-93272228D01*
X231258366Y-93117257D01*
X231261523Y-93112749D01*
X231263846Y-93107767D01*
X231263849Y-93107762D01*
X231355961Y-92910225D01*
X231355961Y-92910224D01*
X231358284Y-92905243D01*
X231417543Y-92684087D01*
X231437498Y-92456000D01*
X231417543Y-92227913D01*
X231358284Y-92006757D01*
X231355961Y-92001775D01*
X231263849Y-91804238D01*
X231263846Y-91804233D01*
X231261523Y-91799251D01*
X231156455Y-91649199D01*
X231133357Y-91616211D01*
X231133355Y-91616208D01*
X231130198Y-91611700D01*
X230968300Y-91449802D01*
X230963792Y-91446645D01*
X230963789Y-91446643D01*
X230885611Y-91391902D01*
X230780749Y-91318477D01*
X230775767Y-91316154D01*
X230775762Y-91316151D01*
X230741543Y-91300195D01*
X230688258Y-91253278D01*
X230668797Y-91185001D01*
X230689339Y-91117041D01*
X230741543Y-91071805D01*
X230775762Y-91055849D01*
X230775767Y-91055846D01*
X230780749Y-91053523D01*
X230923418Y-90953625D01*
X230963789Y-90925357D01*
X230963792Y-90925355D01*
X230968300Y-90922198D01*
X231130198Y-90760300D01*
X231261523Y-90572749D01*
X231263846Y-90567767D01*
X231263849Y-90567762D01*
X231355961Y-90370225D01*
X231355961Y-90370224D01*
X231358284Y-90365243D01*
X231369602Y-90323006D01*
X231369846Y-90322095D01*
X231685001Y-90322095D01*
X231685338Y-90328614D01*
X231695257Y-90424206D01*
X231698149Y-90437600D01*
X231749588Y-90591784D01*
X231755761Y-90604962D01*
X231841063Y-90742807D01*
X231850099Y-90754208D01*
X231964829Y-90868739D01*
X231976240Y-90877751D01*
X232114243Y-90962816D01*
X232127424Y-90968963D01*
X232281710Y-91020138D01*
X232295086Y-91023005D01*
X232389438Y-91032672D01*
X232395854Y-91033000D01*
X232645885Y-91033000D01*
X232661124Y-91028525D01*
X232662329Y-91027135D01*
X232664000Y-91019452D01*
X232664000Y-91014884D01*
X233172000Y-91014884D01*
X233176475Y-91030123D01*
X233177865Y-91031328D01*
X233185548Y-91032999D01*
X233440095Y-91032999D01*
X233446614Y-91032662D01*
X233542206Y-91022743D01*
X233555600Y-91019851D01*
X233709784Y-90968412D01*
X233722962Y-90962239D01*
X233860807Y-90876937D01*
X233872208Y-90867901D01*
X233986739Y-90753171D01*
X233995751Y-90741760D01*
X234080816Y-90603757D01*
X234086963Y-90590576D01*
X234138138Y-90436290D01*
X234141005Y-90422914D01*
X234150672Y-90328562D01*
X234151000Y-90322146D01*
X234151000Y-90209615D01*
X234146525Y-90194376D01*
X234145135Y-90193171D01*
X234137452Y-90191500D01*
X233190115Y-90191500D01*
X233174876Y-90195975D01*
X233173671Y-90197365D01*
X233172000Y-90205048D01*
X233172000Y-91014884D01*
X232664000Y-91014884D01*
X232664000Y-90209615D01*
X232659525Y-90194376D01*
X232658135Y-90193171D01*
X232650452Y-90191500D01*
X231703116Y-90191500D01*
X231687877Y-90195975D01*
X231686672Y-90197365D01*
X231685001Y-90205048D01*
X231685001Y-90322095D01*
X231369846Y-90322095D01*
X231416119Y-90149402D01*
X231416119Y-90149400D01*
X231417543Y-90144087D01*
X231437498Y-89916000D01*
X231417543Y-89687913D01*
X231415590Y-89680624D01*
X231359707Y-89472067D01*
X231359706Y-89472065D01*
X231358284Y-89466757D01*
X231350857Y-89450830D01*
X231263849Y-89264238D01*
X231263846Y-89264233D01*
X231261523Y-89259251D01*
X231130198Y-89071700D01*
X230968300Y-88909802D01*
X230963792Y-88906645D01*
X230963789Y-88906643D01*
X230862243Y-88835540D01*
X230780749Y-88778477D01*
X230775767Y-88776154D01*
X230775762Y-88776151D01*
X230741543Y-88760195D01*
X230688258Y-88713278D01*
X230668797Y-88645001D01*
X230689339Y-88577041D01*
X230741543Y-88531805D01*
X230775762Y-88515849D01*
X230775767Y-88515846D01*
X230780749Y-88513523D01*
X230926617Y-88411385D01*
X230963789Y-88385357D01*
X230963792Y-88385355D01*
X230968300Y-88382198D01*
X231130198Y-88220300D01*
X231135899Y-88212158D01*
X231149855Y-88192228D01*
X231205312Y-88147900D01*
X231253067Y-88138500D01*
X231559287Y-88138500D01*
X231627408Y-88158502D01*
X231673901Y-88212158D01*
X231684614Y-88251497D01*
X231691913Y-88321841D01*
X231695474Y-88356166D01*
X231697655Y-88362702D01*
X231697655Y-88362704D01*
X231714868Y-88414297D01*
X231751450Y-88523946D01*
X231844522Y-88674348D01*
X231969697Y-88799305D01*
X231974235Y-88802102D01*
X232014824Y-88859353D01*
X232018054Y-88930276D01*
X231982428Y-88991687D01*
X231973932Y-88999062D01*
X231963793Y-89007098D01*
X231849261Y-89121829D01*
X231840249Y-89133240D01*
X231755184Y-89271243D01*
X231749037Y-89284424D01*
X231697862Y-89438710D01*
X231694995Y-89452086D01*
X231685328Y-89546438D01*
X231685000Y-89552855D01*
X231685000Y-89665385D01*
X231689475Y-89680624D01*
X231690865Y-89681829D01*
X231698548Y-89683500D01*
X234132884Y-89683500D01*
X234148123Y-89679025D01*
X234149328Y-89677635D01*
X234150999Y-89669952D01*
X234150999Y-89552905D01*
X234150662Y-89546386D01*
X234140743Y-89450794D01*
X234137851Y-89437400D01*
X234086412Y-89283216D01*
X234080239Y-89270038D01*
X233994937Y-89132193D01*
X233985901Y-89120792D01*
X233871172Y-89006262D01*
X233862238Y-88999206D01*
X233821177Y-88941288D01*
X233817947Y-88870365D01*
X233853574Y-88808954D01*
X233861407Y-88802154D01*
X233867348Y-88798478D01*
X233992305Y-88673303D01*
X233997880Y-88664259D01*
X234081275Y-88528968D01*
X234081276Y-88528966D01*
X234085115Y-88522738D01*
X234115217Y-88431983D01*
X234138632Y-88361389D01*
X234138632Y-88361387D01*
X234140797Y-88354861D01*
X234151500Y-88250400D01*
X234151500Y-87474600D01*
X234140526Y-87368834D01*
X234084550Y-87201054D01*
X233991478Y-87050652D01*
X233866303Y-86925695D01*
X233715738Y-86832885D01*
X233635995Y-86806436D01*
X233554389Y-86779368D01*
X233554387Y-86779368D01*
X233547861Y-86777203D01*
X233541025Y-86776503D01*
X233541022Y-86776502D01*
X233497969Y-86772091D01*
X233443400Y-86766500D01*
X232937842Y-86766500D01*
X232867930Y-86745325D01*
X232863028Y-86742055D01*
X232857449Y-86737316D01*
X232850933Y-86733988D01*
X232845861Y-86730606D01*
X232840641Y-86727382D01*
X232834900Y-86722840D01*
X232808609Y-86710552D01*
X232768418Y-86691768D01*
X232764467Y-86689837D01*
X232705617Y-86659787D01*
X232699096Y-86656457D01*
X232691981Y-86654716D01*
X232686235Y-86652579D01*
X232680452Y-86650655D01*
X232673821Y-86647556D01*
X232601943Y-86632606D01*
X232597671Y-86631639D01*
X232526388Y-86614196D01*
X232520789Y-86613849D01*
X232520785Y-86613848D01*
X232515170Y-86613500D01*
X232515172Y-86613461D01*
X232511271Y-86613228D01*
X232506912Y-86612839D01*
X232499744Y-86611348D01*
X232492427Y-86611546D01*
X232421923Y-86613454D01*
X232418514Y-86613500D01*
X231253067Y-86613500D01*
X231184946Y-86593498D01*
X231149855Y-86559772D01*
X231133359Y-86536214D01*
X231133357Y-86536212D01*
X231130198Y-86531700D01*
X230968300Y-86369802D01*
X230963792Y-86366645D01*
X230963789Y-86366643D01*
X230885611Y-86311902D01*
X230780749Y-86238477D01*
X230775767Y-86236154D01*
X230775762Y-86236151D01*
X230578225Y-86144039D01*
X230578224Y-86144039D01*
X230573243Y-86141716D01*
X230567935Y-86140294D01*
X230567933Y-86140293D01*
X230357402Y-86083881D01*
X230357400Y-86083881D01*
X230352087Y-86082457D01*
X230124000Y-86062502D01*
X229895913Y-86082457D01*
X229890600Y-86083881D01*
X229890598Y-86083881D01*
X229680067Y-86140293D01*
X229680065Y-86140294D01*
X229674757Y-86141716D01*
X229669776Y-86144039D01*
X229669775Y-86144039D01*
X229472238Y-86236151D01*
X229472233Y-86236154D01*
X229467251Y-86238477D01*
X229362389Y-86311902D01*
X229284211Y-86366643D01*
X229284208Y-86366645D01*
X229279700Y-86369802D01*
X229117802Y-86531700D01*
X229114643Y-86536212D01*
X229114641Y-86536214D01*
X229098145Y-86559772D01*
X229042688Y-86604100D01*
X228994933Y-86613500D01*
X225142028Y-86613500D01*
X225073907Y-86593498D01*
X225052933Y-86576595D01*
X219264810Y-80788472D01*
X219252423Y-80774059D01*
X219243795Y-80762335D01*
X219239454Y-80756436D01*
X219198945Y-80722021D01*
X219191429Y-80715091D01*
X219185685Y-80709347D01*
X219182811Y-80707073D01*
X219182804Y-80707067D01*
X219163289Y-80691628D01*
X219159885Y-80688837D01*
X219109528Y-80646055D01*
X219109524Y-80646052D01*
X219103949Y-80641316D01*
X219097432Y-80637988D01*
X219092368Y-80634611D01*
X219087144Y-80631384D01*
X219081400Y-80626840D01*
X219029110Y-80602401D01*
X219014918Y-80595768D01*
X219010967Y-80593837D01*
X218952117Y-80563787D01*
X218945596Y-80560457D01*
X218938481Y-80558716D01*
X218932735Y-80556579D01*
X218926952Y-80554655D01*
X218920321Y-80551556D01*
X218848443Y-80536606D01*
X218844171Y-80535639D01*
X218772888Y-80518196D01*
X218767289Y-80517849D01*
X218767285Y-80517848D01*
X218761670Y-80517500D01*
X218761672Y-80517461D01*
X218757771Y-80517228D01*
X218753412Y-80516839D01*
X218746244Y-80515348D01*
X218738927Y-80515546D01*
X218668423Y-80517454D01*
X218665014Y-80517500D01*
X205155351Y-80517500D01*
X205087230Y-80497498D01*
X205049558Y-80459939D01*
X205042014Y-80448277D01*
X204891670Y-80283051D01*
X204887619Y-80279852D01*
X204887615Y-80279848D01*
X204720414Y-80147800D01*
X204720410Y-80147798D01*
X204716359Y-80144598D01*
X204675053Y-80121796D01*
X204625084Y-80071364D01*
X204610312Y-80001921D01*
X204635428Y-79935516D01*
X204662780Y-79908909D01*
X204706603Y-79877650D01*
X204841860Y-79781173D01*
X205000096Y-79623489D01*
X205033750Y-79576655D01*
X205127435Y-79446277D01*
X205130453Y-79442077D01*
X205229430Y-79241811D01*
X205294370Y-79028069D01*
X205323529Y-78806590D01*
X205325156Y-78740000D01*
X205322418Y-78706695D01*
X223935251Y-78706695D01*
X223935548Y-78711848D01*
X223935548Y-78711851D01*
X223941011Y-78806590D01*
X223948110Y-78929715D01*
X223949247Y-78934761D01*
X223949248Y-78934767D01*
X223969119Y-79022939D01*
X223997222Y-79147639D01*
X224081266Y-79354616D01*
X224197987Y-79545088D01*
X224344250Y-79713938D01*
X224348230Y-79717242D01*
X224352981Y-79721187D01*
X224392616Y-79780090D01*
X224394113Y-79851071D01*
X224356997Y-79911593D01*
X224316725Y-79936112D01*
X224228095Y-79969338D01*
X224201295Y-79979385D01*
X224084739Y-80066739D01*
X223997385Y-80183295D01*
X223946255Y-80319684D01*
X223939500Y-80381866D01*
X223939500Y-82178134D01*
X223946255Y-82240316D01*
X223997385Y-82376705D01*
X224084739Y-82493261D01*
X224201295Y-82580615D01*
X224337684Y-82631745D01*
X224399866Y-82638500D01*
X226196134Y-82638500D01*
X226258316Y-82631745D01*
X226394705Y-82580615D01*
X226511261Y-82493261D01*
X226598615Y-82376705D01*
X226649745Y-82240316D01*
X226656500Y-82178134D01*
X226656500Y-80381866D01*
X226649745Y-80319684D01*
X226598615Y-80183295D01*
X226511261Y-80066739D01*
X226394705Y-79979385D01*
X226367905Y-79969338D01*
X226276203Y-79934960D01*
X226219439Y-79892318D01*
X226194739Y-79825756D01*
X226209947Y-79756408D01*
X226231493Y-79727727D01*
X226325824Y-79633725D01*
X226336096Y-79623489D01*
X226369750Y-79576655D01*
X226463435Y-79446277D01*
X226466453Y-79442077D01*
X226565430Y-79241811D01*
X226630370Y-79028069D01*
X226659529Y-78806590D01*
X226661156Y-78740000D01*
X226642852Y-78517361D01*
X226588431Y-78300702D01*
X226499354Y-78095840D01*
X226378014Y-77908277D01*
X226227670Y-77743051D01*
X226223619Y-77739852D01*
X226223615Y-77739848D01*
X226056414Y-77607800D01*
X226056410Y-77607798D01*
X226052359Y-77604598D01*
X226011053Y-77581796D01*
X225961084Y-77531364D01*
X225946312Y-77461921D01*
X225971428Y-77395516D01*
X225998780Y-77368909D01*
X226042603Y-77337650D01*
X226177860Y-77241173D01*
X226336096Y-77083489D01*
X226395594Y-77000689D01*
X226463435Y-76906277D01*
X226466453Y-76902077D01*
X226565430Y-76701811D01*
X226630370Y-76488069D01*
X226659529Y-76266590D01*
X226661156Y-76200000D01*
X226642852Y-75977361D01*
X226588431Y-75760702D01*
X226499354Y-75555840D01*
X226378014Y-75368277D01*
X226227670Y-75203051D01*
X226223619Y-75199852D01*
X226223615Y-75199848D01*
X226056414Y-75067800D01*
X226056410Y-75067798D01*
X226052359Y-75064598D01*
X226011053Y-75041796D01*
X225961084Y-74991364D01*
X225946312Y-74921921D01*
X225971428Y-74855516D01*
X225998780Y-74828909D01*
X226042603Y-74797650D01*
X226177860Y-74701173D01*
X226222690Y-74656500D01*
X226286182Y-74593229D01*
X226336096Y-74543489D01*
X226343768Y-74532813D01*
X226463435Y-74366277D01*
X226466453Y-74362077D01*
X226524694Y-74244236D01*
X226563136Y-74166453D01*
X226563137Y-74166451D01*
X226565430Y-74161811D01*
X226630370Y-73948069D01*
X226659529Y-73726590D01*
X226661156Y-73660000D01*
X226642852Y-73437361D01*
X226588431Y-73220702D01*
X226499354Y-73015840D01*
X226378014Y-72828277D01*
X226227670Y-72663051D01*
X226223619Y-72659852D01*
X226223615Y-72659848D01*
X226056414Y-72527800D01*
X226056410Y-72527798D01*
X226052359Y-72524598D01*
X226011053Y-72501796D01*
X225961084Y-72451364D01*
X225946312Y-72381921D01*
X225971428Y-72315516D01*
X225998780Y-72288909D01*
X226067536Y-72239866D01*
X226177860Y-72161173D01*
X226336096Y-72003489D01*
X226347422Y-71987728D01*
X226463435Y-71826277D01*
X226466453Y-71822077D01*
X226511374Y-71731187D01*
X226563136Y-71626453D01*
X226563137Y-71626451D01*
X226565430Y-71621811D01*
X226630370Y-71408069D01*
X226659529Y-71186590D01*
X226660515Y-71146255D01*
X226661074Y-71123365D01*
X226661074Y-71123361D01*
X226661156Y-71120000D01*
X226642852Y-70897361D01*
X226588431Y-70680702D01*
X226499354Y-70475840D01*
X226378014Y-70288277D01*
X226227670Y-70123051D01*
X226223619Y-70119852D01*
X226223615Y-70119848D01*
X226056414Y-69987800D01*
X226056410Y-69987798D01*
X226052359Y-69984598D01*
X226011053Y-69961796D01*
X225961084Y-69911364D01*
X225946312Y-69841921D01*
X225971428Y-69775516D01*
X225998780Y-69748909D01*
X226042603Y-69717650D01*
X226177860Y-69621173D01*
X226336096Y-69463489D01*
X226395594Y-69380689D01*
X226463435Y-69286277D01*
X226466453Y-69282077D01*
X226468902Y-69277123D01*
X226563136Y-69086453D01*
X226563137Y-69086451D01*
X226565430Y-69081811D01*
X226630370Y-68868069D01*
X226659529Y-68646590D01*
X226660589Y-68603216D01*
X226682249Y-68535604D01*
X226737024Y-68490436D01*
X226807524Y-68482052D01*
X226872805Y-68514445D01*
X226886266Y-68527086D01*
X226889107Y-68529840D01*
X226908906Y-68549639D01*
X226912031Y-68552063D01*
X226912040Y-68552071D01*
X226912126Y-68552137D01*
X226921151Y-68559845D01*
X226953494Y-68590217D01*
X226960438Y-68594035D01*
X226960440Y-68594036D01*
X226971329Y-68600022D01*
X226987847Y-68610873D01*
X227003933Y-68623350D01*
X227044666Y-68640976D01*
X227055314Y-68646193D01*
X227094197Y-68667569D01*
X227101872Y-68669540D01*
X227101878Y-68669542D01*
X227113911Y-68672631D01*
X227132613Y-68679034D01*
X227151292Y-68687117D01*
X227185128Y-68692476D01*
X227195127Y-68694060D01*
X227206740Y-68696465D01*
X227249718Y-68707500D01*
X227270065Y-68707500D01*
X227289777Y-68709051D01*
X227309879Y-68712235D01*
X227317771Y-68711489D01*
X227354056Y-68708059D01*
X227365914Y-68707500D01*
X228453470Y-68707500D01*
X228521591Y-68727502D01*
X228568084Y-68781158D01*
X228572994Y-68793624D01*
X228590450Y-68845946D01*
X228683522Y-68996348D01*
X228808697Y-69121305D01*
X228814927Y-69125145D01*
X228814928Y-69125146D01*
X228951352Y-69209239D01*
X228959262Y-69214115D01*
X229039005Y-69240564D01*
X229120611Y-69267632D01*
X229120613Y-69267632D01*
X229127139Y-69269797D01*
X229133975Y-69270497D01*
X229133978Y-69270498D01*
X229177031Y-69274909D01*
X229231600Y-69280500D01*
X229870500Y-69280500D01*
X229938621Y-69300502D01*
X229985114Y-69354158D01*
X229996500Y-69406500D01*
X229996500Y-71013500D01*
X229976498Y-71081621D01*
X229922842Y-71128114D01*
X229870500Y-71139500D01*
X229333866Y-71139500D01*
X229271684Y-71146255D01*
X229135295Y-71197385D01*
X229018739Y-71284739D01*
X228931385Y-71401295D01*
X228880255Y-71537684D01*
X228873500Y-71599866D01*
X228873500Y-74196134D01*
X228880255Y-74258316D01*
X228931385Y-74394705D01*
X229018739Y-74511261D01*
X229135295Y-74598615D01*
X229271684Y-74649745D01*
X229333866Y-74656500D01*
X231930134Y-74656500D01*
X231992316Y-74649745D01*
X232128705Y-74598615D01*
X232245261Y-74511261D01*
X232332615Y-74394705D01*
X232383745Y-74258316D01*
X232390500Y-74196134D01*
X232390500Y-71599866D01*
X232383745Y-71537684D01*
X232332615Y-71401295D01*
X232245261Y-71284739D01*
X232128705Y-71197385D01*
X231992316Y-71146255D01*
X231930134Y-71139500D01*
X231393500Y-71139500D01*
X231325379Y-71119498D01*
X231278886Y-71065842D01*
X231267500Y-71013500D01*
X231267500Y-69401449D01*
X231287502Y-69333328D01*
X231341158Y-69286835D01*
X231358002Y-69280553D01*
X231375124Y-69275526D01*
X231376329Y-69274135D01*
X231378000Y-69266452D01*
X231378000Y-69261884D01*
X231886000Y-69261884D01*
X231890475Y-69277123D01*
X231891865Y-69278328D01*
X231899548Y-69279999D01*
X232029095Y-69279999D01*
X232035614Y-69279662D01*
X232131206Y-69269743D01*
X232144600Y-69266851D01*
X232298784Y-69215412D01*
X232311962Y-69209239D01*
X232449807Y-69123937D01*
X232461208Y-69114901D01*
X232575739Y-69000171D01*
X232584751Y-68988760D01*
X232669816Y-68850757D01*
X232675963Y-68837576D01*
X232727138Y-68683290D01*
X232730005Y-68669914D01*
X232739672Y-68575562D01*
X232740000Y-68569146D01*
X232740000Y-68344115D01*
X232735525Y-68328876D01*
X232734135Y-68327671D01*
X232726452Y-68326000D01*
X231904115Y-68326000D01*
X231888876Y-68330475D01*
X231887671Y-68331865D01*
X231886000Y-68339548D01*
X231886000Y-69261884D01*
X231378000Y-69261884D01*
X231378000Y-67799885D01*
X231886000Y-67799885D01*
X231890475Y-67815124D01*
X231891865Y-67816329D01*
X231899548Y-67818000D01*
X232721884Y-67818000D01*
X232737123Y-67813525D01*
X232738328Y-67812135D01*
X232739999Y-67804452D01*
X232739999Y-67574905D01*
X232739662Y-67568386D01*
X232729743Y-67472794D01*
X232726851Y-67459400D01*
X232675412Y-67305216D01*
X232669239Y-67292038D01*
X232583937Y-67154193D01*
X232574901Y-67142792D01*
X232460171Y-67028261D01*
X232448760Y-67019249D01*
X232310757Y-66934184D01*
X232297576Y-66928037D01*
X232143290Y-66876862D01*
X232129914Y-66873995D01*
X232035562Y-66864328D01*
X232029145Y-66864000D01*
X231904115Y-66864000D01*
X231888876Y-66868475D01*
X231887671Y-66869865D01*
X231886000Y-66877548D01*
X231886000Y-67799885D01*
X231378000Y-67799885D01*
X231378000Y-66882116D01*
X231373525Y-66866877D01*
X231372135Y-66865672D01*
X231364452Y-66864001D01*
X231234905Y-66864001D01*
X231228386Y-66864338D01*
X231132794Y-66874257D01*
X231119400Y-66877149D01*
X230965216Y-66928588D01*
X230952038Y-66934761D01*
X230814193Y-67020063D01*
X230802792Y-67029099D01*
X230721570Y-67110462D01*
X230659287Y-67144541D01*
X230588467Y-67139538D01*
X230543380Y-67110617D01*
X230460488Y-67027870D01*
X230460483Y-67027866D01*
X230455303Y-67022695D01*
X230449072Y-67018854D01*
X230310968Y-66933725D01*
X230310966Y-66933724D01*
X230304738Y-66929885D01*
X230166344Y-66883982D01*
X230143389Y-66876368D01*
X230143387Y-66876368D01*
X230136861Y-66874203D01*
X230130025Y-66873503D01*
X230130022Y-66873502D01*
X230086969Y-66869091D01*
X230032400Y-66863500D01*
X229231600Y-66863500D01*
X229228354Y-66863837D01*
X229228350Y-66863837D01*
X229132692Y-66873762D01*
X229132688Y-66873763D01*
X229125834Y-66874474D01*
X229119298Y-66876655D01*
X229119296Y-66876655D01*
X229052273Y-66899016D01*
X228958054Y-66930450D01*
X228807652Y-67023522D01*
X228682695Y-67148697D01*
X228678855Y-67154927D01*
X228678854Y-67154928D01*
X228628980Y-67235839D01*
X228589885Y-67299262D01*
X228587581Y-67306207D01*
X228587581Y-67306208D01*
X228573000Y-67350168D01*
X228532568Y-67408528D01*
X228467004Y-67435764D01*
X228453407Y-67436500D01*
X227645422Y-67436500D01*
X227577301Y-67416498D01*
X227556331Y-67399599D01*
X226649875Y-66493142D01*
X226615851Y-66430832D01*
X226618414Y-66367420D01*
X226628865Y-66333022D01*
X226630370Y-66328069D01*
X226659529Y-66106590D01*
X226661156Y-66040000D01*
X226642852Y-65817361D01*
X226615389Y-65708024D01*
X226618194Y-65637083D01*
X226648498Y-65588234D01*
X228242163Y-63994570D01*
X228304475Y-63960544D01*
X228375291Y-63965609D01*
X228403528Y-63980452D01*
X228554346Y-64086056D01*
X228753924Y-64179120D01*
X228966629Y-64236115D01*
X229186000Y-64255307D01*
X229405371Y-64236115D01*
X229618076Y-64179120D01*
X229817654Y-64086056D01*
X229948309Y-63994570D01*
X229993527Y-63962908D01*
X229993529Y-63962906D01*
X229998038Y-63959749D01*
X230153749Y-63804038D01*
X230167039Y-63785059D01*
X230276899Y-63628162D01*
X230276900Y-63628160D01*
X230280056Y-63623653D01*
X230282379Y-63618671D01*
X230282382Y-63618666D01*
X230370795Y-63429061D01*
X230373120Y-63424076D01*
X230430115Y-63211371D01*
X230449307Y-62992000D01*
X230430115Y-62772629D01*
X230373120Y-62559924D01*
X230325016Y-62456764D01*
X230282382Y-62365334D01*
X230282379Y-62365329D01*
X230280056Y-62360347D01*
X230276899Y-62355838D01*
X230156908Y-62184473D01*
X230156906Y-62184470D01*
X230153749Y-62179962D01*
X229998038Y-62024251D01*
X229965080Y-62001173D01*
X229869058Y-61933938D01*
X229817654Y-61897944D01*
X229618076Y-61804880D01*
X229405371Y-61747885D01*
X229186000Y-61728693D01*
X228966629Y-61747885D01*
X228753924Y-61804880D01*
X228663303Y-61847137D01*
X228559334Y-61895618D01*
X228559329Y-61895621D01*
X228554347Y-61897944D01*
X228549840Y-61901100D01*
X228549838Y-61901101D01*
X228378473Y-62021092D01*
X228378470Y-62021094D01*
X228373962Y-62024251D01*
X228218251Y-62179962D01*
X228215094Y-62184470D01*
X228215092Y-62184473D01*
X228095101Y-62355838D01*
X228091944Y-62360347D01*
X228089619Y-62365333D01*
X228083334Y-62378812D01*
X228037800Y-62430527D01*
X228037412Y-62430681D01*
X228031337Y-62435095D01*
X228001512Y-62456764D01*
X227991590Y-62463281D01*
X227960232Y-62481826D01*
X227960228Y-62481829D01*
X227953402Y-62485866D01*
X227939018Y-62500250D01*
X227923984Y-62513091D01*
X227907513Y-62525058D01*
X227902460Y-62531166D01*
X227879223Y-62559255D01*
X227871233Y-62568035D01*
X226874662Y-63564606D01*
X226812350Y-63598632D01*
X226741535Y-63593567D01*
X226684699Y-63551020D01*
X226659991Y-63485835D01*
X226658842Y-63471851D01*
X226642852Y-63277361D01*
X226588431Y-63060702D01*
X226499354Y-62855840D01*
X226378014Y-62668277D01*
X226227670Y-62503051D01*
X226223619Y-62499852D01*
X226223615Y-62499848D01*
X226056414Y-62367800D01*
X226056410Y-62367798D01*
X226052359Y-62364598D01*
X226011053Y-62341796D01*
X225961084Y-62291364D01*
X225946312Y-62221921D01*
X225971428Y-62155516D01*
X225998780Y-62128909D01*
X226042603Y-62097650D01*
X226177860Y-62001173D01*
X226336096Y-61843489D01*
X226395594Y-61760689D01*
X226463435Y-61666277D01*
X226466453Y-61662077D01*
X226565430Y-61461811D01*
X226630370Y-61248069D01*
X226659529Y-61026590D01*
X226659611Y-61023240D01*
X226661074Y-60963365D01*
X226661074Y-60963361D01*
X226661156Y-60960000D01*
X226642852Y-60737361D01*
X226588431Y-60520702D01*
X226499354Y-60315840D01*
X226378014Y-60128277D01*
X226227670Y-59963051D01*
X226223619Y-59959852D01*
X226223615Y-59959848D01*
X226056414Y-59827800D01*
X226056410Y-59827798D01*
X226052359Y-59824598D01*
X226011053Y-59801796D01*
X225961084Y-59751364D01*
X225946312Y-59681921D01*
X225971428Y-59615516D01*
X225998780Y-59588909D01*
X226042603Y-59557650D01*
X226177860Y-59461173D01*
X226336096Y-59303489D01*
X226395594Y-59220689D01*
X226463435Y-59126277D01*
X226466453Y-59122077D01*
X226565430Y-58921811D01*
X226630370Y-58708069D01*
X226659529Y-58486590D01*
X226661156Y-58420000D01*
X226642852Y-58197361D01*
X226615389Y-58088025D01*
X226618193Y-58017084D01*
X226648498Y-57968235D01*
X227469483Y-57147250D01*
X227477809Y-57139674D01*
X227484303Y-57135553D01*
X227531086Y-57085734D01*
X227533840Y-57082893D01*
X227553639Y-57063094D01*
X227556063Y-57059969D01*
X227556071Y-57059960D01*
X227556137Y-57059874D01*
X227563845Y-57050849D01*
X227588790Y-57024285D01*
X227594217Y-57018506D01*
X227604023Y-57000669D01*
X227614873Y-56984153D01*
X227627350Y-56968067D01*
X227644976Y-56927334D01*
X227650193Y-56916686D01*
X227667749Y-56884751D01*
X227671569Y-56877803D01*
X227673540Y-56870128D01*
X227673542Y-56870122D01*
X227676631Y-56858089D01*
X227683034Y-56839387D01*
X227691117Y-56820708D01*
X227698060Y-56776873D01*
X227700467Y-56765251D01*
X227711500Y-56722282D01*
X227711500Y-56701935D01*
X227713051Y-56682224D01*
X227714995Y-56669950D01*
X227716235Y-56662121D01*
X227712059Y-56617944D01*
X227711500Y-56606086D01*
X227711500Y-55381738D01*
X228237500Y-55381738D01*
X228252295Y-55556102D01*
X228253633Y-55561259D01*
X228253634Y-55561262D01*
X228290950Y-55705032D01*
X228311067Y-55782540D01*
X228313259Y-55787406D01*
X228313260Y-55787409D01*
X228379864Y-55935264D01*
X228407150Y-55995837D01*
X228537798Y-56189896D01*
X228699276Y-56359168D01*
X228886965Y-56498813D01*
X228891716Y-56501229D01*
X228891720Y-56501231D01*
X229058993Y-56586277D01*
X229095500Y-56604838D01*
X229318917Y-56674210D01*
X229324204Y-56674911D01*
X229324205Y-56674911D01*
X229545545Y-56704248D01*
X229545549Y-56704248D01*
X229550829Y-56704948D01*
X229556158Y-56704748D01*
X229556160Y-56704748D01*
X229667716Y-56700560D01*
X229784604Y-56696172D01*
X229909576Y-56669950D01*
X230008332Y-56649229D01*
X230008335Y-56649228D01*
X230013559Y-56648132D01*
X230118630Y-56606638D01*
X230189334Y-56600221D01*
X230254004Y-56634736D01*
X231913595Y-58294327D01*
X231947621Y-58356639D01*
X231950500Y-58383422D01*
X231950500Y-61835046D01*
X231930498Y-61903167D01*
X231896771Y-61938259D01*
X231778473Y-62021092D01*
X231778470Y-62021094D01*
X231773962Y-62024251D01*
X231618251Y-62179962D01*
X231615094Y-62184470D01*
X231615092Y-62184473D01*
X231495101Y-62355838D01*
X231491944Y-62360347D01*
X231489621Y-62365329D01*
X231489618Y-62365334D01*
X231446984Y-62456764D01*
X231398880Y-62559924D01*
X231341885Y-62772629D01*
X231322693Y-62992000D01*
X231341885Y-63211371D01*
X231398880Y-63424076D01*
X231401205Y-63429061D01*
X231489618Y-63618666D01*
X231489621Y-63618671D01*
X231491944Y-63623653D01*
X231495100Y-63628160D01*
X231495101Y-63628162D01*
X231604962Y-63785059D01*
X231618251Y-63804038D01*
X231773962Y-63959749D01*
X231778471Y-63962906D01*
X231778473Y-63962908D01*
X231823691Y-63994570D01*
X231954346Y-64086056D01*
X232153924Y-64179120D01*
X232366629Y-64236115D01*
X232586000Y-64255307D01*
X232805371Y-64236115D01*
X233018076Y-64179120D01*
X233217654Y-64086056D01*
X233348309Y-63994570D01*
X233393527Y-63962908D01*
X233393529Y-63962906D01*
X233398038Y-63959749D01*
X233553749Y-63804038D01*
X233567039Y-63785059D01*
X233676899Y-63628162D01*
X233676900Y-63628160D01*
X233680056Y-63623653D01*
X233682379Y-63618671D01*
X233682382Y-63618666D01*
X233770795Y-63429061D01*
X233773120Y-63424076D01*
X233830115Y-63211371D01*
X233849307Y-62992000D01*
X233830115Y-62772629D01*
X233773120Y-62559924D01*
X233725016Y-62456764D01*
X233682382Y-62365334D01*
X233682379Y-62365329D01*
X233680056Y-62360347D01*
X233676899Y-62355838D01*
X233556908Y-62184473D01*
X233556906Y-62184470D01*
X233553749Y-62179962D01*
X233398038Y-62024251D01*
X233365080Y-62001173D01*
X233275229Y-61938259D01*
X233230901Y-61882802D01*
X233221500Y-61835046D01*
X233221500Y-58147020D01*
X233222030Y-58135786D01*
X233223708Y-58128281D01*
X233221562Y-58059988D01*
X233221500Y-58056031D01*
X233221500Y-58028017D01*
X233220992Y-58023996D01*
X233220058Y-58012144D01*
X233218914Y-57975718D01*
X233218914Y-57975717D01*
X233218665Y-57967795D01*
X233212987Y-57948251D01*
X233208977Y-57928888D01*
X233207420Y-57916560D01*
X233207420Y-57916558D01*
X233206427Y-57908701D01*
X233203511Y-57901337D01*
X233203510Y-57901332D01*
X233190093Y-57867444D01*
X233186248Y-57856215D01*
X233176080Y-57821219D01*
X233173869Y-57813607D01*
X233163510Y-57796091D01*
X233154813Y-57778341D01*
X233147319Y-57759412D01*
X233121240Y-57723517D01*
X233114722Y-57713595D01*
X233096170Y-57682224D01*
X233096166Y-57682219D01*
X233092134Y-57675401D01*
X233077747Y-57661014D01*
X233064906Y-57645980D01*
X233057602Y-57635927D01*
X233052942Y-57629513D01*
X233018750Y-57601227D01*
X233009971Y-57593238D01*
X232333328Y-56916595D01*
X232299302Y-56854283D01*
X232304367Y-56783468D01*
X232346914Y-56726632D01*
X232413434Y-56701821D01*
X232422423Y-56701500D01*
X232826400Y-56701500D01*
X232829646Y-56701163D01*
X232829650Y-56701163D01*
X232925308Y-56691238D01*
X232925312Y-56691237D01*
X232932166Y-56690526D01*
X232938702Y-56688345D01*
X232938704Y-56688345D01*
X233092998Y-56636868D01*
X233099946Y-56634550D01*
X233250348Y-56541478D01*
X233375305Y-56416303D01*
X233468115Y-56265738D01*
X233523797Y-56097861D01*
X233534500Y-55993400D01*
X233534500Y-54202600D01*
X233528938Y-54148990D01*
X233524238Y-54103692D01*
X233524237Y-54103688D01*
X233523526Y-54096834D01*
X233519665Y-54085259D01*
X233469868Y-53936002D01*
X233467550Y-53929054D01*
X233374478Y-53778652D01*
X233249303Y-53653695D01*
X233158906Y-53597973D01*
X233104968Y-53564725D01*
X233104966Y-53564724D01*
X233098738Y-53560885D01*
X232938254Y-53507655D01*
X232937389Y-53507368D01*
X232937387Y-53507368D01*
X232930861Y-53505203D01*
X232924023Y-53504502D01*
X232924021Y-53504502D01*
X232904657Y-53502518D01*
X232838930Y-53475676D01*
X232798148Y-53417561D01*
X232791500Y-53377174D01*
X232791500Y-51645020D01*
X232792030Y-51633786D01*
X232793708Y-51626281D01*
X232791562Y-51557988D01*
X232791500Y-51554031D01*
X232791500Y-51526017D01*
X232790992Y-51521996D01*
X232790058Y-51510144D01*
X232788914Y-51473718D01*
X232788914Y-51473717D01*
X232788665Y-51465795D01*
X232782987Y-51446251D01*
X232778977Y-51426888D01*
X232777420Y-51414560D01*
X232777420Y-51414558D01*
X232776427Y-51406701D01*
X232773511Y-51399337D01*
X232773510Y-51399332D01*
X232760093Y-51365444D01*
X232756248Y-51354215D01*
X232746080Y-51319219D01*
X232743869Y-51311607D01*
X232733510Y-51294091D01*
X232724813Y-51276341D01*
X232717319Y-51257412D01*
X232691240Y-51221517D01*
X232684722Y-51211595D01*
X232666170Y-51180224D01*
X232666166Y-51180219D01*
X232662134Y-51173401D01*
X232647747Y-51159014D01*
X232634906Y-51143980D01*
X232627602Y-51133927D01*
X232622942Y-51127513D01*
X232588750Y-51099227D01*
X232579971Y-51091238D01*
X231699307Y-50210574D01*
X231665281Y-50148262D01*
X231670346Y-50077447D01*
X231712893Y-50020611D01*
X231778455Y-49996895D01*
X231778362Y-49995999D01*
X231877206Y-49985743D01*
X231890600Y-49982851D01*
X232044784Y-49931412D01*
X232057962Y-49925239D01*
X232195807Y-49839937D01*
X232207208Y-49830901D01*
X232321739Y-49716171D01*
X232330751Y-49704760D01*
X232415816Y-49566757D01*
X232421963Y-49553576D01*
X232473138Y-49399290D01*
X232476005Y-49385914D01*
X232485672Y-49291562D01*
X232486000Y-49285146D01*
X232486000Y-49060115D01*
X232481525Y-49044876D01*
X232480135Y-49043671D01*
X232472452Y-49042000D01*
X231250000Y-49042000D01*
X231181879Y-49021998D01*
X231135386Y-48968342D01*
X231124000Y-48916000D01*
X231124000Y-48515885D01*
X231632000Y-48515885D01*
X231636475Y-48531124D01*
X231637865Y-48532329D01*
X231645548Y-48534000D01*
X232467884Y-48534000D01*
X232483123Y-48529525D01*
X232484328Y-48528135D01*
X232485999Y-48520452D01*
X232485999Y-48290905D01*
X232485662Y-48284386D01*
X232475743Y-48188794D01*
X232472851Y-48175400D01*
X232421412Y-48021216D01*
X232415239Y-48008038D01*
X232329937Y-47870193D01*
X232320901Y-47858792D01*
X232206171Y-47744261D01*
X232194760Y-47735249D01*
X232056757Y-47650184D01*
X232043576Y-47644037D01*
X231889290Y-47592862D01*
X231875914Y-47589995D01*
X231781562Y-47580328D01*
X231775145Y-47580000D01*
X231650115Y-47580000D01*
X231634876Y-47584475D01*
X231633671Y-47585865D01*
X231632000Y-47593548D01*
X231632000Y-48515885D01*
X231124000Y-48515885D01*
X231124000Y-47598116D01*
X231119525Y-47582877D01*
X231118135Y-47581672D01*
X231110452Y-47580001D01*
X230980905Y-47580001D01*
X230974386Y-47580338D01*
X230878794Y-47590257D01*
X230865400Y-47593149D01*
X230711216Y-47644588D01*
X230698038Y-47650761D01*
X230560193Y-47736063D01*
X230548792Y-47745099D01*
X230467570Y-47826462D01*
X230405287Y-47860541D01*
X230334467Y-47855538D01*
X230289380Y-47826617D01*
X230206488Y-47743870D01*
X230206483Y-47743866D01*
X230201303Y-47738695D01*
X230195072Y-47734854D01*
X230056968Y-47649725D01*
X230056966Y-47649724D01*
X230050738Y-47645885D01*
X229947046Y-47611492D01*
X229889389Y-47592368D01*
X229889387Y-47592368D01*
X229882861Y-47590203D01*
X229876025Y-47589503D01*
X229876022Y-47589502D01*
X229832969Y-47585091D01*
X229778400Y-47579500D01*
X228977600Y-47579500D01*
X228974354Y-47579837D01*
X228974350Y-47579837D01*
X228878692Y-47589762D01*
X228878688Y-47589763D01*
X228871834Y-47590474D01*
X228865298Y-47592655D01*
X228865296Y-47592655D01*
X228733194Y-47636728D01*
X228704054Y-47646450D01*
X228553652Y-47739522D01*
X228428695Y-47864697D01*
X228424855Y-47870927D01*
X228424854Y-47870928D01*
X228342476Y-48004570D01*
X228335885Y-48015262D01*
X228280203Y-48183139D01*
X228269500Y-48287600D01*
X228269500Y-49288400D01*
X228269837Y-49291646D01*
X228269837Y-49291650D01*
X228279618Y-49385914D01*
X228280474Y-49394166D01*
X228336450Y-49561946D01*
X228429522Y-49712348D01*
X228554697Y-49837305D01*
X228560927Y-49841145D01*
X228560928Y-49841146D01*
X228697352Y-49925239D01*
X228705262Y-49930115D01*
X228754393Y-49946411D01*
X228866611Y-49983632D01*
X228866613Y-49983632D01*
X228873139Y-49985797D01*
X228879975Y-49986497D01*
X228879978Y-49986498D01*
X228923031Y-49990909D01*
X228977600Y-49996500D01*
X229635578Y-49996500D01*
X229703699Y-50016502D01*
X229724673Y-50033405D01*
X231483595Y-51792327D01*
X231517621Y-51854639D01*
X231520500Y-51881422D01*
X231520500Y-53377276D01*
X231500498Y-53445397D01*
X231446842Y-53491890D01*
X231407504Y-53502603D01*
X231386692Y-53504762D01*
X231386688Y-53504763D01*
X231379834Y-53505474D01*
X231373298Y-53507655D01*
X231373296Y-53507655D01*
X231333030Y-53521089D01*
X231212054Y-53561450D01*
X231061652Y-53654522D01*
X230936695Y-53779697D01*
X230843885Y-53930262D01*
X230841738Y-53928938D01*
X230802688Y-53973290D01*
X230734411Y-53992752D01*
X230666451Y-53972212D01*
X230644239Y-53953728D01*
X230536410Y-53840694D01*
X230536398Y-53840684D01*
X230532724Y-53836832D01*
X230345035Y-53697187D01*
X230340284Y-53694771D01*
X230340280Y-53694769D01*
X230141256Y-53593580D01*
X230141255Y-53593580D01*
X230136500Y-53591162D01*
X229913083Y-53521790D01*
X229907796Y-53521089D01*
X229907795Y-53521089D01*
X229686455Y-53491752D01*
X229686451Y-53491752D01*
X229681171Y-53491052D01*
X229675842Y-53491252D01*
X229675840Y-53491252D01*
X229564284Y-53495440D01*
X229447396Y-53499828D01*
X229363411Y-53517450D01*
X229223668Y-53546771D01*
X229223665Y-53546772D01*
X229218441Y-53547868D01*
X229000854Y-53633797D01*
X228996290Y-53636566D01*
X228996291Y-53636566D01*
X228805417Y-53752391D01*
X228805414Y-53752393D01*
X228800856Y-53755159D01*
X228624166Y-53908483D01*
X228475835Y-54089386D01*
X228360104Y-54292695D01*
X228280284Y-54512596D01*
X228238656Y-54742803D01*
X228237500Y-54767316D01*
X228237500Y-55381738D01*
X227711500Y-55381738D01*
X227711500Y-44528880D01*
X227731502Y-44460759D01*
X227785158Y-44414266D01*
X227855432Y-44404162D01*
X227920012Y-44433656D01*
X227938326Y-44453315D01*
X228002739Y-44539261D01*
X228119295Y-44626615D01*
X228255684Y-44677745D01*
X228317866Y-44684500D01*
X230914134Y-44684500D01*
X230976316Y-44677745D01*
X231112705Y-44626615D01*
X231229261Y-44539261D01*
X231316615Y-44422705D01*
X231367745Y-44286316D01*
X231374500Y-44224134D01*
X231374500Y-41627866D01*
X231367745Y-41565684D01*
X231316615Y-41429295D01*
X231229261Y-41312739D01*
X231112705Y-41225385D01*
X230976316Y-41174255D01*
X230914134Y-41167500D01*
X228317866Y-41167500D01*
X228255684Y-41174255D01*
X228119295Y-41225385D01*
X228002739Y-41312739D01*
X227915385Y-41429295D01*
X227864255Y-41565684D01*
X227857500Y-41627866D01*
X227857500Y-42463577D01*
X227837498Y-42531698D01*
X227820595Y-42552672D01*
X227325595Y-43047672D01*
X227263283Y-43081698D01*
X227192468Y-43076633D01*
X227135632Y-43034086D01*
X227110821Y-42967566D01*
X227110500Y-42958577D01*
X227110500Y-41302422D01*
X227130502Y-41234301D01*
X227147405Y-41213327D01*
X228719328Y-39641405D01*
X228781640Y-39607379D01*
X228808423Y-39604500D01*
X230914134Y-39604500D01*
X230976316Y-39597745D01*
X231112705Y-39546615D01*
X231229261Y-39459261D01*
X231316615Y-39342705D01*
X231367745Y-39206316D01*
X231374500Y-39144134D01*
X231374500Y-36547866D01*
X231367745Y-36485684D01*
X231316615Y-36349295D01*
X231229261Y-36232739D01*
X231112705Y-36145385D01*
X230976316Y-36094255D01*
X230914134Y-36087500D01*
X228317866Y-36087500D01*
X228255684Y-36094255D01*
X228119295Y-36145385D01*
X228002739Y-36232739D01*
X227915385Y-36349295D01*
X227864255Y-36485684D01*
X227857500Y-36547866D01*
X227857500Y-38653578D01*
X227837498Y-38721699D01*
X227820595Y-38742673D01*
X226636314Y-39926953D01*
X226574002Y-39960979D01*
X226503186Y-39955914D01*
X226446351Y-39913367D01*
X226441427Y-39906298D01*
X226380822Y-39812617D01*
X226380820Y-39812614D01*
X226378014Y-39808277D01*
X226227670Y-39643051D01*
X226223619Y-39639852D01*
X226223615Y-39639848D01*
X226056414Y-39507800D01*
X226056410Y-39507798D01*
X226052359Y-39504598D01*
X226011053Y-39481796D01*
X225961084Y-39431364D01*
X225946312Y-39361921D01*
X225971428Y-39295516D01*
X225998780Y-39268909D01*
X226042603Y-39237650D01*
X226177860Y-39141173D01*
X226336096Y-38983489D01*
X226395594Y-38900689D01*
X226463435Y-38806277D01*
X226466453Y-38802077D01*
X226473526Y-38787767D01*
X226563136Y-38606453D01*
X226563137Y-38606451D01*
X226565430Y-38601811D01*
X226630370Y-38388069D01*
X226659529Y-38166590D01*
X226661156Y-38100000D01*
X226642852Y-37877361D01*
X226588431Y-37660702D01*
X226499354Y-37455840D01*
X226378014Y-37268277D01*
X226227670Y-37103051D01*
X226223619Y-37099852D01*
X226223615Y-37099848D01*
X226056414Y-36967800D01*
X226056410Y-36967798D01*
X226052359Y-36964598D01*
X226010569Y-36941529D01*
X225960598Y-36891097D01*
X225945826Y-36821654D01*
X225970942Y-36755248D01*
X225998294Y-36728641D01*
X226173328Y-36603792D01*
X226181200Y-36597139D01*
X226332052Y-36446812D01*
X226338730Y-36438965D01*
X226463003Y-36266020D01*
X226468313Y-36257183D01*
X226562670Y-36066267D01*
X226566469Y-36056672D01*
X226628377Y-35852910D01*
X226630555Y-35842837D01*
X226631986Y-35831962D01*
X226629775Y-35817778D01*
X226616617Y-35814000D01*
X223981225Y-35814000D01*
X223967694Y-35817973D01*
X223966257Y-35827966D01*
X223996565Y-35962446D01*
X223999645Y-35972275D01*
X224079770Y-36169603D01*
X224084413Y-36178794D01*
X224195694Y-36360388D01*
X224201777Y-36368699D01*
X224341213Y-36529667D01*
X224348580Y-36536883D01*
X224512434Y-36672916D01*
X224520881Y-36678831D01*
X224589969Y-36719203D01*
X224638693Y-36770842D01*
X224651764Y-36840625D01*
X224625033Y-36906396D01*
X224584584Y-36939752D01*
X224571607Y-36946507D01*
X224567474Y-36949610D01*
X224567471Y-36949612D01*
X224443567Y-37042642D01*
X224392965Y-37080635D01*
X224238629Y-37242138D01*
X224112743Y-37426680D01*
X224018688Y-37629305D01*
X223958989Y-37844570D01*
X223935251Y-38066695D01*
X223935548Y-38071848D01*
X223935548Y-38071851D01*
X223941011Y-38166590D01*
X223948110Y-38289715D01*
X223949247Y-38294761D01*
X223949248Y-38294767D01*
X223968168Y-38378717D01*
X223997222Y-38507639D01*
X224081266Y-38714616D01*
X224197987Y-38905088D01*
X224344250Y-39073938D01*
X224516126Y-39216632D01*
X224586595Y-39257811D01*
X224589445Y-39259476D01*
X224638169Y-39311114D01*
X224651240Y-39380897D01*
X224624509Y-39446669D01*
X224584055Y-39480027D01*
X224571607Y-39486507D01*
X224567474Y-39489610D01*
X224567471Y-39489612D01*
X224410620Y-39607379D01*
X224392965Y-39620635D01*
X224238629Y-39782138D01*
X224112743Y-39966680D01*
X224018688Y-40169305D01*
X223958989Y-40384570D01*
X223935251Y-40606695D01*
X223935548Y-40611848D01*
X223935548Y-40611851D01*
X223941011Y-40706590D01*
X223948110Y-40829715D01*
X223949247Y-40834761D01*
X223949248Y-40834767D01*
X223969119Y-40922939D01*
X223997222Y-41047639D01*
X224058673Y-41198976D01*
X224071584Y-41230771D01*
X224081266Y-41254616D01*
X224197987Y-41445088D01*
X224344250Y-41613938D01*
X224516126Y-41756632D01*
X224586595Y-41797811D01*
X224589445Y-41799476D01*
X224638169Y-41851114D01*
X224651240Y-41920897D01*
X224624509Y-41986669D01*
X224584055Y-42020027D01*
X224571607Y-42026507D01*
X224567474Y-42029610D01*
X224567471Y-42029612D01*
X224543247Y-42047800D01*
X224392965Y-42160635D01*
X224238629Y-42322138D01*
X224112743Y-42506680D01*
X224018688Y-42709305D01*
X223958989Y-42924570D01*
X223935251Y-43146695D01*
X223935548Y-43151848D01*
X223935548Y-43151851D01*
X223947812Y-43364547D01*
X223948110Y-43369715D01*
X223949247Y-43374761D01*
X223949248Y-43374767D01*
X223969119Y-43462939D01*
X223997222Y-43587639D01*
X224081266Y-43794616D01*
X224197987Y-43985088D01*
X224344250Y-44153938D01*
X224516126Y-44296632D01*
X224523567Y-44300980D01*
X224589445Y-44339476D01*
X224638169Y-44391114D01*
X224651240Y-44460897D01*
X224624509Y-44526669D01*
X224584055Y-44560027D01*
X224571607Y-44566507D01*
X224567474Y-44569610D01*
X224567471Y-44569612D01*
X224397100Y-44697530D01*
X224392965Y-44700635D01*
X224238629Y-44862138D01*
X224112743Y-45046680D01*
X224018688Y-45249305D01*
X223958989Y-45464570D01*
X223935251Y-45686695D01*
X223935548Y-45691848D01*
X223935548Y-45691851D01*
X223941011Y-45786590D01*
X223948110Y-45909715D01*
X223949247Y-45914761D01*
X223949248Y-45914767D01*
X223969119Y-46002939D01*
X223997222Y-46127639D01*
X224081266Y-46334616D01*
X224197987Y-46525088D01*
X224344250Y-46693938D01*
X224516126Y-46836632D01*
X224586595Y-46877811D01*
X224589445Y-46879476D01*
X224638169Y-46931114D01*
X224651240Y-47000897D01*
X224624509Y-47066669D01*
X224584055Y-47100027D01*
X224571607Y-47106507D01*
X224567474Y-47109610D01*
X224567471Y-47109612D01*
X224543247Y-47127800D01*
X224392965Y-47240635D01*
X224238629Y-47402138D01*
X224112743Y-47586680D01*
X224097003Y-47620590D01*
X224039208Y-47745099D01*
X224018688Y-47789305D01*
X223958989Y-48004570D01*
X223935251Y-48226695D01*
X223935548Y-48231848D01*
X223935548Y-48231851D01*
X223941011Y-48326590D01*
X223948110Y-48449715D01*
X223949247Y-48454761D01*
X223949248Y-48454767D01*
X223966728Y-48532329D01*
X223997222Y-48667639D01*
X224081266Y-48874616D01*
X224083965Y-48879020D01*
X224194940Y-49060115D01*
X224197987Y-49065088D01*
X224344250Y-49233938D01*
X224516126Y-49376632D01*
X224586595Y-49417811D01*
X224589445Y-49419476D01*
X224638169Y-49471114D01*
X224651240Y-49540897D01*
X224624509Y-49606669D01*
X224584055Y-49640027D01*
X224571607Y-49646507D01*
X224567474Y-49649610D01*
X224567471Y-49649612D01*
X224478823Y-49716171D01*
X224392965Y-49780635D01*
X224238629Y-49942138D01*
X224235715Y-49946410D01*
X224235714Y-49946411D01*
X224201546Y-49996500D01*
X224112743Y-50126680D01*
X224018688Y-50329305D01*
X223958989Y-50544570D01*
X223935251Y-50766695D01*
X223935548Y-50771848D01*
X223935548Y-50771851D01*
X223941011Y-50866590D01*
X223948110Y-50989715D01*
X223949247Y-50994761D01*
X223949248Y-50994767D01*
X223971392Y-51093023D01*
X223997222Y-51207639D01*
X224081266Y-51414616D01*
X224117484Y-51473718D01*
X224147127Y-51522091D01*
X224197987Y-51605088D01*
X224344250Y-51773938D01*
X224516126Y-51916632D01*
X224589445Y-51959476D01*
X224589955Y-51959774D01*
X224638679Y-52011412D01*
X224651750Y-52081195D01*
X224625019Y-52146967D01*
X224584562Y-52180327D01*
X224576457Y-52184546D01*
X224567738Y-52190036D01*
X224397433Y-52317905D01*
X224389726Y-52324748D01*
X224242590Y-52478717D01*
X224236104Y-52486727D01*
X224116098Y-52662649D01*
X224111000Y-52671623D01*
X224021338Y-52864783D01*
X224017775Y-52874470D01*
X223962389Y-53074183D01*
X223963912Y-53082607D01*
X223976292Y-53086000D01*
X225426000Y-53086000D01*
X225494121Y-53106002D01*
X225540614Y-53159658D01*
X225552000Y-53212000D01*
X225552000Y-53468000D01*
X225531998Y-53536121D01*
X225478342Y-53582614D01*
X225426000Y-53594000D01*
X223981225Y-53594000D01*
X223967694Y-53597973D01*
X223966257Y-53607966D01*
X223996565Y-53742446D01*
X223999645Y-53752275D01*
X224079770Y-53949603D01*
X224084413Y-53958794D01*
X224195694Y-54140388D01*
X224201777Y-54148699D01*
X224341213Y-54309667D01*
X224348580Y-54316883D01*
X224512434Y-54452916D01*
X224520881Y-54458831D01*
X224589969Y-54499203D01*
X224638693Y-54550842D01*
X224651764Y-54620625D01*
X224625033Y-54686396D01*
X224584584Y-54719752D01*
X224571607Y-54726507D01*
X224567474Y-54729610D01*
X224567471Y-54729612D01*
X224397100Y-54857530D01*
X224392965Y-54860635D01*
X224238629Y-55022138D01*
X224112743Y-55206680D01*
X224097169Y-55240232D01*
X224030255Y-55384387D01*
X224018688Y-55409305D01*
X223958989Y-55624570D01*
X223935251Y-55846695D01*
X223935548Y-55851848D01*
X223935548Y-55851851D01*
X223941011Y-55946590D01*
X223948110Y-56069715D01*
X223949247Y-56074761D01*
X223949248Y-56074767D01*
X223954453Y-56097861D01*
X223997222Y-56287639D01*
X224081266Y-56494616D01*
X224109983Y-56541478D01*
X224191751Y-56674911D01*
X224197987Y-56685088D01*
X224344250Y-56853938D01*
X224516126Y-56996632D01*
X224553559Y-57018506D01*
X224589445Y-57039476D01*
X224638169Y-57091114D01*
X224651240Y-57160897D01*
X224624509Y-57226669D01*
X224584055Y-57260027D01*
X224571607Y-57266507D01*
X224567474Y-57269610D01*
X224567471Y-57269612D01*
X224543247Y-57287800D01*
X224392965Y-57400635D01*
X224238629Y-57562138D01*
X224235715Y-57566410D01*
X224235714Y-57566411D01*
X224181436Y-57645980D01*
X224112743Y-57746680D01*
X224098051Y-57778332D01*
X224023598Y-57938728D01*
X224018688Y-57949305D01*
X223958989Y-58164570D01*
X223935251Y-58386695D01*
X223935548Y-58391848D01*
X223935548Y-58391851D01*
X223941011Y-58486590D01*
X223948110Y-58609715D01*
X223949247Y-58614761D01*
X223949248Y-58614767D01*
X223968249Y-58699079D01*
X223997222Y-58827639D01*
X224081266Y-59034616D01*
X224197987Y-59225088D01*
X224344250Y-59393938D01*
X224516126Y-59536632D01*
X224586595Y-59577811D01*
X224589445Y-59579476D01*
X224638169Y-59631114D01*
X224651240Y-59700897D01*
X224624509Y-59766669D01*
X224584055Y-59800027D01*
X224571607Y-59806507D01*
X224567474Y-59809610D01*
X224567471Y-59809612D01*
X224397100Y-59937530D01*
X224392965Y-59940635D01*
X224238629Y-60102138D01*
X224112743Y-60286680D01*
X224065716Y-60387992D01*
X224034186Y-60455918D01*
X224018688Y-60489305D01*
X223958989Y-60704570D01*
X223935251Y-60926695D01*
X223935548Y-60931848D01*
X223935548Y-60931851D01*
X223941011Y-61026590D01*
X223948110Y-61149715D01*
X223949247Y-61154761D01*
X223949248Y-61154767D01*
X223969119Y-61242939D01*
X223997222Y-61367639D01*
X224081266Y-61574616D01*
X224197987Y-61765088D01*
X224344250Y-61933938D01*
X224516126Y-62076632D01*
X224586595Y-62117811D01*
X224589445Y-62119476D01*
X224638169Y-62171114D01*
X224651240Y-62240897D01*
X224624509Y-62306669D01*
X224584055Y-62340027D01*
X224571607Y-62346507D01*
X224567474Y-62349610D01*
X224567471Y-62349612D01*
X224424758Y-62456764D01*
X224392965Y-62480635D01*
X224238629Y-62642138D01*
X224112743Y-62826680D01*
X224018688Y-63029305D01*
X223958989Y-63244570D01*
X223935251Y-63466695D01*
X223935548Y-63471848D01*
X223935548Y-63471851D01*
X223940896Y-63564606D01*
X223948110Y-63689715D01*
X223949247Y-63694761D01*
X223949248Y-63694767D01*
X223965302Y-63766003D01*
X223997222Y-63907639D01*
X224081266Y-64114616D01*
X224090030Y-64128918D01*
X224179077Y-64274229D01*
X224197987Y-64305088D01*
X224344250Y-64473938D01*
X224516126Y-64616632D01*
X224553559Y-64638506D01*
X224589445Y-64659476D01*
X224638169Y-64711114D01*
X224651240Y-64780897D01*
X224624509Y-64846669D01*
X224584055Y-64880027D01*
X224571607Y-64886507D01*
X224567474Y-64889610D01*
X224567471Y-64889612D01*
X224543247Y-64907800D01*
X224392965Y-65020635D01*
X224238629Y-65182138D01*
X224112743Y-65366680D01*
X224018688Y-65569305D01*
X223958989Y-65784570D01*
X223935251Y-66006695D01*
X223935548Y-66011848D01*
X223935548Y-66011851D01*
X223941011Y-66106590D01*
X223948110Y-66229715D01*
X223949247Y-66234761D01*
X223949248Y-66234767D01*
X223959900Y-66282031D01*
X223997222Y-66447639D01*
X224081266Y-66654616D01*
X224120573Y-66718760D01*
X224190809Y-66833374D01*
X224197987Y-66845088D01*
X224344250Y-67013938D01*
X224362036Y-67028704D01*
X224505310Y-67147652D01*
X224516126Y-67156632D01*
X224586595Y-67197811D01*
X224589445Y-67199476D01*
X224638169Y-67251114D01*
X224651240Y-67320897D01*
X224624509Y-67386669D01*
X224584055Y-67420027D01*
X224571607Y-67426507D01*
X224567474Y-67429610D01*
X224567471Y-67429612D01*
X224519228Y-67465834D01*
X224392965Y-67560635D01*
X224238629Y-67722138D01*
X224235715Y-67726410D01*
X224235714Y-67726411D01*
X224223199Y-67744757D01*
X224112743Y-67906680D01*
X224018688Y-68109305D01*
X223958989Y-68324570D01*
X223935251Y-68546695D01*
X223935548Y-68551848D01*
X223935548Y-68551851D01*
X223943419Y-68688356D01*
X223948110Y-68769715D01*
X223949247Y-68774761D01*
X223949248Y-68774767D01*
X223966374Y-68850757D01*
X223997222Y-68987639D01*
X224081266Y-69194616D01*
X224083965Y-69199020D01*
X224166269Y-69333328D01*
X224197987Y-69385088D01*
X224344250Y-69553938D01*
X224516126Y-69696632D01*
X224586595Y-69737811D01*
X224589445Y-69739476D01*
X224638169Y-69791114D01*
X224651240Y-69860897D01*
X224624509Y-69926669D01*
X224584055Y-69960027D01*
X224571607Y-69966507D01*
X224567474Y-69969610D01*
X224567471Y-69969612D01*
X224543247Y-69987800D01*
X224392965Y-70100635D01*
X224238629Y-70262138D01*
X224112743Y-70446680D01*
X224018688Y-70649305D01*
X223958989Y-70864570D01*
X223935251Y-71086695D01*
X223935548Y-71091848D01*
X223935548Y-71091851D01*
X223941011Y-71186590D01*
X223948110Y-71309715D01*
X223949247Y-71314761D01*
X223949248Y-71314767D01*
X223967129Y-71394109D01*
X223997222Y-71527639D01*
X224035461Y-71621811D01*
X224078891Y-71728766D01*
X224081266Y-71734616D01*
X224083965Y-71739020D01*
X224167106Y-71874694D01*
X224197987Y-71925088D01*
X224344250Y-72093938D01*
X224516126Y-72236632D01*
X224586595Y-72277811D01*
X224589445Y-72279476D01*
X224638169Y-72331114D01*
X224651240Y-72400897D01*
X224624509Y-72466669D01*
X224584055Y-72500027D01*
X224571607Y-72506507D01*
X224567474Y-72509610D01*
X224567471Y-72509612D01*
X224518213Y-72546596D01*
X224392965Y-72640635D01*
X224238629Y-72802138D01*
X224112743Y-72986680D01*
X224018688Y-73189305D01*
X223958989Y-73404570D01*
X223958440Y-73409707D01*
X223957512Y-73418387D01*
X223935251Y-73626695D01*
X223935548Y-73631848D01*
X223935548Y-73631851D01*
X223941011Y-73726590D01*
X223948110Y-73849715D01*
X223949247Y-73854761D01*
X223949248Y-73854767D01*
X223969119Y-73942939D01*
X223997222Y-74067639D01*
X224081266Y-74274616D01*
X224110007Y-74321517D01*
X224185751Y-74445120D01*
X224197987Y-74465088D01*
X224344250Y-74633938D01*
X224516126Y-74776632D01*
X224532608Y-74786263D01*
X224589445Y-74819476D01*
X224638169Y-74871114D01*
X224651240Y-74940897D01*
X224624509Y-75006669D01*
X224584055Y-75040027D01*
X224571607Y-75046507D01*
X224567474Y-75049610D01*
X224567471Y-75049612D01*
X224543247Y-75067800D01*
X224392965Y-75180635D01*
X224238629Y-75342138D01*
X224112743Y-75526680D01*
X224018688Y-75729305D01*
X223958989Y-75944570D01*
X223935251Y-76166695D01*
X223935548Y-76171848D01*
X223935548Y-76171851D01*
X223941011Y-76266590D01*
X223948110Y-76389715D01*
X223949247Y-76394761D01*
X223949248Y-76394767D01*
X223969119Y-76482939D01*
X223997222Y-76607639D01*
X224081266Y-76814616D01*
X224197987Y-77005088D01*
X224344250Y-77173938D01*
X224516126Y-77316632D01*
X224586595Y-77357811D01*
X224589445Y-77359476D01*
X224638169Y-77411114D01*
X224651240Y-77480897D01*
X224624509Y-77546669D01*
X224584055Y-77580027D01*
X224571607Y-77586507D01*
X224567474Y-77589610D01*
X224567471Y-77589612D01*
X224543247Y-77607800D01*
X224392965Y-77720635D01*
X224238629Y-77882138D01*
X224112743Y-78066680D01*
X224018688Y-78269305D01*
X223958989Y-78484570D01*
X223935251Y-78706695D01*
X205322418Y-78706695D01*
X205306852Y-78517361D01*
X205252431Y-78300702D01*
X205163354Y-78095840D01*
X205042014Y-77908277D01*
X204891670Y-77743051D01*
X204887619Y-77739852D01*
X204887615Y-77739848D01*
X204720414Y-77607800D01*
X204720410Y-77607798D01*
X204716359Y-77604598D01*
X204675053Y-77581796D01*
X204625084Y-77531364D01*
X204610312Y-77461921D01*
X204635428Y-77395516D01*
X204662780Y-77368909D01*
X204706603Y-77337650D01*
X204841860Y-77241173D01*
X205000096Y-77083489D01*
X205059594Y-77000689D01*
X205127435Y-76906277D01*
X205130453Y-76902077D01*
X205229430Y-76701811D01*
X205294370Y-76488069D01*
X205323529Y-76266590D01*
X205325156Y-76200000D01*
X205306852Y-75977361D01*
X205252431Y-75760702D01*
X205163354Y-75555840D01*
X205042014Y-75368277D01*
X204891670Y-75203051D01*
X204887619Y-75199852D01*
X204887615Y-75199848D01*
X204720414Y-75067800D01*
X204720410Y-75067798D01*
X204716359Y-75064598D01*
X204675053Y-75041796D01*
X204625084Y-74991364D01*
X204610312Y-74921921D01*
X204635428Y-74855516D01*
X204662780Y-74828909D01*
X204706603Y-74797650D01*
X204841860Y-74701173D01*
X204886690Y-74656500D01*
X204950182Y-74593229D01*
X205000096Y-74543489D01*
X205007768Y-74532813D01*
X205127435Y-74366277D01*
X205130453Y-74362077D01*
X205188694Y-74244236D01*
X205227136Y-74166453D01*
X205227137Y-74166451D01*
X205229430Y-74161811D01*
X205294370Y-73948069D01*
X205323529Y-73726590D01*
X205325156Y-73660000D01*
X205306852Y-73437361D01*
X205252431Y-73220702D01*
X205163354Y-73015840D01*
X205042014Y-72828277D01*
X204891670Y-72663051D01*
X204887619Y-72659852D01*
X204887615Y-72659848D01*
X204720414Y-72527800D01*
X204720410Y-72527798D01*
X204716359Y-72524598D01*
X204675053Y-72501796D01*
X204625084Y-72451364D01*
X204610312Y-72381921D01*
X204635428Y-72315516D01*
X204662780Y-72288909D01*
X204731536Y-72239866D01*
X204841860Y-72161173D01*
X205000096Y-72003489D01*
X205011422Y-71987728D01*
X205127435Y-71826277D01*
X205130453Y-71822077D01*
X205175374Y-71731187D01*
X205227136Y-71626453D01*
X205227137Y-71626451D01*
X205229430Y-71621811D01*
X205294370Y-71408069D01*
X205323529Y-71186590D01*
X205324515Y-71146255D01*
X205325074Y-71123365D01*
X205325074Y-71123361D01*
X205325156Y-71120000D01*
X205306852Y-70897361D01*
X205252431Y-70680702D01*
X205163354Y-70475840D01*
X205042014Y-70288277D01*
X204891670Y-70123051D01*
X204887619Y-70119852D01*
X204887615Y-70119848D01*
X204720414Y-69987800D01*
X204720410Y-69987798D01*
X204716359Y-69984598D01*
X204674569Y-69961529D01*
X204624598Y-69911097D01*
X204609826Y-69841654D01*
X204634942Y-69775248D01*
X204662294Y-69748641D01*
X204837328Y-69623792D01*
X204845200Y-69617139D01*
X204996052Y-69466812D01*
X205002730Y-69458965D01*
X205127003Y-69286020D01*
X205132313Y-69277183D01*
X205226670Y-69086267D01*
X205230469Y-69076672D01*
X205292377Y-68872910D01*
X205294555Y-68862837D01*
X205295986Y-68851962D01*
X205293775Y-68837778D01*
X205280617Y-68834000D01*
X202627110Y-68834000D01*
X202627110Y-68828939D01*
X202591024Y-68828807D01*
X202537870Y-68797137D01*
X200586239Y-66845506D01*
X200552213Y-66783194D01*
X200557278Y-66712379D01*
X200599768Y-66655586D01*
X200682261Y-66593761D01*
X200769615Y-66477205D01*
X200820745Y-66340816D01*
X200827500Y-66278634D01*
X200827500Y-65045423D01*
X200847502Y-64977302D01*
X200864405Y-64956328D01*
X201053483Y-64767250D01*
X201061809Y-64759674D01*
X201068303Y-64755553D01*
X201115086Y-64705734D01*
X201117840Y-64702893D01*
X201137639Y-64683094D01*
X201140063Y-64679969D01*
X201140071Y-64679960D01*
X201140137Y-64679874D01*
X201147845Y-64670849D01*
X201172790Y-64644285D01*
X201178217Y-64638506D01*
X201188023Y-64620669D01*
X201198873Y-64604153D01*
X201211350Y-64588067D01*
X201228976Y-64547334D01*
X201234193Y-64536686D01*
X201251749Y-64504751D01*
X201255569Y-64497803D01*
X201257540Y-64490128D01*
X201257542Y-64490122D01*
X201260631Y-64478089D01*
X201267034Y-64459387D01*
X201275117Y-64440708D01*
X201282060Y-64396873D01*
X201284467Y-64385251D01*
X201295500Y-64342282D01*
X201295500Y-64321935D01*
X201297051Y-64302224D01*
X201298995Y-64289950D01*
X201300235Y-64282121D01*
X201296059Y-64237944D01*
X201295500Y-64226086D01*
X201295500Y-55705032D01*
X201296030Y-55693793D01*
X201297709Y-55686281D01*
X201295562Y-55617969D01*
X201295500Y-55614012D01*
X201295500Y-55586017D01*
X201294992Y-55581994D01*
X201294059Y-55570152D01*
X201293618Y-55556102D01*
X201292665Y-55525795D01*
X201286987Y-55506251D01*
X201282977Y-55486888D01*
X201281420Y-55474560D01*
X201281420Y-55474558D01*
X201280427Y-55466701D01*
X201277511Y-55459337D01*
X201277510Y-55459332D01*
X201264093Y-55425444D01*
X201260248Y-55414215D01*
X201250081Y-55379222D01*
X201247869Y-55371607D01*
X201243830Y-55364777D01*
X201237512Y-55354094D01*
X201228812Y-55336336D01*
X201224239Y-55324785D01*
X201224235Y-55324779D01*
X201221319Y-55317412D01*
X201195234Y-55281509D01*
X201188719Y-55271590D01*
X201170174Y-55240232D01*
X201170171Y-55240228D01*
X201166134Y-55233402D01*
X201151750Y-55219018D01*
X201138909Y-55203984D01*
X201131602Y-55193927D01*
X201126942Y-55187513D01*
X201092744Y-55159222D01*
X201083965Y-55151233D01*
X200423405Y-54490673D01*
X200389379Y-54428361D01*
X200386500Y-54401578D01*
X200386500Y-52295866D01*
X200379745Y-52233684D01*
X200328615Y-52097295D01*
X200241261Y-51980739D01*
X200124705Y-51893385D01*
X199988316Y-51842255D01*
X199926134Y-51835500D01*
X197329866Y-51835500D01*
X197267684Y-51842255D01*
X197131295Y-51893385D01*
X197014739Y-51980739D01*
X196927385Y-52097295D01*
X196876255Y-52233684D01*
X196869500Y-52295866D01*
X196869500Y-54892134D01*
X196876255Y-54954316D01*
X196927385Y-55090705D01*
X197014739Y-55207261D01*
X197131295Y-55294615D01*
X197267684Y-55345745D01*
X197329866Y-55352500D01*
X199435577Y-55352500D01*
X199503698Y-55372502D01*
X199524672Y-55389405D01*
X199987595Y-55852328D01*
X200021621Y-55914640D01*
X200024500Y-55941423D01*
X200024500Y-58699079D01*
X200004498Y-58767200D01*
X199950842Y-58813693D01*
X199880568Y-58823797D01*
X199864828Y-58820496D01*
X199646092Y-58759835D01*
X199635970Y-58757904D01*
X199591013Y-58753099D01*
X199576392Y-58755747D01*
X199573000Y-58768124D01*
X199573000Y-60326000D01*
X199552998Y-60394121D01*
X199499342Y-60440614D01*
X199447000Y-60452000D01*
X197850904Y-60452000D01*
X197837560Y-60455918D01*
X197835573Y-60470194D01*
X197845110Y-60532515D01*
X197847499Y-60542543D01*
X197918898Y-60760988D01*
X197922895Y-60770497D01*
X198029011Y-60974344D01*
X198034505Y-60983069D01*
X198172493Y-61166852D01*
X198179336Y-61174559D01*
X198345491Y-61333339D01*
X198353498Y-61339823D01*
X198386356Y-61362237D01*
X198431359Y-61417148D01*
X198439532Y-61487672D01*
X198408278Y-61551420D01*
X198383796Y-61572116D01*
X198381365Y-61573689D01*
X198377023Y-61576498D01*
X198199330Y-61738186D01*
X198178084Y-61765088D01*
X198053633Y-61922670D01*
X198053630Y-61922675D01*
X198050432Y-61926724D01*
X198047939Y-61931240D01*
X198047937Y-61931243D01*
X197944027Y-62119476D01*
X197934326Y-62137050D01*
X197932602Y-62141919D01*
X197932600Y-62141923D01*
X197859857Y-62347343D01*
X197830179Y-62394378D01*
X196531546Y-63693011D01*
X196516518Y-63705848D01*
X196505530Y-63713831D01*
X196501117Y-63718733D01*
X196501115Y-63718734D01*
X196460751Y-63763563D01*
X196456210Y-63768347D01*
X196442063Y-63782494D01*
X196439986Y-63785059D01*
X196429463Y-63798054D01*
X196425175Y-63803075D01*
X196384830Y-63847881D01*
X196384827Y-63847885D01*
X196380415Y-63852785D01*
X196377119Y-63858495D01*
X196377116Y-63858498D01*
X196373625Y-63864545D01*
X196362432Y-63880830D01*
X196353893Y-63891375D01*
X196343168Y-63912425D01*
X196323523Y-63950980D01*
X196320376Y-63956776D01*
X196286925Y-64014715D01*
X196284884Y-64020997D01*
X196282731Y-64027623D01*
X196275167Y-64045884D01*
X196269006Y-64057976D01*
X196267296Y-64064359D01*
X196251691Y-64122594D01*
X196249818Y-64128918D01*
X196229145Y-64192544D01*
X196228455Y-64199111D01*
X196228454Y-64199115D01*
X196227728Y-64206029D01*
X196224125Y-64225472D01*
X196220611Y-64238585D01*
X196220265Y-64245182D01*
X196220265Y-64245184D01*
X196217110Y-64305387D01*
X196216593Y-64311961D01*
X196215545Y-64321935D01*
X196214500Y-64331880D01*
X196214500Y-64351907D01*
X196214327Y-64358501D01*
X196213018Y-64383489D01*
X196210826Y-64425310D01*
X196211858Y-64431825D01*
X196211858Y-64431827D01*
X196212949Y-64438714D01*
X196214500Y-64458425D01*
X196214500Y-72095895D01*
X196198002Y-72158227D01*
X196194619Y-72164171D01*
X196108468Y-72315516D01*
X196102104Y-72326695D01*
X196022284Y-72546596D01*
X195980656Y-72776803D01*
X195979500Y-72801316D01*
X195979500Y-73415738D01*
X195475736Y-73415738D01*
X195510774Y-59926163D01*
X197836353Y-59926163D01*
X197837813Y-59939460D01*
X197852370Y-59944000D01*
X199046885Y-59944000D01*
X199062124Y-59939525D01*
X199063329Y-59938135D01*
X199065000Y-59930452D01*
X199065000Y-58767588D01*
X199060675Y-58752859D01*
X199048889Y-58750798D01*
X199037296Y-58751751D01*
X199027134Y-58753433D01*
X198804229Y-58809422D01*
X198794481Y-58812741D01*
X198583711Y-58904385D01*
X198574636Y-58909251D01*
X198381673Y-59034085D01*
X198373502Y-59040378D01*
X198203520Y-59195050D01*
X198196494Y-59202583D01*
X198054055Y-59382944D01*
X198048350Y-59391531D01*
X197937286Y-59592722D01*
X197933056Y-59602134D01*
X197856341Y-59818768D01*
X197853707Y-59828739D01*
X197836353Y-59926163D01*
X195510774Y-59926163D01*
X195566733Y-38382134D01*
X197631500Y-38382134D01*
X197638255Y-38444316D01*
X197689385Y-38580705D01*
X197776739Y-38697261D01*
X197893295Y-38784615D01*
X198029684Y-38835745D01*
X198091866Y-38842500D01*
X200688134Y-38842500D01*
X200750316Y-38835745D01*
X200886705Y-38784615D01*
X201003261Y-38697261D01*
X201090615Y-38580705D01*
X201141745Y-38444316D01*
X201148500Y-38382134D01*
X201148500Y-37972500D01*
X201168502Y-37904379D01*
X201222158Y-37857886D01*
X201274500Y-37846500D01*
X202370624Y-37846500D01*
X202389574Y-37847933D01*
X202403973Y-37850124D01*
X202403979Y-37850124D01*
X202411208Y-37851224D01*
X202418500Y-37850631D01*
X202418503Y-37850631D01*
X202464183Y-37846915D01*
X202474398Y-37846500D01*
X202482525Y-37846500D01*
X202482525Y-37848245D01*
X202544979Y-37863021D01*
X202594263Y-37914124D01*
X202607887Y-37985885D01*
X202599251Y-38066695D01*
X202599548Y-38071848D01*
X202599548Y-38071851D01*
X202605011Y-38166590D01*
X202612110Y-38289715D01*
X202613247Y-38294761D01*
X202613248Y-38294767D01*
X202632168Y-38378717D01*
X202661222Y-38507639D01*
X202745266Y-38714616D01*
X202861987Y-38905088D01*
X203008250Y-39073938D01*
X203180126Y-39216632D01*
X203250595Y-39257811D01*
X203253445Y-39259476D01*
X203302169Y-39311114D01*
X203315240Y-39380897D01*
X203288509Y-39446669D01*
X203248055Y-39480027D01*
X203235607Y-39486507D01*
X203231474Y-39489610D01*
X203231471Y-39489612D01*
X203074620Y-39607379D01*
X203056965Y-39620635D01*
X202902629Y-39782138D01*
X202776743Y-39966680D01*
X202682688Y-40169305D01*
X202622989Y-40384570D01*
X202599251Y-40606695D01*
X202599548Y-40611848D01*
X202599548Y-40611851D01*
X202605011Y-40706590D01*
X202612110Y-40829715D01*
X202613247Y-40834761D01*
X202613248Y-40834767D01*
X202633119Y-40922939D01*
X202661222Y-41047639D01*
X202722673Y-41198976D01*
X202735584Y-41230771D01*
X202745266Y-41254616D01*
X202861987Y-41445088D01*
X203008250Y-41613938D01*
X203180126Y-41756632D01*
X203250595Y-41797811D01*
X203253445Y-41799476D01*
X203302169Y-41851114D01*
X203315240Y-41920897D01*
X203288509Y-41986669D01*
X203248055Y-42020027D01*
X203235607Y-42026507D01*
X203231474Y-42029610D01*
X203231471Y-42029612D01*
X203207247Y-42047800D01*
X203056965Y-42160635D01*
X202902629Y-42322138D01*
X202776743Y-42506680D01*
X202682688Y-42709305D01*
X202622989Y-42924570D01*
X202599251Y-43146695D01*
X202599548Y-43151848D01*
X202599548Y-43151851D01*
X202611812Y-43364547D01*
X202612110Y-43369715D01*
X202613247Y-43374761D01*
X202613248Y-43374767D01*
X202633119Y-43462939D01*
X202661222Y-43587639D01*
X202745266Y-43794616D01*
X202861987Y-43985088D01*
X203008250Y-44153938D01*
X203180126Y-44296632D01*
X203187567Y-44300980D01*
X203253445Y-44339476D01*
X203302169Y-44391114D01*
X203315240Y-44460897D01*
X203288509Y-44526669D01*
X203248055Y-44560027D01*
X203235607Y-44566507D01*
X203231474Y-44569610D01*
X203231471Y-44569612D01*
X203061100Y-44697530D01*
X203056965Y-44700635D01*
X202902629Y-44862138D01*
X202776743Y-45046680D01*
X202682688Y-45249305D01*
X202622989Y-45464570D01*
X202599251Y-45686695D01*
X202599548Y-45691848D01*
X202599548Y-45691851D01*
X202605011Y-45786590D01*
X202612110Y-45909715D01*
X202613247Y-45914761D01*
X202613248Y-45914767D01*
X202633119Y-46002939D01*
X202661222Y-46127639D01*
X202745266Y-46334616D01*
X202861987Y-46525088D01*
X203008250Y-46693938D01*
X203180126Y-46836632D01*
X203250595Y-46877811D01*
X203253445Y-46879476D01*
X203302169Y-46931114D01*
X203315240Y-47000897D01*
X203288509Y-47066669D01*
X203248055Y-47100027D01*
X203235607Y-47106507D01*
X203231474Y-47109610D01*
X203231471Y-47109612D01*
X203207247Y-47127800D01*
X203056965Y-47240635D01*
X202902629Y-47402138D01*
X202776743Y-47586680D01*
X202761003Y-47620590D01*
X202703208Y-47745099D01*
X202682688Y-47789305D01*
X202622989Y-48004570D01*
X202599251Y-48226695D01*
X202599548Y-48231848D01*
X202599548Y-48231851D01*
X202605011Y-48326590D01*
X202612110Y-48449715D01*
X202613247Y-48454761D01*
X202613248Y-48454767D01*
X202630728Y-48532329D01*
X202661222Y-48667639D01*
X202745266Y-48874616D01*
X202747965Y-48879020D01*
X202858940Y-49060115D01*
X202861987Y-49065088D01*
X203008250Y-49233938D01*
X203180126Y-49376632D01*
X203250595Y-49417811D01*
X203253445Y-49419476D01*
X203302169Y-49471114D01*
X203315240Y-49540897D01*
X203288509Y-49606669D01*
X203248055Y-49640027D01*
X203235607Y-49646507D01*
X203231474Y-49649610D01*
X203231471Y-49649612D01*
X203142823Y-49716171D01*
X203056965Y-49780635D01*
X202902629Y-49942138D01*
X202899715Y-49946410D01*
X202899714Y-49946411D01*
X202865546Y-49996500D01*
X202776743Y-50126680D01*
X202682688Y-50329305D01*
X202622989Y-50544570D01*
X202599251Y-50766695D01*
X202599548Y-50771848D01*
X202599548Y-50771851D01*
X202605011Y-50866590D01*
X202612110Y-50989715D01*
X202613247Y-50994761D01*
X202613248Y-50994767D01*
X202635392Y-51093023D01*
X202661222Y-51207639D01*
X202745266Y-51414616D01*
X202781484Y-51473718D01*
X202811127Y-51522091D01*
X202861987Y-51605088D01*
X203008250Y-51773938D01*
X203180126Y-51916632D01*
X203250595Y-51957811D01*
X203253445Y-51959476D01*
X203302169Y-52011114D01*
X203315240Y-52080897D01*
X203288509Y-52146669D01*
X203248055Y-52180027D01*
X203235607Y-52186507D01*
X203231474Y-52189610D01*
X203231471Y-52189612D01*
X203089954Y-52295866D01*
X203056965Y-52320635D01*
X202902629Y-52482138D01*
X202899715Y-52486410D01*
X202899714Y-52486411D01*
X202887404Y-52504457D01*
X202776743Y-52666680D01*
X202682688Y-52869305D01*
X202622989Y-53084570D01*
X202599251Y-53306695D01*
X202599548Y-53311848D01*
X202599548Y-53311851D01*
X202610838Y-53507655D01*
X202612110Y-53529715D01*
X202613247Y-53534761D01*
X202613248Y-53534767D01*
X202620000Y-53564725D01*
X202661222Y-53747639D01*
X202745266Y-53954616D01*
X202768636Y-53992752D01*
X202858528Y-54139443D01*
X202861987Y-54145088D01*
X203008250Y-54313938D01*
X203180126Y-54456632D01*
X203250595Y-54497811D01*
X203253445Y-54499476D01*
X203302169Y-54551114D01*
X203315240Y-54620897D01*
X203288509Y-54686669D01*
X203248055Y-54720027D01*
X203235607Y-54726507D01*
X203231474Y-54729610D01*
X203231471Y-54729612D01*
X203061100Y-54857530D01*
X203056965Y-54860635D01*
X202902629Y-55022138D01*
X202776743Y-55206680D01*
X202761169Y-55240232D01*
X202694255Y-55384387D01*
X202682688Y-55409305D01*
X202622989Y-55624570D01*
X202599251Y-55846695D01*
X202599548Y-55851848D01*
X202599548Y-55851851D01*
X202605011Y-55946590D01*
X202612110Y-56069715D01*
X202613247Y-56074761D01*
X202613248Y-56074767D01*
X202618453Y-56097861D01*
X202661222Y-56287639D01*
X202745266Y-56494616D01*
X202773983Y-56541478D01*
X202855751Y-56674911D01*
X202861987Y-56685088D01*
X203008250Y-56853938D01*
X203180126Y-56996632D01*
X203217559Y-57018506D01*
X203253445Y-57039476D01*
X203302169Y-57091114D01*
X203315240Y-57160897D01*
X203288509Y-57226669D01*
X203248055Y-57260027D01*
X203235607Y-57266507D01*
X203231474Y-57269610D01*
X203231471Y-57269612D01*
X203207247Y-57287800D01*
X203056965Y-57400635D01*
X202902629Y-57562138D01*
X202899715Y-57566410D01*
X202899714Y-57566411D01*
X202845436Y-57645980D01*
X202776743Y-57746680D01*
X202762051Y-57778332D01*
X202687598Y-57938728D01*
X202682688Y-57949305D01*
X202622989Y-58164570D01*
X202599251Y-58386695D01*
X202599548Y-58391848D01*
X202599548Y-58391851D01*
X202605011Y-58486590D01*
X202612110Y-58609715D01*
X202613247Y-58614761D01*
X202613248Y-58614767D01*
X202632249Y-58699079D01*
X202661222Y-58827639D01*
X202745266Y-59034616D01*
X202861987Y-59225088D01*
X203008250Y-59393938D01*
X203180126Y-59536632D01*
X203250595Y-59577811D01*
X203253445Y-59579476D01*
X203302169Y-59631114D01*
X203315240Y-59700897D01*
X203288509Y-59766669D01*
X203248055Y-59800027D01*
X203235607Y-59806507D01*
X203231474Y-59809610D01*
X203231471Y-59809612D01*
X203061100Y-59937530D01*
X203056965Y-59940635D01*
X202902629Y-60102138D01*
X202776743Y-60286680D01*
X202729716Y-60387992D01*
X202698186Y-60455918D01*
X202682688Y-60489305D01*
X202622989Y-60704570D01*
X202599251Y-60926695D01*
X202599548Y-60931848D01*
X202599548Y-60931851D01*
X202605011Y-61026590D01*
X202612110Y-61149715D01*
X202613247Y-61154761D01*
X202613248Y-61154767D01*
X202633119Y-61242939D01*
X202661222Y-61367639D01*
X202745266Y-61574616D01*
X202861987Y-61765088D01*
X203008250Y-61933938D01*
X203180126Y-62076632D01*
X203250595Y-62117811D01*
X203253445Y-62119476D01*
X203302169Y-62171114D01*
X203315240Y-62240897D01*
X203288509Y-62306669D01*
X203248055Y-62340027D01*
X203235607Y-62346507D01*
X203231474Y-62349610D01*
X203231471Y-62349612D01*
X203088758Y-62456764D01*
X203056965Y-62480635D01*
X202902629Y-62642138D01*
X202776743Y-62826680D01*
X202682688Y-63029305D01*
X202622989Y-63244570D01*
X202599251Y-63466695D01*
X202599548Y-63471848D01*
X202599548Y-63471851D01*
X202604896Y-63564606D01*
X202612110Y-63689715D01*
X202613247Y-63694761D01*
X202613248Y-63694767D01*
X202629302Y-63766003D01*
X202661222Y-63907639D01*
X202745266Y-64114616D01*
X202754030Y-64128918D01*
X202843077Y-64274229D01*
X202861987Y-64305088D01*
X203008250Y-64473938D01*
X203180126Y-64616632D01*
X203217559Y-64638506D01*
X203253445Y-64659476D01*
X203302169Y-64711114D01*
X203315240Y-64780897D01*
X203288509Y-64846669D01*
X203248055Y-64880027D01*
X203235607Y-64886507D01*
X203231474Y-64889610D01*
X203231471Y-64889612D01*
X203207247Y-64907800D01*
X203056965Y-65020635D01*
X202902629Y-65182138D01*
X202776743Y-65366680D01*
X202682688Y-65569305D01*
X202622989Y-65784570D01*
X202599251Y-66006695D01*
X202599548Y-66011848D01*
X202599548Y-66011851D01*
X202605011Y-66106590D01*
X202612110Y-66229715D01*
X202613247Y-66234761D01*
X202613248Y-66234767D01*
X202623900Y-66282031D01*
X202661222Y-66447639D01*
X202745266Y-66654616D01*
X202784573Y-66718760D01*
X202854809Y-66833374D01*
X202861987Y-66845088D01*
X203008250Y-67013938D01*
X203026036Y-67028704D01*
X203169310Y-67147652D01*
X203180126Y-67156632D01*
X203253445Y-67199476D01*
X203253955Y-67199774D01*
X203302679Y-67251412D01*
X203315750Y-67321195D01*
X203289019Y-67386967D01*
X203248562Y-67420327D01*
X203240457Y-67424546D01*
X203231738Y-67430036D01*
X203061433Y-67557905D01*
X203053726Y-67564748D01*
X202906590Y-67718717D01*
X202900104Y-67726727D01*
X202780098Y-67902649D01*
X202775000Y-67911623D01*
X202685338Y-68104783D01*
X202681775Y-68114470D01*
X202626389Y-68314183D01*
X202627912Y-68322607D01*
X202640292Y-68326000D01*
X205280344Y-68326000D01*
X205293875Y-68322027D01*
X205295180Y-68312947D01*
X205253214Y-68145875D01*
X205249894Y-68136124D01*
X205164972Y-67940814D01*
X205160105Y-67931739D01*
X205044426Y-67752926D01*
X205038136Y-67744757D01*
X204894806Y-67587240D01*
X204887273Y-67580215D01*
X204720139Y-67448222D01*
X204711556Y-67442520D01*
X204674602Y-67422120D01*
X204624631Y-67371687D01*
X204609859Y-67302245D01*
X204634975Y-67235839D01*
X204662327Y-67209232D01*
X204685797Y-67192491D01*
X204841860Y-67081173D01*
X205000096Y-66923489D01*
X205028485Y-66883982D01*
X205127435Y-66746277D01*
X205130453Y-66742077D01*
X205135313Y-66732245D01*
X205227136Y-66546453D01*
X205227137Y-66546451D01*
X205229430Y-66541811D01*
X205294370Y-66328069D01*
X205323529Y-66106590D01*
X205325156Y-66040000D01*
X205306852Y-65817361D01*
X205252431Y-65600702D01*
X205163354Y-65395840D01*
X205042014Y-65208277D01*
X204891670Y-65043051D01*
X204887619Y-65039852D01*
X204887615Y-65039848D01*
X204720414Y-64907800D01*
X204720410Y-64907798D01*
X204716359Y-64904598D01*
X204675053Y-64881796D01*
X204625084Y-64831364D01*
X204610312Y-64761921D01*
X204635428Y-64695516D01*
X204662780Y-64668909D01*
X204730407Y-64620671D01*
X204841860Y-64541173D01*
X205000096Y-64383489D01*
X205058491Y-64302224D01*
X205127435Y-64206277D01*
X205130453Y-64202077D01*
X205135165Y-64192544D01*
X205227136Y-64006453D01*
X205227137Y-64006451D01*
X205229430Y-64001811D01*
X205294370Y-63788069D01*
X205323529Y-63566590D01*
X205323611Y-63563240D01*
X205325074Y-63503365D01*
X205325074Y-63503361D01*
X205325156Y-63500000D01*
X205306852Y-63277361D01*
X205252431Y-63060702D01*
X205163354Y-62855840D01*
X205042014Y-62668277D01*
X204891670Y-62503051D01*
X204887619Y-62499852D01*
X204887615Y-62499848D01*
X204720414Y-62367800D01*
X204720410Y-62367798D01*
X204716359Y-62364598D01*
X204675053Y-62341796D01*
X204625084Y-62291364D01*
X204610312Y-62221921D01*
X204635428Y-62155516D01*
X204662780Y-62128909D01*
X204706603Y-62097650D01*
X204841860Y-62001173D01*
X205000096Y-61843489D01*
X205059594Y-61760689D01*
X205127435Y-61666277D01*
X205130453Y-61662077D01*
X205229430Y-61461811D01*
X205294370Y-61248069D01*
X205323529Y-61026590D01*
X205323611Y-61023240D01*
X205325074Y-60963365D01*
X205325074Y-60963361D01*
X205325156Y-60960000D01*
X205306852Y-60737361D01*
X205252431Y-60520702D01*
X205163354Y-60315840D01*
X205042014Y-60128277D01*
X204891670Y-59963051D01*
X204887619Y-59959852D01*
X204887615Y-59959848D01*
X204720414Y-59827800D01*
X204720410Y-59827798D01*
X204716359Y-59824598D01*
X204675053Y-59801796D01*
X204625084Y-59751364D01*
X204610312Y-59681921D01*
X204635428Y-59615516D01*
X204662780Y-59588909D01*
X204706603Y-59557650D01*
X204841860Y-59461173D01*
X205000096Y-59303489D01*
X205059594Y-59220689D01*
X205127435Y-59126277D01*
X205130453Y-59122077D01*
X205229430Y-58921811D01*
X205294370Y-58708069D01*
X205323529Y-58486590D01*
X205325156Y-58420000D01*
X205306852Y-58197361D01*
X205252431Y-57980702D01*
X205163354Y-57775840D01*
X205098377Y-57675401D01*
X205044822Y-57592617D01*
X205044820Y-57592614D01*
X205042014Y-57588277D01*
X204891670Y-57423051D01*
X204887619Y-57419852D01*
X204887615Y-57419848D01*
X204720414Y-57287800D01*
X204720410Y-57287798D01*
X204716359Y-57284598D01*
X204675053Y-57261796D01*
X204625084Y-57211364D01*
X204610312Y-57141921D01*
X204635428Y-57075516D01*
X204662780Y-57048909D01*
X204730407Y-57000671D01*
X204841860Y-56921173D01*
X205000096Y-56763489D01*
X205042306Y-56704748D01*
X205127435Y-56586277D01*
X205130453Y-56582077D01*
X205133325Y-56576267D01*
X205227136Y-56386453D01*
X205227137Y-56386451D01*
X205229430Y-56381811D01*
X205286566Y-56193755D01*
X205292865Y-56173023D01*
X205292865Y-56173021D01*
X205294370Y-56168069D01*
X205323529Y-55946590D01*
X205324310Y-55914640D01*
X205325074Y-55883365D01*
X205325074Y-55883361D01*
X205325156Y-55880000D01*
X205306852Y-55657361D01*
X205252431Y-55440702D01*
X205163354Y-55235840D01*
X205042014Y-55048277D01*
X204891670Y-54883051D01*
X204887619Y-54879852D01*
X204887615Y-54879848D01*
X204720414Y-54747800D01*
X204720410Y-54747798D01*
X204716359Y-54744598D01*
X204675053Y-54721796D01*
X204625084Y-54671364D01*
X204610312Y-54601921D01*
X204635428Y-54535516D01*
X204662780Y-54508909D01*
X204706603Y-54477650D01*
X204841860Y-54381173D01*
X205000096Y-54223489D01*
X205059594Y-54140689D01*
X205127435Y-54046277D01*
X205130453Y-54042077D01*
X205164450Y-53973290D01*
X205227136Y-53846453D01*
X205227137Y-53846451D01*
X205229430Y-53841811D01*
X205287751Y-53649854D01*
X205292865Y-53633023D01*
X205292865Y-53633021D01*
X205294370Y-53628069D01*
X205323529Y-53406590D01*
X205325156Y-53340000D01*
X205306852Y-53117361D01*
X205252431Y-52900702D01*
X205163354Y-52695840D01*
X205042014Y-52508277D01*
X204891670Y-52343051D01*
X204887619Y-52339852D01*
X204887615Y-52339848D01*
X204720414Y-52207800D01*
X204720410Y-52207798D01*
X204716359Y-52204598D01*
X204675053Y-52181796D01*
X204625084Y-52131364D01*
X204610312Y-52061921D01*
X204635428Y-51995516D01*
X204662780Y-51968909D01*
X204706603Y-51937650D01*
X204841860Y-51841173D01*
X205000096Y-51683489D01*
X205059594Y-51600689D01*
X205127435Y-51506277D01*
X205130453Y-51502077D01*
X205158044Y-51446252D01*
X205227136Y-51306453D01*
X205227137Y-51306451D01*
X205229430Y-51301811D01*
X205294370Y-51088069D01*
X205323529Y-50866590D01*
X205325156Y-50800000D01*
X205306852Y-50577361D01*
X205252431Y-50360702D01*
X205163354Y-50155840D01*
X205084147Y-50033405D01*
X205044822Y-49972617D01*
X205044820Y-49972614D01*
X205042014Y-49968277D01*
X204891670Y-49803051D01*
X204887619Y-49799852D01*
X204887615Y-49799848D01*
X204720414Y-49667800D01*
X204720410Y-49667798D01*
X204716359Y-49664598D01*
X204675053Y-49641796D01*
X204625084Y-49591364D01*
X204610312Y-49521921D01*
X204635428Y-49455516D01*
X204662780Y-49428909D01*
X204723057Y-49385914D01*
X204841860Y-49301173D01*
X204851417Y-49291650D01*
X204996435Y-49147137D01*
X205000096Y-49143489D01*
X205059594Y-49060689D01*
X205127435Y-48966277D01*
X205130453Y-48962077D01*
X205229430Y-48761811D01*
X205294370Y-48548069D01*
X205323529Y-48326590D01*
X205325156Y-48260000D01*
X205306852Y-48037361D01*
X205252431Y-47820702D01*
X205163354Y-47615840D01*
X205042014Y-47428277D01*
X204891670Y-47263051D01*
X204887619Y-47259852D01*
X204887615Y-47259848D01*
X204720414Y-47127800D01*
X204720410Y-47127798D01*
X204716359Y-47124598D01*
X204675053Y-47101796D01*
X204625084Y-47051364D01*
X204610312Y-46981921D01*
X204635428Y-46915516D01*
X204662780Y-46888909D01*
X204706603Y-46857650D01*
X204841860Y-46761173D01*
X205000096Y-46603489D01*
X205059594Y-46520689D01*
X205127435Y-46426277D01*
X205130453Y-46422077D01*
X205229430Y-46221811D01*
X205294370Y-46008069D01*
X205323529Y-45786590D01*
X205325156Y-45720000D01*
X205306852Y-45497361D01*
X205252431Y-45280702D01*
X205163354Y-45075840D01*
X205042014Y-44888277D01*
X204891670Y-44723051D01*
X204887619Y-44719852D01*
X204887615Y-44719848D01*
X204720414Y-44587800D01*
X204720410Y-44587798D01*
X204716359Y-44584598D01*
X204675053Y-44561796D01*
X204625084Y-44511364D01*
X204610312Y-44441921D01*
X204635428Y-44375516D01*
X204662780Y-44348909D01*
X204729974Y-44300980D01*
X204841860Y-44221173D01*
X205000096Y-44063489D01*
X205059594Y-43980689D01*
X205127435Y-43886277D01*
X205130453Y-43882077D01*
X205229430Y-43681811D01*
X205294370Y-43468069D01*
X205323529Y-43246590D01*
X205325156Y-43180000D01*
X205306852Y-42957361D01*
X205252431Y-42740702D01*
X205163354Y-42535840D01*
X205042014Y-42348277D01*
X204891670Y-42183051D01*
X204887619Y-42179852D01*
X204887615Y-42179848D01*
X204720414Y-42047800D01*
X204720410Y-42047798D01*
X204716359Y-42044598D01*
X204675053Y-42021796D01*
X204625084Y-41971364D01*
X204610312Y-41901921D01*
X204635428Y-41835516D01*
X204662780Y-41808909D01*
X204706603Y-41777650D01*
X204841860Y-41681173D01*
X205000096Y-41523489D01*
X205059594Y-41440689D01*
X205127435Y-41346277D01*
X205130453Y-41342077D01*
X205175846Y-41250232D01*
X205227136Y-41146453D01*
X205227137Y-41146451D01*
X205229430Y-41141811D01*
X205294370Y-40928069D01*
X205323529Y-40706590D01*
X205325156Y-40640000D01*
X205306852Y-40417361D01*
X205252431Y-40200702D01*
X205163354Y-39995840D01*
X205042014Y-39808277D01*
X204891670Y-39643051D01*
X204887619Y-39639852D01*
X204887615Y-39639848D01*
X204720414Y-39507800D01*
X204720410Y-39507798D01*
X204716359Y-39504598D01*
X204675053Y-39481796D01*
X204625084Y-39431364D01*
X204610312Y-39361921D01*
X204635428Y-39295516D01*
X204662780Y-39268909D01*
X204706603Y-39237650D01*
X204841860Y-39141173D01*
X205000096Y-38983489D01*
X205059594Y-38900689D01*
X205127435Y-38806277D01*
X205130453Y-38802077D01*
X205137526Y-38787767D01*
X205227136Y-38606453D01*
X205227137Y-38606451D01*
X205229430Y-38601811D01*
X205294370Y-38388069D01*
X205323529Y-38166590D01*
X205325156Y-38100000D01*
X205306852Y-37877361D01*
X205252431Y-37660702D01*
X205163354Y-37455840D01*
X205042014Y-37268277D01*
X205038532Y-37264450D01*
X204894798Y-37106488D01*
X204863746Y-37042642D01*
X204872141Y-36972143D01*
X204917317Y-36917375D01*
X204943761Y-36903706D01*
X205050297Y-36863767D01*
X205058705Y-36860615D01*
X205175261Y-36773261D01*
X205262615Y-36656705D01*
X205313745Y-36520316D01*
X205320500Y-36458134D01*
X205320500Y-35294183D01*
X223962389Y-35294183D01*
X223963912Y-35302607D01*
X223976292Y-35306000D01*
X225025885Y-35306000D01*
X225041124Y-35301525D01*
X225042329Y-35300135D01*
X225044000Y-35292452D01*
X225044000Y-35287885D01*
X225552000Y-35287885D01*
X225556475Y-35303124D01*
X225557865Y-35304329D01*
X225565548Y-35306000D01*
X226616344Y-35306000D01*
X226629875Y-35302027D01*
X226631180Y-35292947D01*
X226589214Y-35125875D01*
X226585894Y-35116124D01*
X226500972Y-34920814D01*
X226496105Y-34911739D01*
X226380426Y-34732926D01*
X226374136Y-34724757D01*
X226230806Y-34567240D01*
X226223273Y-34560215D01*
X226056139Y-34428222D01*
X226047552Y-34422517D01*
X225861117Y-34319599D01*
X225851705Y-34315369D01*
X225650959Y-34244280D01*
X225640988Y-34241646D01*
X225569837Y-34228972D01*
X225556540Y-34230432D01*
X225552000Y-34244989D01*
X225552000Y-35287885D01*
X225044000Y-35287885D01*
X225044000Y-34243102D01*
X225040082Y-34229758D01*
X225025806Y-34227771D01*
X224987324Y-34233660D01*
X224977288Y-34236051D01*
X224774868Y-34302212D01*
X224765359Y-34306209D01*
X224576463Y-34404542D01*
X224567738Y-34410036D01*
X224397433Y-34537905D01*
X224389726Y-34544748D01*
X224242590Y-34698717D01*
X224236104Y-34706727D01*
X224116098Y-34882649D01*
X224111000Y-34891623D01*
X224021338Y-35084783D01*
X224017775Y-35094470D01*
X223962389Y-35294183D01*
X205320500Y-35294183D01*
X205320500Y-34661866D01*
X205313745Y-34599684D01*
X205262615Y-34463295D01*
X205175261Y-34346739D01*
X205058705Y-34259385D01*
X204922316Y-34208255D01*
X204860134Y-34201500D01*
X203063866Y-34201500D01*
X203001684Y-34208255D01*
X202865295Y-34259385D01*
X202748739Y-34346739D01*
X202661385Y-34463295D01*
X202610255Y-34599684D01*
X202603500Y-34661866D01*
X202603500Y-35787972D01*
X202583498Y-35856093D01*
X202566595Y-35877067D01*
X202159067Y-36284595D01*
X202096755Y-36318621D01*
X202069972Y-36321500D01*
X201274500Y-36321500D01*
X201206379Y-36301498D01*
X201159886Y-36247842D01*
X201148500Y-36195500D01*
X201148500Y-35785866D01*
X201141745Y-35723684D01*
X201090615Y-35587295D01*
X201003261Y-35470739D01*
X200886705Y-35383385D01*
X200750316Y-35332255D01*
X200688134Y-35325500D01*
X198091866Y-35325500D01*
X198029684Y-35332255D01*
X197893295Y-35383385D01*
X197776739Y-35470739D01*
X197689385Y-35587295D01*
X197638255Y-35723684D01*
X197631500Y-35785866D01*
X197631500Y-38382134D01*
X195566733Y-38382134D01*
X195579673Y-33400173D01*
X195599852Y-33332104D01*
X195653629Y-33285751D01*
X195705673Y-33274500D01*
X235078000Y-33274500D01*
X235146121Y-33294502D01*
G37*
G04 #@! TD.AperFunction*
G04 #@! TA.AperFunction,Conductor*
G36*
X198163724Y-66715390D02*
G01*
X198208684Y-66732245D01*
X198270866Y-66739000D01*
X198659633Y-66739000D01*
X198727754Y-66759002D01*
X198761569Y-66790939D01*
X198783764Y-66821488D01*
X198790281Y-66831410D01*
X198808826Y-66862768D01*
X198808829Y-66862772D01*
X198812866Y-66869598D01*
X198827250Y-66883982D01*
X198840091Y-66899016D01*
X198852058Y-66915487D01*
X198858166Y-66920540D01*
X198886255Y-66943777D01*
X198895035Y-66951767D01*
X202611163Y-70667896D01*
X202645189Y-70730208D01*
X202643486Y-70790660D01*
X202622989Y-70864570D01*
X202599251Y-71086695D01*
X202599548Y-71091848D01*
X202599548Y-71091851D01*
X202605011Y-71186590D01*
X202612110Y-71309715D01*
X202613247Y-71314761D01*
X202613248Y-71314767D01*
X202631129Y-71394109D01*
X202661222Y-71527639D01*
X202699461Y-71621811D01*
X202742891Y-71728766D01*
X202745266Y-71734616D01*
X202747965Y-71739020D01*
X202831106Y-71874694D01*
X202861987Y-71925088D01*
X203008250Y-72093938D01*
X203180126Y-72236632D01*
X203250595Y-72277811D01*
X203253445Y-72279476D01*
X203302169Y-72331114D01*
X203315240Y-72400897D01*
X203288509Y-72466669D01*
X203248055Y-72500027D01*
X203235607Y-72506507D01*
X203231474Y-72509610D01*
X203231471Y-72509612D01*
X203182213Y-72546596D01*
X203056965Y-72640635D01*
X202902629Y-72802138D01*
X202776743Y-72986680D01*
X202682688Y-73189305D01*
X202622989Y-73404570D01*
X202622440Y-73409707D01*
X202621512Y-73418387D01*
X202599251Y-73626695D01*
X202599548Y-73631848D01*
X202599548Y-73631851D01*
X202605011Y-73726590D01*
X202612110Y-73849715D01*
X202613247Y-73854761D01*
X202613248Y-73854767D01*
X202633119Y-73942939D01*
X202661222Y-74067639D01*
X202745266Y-74274616D01*
X202774007Y-74321517D01*
X202849751Y-74445120D01*
X202861987Y-74465088D01*
X203008250Y-74633938D01*
X203180126Y-74776632D01*
X203196608Y-74786263D01*
X203253445Y-74819476D01*
X203302169Y-74871114D01*
X203315240Y-74940897D01*
X203288509Y-75006669D01*
X203248055Y-75040027D01*
X203235607Y-75046507D01*
X203231474Y-75049610D01*
X203231471Y-75049612D01*
X203207247Y-75067800D01*
X203056965Y-75180635D01*
X202902629Y-75342138D01*
X202776743Y-75526680D01*
X202682688Y-75729305D01*
X202622989Y-75944570D01*
X202599251Y-76166695D01*
X202599548Y-76171848D01*
X202599548Y-76171851D01*
X202605011Y-76266590D01*
X202612110Y-76389715D01*
X202613247Y-76394761D01*
X202613248Y-76394767D01*
X202633119Y-76482939D01*
X202661222Y-76607639D01*
X202745266Y-76814616D01*
X202861987Y-77005088D01*
X203008250Y-77173938D01*
X203180126Y-77316632D01*
X203250595Y-77357811D01*
X203253445Y-77359476D01*
X203302169Y-77411114D01*
X203315240Y-77480897D01*
X203288509Y-77546669D01*
X203248055Y-77580027D01*
X203235607Y-77586507D01*
X203231474Y-77589610D01*
X203231471Y-77589612D01*
X203207247Y-77607800D01*
X203056965Y-77720635D01*
X202902629Y-77882138D01*
X202776743Y-78066680D01*
X202682688Y-78269305D01*
X202622989Y-78484570D01*
X202599251Y-78706695D01*
X202599548Y-78711848D01*
X202599548Y-78711851D01*
X202605011Y-78806590D01*
X202612110Y-78929715D01*
X202613247Y-78934761D01*
X202613248Y-78934767D01*
X202633119Y-79022939D01*
X202661222Y-79147639D01*
X202745266Y-79354616D01*
X202861987Y-79545088D01*
X203008250Y-79713938D01*
X203155610Y-79836279D01*
X203169310Y-79847652D01*
X203180126Y-79856632D01*
X203241196Y-79892318D01*
X203253445Y-79899476D01*
X203302169Y-79951114D01*
X203315240Y-80020897D01*
X203288509Y-80086669D01*
X203248055Y-80120027D01*
X203235607Y-80126507D01*
X203231474Y-80129610D01*
X203231471Y-80129612D01*
X203061100Y-80257530D01*
X203056965Y-80260635D01*
X202902629Y-80422138D01*
X202776743Y-80606680D01*
X202774564Y-80611375D01*
X202699049Y-80774059D01*
X202682688Y-80809305D01*
X202622989Y-81024570D01*
X202599251Y-81246695D01*
X202599548Y-81251848D01*
X202599548Y-81251851D01*
X202607208Y-81384704D01*
X202612110Y-81469715D01*
X202613247Y-81474761D01*
X202613248Y-81474767D01*
X202630421Y-81550968D01*
X202661222Y-81687639D01*
X202745266Y-81894616D01*
X202747965Y-81899020D01*
X202841298Y-82051326D01*
X202861987Y-82085088D01*
X203008250Y-82253938D01*
X203180126Y-82396632D01*
X203373000Y-82509338D01*
X203581692Y-82589030D01*
X203586760Y-82590061D01*
X203586763Y-82590062D01*
X203694017Y-82611883D01*
X203800597Y-82633567D01*
X203805772Y-82633757D01*
X203805774Y-82633757D01*
X204018673Y-82641564D01*
X204018677Y-82641564D01*
X204023837Y-82641753D01*
X204028957Y-82641097D01*
X204028959Y-82641097D01*
X204240288Y-82614025D01*
X204240289Y-82614025D01*
X204245416Y-82613368D01*
X204250366Y-82611883D01*
X204454429Y-82550661D01*
X204454434Y-82550659D01*
X204459384Y-82549174D01*
X204659994Y-82450896D01*
X204841860Y-82321173D01*
X205000096Y-82163489D01*
X205049329Y-82094974D01*
X205105324Y-82051326D01*
X205151652Y-82042500D01*
X218309972Y-82042500D01*
X218378093Y-82062502D01*
X218399067Y-82079405D01*
X220635302Y-84315640D01*
X220669328Y-84377952D01*
X220664263Y-84448767D01*
X220621716Y-84505603D01*
X220597456Y-84519841D01*
X220529286Y-84550193D01*
X220529281Y-84550196D01*
X220523248Y-84552882D01*
X220368747Y-84665134D01*
X220240960Y-84807056D01*
X220145473Y-84972444D01*
X220086458Y-85154072D01*
X220066496Y-85344000D01*
X220086458Y-85533928D01*
X220145473Y-85715556D01*
X220240960Y-85880944D01*
X220245378Y-85885851D01*
X220245379Y-85885852D01*
X220312136Y-85959993D01*
X220342854Y-86024000D01*
X220344500Y-86044303D01*
X220344500Y-88312980D01*
X220343970Y-88324214D01*
X220342292Y-88331719D01*
X220344420Y-88399429D01*
X220344438Y-88400012D01*
X220344500Y-88403969D01*
X220344500Y-88431983D01*
X220344996Y-88435908D01*
X220344996Y-88435909D01*
X220345008Y-88436004D01*
X220345941Y-88447849D01*
X220347335Y-88492205D01*
X220352659Y-88510529D01*
X220353013Y-88511748D01*
X220357023Y-88531112D01*
X220359573Y-88551299D01*
X220362489Y-88558663D01*
X220362490Y-88558668D01*
X220375907Y-88592556D01*
X220379752Y-88603785D01*
X220381640Y-88610284D01*
X220392131Y-88646393D01*
X220396169Y-88653220D01*
X220396170Y-88653223D01*
X220402488Y-88663906D01*
X220411188Y-88681664D01*
X220415761Y-88693215D01*
X220415765Y-88693221D01*
X220418681Y-88700588D01*
X220423339Y-88706999D01*
X220423340Y-88707001D01*
X220444764Y-88736488D01*
X220451281Y-88746410D01*
X220469826Y-88777768D01*
X220469829Y-88777772D01*
X220473866Y-88784598D01*
X220488250Y-88798982D01*
X220501091Y-88814016D01*
X220513058Y-88830487D01*
X220519166Y-88835540D01*
X220547255Y-88858777D01*
X220556035Y-88866767D01*
X221194250Y-89504982D01*
X221228276Y-89567294D01*
X221226862Y-89626688D01*
X221212410Y-89680624D01*
X221210457Y-89687913D01*
X221190502Y-89916000D01*
X221210457Y-90144087D01*
X221211881Y-90149400D01*
X221211881Y-90149402D01*
X221258399Y-90323006D01*
X221269716Y-90365243D01*
X221272039Y-90370224D01*
X221272039Y-90370225D01*
X221364151Y-90567762D01*
X221364154Y-90567767D01*
X221366477Y-90572749D01*
X221497802Y-90760300D01*
X221659700Y-90922198D01*
X221664208Y-90925355D01*
X221664211Y-90925357D01*
X221704582Y-90953625D01*
X221847251Y-91053523D01*
X221852233Y-91055846D01*
X221852238Y-91055849D01*
X221886457Y-91071805D01*
X221939742Y-91118722D01*
X221959203Y-91186999D01*
X221938661Y-91254959D01*
X221886457Y-91300195D01*
X221852238Y-91316151D01*
X221852233Y-91316154D01*
X221847251Y-91318477D01*
X221742389Y-91391902D01*
X221664211Y-91446643D01*
X221664208Y-91446645D01*
X221659700Y-91449802D01*
X221497802Y-91611700D01*
X221494645Y-91616208D01*
X221494643Y-91616211D01*
X221471545Y-91649199D01*
X221366477Y-91799251D01*
X221364154Y-91804233D01*
X221364151Y-91804238D01*
X221272039Y-92001775D01*
X221269716Y-92006757D01*
X221210457Y-92227913D01*
X221190502Y-92456000D01*
X221210457Y-92684087D01*
X221269716Y-92905243D01*
X221272039Y-92910224D01*
X221272039Y-92910225D01*
X221364151Y-93107762D01*
X221364154Y-93107767D01*
X221366477Y-93112749D01*
X221369634Y-93117257D01*
X221478146Y-93272228D01*
X221497802Y-93300300D01*
X221659700Y-93462198D01*
X221664208Y-93465355D01*
X221664211Y-93465357D01*
X221742389Y-93520098D01*
X221847251Y-93593523D01*
X221852233Y-93595846D01*
X221852238Y-93595849D01*
X221887049Y-93612081D01*
X221940334Y-93658998D01*
X221959795Y-93727275D01*
X221939253Y-93795235D01*
X221887049Y-93840471D01*
X221852489Y-93856586D01*
X221842993Y-93862069D01*
X221664533Y-93987028D01*
X221656125Y-93994084D01*
X221502084Y-94148125D01*
X221495028Y-94156533D01*
X221370069Y-94334993D01*
X221364586Y-94344489D01*
X221272510Y-94541947D01*
X221268764Y-94552239D01*
X221222606Y-94724503D01*
X221222942Y-94738599D01*
X221230884Y-94742000D01*
X223771967Y-94742000D01*
X223785498Y-94738027D01*
X223786727Y-94729478D01*
X223739236Y-94552239D01*
X223735490Y-94541947D01*
X223643414Y-94344489D01*
X223637931Y-94334993D01*
X223512972Y-94156533D01*
X223505916Y-94148125D01*
X223351875Y-93994084D01*
X223343467Y-93987028D01*
X223165007Y-93862069D01*
X223155511Y-93856586D01*
X223120951Y-93840471D01*
X223067666Y-93793554D01*
X223048205Y-93725277D01*
X223068747Y-93657317D01*
X223120951Y-93612081D01*
X223155762Y-93595849D01*
X223155767Y-93595846D01*
X223160749Y-93593523D01*
X223265611Y-93520098D01*
X223343789Y-93465357D01*
X223343792Y-93465355D01*
X223348300Y-93462198D01*
X223510198Y-93300300D01*
X223513359Y-93295786D01*
X223529855Y-93272228D01*
X223585312Y-93227900D01*
X223633067Y-93218500D01*
X223913972Y-93218500D01*
X223982093Y-93238502D01*
X224003067Y-93255405D01*
X224634597Y-93886935D01*
X224665335Y-93937093D01*
X224717473Y-94097556D01*
X224812960Y-94262944D01*
X224940747Y-94404866D01*
X225095248Y-94517118D01*
X225101276Y-94519802D01*
X225101278Y-94519803D01*
X225151015Y-94541947D01*
X225269712Y-94594794D01*
X225363113Y-94614647D01*
X225450056Y-94633128D01*
X225450061Y-94633128D01*
X225456513Y-94634500D01*
X225517500Y-94634500D01*
X225585621Y-94654502D01*
X225632114Y-94708158D01*
X225643500Y-94760500D01*
X225643500Y-100257036D01*
X225623498Y-100325157D01*
X225569842Y-100371650D01*
X225499568Y-100381754D01*
X225434988Y-100352260D01*
X225397667Y-100295972D01*
X225385016Y-100257036D01*
X225370527Y-100212444D01*
X225275040Y-100047056D01*
X225147253Y-99905134D01*
X224992752Y-99792882D01*
X224986724Y-99790198D01*
X224986722Y-99790197D01*
X224824319Y-99717891D01*
X224824318Y-99717891D01*
X224818288Y-99715206D01*
X224811833Y-99713834D01*
X224811824Y-99713831D01*
X224762412Y-99703328D01*
X224699515Y-99669177D01*
X224614810Y-99584472D01*
X224602423Y-99570059D01*
X224593795Y-99558335D01*
X224589454Y-99552436D01*
X224548945Y-99518021D01*
X224541429Y-99511091D01*
X224535685Y-99505347D01*
X224532811Y-99503073D01*
X224532804Y-99503067D01*
X224513289Y-99487628D01*
X224509885Y-99484837D01*
X224459528Y-99442055D01*
X224459524Y-99442052D01*
X224453949Y-99437316D01*
X224447432Y-99433988D01*
X224442368Y-99430611D01*
X224437144Y-99427384D01*
X224431400Y-99422840D01*
X224405109Y-99410552D01*
X224364918Y-99391768D01*
X224360967Y-99389837D01*
X224302117Y-99359787D01*
X224295596Y-99356457D01*
X224288481Y-99354716D01*
X224282735Y-99352579D01*
X224276952Y-99350655D01*
X224270321Y-99347556D01*
X224198443Y-99332606D01*
X224194171Y-99331639D01*
X224122888Y-99314196D01*
X224117289Y-99313849D01*
X224117285Y-99313848D01*
X224111670Y-99313500D01*
X224111672Y-99313461D01*
X224107771Y-99313228D01*
X224103412Y-99312839D01*
X224096244Y-99311348D01*
X224088927Y-99311546D01*
X224018423Y-99313454D01*
X224015014Y-99313500D01*
X223633067Y-99313500D01*
X223564946Y-99293498D01*
X223529855Y-99259772D01*
X223513359Y-99236214D01*
X223513357Y-99236212D01*
X223510198Y-99231700D01*
X223348300Y-99069802D01*
X223343792Y-99066645D01*
X223343789Y-99066643D01*
X223265611Y-99011902D01*
X223160749Y-98938477D01*
X223155767Y-98936154D01*
X223155762Y-98936151D01*
X223120951Y-98919919D01*
X223067666Y-98873002D01*
X223048205Y-98804725D01*
X223068747Y-98736765D01*
X223120951Y-98691529D01*
X223155511Y-98675414D01*
X223165007Y-98669931D01*
X223343467Y-98544972D01*
X223351875Y-98537916D01*
X223505916Y-98383875D01*
X223512972Y-98375467D01*
X223637931Y-98197007D01*
X223643414Y-98187511D01*
X223735490Y-97990053D01*
X223739236Y-97979761D01*
X223785394Y-97807497D01*
X223785058Y-97793401D01*
X223777116Y-97790000D01*
X221236033Y-97790000D01*
X221222502Y-97793973D01*
X221221273Y-97802522D01*
X221268764Y-97979761D01*
X221272510Y-97990053D01*
X221364586Y-98187511D01*
X221370069Y-98197007D01*
X221495028Y-98375467D01*
X221502084Y-98383875D01*
X221656125Y-98537916D01*
X221664533Y-98544972D01*
X221842993Y-98669931D01*
X221852489Y-98675414D01*
X221887049Y-98691529D01*
X221940334Y-98738446D01*
X221959795Y-98806723D01*
X221939253Y-98874683D01*
X221887049Y-98919919D01*
X221852238Y-98936151D01*
X221852233Y-98936154D01*
X221847251Y-98938477D01*
X221742389Y-99011902D01*
X221664211Y-99066643D01*
X221664208Y-99066645D01*
X221659700Y-99069802D01*
X221497802Y-99231700D01*
X221494645Y-99236208D01*
X221494643Y-99236211D01*
X221454530Y-99293498D01*
X221366477Y-99419251D01*
X221364154Y-99424233D01*
X221364151Y-99424238D01*
X221283296Y-99597635D01*
X221269716Y-99626757D01*
X221268294Y-99632065D01*
X221268293Y-99632067D01*
X221224996Y-99793652D01*
X221210457Y-99847913D01*
X221190502Y-100076000D01*
X221210457Y-100304087D01*
X221211881Y-100309400D01*
X221211881Y-100309402D01*
X221264493Y-100505749D01*
X221269716Y-100525243D01*
X221272039Y-100530225D01*
X221272041Y-100530230D01*
X221301515Y-100593438D01*
X221312176Y-100663629D01*
X221283196Y-100728442D01*
X221223776Y-100767298D01*
X221152781Y-100767861D01*
X221098225Y-100735782D01*
X220980405Y-100617962D01*
X220946379Y-100555650D01*
X220943500Y-100528867D01*
X220943500Y-100217600D01*
X220938993Y-100174163D01*
X220933238Y-100118692D01*
X220933237Y-100118688D01*
X220932526Y-100111834D01*
X220922398Y-100081475D01*
X220878868Y-99951002D01*
X220876550Y-99944054D01*
X220783478Y-99793652D01*
X220658303Y-99668695D01*
X220653765Y-99665898D01*
X220613176Y-99608647D01*
X220609946Y-99537724D01*
X220645572Y-99476313D01*
X220654068Y-99468938D01*
X220664207Y-99460902D01*
X220778739Y-99346171D01*
X220787751Y-99334760D01*
X220872816Y-99196757D01*
X220878963Y-99183576D01*
X220930138Y-99029290D01*
X220933005Y-99015914D01*
X220942672Y-98921562D01*
X220943000Y-98915146D01*
X220943000Y-98802615D01*
X220938525Y-98787376D01*
X220937135Y-98786171D01*
X220929452Y-98784500D01*
X218495118Y-98784500D01*
X218481008Y-98788643D01*
X218418727Y-98790868D01*
X218389453Y-98784500D01*
X217042000Y-98784500D01*
X216973879Y-98764498D01*
X216927386Y-98710842D01*
X216916000Y-98658500D01*
X216916000Y-98258385D01*
X217424000Y-98258385D01*
X217428475Y-98273624D01*
X217429865Y-98274829D01*
X217437548Y-98276500D01*
X218384882Y-98276500D01*
X218398992Y-98272357D01*
X218461273Y-98270132D01*
X218490547Y-98276500D01*
X219437885Y-98276500D01*
X219453124Y-98272025D01*
X219454329Y-98270635D01*
X219456000Y-98262952D01*
X219456000Y-98258385D01*
X219964000Y-98258385D01*
X219968475Y-98273624D01*
X219969865Y-98274829D01*
X219977548Y-98276500D01*
X220924884Y-98276500D01*
X220940123Y-98272025D01*
X220941328Y-98270635D01*
X220942999Y-98262952D01*
X220942999Y-98145905D01*
X220942662Y-98139386D01*
X220932743Y-98043794D01*
X220929851Y-98030400D01*
X220878412Y-97876216D01*
X220872239Y-97863038D01*
X220786937Y-97725193D01*
X220777901Y-97713792D01*
X220663171Y-97599261D01*
X220651760Y-97590249D01*
X220513757Y-97505184D01*
X220500576Y-97499037D01*
X220346290Y-97447862D01*
X220332914Y-97444995D01*
X220238562Y-97435328D01*
X220232145Y-97435000D01*
X219982115Y-97435000D01*
X219966876Y-97439475D01*
X219965671Y-97440865D01*
X219964000Y-97448548D01*
X219964000Y-98258385D01*
X219456000Y-98258385D01*
X219456000Y-97453116D01*
X219451525Y-97437877D01*
X219450135Y-97436672D01*
X219442452Y-97435001D01*
X219187905Y-97435001D01*
X219181386Y-97435338D01*
X219085794Y-97445257D01*
X219072400Y-97448149D01*
X218918216Y-97499588D01*
X218905038Y-97505761D01*
X218767193Y-97591063D01*
X218755792Y-97600099D01*
X218641261Y-97714829D01*
X218632249Y-97726240D01*
X218547343Y-97863983D01*
X218494571Y-97911476D01*
X218424499Y-97922900D01*
X218359375Y-97894626D01*
X218332939Y-97864170D01*
X218246937Y-97725193D01*
X218237901Y-97713792D01*
X218123171Y-97599261D01*
X218111760Y-97590249D01*
X217973757Y-97505184D01*
X217960576Y-97499037D01*
X217806290Y-97447862D01*
X217792914Y-97444995D01*
X217698562Y-97435328D01*
X217692145Y-97435000D01*
X217442115Y-97435000D01*
X217426876Y-97439475D01*
X217425671Y-97440865D01*
X217424000Y-97448548D01*
X217424000Y-98258385D01*
X216916000Y-98258385D01*
X216916000Y-97453116D01*
X216911525Y-97437877D01*
X216910135Y-97436672D01*
X216902452Y-97435001D01*
X216647905Y-97435001D01*
X216641386Y-97435338D01*
X216545794Y-97445257D01*
X216532400Y-97448149D01*
X216378216Y-97499588D01*
X216365038Y-97505761D01*
X216227193Y-97591063D01*
X216215792Y-97600099D01*
X216101261Y-97714829D01*
X216092249Y-97726240D01*
X216003342Y-97870475D01*
X216001192Y-97869150D01*
X215962140Y-97913493D01*
X215893860Y-97932947D01*
X215825902Y-97912398D01*
X215805778Y-97896046D01*
X215734539Y-97824807D01*
X215700513Y-97762495D01*
X215697634Y-97735712D01*
X215697634Y-95262522D01*
X221221273Y-95262522D01*
X221268764Y-95439761D01*
X221272510Y-95450053D01*
X221364586Y-95647511D01*
X221370069Y-95657007D01*
X221495028Y-95835467D01*
X221502084Y-95843875D01*
X221656125Y-95997916D01*
X221664533Y-96004972D01*
X221842993Y-96129931D01*
X221852489Y-96135414D01*
X221887641Y-96151805D01*
X221940926Y-96198722D01*
X221960387Y-96266999D01*
X221939845Y-96334959D01*
X221887641Y-96380195D01*
X221852489Y-96396586D01*
X221842993Y-96402069D01*
X221664533Y-96527028D01*
X221656125Y-96534084D01*
X221502084Y-96688125D01*
X221495028Y-96696533D01*
X221370069Y-96874993D01*
X221364586Y-96884489D01*
X221272510Y-97081947D01*
X221268764Y-97092239D01*
X221222606Y-97264503D01*
X221222942Y-97278599D01*
X221230884Y-97282000D01*
X222231885Y-97282000D01*
X222247124Y-97277525D01*
X222248329Y-97276135D01*
X222250000Y-97268452D01*
X222250000Y-97263885D01*
X222758000Y-97263885D01*
X222762475Y-97279124D01*
X222763865Y-97280329D01*
X222771548Y-97282000D01*
X223771967Y-97282000D01*
X223785498Y-97278027D01*
X223786727Y-97269478D01*
X223739236Y-97092239D01*
X223735490Y-97081947D01*
X223643414Y-96884489D01*
X223637931Y-96874993D01*
X223512972Y-96696533D01*
X223505916Y-96688125D01*
X223351875Y-96534084D01*
X223343467Y-96527028D01*
X223165007Y-96402069D01*
X223155511Y-96396586D01*
X223120359Y-96380195D01*
X223067074Y-96333278D01*
X223047613Y-96265001D01*
X223068155Y-96197041D01*
X223120359Y-96151805D01*
X223155511Y-96135414D01*
X223165007Y-96129931D01*
X223343467Y-96004972D01*
X223351875Y-95997916D01*
X223505916Y-95843875D01*
X223512972Y-95835467D01*
X223637931Y-95657007D01*
X223643414Y-95647511D01*
X223735490Y-95450053D01*
X223739236Y-95439761D01*
X223785394Y-95267497D01*
X223785058Y-95253401D01*
X223777116Y-95250000D01*
X222776115Y-95250000D01*
X222760876Y-95254475D01*
X222759671Y-95255865D01*
X222758000Y-95263548D01*
X222758000Y-97263885D01*
X222250000Y-97263885D01*
X222250000Y-95268115D01*
X222245525Y-95252876D01*
X222244135Y-95251671D01*
X222236452Y-95250000D01*
X221236033Y-95250000D01*
X221222502Y-95253973D01*
X221221273Y-95262522D01*
X215697634Y-95262522D01*
X215697634Y-91058876D01*
X215717636Y-90990755D01*
X215771292Y-90944262D01*
X215779405Y-90940894D01*
X215846429Y-90915768D01*
X215846430Y-90915767D01*
X215854839Y-90912615D01*
X215971395Y-90825261D01*
X216058749Y-90708705D01*
X216109879Y-90572316D01*
X216116634Y-90510134D01*
X216116634Y-88813866D01*
X216109879Y-88751684D01*
X216058749Y-88615295D01*
X215971395Y-88498739D01*
X215854839Y-88411385D01*
X215718450Y-88360255D01*
X215656268Y-88353500D01*
X213960000Y-88353500D01*
X213897818Y-88360255D01*
X213761429Y-88411385D01*
X213644873Y-88498739D01*
X213557519Y-88615295D01*
X213506389Y-88751684D01*
X213499634Y-88813866D01*
X213499634Y-90510134D01*
X213506389Y-90572316D01*
X213557519Y-90708705D01*
X213644873Y-90825261D01*
X213761429Y-90912615D01*
X213769838Y-90915767D01*
X213769839Y-90915768D01*
X213836863Y-90940894D01*
X213893628Y-90983535D01*
X213918328Y-91050097D01*
X213918634Y-91058876D01*
X213918634Y-95704712D01*
X213898632Y-95772833D01*
X213844976Y-95819326D01*
X213774702Y-95829430D01*
X213710122Y-95799936D01*
X213703539Y-95793807D01*
X208657794Y-90748062D01*
X210586627Y-90748062D01*
X210595923Y-90760077D01*
X210647128Y-90795931D01*
X210656623Y-90801414D01*
X210854081Y-90893490D01*
X210864373Y-90897236D01*
X211074822Y-90953625D01*
X211085615Y-90955528D01*
X211302659Y-90974517D01*
X211313609Y-90974517D01*
X211530653Y-90955528D01*
X211541446Y-90953625D01*
X211751895Y-90897236D01*
X211762187Y-90893490D01*
X211959645Y-90801414D01*
X211969140Y-90795931D01*
X212021182Y-90759491D01*
X212029558Y-90749012D01*
X212022490Y-90735566D01*
X211320946Y-90034022D01*
X211307002Y-90026408D01*
X211305169Y-90026539D01*
X211298554Y-90030790D01*
X210593057Y-90736287D01*
X210586627Y-90748062D01*
X208657794Y-90748062D01*
X207577207Y-89667475D01*
X209995617Y-89667475D01*
X210014606Y-89884519D01*
X210016509Y-89895312D01*
X210072898Y-90105761D01*
X210076644Y-90116053D01*
X210168720Y-90313511D01*
X210174203Y-90323006D01*
X210210643Y-90375048D01*
X210221122Y-90383424D01*
X210234568Y-90376356D01*
X210936112Y-89674812D01*
X210942490Y-89663132D01*
X211672542Y-89663132D01*
X211672673Y-89664965D01*
X211676924Y-89671580D01*
X212382421Y-90377077D01*
X212394196Y-90383507D01*
X212406211Y-90374211D01*
X212442065Y-90323006D01*
X212447548Y-90313511D01*
X212539624Y-90116053D01*
X212543370Y-90105761D01*
X212599759Y-89895312D01*
X212601662Y-89884519D01*
X212620651Y-89667475D01*
X212620651Y-89656525D01*
X212601662Y-89439481D01*
X212599759Y-89428688D01*
X212543370Y-89218239D01*
X212539624Y-89207947D01*
X212447548Y-89010489D01*
X212442065Y-89000994D01*
X212405625Y-88948952D01*
X212395146Y-88940576D01*
X212381700Y-88947644D01*
X211680156Y-89649188D01*
X211672542Y-89663132D01*
X210942490Y-89663132D01*
X210943726Y-89660868D01*
X210943595Y-89659035D01*
X210939344Y-89652420D01*
X210233847Y-88946923D01*
X210222072Y-88940493D01*
X210210057Y-88949789D01*
X210174203Y-89000994D01*
X210168720Y-89010489D01*
X210076644Y-89207947D01*
X210072898Y-89218239D01*
X210016509Y-89428688D01*
X210014606Y-89439481D01*
X209995617Y-89656525D01*
X209995617Y-89667475D01*
X207577207Y-89667475D01*
X207507278Y-89597546D01*
X207494441Y-89582518D01*
X207486458Y-89571530D01*
X207465718Y-89552855D01*
X207436726Y-89526751D01*
X207431942Y-89522210D01*
X207417795Y-89508063D01*
X207402235Y-89495463D01*
X207397214Y-89491175D01*
X207352408Y-89450830D01*
X207352404Y-89450827D01*
X207347504Y-89446415D01*
X207341794Y-89443119D01*
X207341791Y-89443116D01*
X207335744Y-89439625D01*
X207319459Y-89428432D01*
X207308914Y-89419893D01*
X207249309Y-89389523D01*
X207243513Y-89386376D01*
X207237764Y-89383057D01*
X207185574Y-89352925D01*
X207172664Y-89348730D01*
X207154405Y-89341167D01*
X207142313Y-89335006D01*
X207077695Y-89317691D01*
X207071371Y-89315818D01*
X207062770Y-89313023D01*
X207007745Y-89295145D01*
X207001178Y-89294455D01*
X207001174Y-89294454D01*
X206995501Y-89293858D01*
X206994259Y-89293728D01*
X206974817Y-89290125D01*
X206961704Y-89286611D01*
X206955107Y-89286265D01*
X206955105Y-89286265D01*
X206894902Y-89283110D01*
X206888328Y-89282593D01*
X206871684Y-89280844D01*
X206871680Y-89280844D01*
X206868409Y-89280500D01*
X206848382Y-89280500D01*
X206841788Y-89280327D01*
X206781571Y-89277171D01*
X206781567Y-89277171D01*
X206774979Y-89276826D01*
X206768464Y-89277858D01*
X206768462Y-89277858D01*
X206761575Y-89278949D01*
X206741864Y-89280500D01*
X205976748Y-89280500D01*
X205908627Y-89260498D01*
X205862134Y-89206842D01*
X205850748Y-89154500D01*
X205850748Y-89121866D01*
X205843993Y-89059684D01*
X205792863Y-88923295D01*
X205705509Y-88806739D01*
X205588953Y-88719385D01*
X205452564Y-88668255D01*
X205390382Y-88661500D01*
X203294114Y-88661500D01*
X203231932Y-88668255D01*
X203095543Y-88719385D01*
X202978987Y-88806739D01*
X202891633Y-88923295D01*
X202840503Y-89059684D01*
X202833748Y-89121866D01*
X202833748Y-91218134D01*
X202840503Y-91280316D01*
X202891633Y-91416705D01*
X202978987Y-91533261D01*
X203095543Y-91620615D01*
X203231932Y-91671745D01*
X203294114Y-91678500D01*
X205390382Y-91678500D01*
X205452564Y-91671745D01*
X205588953Y-91620615D01*
X205705509Y-91533261D01*
X205792863Y-91416705D01*
X205843993Y-91280316D01*
X205850748Y-91218134D01*
X205850748Y-91185500D01*
X205870750Y-91117379D01*
X205924406Y-91070886D01*
X205976748Y-91059500D01*
X206401156Y-91059500D01*
X206469277Y-91079502D01*
X206490251Y-91096405D01*
X214160344Y-98766498D01*
X214164885Y-98771282D01*
X214176787Y-98784500D01*
X214209664Y-98821014D01*
X214220652Y-98828997D01*
X214235680Y-98841834D01*
X215899595Y-100505749D01*
X215933621Y-100568061D01*
X215936500Y-100594844D01*
X215936500Y-100993400D01*
X215936837Y-100996646D01*
X215936837Y-100996650D01*
X215937446Y-101002513D01*
X215947474Y-101099166D01*
X216003450Y-101266946D01*
X216096522Y-101417348D01*
X216221697Y-101542305D01*
X216227927Y-101546145D01*
X216227928Y-101546146D01*
X216365090Y-101630694D01*
X216372262Y-101635115D01*
X216439462Y-101657404D01*
X216533611Y-101688632D01*
X216533613Y-101688632D01*
X216540139Y-101690797D01*
X216546975Y-101691497D01*
X216546978Y-101691498D01*
X216590031Y-101695909D01*
X216644600Y-101701500D01*
X217695400Y-101701500D01*
X217698646Y-101701163D01*
X217698650Y-101701163D01*
X217794308Y-101691238D01*
X217794312Y-101691237D01*
X217801166Y-101690526D01*
X217807702Y-101688345D01*
X217807704Y-101688345D01*
X217939806Y-101644272D01*
X217968946Y-101634550D01*
X218119348Y-101541478D01*
X218128826Y-101531983D01*
X218191106Y-101497904D01*
X218218000Y-101495000D01*
X218662183Y-101495000D01*
X218730304Y-101515002D01*
X218751200Y-101531826D01*
X218761697Y-101542305D01*
X218767927Y-101546145D01*
X218767928Y-101546146D01*
X218905090Y-101630694D01*
X218912262Y-101635115D01*
X218979462Y-101657404D01*
X219073611Y-101688632D01*
X219073613Y-101688632D01*
X219080139Y-101690797D01*
X219086975Y-101691497D01*
X219086978Y-101691498D01*
X219130031Y-101695909D01*
X219184600Y-101701500D01*
X219495867Y-101701500D01*
X219563988Y-101721502D01*
X219584962Y-101738405D01*
X220089595Y-102243038D01*
X220123621Y-102305350D01*
X220126500Y-102332133D01*
X220126500Y-102643000D01*
X220106498Y-102711121D01*
X220052842Y-102757614D01*
X220000500Y-102769000D01*
X219982115Y-102769000D01*
X219966876Y-102773475D01*
X219965671Y-102774865D01*
X219964000Y-102782548D01*
X219964000Y-103992500D01*
X219943998Y-104060621D01*
X219890342Y-104107114D01*
X219838000Y-104118500D01*
X218495118Y-104118500D01*
X218481008Y-104122643D01*
X218418727Y-104124868D01*
X218389453Y-104118500D01*
X215955116Y-104118500D01*
X215939877Y-104122975D01*
X215938672Y-104124365D01*
X215937001Y-104132048D01*
X215937001Y-104249095D01*
X215937338Y-104255614D01*
X215947257Y-104351206D01*
X215950149Y-104364600D01*
X216001588Y-104518784D01*
X216007761Y-104531962D01*
X216093063Y-104669807D01*
X216102099Y-104681208D01*
X216216828Y-104795738D01*
X216225762Y-104802794D01*
X216266823Y-104860712D01*
X216270053Y-104931635D01*
X216234426Y-104993046D01*
X216226593Y-104999846D01*
X216220652Y-105003522D01*
X216095695Y-105128697D01*
X216002885Y-105279262D01*
X215947203Y-105447139D01*
X215936500Y-105551600D01*
X215936500Y-105862868D01*
X215916498Y-105930989D01*
X215899595Y-105951963D01*
X213378546Y-108473011D01*
X213363518Y-108485848D01*
X213352530Y-108493831D01*
X213348117Y-108498733D01*
X213348115Y-108498734D01*
X213307751Y-108543563D01*
X213303210Y-108548347D01*
X213289063Y-108562494D01*
X213286986Y-108565059D01*
X213276463Y-108578054D01*
X213272175Y-108583075D01*
X213231830Y-108627881D01*
X213231827Y-108627885D01*
X213227415Y-108632785D01*
X213224119Y-108638495D01*
X213224116Y-108638498D01*
X213220625Y-108644545D01*
X213209432Y-108660830D01*
X213200893Y-108671375D01*
X213170523Y-108730980D01*
X213167376Y-108736776D01*
X213133925Y-108794715D01*
X213131884Y-108800997D01*
X213129731Y-108807623D01*
X213122167Y-108825884D01*
X213116006Y-108837976D01*
X213114296Y-108844359D01*
X213098691Y-108902594D01*
X213096818Y-108908918D01*
X213076145Y-108972544D01*
X213075455Y-108979111D01*
X213075454Y-108979115D01*
X213074728Y-108986029D01*
X213071125Y-109005472D01*
X213067611Y-109018585D01*
X213067265Y-109025182D01*
X213067265Y-109025184D01*
X213064110Y-109085387D01*
X213063593Y-109091961D01*
X213061500Y-109111880D01*
X213061500Y-109131907D01*
X213061327Y-109138501D01*
X213057826Y-109205310D01*
X213058858Y-109211825D01*
X213058858Y-109211827D01*
X213059949Y-109218714D01*
X213061500Y-109238425D01*
X213061500Y-114188391D01*
X213041498Y-114256512D01*
X212987842Y-114303005D01*
X212917568Y-114313109D01*
X212852988Y-114283615D01*
X212846405Y-114277486D01*
X202161304Y-103592385D01*
X215937000Y-103592385D01*
X215941475Y-103607624D01*
X215942865Y-103608829D01*
X215950548Y-103610500D01*
X216897885Y-103610500D01*
X216913124Y-103606025D01*
X216914329Y-103604635D01*
X216916000Y-103596952D01*
X216916000Y-103592385D01*
X217424000Y-103592385D01*
X217428475Y-103607624D01*
X217429865Y-103608829D01*
X217437548Y-103610500D01*
X218384882Y-103610500D01*
X218398992Y-103606357D01*
X218461273Y-103604132D01*
X218490547Y-103610500D01*
X219437885Y-103610500D01*
X219453124Y-103606025D01*
X219454329Y-103604635D01*
X219456000Y-103596952D01*
X219456000Y-102787116D01*
X219451525Y-102771877D01*
X219450135Y-102770672D01*
X219442452Y-102769001D01*
X219187905Y-102769001D01*
X219181386Y-102769338D01*
X219085794Y-102779257D01*
X219072400Y-102782149D01*
X218918216Y-102833588D01*
X218905038Y-102839761D01*
X218767193Y-102925063D01*
X218755792Y-102934099D01*
X218641261Y-103048829D01*
X218632249Y-103060240D01*
X218547343Y-103197983D01*
X218494571Y-103245476D01*
X218424499Y-103256900D01*
X218359375Y-103228626D01*
X218332939Y-103198170D01*
X218246937Y-103059193D01*
X218237901Y-103047792D01*
X218123171Y-102933261D01*
X218111760Y-102924249D01*
X217973757Y-102839184D01*
X217960576Y-102833037D01*
X217806290Y-102781862D01*
X217792914Y-102778995D01*
X217698562Y-102769328D01*
X217692145Y-102769000D01*
X217442115Y-102769000D01*
X217426876Y-102773475D01*
X217425671Y-102774865D01*
X217424000Y-102782548D01*
X217424000Y-103592385D01*
X216916000Y-103592385D01*
X216916000Y-102787116D01*
X216911525Y-102771877D01*
X216910135Y-102770672D01*
X216902452Y-102769001D01*
X216647905Y-102769001D01*
X216641386Y-102769338D01*
X216545794Y-102779257D01*
X216532400Y-102782149D01*
X216378216Y-102833588D01*
X216365038Y-102839761D01*
X216227193Y-102925063D01*
X216215792Y-102934099D01*
X216101261Y-103048829D01*
X216092249Y-103060240D01*
X216007184Y-103198243D01*
X216001037Y-103211424D01*
X215949862Y-103365710D01*
X215946995Y-103379086D01*
X215937328Y-103473438D01*
X215937000Y-103479855D01*
X215937000Y-103592385D01*
X202161304Y-103592385D01*
X201282857Y-102713938D01*
X201248831Y-102651626D01*
X201253896Y-102580811D01*
X201296443Y-102523975D01*
X201306587Y-102517124D01*
X201470578Y-102417612D01*
X201470582Y-102417609D01*
X201475144Y-102414841D01*
X201651834Y-102261517D01*
X201800165Y-102080614D01*
X201802801Y-102075984D01*
X201802804Y-102075979D01*
X201821301Y-102043484D01*
X201872384Y-101994178D01*
X201942015Y-101980317D01*
X202008085Y-102006301D01*
X202035323Y-102035450D01*
X202062049Y-102075148D01*
X202121798Y-102163896D01*
X202125477Y-102167753D01*
X202125479Y-102167755D01*
X202138947Y-102181873D01*
X202283276Y-102333168D01*
X202470965Y-102472813D01*
X202475716Y-102475229D01*
X202475720Y-102475231D01*
X202590197Y-102533434D01*
X202679500Y-102578838D01*
X202902917Y-102648210D01*
X202908204Y-102648911D01*
X202908205Y-102648911D01*
X203129545Y-102678248D01*
X203129549Y-102678248D01*
X203134829Y-102678948D01*
X203140158Y-102678748D01*
X203140160Y-102678748D01*
X203251716Y-102674560D01*
X203368604Y-102670172D01*
X203498104Y-102643000D01*
X203592332Y-102623229D01*
X203592335Y-102623228D01*
X203597559Y-102622132D01*
X203815146Y-102536203D01*
X204010578Y-102417612D01*
X204010583Y-102417609D01*
X204010586Y-102417607D01*
X204015144Y-102414841D01*
X204191834Y-102261517D01*
X204340165Y-102080614D01*
X204342801Y-102075984D01*
X204342804Y-102075979D01*
X204361301Y-102043484D01*
X204412384Y-101994178D01*
X204482015Y-101980317D01*
X204548085Y-102006301D01*
X204575323Y-102035450D01*
X204602049Y-102075148D01*
X204661798Y-102163896D01*
X204665477Y-102167753D01*
X204665479Y-102167755D01*
X204678947Y-102181873D01*
X204823276Y-102333168D01*
X205010965Y-102472813D01*
X205015716Y-102475229D01*
X205015720Y-102475231D01*
X205130197Y-102533434D01*
X205219500Y-102578838D01*
X205442917Y-102648210D01*
X205448204Y-102648911D01*
X205448205Y-102648911D01*
X205669545Y-102678248D01*
X205669549Y-102678248D01*
X205674829Y-102678948D01*
X205680158Y-102678748D01*
X205680160Y-102678748D01*
X205791716Y-102674560D01*
X205908604Y-102670172D01*
X206038104Y-102643000D01*
X206132332Y-102623229D01*
X206132335Y-102623228D01*
X206137559Y-102622132D01*
X206355146Y-102536203D01*
X206550578Y-102417612D01*
X206550583Y-102417609D01*
X206550586Y-102417607D01*
X206555144Y-102414841D01*
X206731834Y-102261517D01*
X206880165Y-102080614D01*
X206882801Y-102075984D01*
X206882804Y-102075979D01*
X206901301Y-102043484D01*
X206952384Y-101994178D01*
X207022015Y-101980317D01*
X207088085Y-102006301D01*
X207115323Y-102035450D01*
X207142049Y-102075148D01*
X207201798Y-102163896D01*
X207205477Y-102167753D01*
X207205479Y-102167755D01*
X207218947Y-102181873D01*
X207363276Y-102333168D01*
X207550965Y-102472813D01*
X207555716Y-102475229D01*
X207555720Y-102475231D01*
X207670197Y-102533434D01*
X207759500Y-102578838D01*
X207982917Y-102648210D01*
X207988204Y-102648911D01*
X207988205Y-102648911D01*
X208209545Y-102678248D01*
X208209549Y-102678248D01*
X208214829Y-102678948D01*
X208220158Y-102678748D01*
X208220160Y-102678748D01*
X208331716Y-102674560D01*
X208448604Y-102670172D01*
X208578104Y-102643000D01*
X208672332Y-102623229D01*
X208672335Y-102623228D01*
X208677559Y-102622132D01*
X208895146Y-102536203D01*
X209090578Y-102417612D01*
X209090583Y-102417609D01*
X209090586Y-102417607D01*
X209095144Y-102414841D01*
X209271834Y-102261517D01*
X209420165Y-102080614D01*
X209422801Y-102075984D01*
X209422804Y-102075979D01*
X209441301Y-102043484D01*
X209492384Y-101994178D01*
X209562015Y-101980317D01*
X209628085Y-102006301D01*
X209655323Y-102035450D01*
X209682049Y-102075148D01*
X209741798Y-102163896D01*
X209745477Y-102167753D01*
X209745479Y-102167755D01*
X209758947Y-102181873D01*
X209903276Y-102333168D01*
X210090965Y-102472813D01*
X210095716Y-102475229D01*
X210095720Y-102475231D01*
X210210197Y-102533434D01*
X210299500Y-102578838D01*
X210522917Y-102648210D01*
X210528204Y-102648911D01*
X210528205Y-102648911D01*
X210749545Y-102678248D01*
X210749549Y-102678248D01*
X210754829Y-102678948D01*
X210760158Y-102678748D01*
X210760160Y-102678748D01*
X210871716Y-102674560D01*
X210988604Y-102670172D01*
X211118104Y-102643000D01*
X211212332Y-102623229D01*
X211212335Y-102623228D01*
X211217559Y-102622132D01*
X211435146Y-102536203D01*
X211630578Y-102417612D01*
X211630583Y-102417609D01*
X211630586Y-102417607D01*
X211635144Y-102414841D01*
X211811834Y-102261517D01*
X211842761Y-102223799D01*
X211901421Y-102183804D01*
X211972391Y-102181873D01*
X212033139Y-102218617D01*
X212048220Y-102241157D01*
X212048906Y-102240732D01*
X212138063Y-102384807D01*
X212147099Y-102396208D01*
X212261829Y-102510739D01*
X212273240Y-102519751D01*
X212411243Y-102604816D01*
X212424424Y-102610963D01*
X212578710Y-102662138D01*
X212592086Y-102665005D01*
X212686438Y-102674672D01*
X212692854Y-102675000D01*
X213087885Y-102675000D01*
X213103124Y-102670525D01*
X213104329Y-102669135D01*
X213106000Y-102661452D01*
X213106000Y-102656884D01*
X213614000Y-102656884D01*
X213618475Y-102672123D01*
X213619865Y-102673328D01*
X213627548Y-102674999D01*
X214027095Y-102674999D01*
X214033614Y-102674662D01*
X214129206Y-102664743D01*
X214142600Y-102661851D01*
X214296784Y-102610412D01*
X214309962Y-102604239D01*
X214447807Y-102518937D01*
X214459208Y-102509901D01*
X214573739Y-102395171D01*
X214582751Y-102383760D01*
X214667816Y-102245757D01*
X214673963Y-102232576D01*
X214725138Y-102078290D01*
X214728005Y-102064914D01*
X214737672Y-101970562D01*
X214738000Y-101964146D01*
X214738000Y-101344115D01*
X214733525Y-101328876D01*
X214732135Y-101327671D01*
X214724452Y-101326000D01*
X213632115Y-101326000D01*
X213616876Y-101330475D01*
X213615671Y-101331865D01*
X213614000Y-101339548D01*
X213614000Y-102656884D01*
X213106000Y-102656884D01*
X213106000Y-100799885D01*
X213614000Y-100799885D01*
X213618475Y-100815124D01*
X213619865Y-100816329D01*
X213627548Y-100818000D01*
X214719884Y-100818000D01*
X214735123Y-100813525D01*
X214736328Y-100812135D01*
X214737999Y-100804452D01*
X214737999Y-100179905D01*
X214737662Y-100173386D01*
X214727743Y-100077794D01*
X214724851Y-100064400D01*
X214673412Y-99910216D01*
X214667239Y-99897038D01*
X214581937Y-99759193D01*
X214572901Y-99747792D01*
X214458171Y-99633261D01*
X214446760Y-99624249D01*
X214308757Y-99539184D01*
X214295576Y-99533037D01*
X214141290Y-99481862D01*
X214127914Y-99478995D01*
X214033562Y-99469328D01*
X214027145Y-99469000D01*
X213632115Y-99469000D01*
X213616876Y-99473475D01*
X213615671Y-99474865D01*
X213614000Y-99482548D01*
X213614000Y-100799885D01*
X213106000Y-100799885D01*
X213106000Y-99487116D01*
X213101525Y-99471877D01*
X213100135Y-99470672D01*
X213092452Y-99469001D01*
X212692905Y-99469001D01*
X212686386Y-99469338D01*
X212590794Y-99479257D01*
X212577400Y-99482149D01*
X212423216Y-99533588D01*
X212410038Y-99539761D01*
X212272193Y-99625063D01*
X212260792Y-99634099D01*
X212146261Y-99748829D01*
X212137249Y-99760240D01*
X212048342Y-99904475D01*
X212046245Y-99903183D01*
X212007044Y-99947692D01*
X211938764Y-99967144D01*
X211870807Y-99946593D01*
X211848614Y-99928122D01*
X211736724Y-99810832D01*
X211549035Y-99671187D01*
X211544284Y-99668771D01*
X211544280Y-99668769D01*
X211345256Y-99567580D01*
X211345255Y-99567580D01*
X211340500Y-99565162D01*
X211117083Y-99495790D01*
X211111796Y-99495089D01*
X211111795Y-99495089D01*
X210890455Y-99465752D01*
X210890451Y-99465752D01*
X210885171Y-99465052D01*
X210879842Y-99465252D01*
X210879840Y-99465252D01*
X210768284Y-99469440D01*
X210651396Y-99473828D01*
X210585626Y-99487628D01*
X210427668Y-99520771D01*
X210427665Y-99520772D01*
X210422441Y-99521868D01*
X210204854Y-99607797D01*
X210200290Y-99610566D01*
X210200291Y-99610566D01*
X210009417Y-99726391D01*
X210009414Y-99726393D01*
X210004856Y-99729159D01*
X209828166Y-99882483D01*
X209679835Y-100063386D01*
X209677199Y-100068016D01*
X209677196Y-100068021D01*
X209658699Y-100100516D01*
X209607616Y-100149822D01*
X209537985Y-100163683D01*
X209471915Y-100137699D01*
X209444677Y-100108550D01*
X209361182Y-99984531D01*
X209358202Y-99980104D01*
X209328131Y-99948581D01*
X209278961Y-99897038D01*
X209196724Y-99810832D01*
X209009035Y-99671187D01*
X209004284Y-99668771D01*
X209004280Y-99668769D01*
X208805256Y-99567580D01*
X208805255Y-99567580D01*
X208800500Y-99565162D01*
X208577083Y-99495790D01*
X208571796Y-99495089D01*
X208571795Y-99495089D01*
X208350455Y-99465752D01*
X208350451Y-99465752D01*
X208345171Y-99465052D01*
X208339842Y-99465252D01*
X208339840Y-99465252D01*
X208228284Y-99469440D01*
X208111396Y-99473828D01*
X208045626Y-99487628D01*
X207887668Y-99520771D01*
X207887665Y-99520772D01*
X207882441Y-99521868D01*
X207664854Y-99607797D01*
X207660290Y-99610566D01*
X207660291Y-99610566D01*
X207469417Y-99726391D01*
X207469414Y-99726393D01*
X207464856Y-99729159D01*
X207288166Y-99882483D01*
X207139835Y-100063386D01*
X207137199Y-100068016D01*
X207137196Y-100068021D01*
X207118699Y-100100516D01*
X207067616Y-100149822D01*
X206997985Y-100163683D01*
X206931915Y-100137699D01*
X206904677Y-100108550D01*
X206821182Y-99984531D01*
X206818202Y-99980104D01*
X206788131Y-99948581D01*
X206738961Y-99897038D01*
X206656724Y-99810832D01*
X206469035Y-99671187D01*
X206464284Y-99668771D01*
X206464280Y-99668769D01*
X206265256Y-99567580D01*
X206265255Y-99567580D01*
X206260500Y-99565162D01*
X206037083Y-99495790D01*
X206031796Y-99495089D01*
X206031795Y-99495089D01*
X205810455Y-99465752D01*
X205810451Y-99465752D01*
X205805171Y-99465052D01*
X205799842Y-99465252D01*
X205799840Y-99465252D01*
X205688284Y-99469440D01*
X205571396Y-99473828D01*
X205505626Y-99487628D01*
X205347668Y-99520771D01*
X205347665Y-99520772D01*
X205342441Y-99521868D01*
X205124854Y-99607797D01*
X205120290Y-99610566D01*
X205120291Y-99610566D01*
X204929417Y-99726391D01*
X204929414Y-99726393D01*
X204924856Y-99729159D01*
X204748166Y-99882483D01*
X204599835Y-100063386D01*
X204597199Y-100068016D01*
X204597196Y-100068021D01*
X204578699Y-100100516D01*
X204527616Y-100149822D01*
X204457985Y-100163683D01*
X204391915Y-100137699D01*
X204364677Y-100108550D01*
X204281182Y-99984531D01*
X204278202Y-99980104D01*
X204248131Y-99948581D01*
X204198961Y-99897038D01*
X204116724Y-99810832D01*
X203929035Y-99671187D01*
X203924284Y-99668771D01*
X203924280Y-99668769D01*
X203725256Y-99567580D01*
X203725255Y-99567580D01*
X203720500Y-99565162D01*
X203497083Y-99495790D01*
X203491796Y-99495089D01*
X203491795Y-99495089D01*
X203270455Y-99465752D01*
X203270451Y-99465752D01*
X203265171Y-99465052D01*
X203259842Y-99465252D01*
X203259840Y-99465252D01*
X203148284Y-99469440D01*
X203031396Y-99473828D01*
X202965626Y-99487628D01*
X202807668Y-99520771D01*
X202807665Y-99520772D01*
X202802441Y-99521868D01*
X202584854Y-99607797D01*
X202580290Y-99610566D01*
X202580291Y-99610566D01*
X202389417Y-99726391D01*
X202389414Y-99726393D01*
X202384856Y-99729159D01*
X202208166Y-99882483D01*
X202059835Y-100063386D01*
X202057199Y-100068016D01*
X202057196Y-100068021D01*
X202038699Y-100100516D01*
X201987616Y-100149822D01*
X201917985Y-100163683D01*
X201851915Y-100137699D01*
X201824677Y-100108550D01*
X201741182Y-99984531D01*
X201738202Y-99980104D01*
X201708131Y-99948581D01*
X201658961Y-99897038D01*
X201576724Y-99810832D01*
X201389035Y-99671187D01*
X201384284Y-99668771D01*
X201384280Y-99668769D01*
X201185256Y-99567580D01*
X201185255Y-99567580D01*
X201180500Y-99565162D01*
X200957083Y-99495790D01*
X200951796Y-99495089D01*
X200951795Y-99495089D01*
X200730455Y-99465752D01*
X200730451Y-99465752D01*
X200725171Y-99465052D01*
X200719842Y-99465252D01*
X200719840Y-99465252D01*
X200608284Y-99469440D01*
X200491396Y-99473828D01*
X200425626Y-99487628D01*
X200267668Y-99520771D01*
X200267665Y-99520772D01*
X200262441Y-99521868D01*
X200044854Y-99607797D01*
X200040290Y-99610566D01*
X200040291Y-99610566D01*
X199849417Y-99726391D01*
X199849414Y-99726393D01*
X199844856Y-99729159D01*
X199668166Y-99882483D01*
X199519835Y-100063386D01*
X199462742Y-100163683D01*
X199430192Y-100220866D01*
X199404104Y-100266695D01*
X199324284Y-100486596D01*
X199323837Y-100489067D01*
X199287224Y-100548901D01*
X199223309Y-100579812D01*
X199152830Y-100571262D01*
X199113535Y-100544616D01*
X198554405Y-99985486D01*
X198520379Y-99923174D01*
X198517500Y-99896391D01*
X198517500Y-91649199D01*
X198537502Y-91581078D01*
X198591158Y-91534585D01*
X198661432Y-91524481D01*
X198691718Y-91532790D01*
X198870235Y-91606734D01*
X198879621Y-91609783D01*
X199100802Y-91662885D01*
X199110549Y-91664428D01*
X199337318Y-91682275D01*
X199347178Y-91682275D01*
X199573947Y-91664428D01*
X199583694Y-91662885D01*
X199804875Y-91609783D01*
X199814260Y-91606734D01*
X200024411Y-91519687D01*
X200033206Y-91515205D01*
X200200693Y-91412568D01*
X200210155Y-91402110D01*
X200206372Y-91393334D01*
X199072133Y-90259095D01*
X199038107Y-90196783D01*
X199039942Y-90171132D01*
X199706656Y-90171132D01*
X199706787Y-90172965D01*
X199711038Y-90179580D01*
X200562538Y-91031080D01*
X200574918Y-91037840D01*
X200582568Y-91032113D01*
X200687453Y-90860958D01*
X200691935Y-90852163D01*
X200778982Y-90642012D01*
X200782031Y-90632627D01*
X200835133Y-90411446D01*
X200836676Y-90401699D01*
X200854523Y-90174930D01*
X200854523Y-90165070D01*
X200836676Y-89938301D01*
X200835133Y-89928554D01*
X200782031Y-89707373D01*
X200778982Y-89697988D01*
X200691935Y-89487837D01*
X200687453Y-89479042D01*
X200584816Y-89311555D01*
X200574358Y-89302093D01*
X200565582Y-89305876D01*
X199714270Y-90157188D01*
X199706656Y-90171132D01*
X199039942Y-90171132D01*
X199043172Y-90125968D01*
X199072133Y-90080905D01*
X200203328Y-88949710D01*
X200210088Y-88937330D01*
X200204361Y-88929680D01*
X200033206Y-88824795D01*
X200024411Y-88820313D01*
X199814260Y-88733266D01*
X199804875Y-88730217D01*
X199583694Y-88677115D01*
X199573947Y-88675572D01*
X199347178Y-88657725D01*
X199337318Y-88657725D01*
X199110549Y-88675572D01*
X199100802Y-88677115D01*
X198879621Y-88730217D01*
X198870235Y-88733266D01*
X198691718Y-88807210D01*
X198621128Y-88814799D01*
X198557641Y-88783019D01*
X198521414Y-88721961D01*
X198517500Y-88690801D01*
X198517500Y-88574988D01*
X210586710Y-88574988D01*
X210593778Y-88588434D01*
X211295322Y-89289978D01*
X211309266Y-89297592D01*
X211311099Y-89297461D01*
X211317714Y-89293210D01*
X212023211Y-88587713D01*
X212029641Y-88575938D01*
X212020345Y-88563923D01*
X211969140Y-88528069D01*
X211959645Y-88522586D01*
X211762187Y-88430510D01*
X211751895Y-88426764D01*
X211541446Y-88370375D01*
X211530653Y-88368472D01*
X211313609Y-88349483D01*
X211302659Y-88349483D01*
X211085615Y-88368472D01*
X211074822Y-88370375D01*
X210864373Y-88426764D01*
X210854081Y-88430510D01*
X210656623Y-88522586D01*
X210647128Y-88528069D01*
X210595086Y-88564509D01*
X210586710Y-88574988D01*
X198517500Y-88574988D01*
X198517500Y-81838425D01*
X198537502Y-81770304D01*
X198591158Y-81723811D01*
X198661432Y-81713707D01*
X198726012Y-81743201D01*
X198732518Y-81749252D01*
X198753607Y-81770304D01*
X198804697Y-81821305D01*
X198810927Y-81825145D01*
X198810928Y-81825146D01*
X198948090Y-81909694D01*
X198955262Y-81914115D01*
X199035005Y-81940564D01*
X199116611Y-81967632D01*
X199116613Y-81967632D01*
X199123139Y-81969797D01*
X199129975Y-81970497D01*
X199129978Y-81970498D01*
X199173031Y-81974909D01*
X199227600Y-81980500D01*
X200028400Y-81980500D01*
X200031646Y-81980163D01*
X200031650Y-81980163D01*
X200127308Y-81970238D01*
X200127312Y-81970237D01*
X200134166Y-81969526D01*
X200140702Y-81967345D01*
X200140704Y-81967345D01*
X200272806Y-81923272D01*
X200301946Y-81913550D01*
X200452348Y-81820478D01*
X200577305Y-81695303D01*
X200670115Y-81544738D01*
X200725797Y-81376861D01*
X200736500Y-81272400D01*
X200736500Y-80271600D01*
X200735750Y-80264373D01*
X200726238Y-80172692D01*
X200726237Y-80172688D01*
X200725526Y-80165834D01*
X200719510Y-80147800D01*
X200671868Y-80005002D01*
X200669550Y-79998054D01*
X200576478Y-79847652D01*
X200571296Y-79842479D01*
X200571292Y-79842474D01*
X200554482Y-79825693D01*
X200520403Y-79763411D01*
X200517500Y-79736521D01*
X200517500Y-74854384D01*
X200537502Y-74786263D01*
X200591158Y-74739770D01*
X200630497Y-74729057D01*
X200667307Y-74725238D01*
X200667310Y-74725237D01*
X200674166Y-74724526D01*
X200680702Y-74722345D01*
X200680704Y-74722345D01*
X200834998Y-74670868D01*
X200841946Y-74668550D01*
X200992348Y-74575478D01*
X201117305Y-74450303D01*
X201196690Y-74321517D01*
X201206275Y-74305968D01*
X201206276Y-74305966D01*
X201210115Y-74299738D01*
X201245612Y-74192717D01*
X201263632Y-74138389D01*
X201263632Y-74138387D01*
X201265797Y-74131861D01*
X201276500Y-74027400D01*
X201276500Y-72236600D01*
X201276163Y-72233350D01*
X201266238Y-72137692D01*
X201266237Y-72137688D01*
X201265526Y-72130834D01*
X201253870Y-72095895D01*
X201211868Y-71970002D01*
X201209550Y-71963054D01*
X201116478Y-71812652D01*
X200991303Y-71687695D01*
X200848819Y-71599866D01*
X200846968Y-71598725D01*
X200846966Y-71598724D01*
X200840738Y-71594885D01*
X200680254Y-71541655D01*
X200679389Y-71541368D01*
X200679387Y-71541368D01*
X200672861Y-71539203D01*
X200666025Y-71538503D01*
X200666022Y-71538502D01*
X200622969Y-71534091D01*
X200568400Y-71528500D01*
X199227600Y-71528500D01*
X199224354Y-71528837D01*
X199224350Y-71528837D01*
X199128692Y-71538762D01*
X199128688Y-71538763D01*
X199121834Y-71539474D01*
X199115298Y-71541655D01*
X199115296Y-71541655D01*
X198983194Y-71585728D01*
X198954054Y-71595450D01*
X198803652Y-71688522D01*
X198678695Y-71813697D01*
X198674855Y-71819927D01*
X198674854Y-71819928D01*
X198645438Y-71867649D01*
X198585885Y-71964262D01*
X198583738Y-71962938D01*
X198544688Y-72007290D01*
X198476411Y-72026752D01*
X198408451Y-72006212D01*
X198386239Y-71987728D01*
X198278410Y-71874694D01*
X198278398Y-71874684D01*
X198274724Y-71870832D01*
X198087035Y-71731187D01*
X198082283Y-71728771D01*
X198082275Y-71728766D01*
X198062394Y-71718658D01*
X198010737Y-71669954D01*
X197993500Y-71606342D01*
X197993500Y-66833374D01*
X198013502Y-66765253D01*
X198067158Y-66718760D01*
X198137432Y-66708656D01*
X198163724Y-66715390D01*
G37*
G04 #@! TD.AperFunction*
M02*
