M48
INCH,TZ
T1C0.0157
T2C0.0315
T3C0.0394
T4C0.0433
T5C0.0469
T6C0.0630
%
G90
G05
T1
X77800Y-17700
X78100Y-42000
X78500Y-32700
X79400Y-48100
X81100Y-33400
X81700Y-19600
X84300Y-41300
X84500Y-26400
X84500Y-30300
X84800Y-49900
X85200Y-37400
X86800Y-21700
X87000Y-15300
X87000Y-33600
X88400Y-39600
X88800Y-36900
X90300Y-32900
X91300Y-42900
X91300Y-47500
X91500Y-15600
T2
X83192Y-35300
X84570Y-35300
X87600Y-34400
X87600Y-35400
X87600Y-36400
X87600Y-37400
X87600Y-38400
X87600Y-39400
X87600Y-40400
X87600Y-41400
X90231Y-24800
X90600Y-34400
X90600Y-35400
X90600Y-36400
X90600Y-37400
X90600Y-38400
X90600Y-39400
X90600Y-40400
X90600Y-41400
X91569Y-24800
T3
X78481Y-35500
X80300Y-14000
X80300Y-15000
X80300Y-16000
X80300Y-17000
X80300Y-18000
X80300Y-19000
X80300Y-20000
X80300Y-21000
X80300Y-22000
X80300Y-23000
X80300Y-24000
X80300Y-25000
X80300Y-26000
X80300Y-27000
X80300Y-28000
X80300Y-29000
X80300Y-30000
X80300Y-31000
X80300Y-32000
X80450Y-35500
X88700Y-14000
X88700Y-15000
X88700Y-16000
X88700Y-17000
X88700Y-18000
X88700Y-19000
X88700Y-20000
X88700Y-21000
X88700Y-22000
X88700Y-23000
X88700Y-24000
X88700Y-25000
X88700Y-26000
X88700Y-27000
X88700Y-28000
X88700Y-29000
X88700Y-30000
X88700Y-31000
X88700Y-32000
T4
X78472Y-23700
X78472Y-24700
X78472Y-25700
X88300Y-46400
X88300Y-47400
X88300Y-48400
T5
X77700Y-28792
X78700Y-28792
X79000Y-39792
X80000Y-39792
X81000Y-39792
X82000Y-39792
X83000Y-39792
X84000Y-39792
X90400Y-21692
X91400Y-21692
T6
X84733Y-45859
X84733Y-48221
X86583Y-47040
T0
M30
