G04 #@! TF.GenerationSoftware,KiCad,Pcbnew,(6.0.10-0)*
G04 #@! TF.CreationDate,2023-04-17T00:01:31-05:00*
G04 #@! TF.ProjectId,v2.0,76322e30-2e6b-4696-9361-645f70636258,v2.0*
G04 #@! TF.SameCoordinates,Original*
G04 #@! TF.FileFunction,Soldermask,Top*
G04 #@! TF.FilePolarity,Negative*
%FSLAX46Y46*%
G04 Gerber Fmt 4.6, Leading zero omitted, Abs format (unit mm)*
G04 Created by KiCad (PCBNEW (6.0.10-0)) date 2023-04-17 00:01:31*
%MOMM*%
%LPD*%
G01*
G04 APERTURE LIST*
G04 Aperture macros list*
%AMRoundRect*
0 Rectangle with rounded corners*
0 $1 Rounding radius*
0 $2 $3 $4 $5 $6 $7 $8 $9 X,Y pos of 4 corners*
0 Add a 4 corners polygon primitive as box body*
4,1,4,$2,$3,$4,$5,$6,$7,$8,$9,$2,$3,0*
0 Add four circle primitives for the rounded corners*
1,1,$1+$1,$2,$3*
1,1,$1+$1,$4,$5*
1,1,$1+$1,$6,$7*
1,1,$1+$1,$8,$9*
0 Add four rect primitives between the rounded corners*
20,1,$1+$1,$2,$3,$4,$5,0*
20,1,$1+$1,$4,$5,$6,$7,0*
20,1,$1+$1,$6,$7,$8,$9,0*
20,1,$1+$1,$8,$9,$2,$3,0*%
G04 Aperture macros list end*
%ADD10RoundRect,0.250000X0.620000X0.845000X-0.620000X0.845000X-0.620000X-0.845000X0.620000X-0.845000X0*%
%ADD11O,1.740000X2.190000*%
%ADD12R,2.000000X2.000000*%
%ADD13C,2.000000*%
%ADD14RoundRect,0.250000X-0.475000X0.337500X-0.475000X-0.337500X0.475000X-0.337500X0.475000X0.337500X0*%
%ADD15R,2.500000X2.500000*%
%ADD16R,1.600000X1.600000*%
%ADD17C,1.600000*%
%ADD18O,1.600000X1.600000*%
%ADD19RoundRect,0.250000X0.475000X-0.337500X0.475000X0.337500X-0.475000X0.337500X-0.475000X-0.337500X0*%
%ADD20C,3.200000*%
%ADD21RoundRect,0.250000X-0.350000X-0.450000X0.350000X-0.450000X0.350000X0.450000X-0.350000X0.450000X0*%
%ADD22R,1.700000X1.700000*%
%ADD23O,1.700000X1.700000*%
%ADD24R,2.000000X1.905000*%
%ADD25O,2.000000X1.905000*%
%ADD26C,1.500000*%
%ADD27R,2.600000X2.600000*%
%ADD28C,2.600000*%
G04 APERTURE END LIST*
D10*
X213360000Y-101072000D03*
D11*
X210820000Y-101072000D03*
X208280000Y-101072000D03*
X205740000Y-101072000D03*
X203200000Y-101072000D03*
X200660000Y-101072000D03*
D12*
X204342248Y-90170000D03*
D13*
X199342248Y-90170000D03*
D14*
X207772000Y-116056500D03*
X207772000Y-118131500D03*
D15*
X225044000Y-129032000D03*
D16*
X214808134Y-89662000D03*
D17*
X211308134Y-89662000D03*
D15*
X207772000Y-123190000D03*
X230632000Y-72898000D03*
D16*
X222504000Y-87376000D03*
D18*
X222504000Y-89916000D03*
X222504000Y-92456000D03*
X222504000Y-94996000D03*
X222504000Y-97536000D03*
X222504000Y-100076000D03*
X222504000Y-102616000D03*
X222504000Y-105156000D03*
X230124000Y-105156000D03*
X230124000Y-102616000D03*
X230124000Y-100076000D03*
X230124000Y-97536000D03*
X230124000Y-94996000D03*
X230124000Y-92456000D03*
X230124000Y-89916000D03*
X230124000Y-87376000D03*
D19*
X217170000Y-105939500D03*
X217170000Y-103864500D03*
D20*
X238760000Y-36322000D03*
D21*
X229378000Y-48788000D03*
X231378000Y-48788000D03*
D15*
X229616000Y-37846000D03*
D22*
X203962000Y-35560000D03*
D23*
X203962000Y-38100000D03*
X203962000Y-40640000D03*
X203962000Y-43180000D03*
X203962000Y-45720000D03*
X203962000Y-48260000D03*
X203962000Y-50800000D03*
X203962000Y-53340000D03*
X203962000Y-55880000D03*
X203962000Y-58420000D03*
X203962000Y-60960000D03*
X203962000Y-63500000D03*
X203962000Y-66040000D03*
X203962000Y-68580000D03*
X203962000Y-71120000D03*
X203962000Y-73660000D03*
X203962000Y-76200000D03*
X203962000Y-78740000D03*
X203962000Y-81280000D03*
D21*
X229632000Y-68072000D03*
X231632000Y-68072000D03*
D10*
X232156000Y-55098000D03*
D11*
X229616000Y-55098000D03*
D19*
X232918000Y-89937500D03*
X232918000Y-87862500D03*
D21*
X197628000Y-80772000D03*
X199628000Y-80772000D03*
D24*
X199319000Y-65278000D03*
D25*
X199319000Y-62738000D03*
X199319000Y-60198000D03*
D22*
X225298000Y-81280000D03*
D23*
X225298000Y-78740000D03*
X225298000Y-76200000D03*
X225298000Y-73660000D03*
X225298000Y-71120000D03*
X225298000Y-68580000D03*
X225298000Y-66040000D03*
X225298000Y-63500000D03*
X225298000Y-60960000D03*
X225298000Y-58420000D03*
X225298000Y-55880000D03*
X225298000Y-53340000D03*
X225298000Y-50800000D03*
X225298000Y-48260000D03*
X225298000Y-45720000D03*
X225298000Y-43180000D03*
X225298000Y-40640000D03*
X225298000Y-38100000D03*
X225298000Y-35560000D03*
D19*
X219710000Y-100605500D03*
X219710000Y-98530500D03*
X219710000Y-105939500D03*
X219710000Y-103864500D03*
D26*
X232586000Y-62992000D03*
X229186000Y-62992000D03*
D15*
X199390000Y-37084000D03*
D24*
X224282000Y-117856000D03*
D25*
X224282000Y-120396000D03*
X224282000Y-122936000D03*
D20*
X238760000Y-127762000D03*
X191770000Y-127508000D03*
D15*
X207772000Y-128778000D03*
D10*
X199898000Y-73132000D03*
D11*
X197358000Y-73132000D03*
D20*
X192024000Y-36830000D03*
D14*
X221742000Y-127994500D03*
X221742000Y-130069500D03*
D15*
X229616000Y-42926000D03*
X198628000Y-53594000D03*
D19*
X217170000Y-100605500D03*
X217170000Y-98530500D03*
D27*
X215221000Y-116482000D03*
D28*
X215221000Y-122482000D03*
X219921000Y-119482000D03*
M02*
