G04 #@! TF.GenerationSoftware,KiCad,Pcbnew,(6.0.10-0)*
G04 #@! TF.CreationDate,2023-04-17T00:01:30-05:00*
G04 #@! TF.ProjectId,v2.0,76322e30-2e6b-4696-9361-645f70636258,v2.0*
G04 #@! TF.SameCoordinates,Original*
G04 #@! TF.FileFunction,Copper,L2,Bot*
G04 #@! TF.FilePolarity,Positive*
%FSLAX46Y46*%
G04 Gerber Fmt 4.6, Leading zero omitted, Abs format (unit mm)*
G04 Created by KiCad (PCBNEW (6.0.10-0)) date 2023-04-17 00:01:30*
%MOMM*%
%LPD*%
G01*
G04 APERTURE LIST*
G04 Aperture macros list*
%AMRoundRect*
0 Rectangle with rounded corners*
0 $1 Rounding radius*
0 $2 $3 $4 $5 $6 $7 $8 $9 X,Y pos of 4 corners*
0 Add a 4 corners polygon primitive as box body*
4,1,4,$2,$3,$4,$5,$6,$7,$8,$9,$2,$3,0*
0 Add four circle primitives for the rounded corners*
1,1,$1+$1,$2,$3*
1,1,$1+$1,$4,$5*
1,1,$1+$1,$6,$7*
1,1,$1+$1,$8,$9*
0 Add four rect primitives between the rounded corners*
20,1,$1+$1,$2,$3,$4,$5,0*
20,1,$1+$1,$4,$5,$6,$7,0*
20,1,$1+$1,$6,$7,$8,$9,0*
20,1,$1+$1,$8,$9,$2,$3,0*%
G04 Aperture macros list end*
G04 #@! TA.AperFunction,ComponentPad*
%ADD10RoundRect,0.250000X0.620000X0.845000X-0.620000X0.845000X-0.620000X-0.845000X0.620000X-0.845000X0*%
G04 #@! TD*
G04 #@! TA.AperFunction,ComponentPad*
%ADD11O,1.740000X2.190000*%
G04 #@! TD*
G04 #@! TA.AperFunction,ComponentPad*
%ADD12R,2.000000X2.000000*%
G04 #@! TD*
G04 #@! TA.AperFunction,ComponentPad*
%ADD13C,2.000000*%
G04 #@! TD*
G04 #@! TA.AperFunction,ComponentPad*
%ADD14R,1.600000X1.600000*%
G04 #@! TD*
G04 #@! TA.AperFunction,ComponentPad*
%ADD15C,1.600000*%
G04 #@! TD*
G04 #@! TA.AperFunction,ComponentPad*
%ADD16O,1.600000X1.600000*%
G04 #@! TD*
G04 #@! TA.AperFunction,ComponentPad*
%ADD17R,1.700000X1.700000*%
G04 #@! TD*
G04 #@! TA.AperFunction,ComponentPad*
%ADD18O,1.700000X1.700000*%
G04 #@! TD*
G04 #@! TA.AperFunction,ComponentPad*
%ADD19R,2.000000X1.905000*%
G04 #@! TD*
G04 #@! TA.AperFunction,ComponentPad*
%ADD20O,2.000000X1.905000*%
G04 #@! TD*
G04 #@! TA.AperFunction,ComponentPad*
%ADD21C,1.500000*%
G04 #@! TD*
G04 #@! TA.AperFunction,ComponentPad*
%ADD22R,2.600000X2.600000*%
G04 #@! TD*
G04 #@! TA.AperFunction,ComponentPad*
%ADD23C,2.600000*%
G04 #@! TD*
G04 #@! TA.AperFunction,ViaPad*
%ADD24C,0.800000*%
G04 #@! TD*
G04 #@! TA.AperFunction,Conductor*
%ADD25C,0.254000*%
G04 #@! TD*
G04 #@! TA.AperFunction,Conductor*
%ADD26C,0.508000*%
G04 #@! TD*
G04 APERTURE END LIST*
D10*
X213360000Y-101072000D03*
D11*
X210820000Y-101072000D03*
X208280000Y-101072000D03*
X205740000Y-101072000D03*
X203200000Y-101072000D03*
X200660000Y-101072000D03*
D12*
X204342248Y-90170000D03*
D13*
X199342248Y-90170000D03*
D14*
X214808134Y-89662000D03*
D15*
X211308134Y-89662000D03*
D14*
X222504000Y-87376000D03*
D16*
X222504000Y-89916000D03*
X222504000Y-92456000D03*
X222504000Y-94996000D03*
X222504000Y-97536000D03*
X222504000Y-100076000D03*
X222504000Y-102616000D03*
X222504000Y-105156000D03*
X230124000Y-105156000D03*
X230124000Y-102616000D03*
X230124000Y-100076000D03*
X230124000Y-97536000D03*
X230124000Y-94996000D03*
X230124000Y-92456000D03*
X230124000Y-89916000D03*
X230124000Y-87376000D03*
D17*
X203962000Y-35560000D03*
D18*
X203962000Y-38100000D03*
X203962000Y-40640000D03*
X203962000Y-43180000D03*
X203962000Y-45720000D03*
X203962000Y-48260000D03*
X203962000Y-50800000D03*
X203962000Y-53340000D03*
X203962000Y-55880000D03*
X203962000Y-58420000D03*
X203962000Y-60960000D03*
X203962000Y-63500000D03*
X203962000Y-66040000D03*
X203962000Y-68580000D03*
X203962000Y-71120000D03*
X203962000Y-73660000D03*
X203962000Y-76200000D03*
X203962000Y-78740000D03*
X203962000Y-81280000D03*
D10*
X232156000Y-55098000D03*
D11*
X229616000Y-55098000D03*
D19*
X199319000Y-65278000D03*
D20*
X199319000Y-62738000D03*
X199319000Y-60198000D03*
D17*
X225298000Y-81280000D03*
D18*
X225298000Y-78740000D03*
X225298000Y-76200000D03*
X225298000Y-73660000D03*
X225298000Y-71120000D03*
X225298000Y-68580000D03*
X225298000Y-66040000D03*
X225298000Y-63500000D03*
X225298000Y-60960000D03*
X225298000Y-58420000D03*
X225298000Y-55880000D03*
X225298000Y-53340000D03*
X225298000Y-50800000D03*
X225298000Y-48260000D03*
X225298000Y-45720000D03*
X225298000Y-43180000D03*
X225298000Y-40640000D03*
X225298000Y-38100000D03*
X225298000Y-35560000D03*
D21*
X232586000Y-62992000D03*
X229186000Y-62992000D03*
D19*
X224282000Y-117856000D03*
D20*
X224282000Y-120396000D03*
X224282000Y-122936000D03*
D10*
X199898000Y-73132000D03*
D11*
X197358000Y-73132000D03*
D22*
X215221000Y-116482000D03*
D23*
X215221000Y-122482000D03*
X219921000Y-119482000D03*
D24*
X214630000Y-67056000D03*
X197612000Y-44958000D03*
X214122000Y-104902000D03*
X231902000Y-120650000D03*
X205994000Y-84836000D03*
X207518000Y-49784000D03*
X220472000Y-55118000D03*
X229362000Y-83566000D03*
X232410000Y-39624000D03*
X199390000Y-83058000D03*
X214630000Y-76962000D03*
X201676000Y-122174000D03*
X231902000Y-108966000D03*
X198374000Y-106680000D03*
X220980000Y-38862000D03*
X215392000Y-126746000D03*
X216408000Y-94996000D03*
X220980000Y-85344000D03*
X224536000Y-100584000D03*
X225552000Y-93726000D03*
D25*
X220980000Y-85344000D02*
X220980000Y-60198000D01*
X220980000Y-60198000D02*
X225298000Y-55880000D01*
X222504000Y-102616000D02*
X223631000Y-101489000D01*
X223631000Y-101489000D02*
X223631000Y-60087000D01*
X223631000Y-60087000D02*
X225298000Y-58420000D01*
D26*
X203962000Y-50800000D02*
X209550000Y-56388000D01*
X209550000Y-96266000D02*
X210820000Y-97536000D01*
X210820000Y-97536000D02*
X210820000Y-101072000D01*
X209550000Y-56388000D02*
X209550000Y-96266000D01*
X208280000Y-57658000D02*
X203962000Y-53340000D01*
X208280000Y-101072000D02*
X208280000Y-57658000D01*
X205740000Y-101072000D02*
X207538000Y-102870000D01*
X218186000Y-90678000D02*
X221488000Y-87376000D01*
X229616000Y-36830000D02*
X226822000Y-34036000D01*
X207538000Y-102870000D02*
X215646000Y-102870000D01*
X202184000Y-97516000D02*
X202184000Y-36068000D01*
X221488000Y-87376000D02*
X222504000Y-87376000D01*
X205740000Y-101072000D02*
X202184000Y-97516000D01*
X202692000Y-35560000D02*
X203962000Y-35560000D01*
X205486000Y-34036000D02*
X203962000Y-35560000D01*
X215646000Y-102870000D02*
X218186000Y-100330000D01*
X202184000Y-36068000D02*
X202692000Y-35560000D01*
X226822000Y-34036000D02*
X205486000Y-34036000D01*
X229616000Y-55098000D02*
X229616000Y-36830000D01*
X218186000Y-100330000D02*
X218186000Y-90678000D01*
X203200000Y-101072000D02*
X208538000Y-106410000D01*
X208538000Y-106410000D02*
X223023424Y-106410000D01*
X224790000Y-100838000D02*
X224536000Y-100584000D01*
X224790000Y-104643424D02*
X224790000Y-100838000D01*
X223023424Y-106410000D02*
X224790000Y-104643424D01*
X200660000Y-101072000D02*
X206776000Y-107188000D01*
X206776000Y-107188000D02*
X224028000Y-107188000D01*
X224028000Y-107188000D02*
X225552000Y-105664000D01*
X225552000Y-105664000D02*
X225552000Y-93726000D01*
D25*
X232156000Y-56642000D02*
X232156000Y-55098000D01*
X225298000Y-63500000D02*
X232156000Y-56642000D01*
G04 #@! TA.AperFunction,Conductor*
G36*
X204932227Y-33294502D02*
G01*
X204978720Y-33348158D01*
X204988824Y-33418432D01*
X204955579Y-33487153D01*
X204940012Y-33503586D01*
X204937634Y-33506028D01*
X204279067Y-34164595D01*
X204216755Y-34198621D01*
X204189972Y-34201500D01*
X203063866Y-34201500D01*
X203001684Y-34208255D01*
X202865295Y-34259385D01*
X202748739Y-34346739D01*
X202661385Y-34463295D01*
X202610255Y-34599684D01*
X202603500Y-34661866D01*
X202603500Y-34693255D01*
X202583498Y-34761376D01*
X202529842Y-34807869D01*
X202515368Y-34812830D01*
X202515393Y-34812899D01*
X202446388Y-34837947D01*
X202442227Y-34839375D01*
X202379387Y-34859732D01*
X202379382Y-34859734D01*
X202372425Y-34861988D01*
X202366173Y-34865782D01*
X202360598Y-34868334D01*
X202355135Y-34871070D01*
X202348259Y-34873566D01*
X202342140Y-34877578D01*
X202286863Y-34913819D01*
X202283159Y-34916156D01*
X202220419Y-34954228D01*
X202211994Y-34961668D01*
X202211969Y-34961640D01*
X202209044Y-34964234D01*
X202205690Y-34967039D01*
X202199565Y-34971054D01*
X202194530Y-34976369D01*
X202194529Y-34976370D01*
X202146012Y-35027586D01*
X202143634Y-35030028D01*
X201692472Y-35481190D01*
X201678059Y-35493577D01*
X201660436Y-35506546D01*
X201655692Y-35512129D01*
X201655693Y-35512129D01*
X201626021Y-35547055D01*
X201619091Y-35554571D01*
X201613347Y-35560315D01*
X201611073Y-35563189D01*
X201611067Y-35563196D01*
X201595628Y-35582711D01*
X201592837Y-35586115D01*
X201550055Y-35636472D01*
X201550052Y-35636476D01*
X201545316Y-35642051D01*
X201541988Y-35648568D01*
X201538611Y-35653632D01*
X201535384Y-35658856D01*
X201530840Y-35664600D01*
X201527741Y-35671231D01*
X201499768Y-35731082D01*
X201497837Y-35735033D01*
X201464457Y-35800404D01*
X201462716Y-35807519D01*
X201460579Y-35813265D01*
X201458655Y-35819048D01*
X201455556Y-35825679D01*
X201454066Y-35832843D01*
X201440608Y-35897547D01*
X201439639Y-35901829D01*
X201422196Y-35973112D01*
X201421500Y-35984330D01*
X201421461Y-35984328D01*
X201421228Y-35988229D01*
X201420839Y-35992588D01*
X201419348Y-35999756D01*
X201419546Y-36007073D01*
X201421454Y-36077577D01*
X201421500Y-36080986D01*
X201421500Y-71862502D01*
X201401498Y-71930623D01*
X201347842Y-71977116D01*
X201277568Y-71987220D01*
X201212988Y-71957726D01*
X201188356Y-71928805D01*
X201120332Y-71818880D01*
X201116478Y-71812652D01*
X200991303Y-71687695D01*
X200891951Y-71626453D01*
X200846968Y-71598725D01*
X200846966Y-71598724D01*
X200840738Y-71594885D01*
X200680254Y-71541655D01*
X200679389Y-71541368D01*
X200679387Y-71541368D01*
X200672861Y-71539203D01*
X200666025Y-71538503D01*
X200666022Y-71538502D01*
X200618449Y-71533628D01*
X200568400Y-71528500D01*
X199227600Y-71528500D01*
X199224354Y-71528837D01*
X199224350Y-71528837D01*
X199128692Y-71538762D01*
X199128688Y-71538763D01*
X199121834Y-71539474D01*
X199115298Y-71541655D01*
X199115296Y-71541655D01*
X199075030Y-71555089D01*
X198954054Y-71595450D01*
X198803652Y-71688522D01*
X198678695Y-71813697D01*
X198674855Y-71819927D01*
X198674854Y-71819928D01*
X198648611Y-71862502D01*
X198585885Y-71964262D01*
X198583738Y-71962938D01*
X198544688Y-72007290D01*
X198476411Y-72026752D01*
X198408451Y-72006212D01*
X198386239Y-71987728D01*
X198278410Y-71874694D01*
X198278398Y-71874684D01*
X198274724Y-71870832D01*
X198087035Y-71731187D01*
X198082284Y-71728771D01*
X198082280Y-71728769D01*
X197883256Y-71627580D01*
X197883255Y-71627580D01*
X197878500Y-71625162D01*
X197655083Y-71555790D01*
X197649796Y-71555089D01*
X197649795Y-71555089D01*
X197428455Y-71525752D01*
X197428451Y-71525752D01*
X197423171Y-71525052D01*
X197417842Y-71525252D01*
X197417840Y-71525252D01*
X197322346Y-71528837D01*
X197189396Y-71533828D01*
X197105411Y-71551450D01*
X196965668Y-71580771D01*
X196965665Y-71580772D01*
X196960441Y-71581868D01*
X196742854Y-71667797D01*
X196738290Y-71670566D01*
X196738291Y-71670566D01*
X196547417Y-71786391D01*
X196547414Y-71786393D01*
X196542856Y-71789159D01*
X196366166Y-71942483D01*
X196217835Y-72123386D01*
X196149791Y-72242922D01*
X196108468Y-72315516D01*
X196102104Y-72326695D01*
X196022284Y-72546596D01*
X196021335Y-72551845D01*
X196021334Y-72551848D01*
X196015867Y-72582083D01*
X195980656Y-72776803D01*
X195979500Y-72801316D01*
X195979500Y-73415738D01*
X195994295Y-73590102D01*
X195995633Y-73595259D01*
X195995634Y-73595262D01*
X196030582Y-73729908D01*
X196053067Y-73816540D01*
X196149150Y-74029837D01*
X196279798Y-74223896D01*
X196441276Y-74393168D01*
X196628965Y-74532813D01*
X196633716Y-74535229D01*
X196633720Y-74535231D01*
X196748197Y-74593434D01*
X196837500Y-74638838D01*
X197060917Y-74708210D01*
X197066204Y-74708911D01*
X197066205Y-74708911D01*
X197287545Y-74738248D01*
X197287549Y-74738248D01*
X197292829Y-74738948D01*
X197298158Y-74738748D01*
X197298160Y-74738748D01*
X197409716Y-74734560D01*
X197526604Y-74730172D01*
X197650523Y-74704171D01*
X197750332Y-74683229D01*
X197750335Y-74683228D01*
X197755559Y-74682132D01*
X197973146Y-74596203D01*
X198054004Y-74547137D01*
X198168583Y-74477609D01*
X198168586Y-74477607D01*
X198173144Y-74474841D01*
X198349834Y-74321517D01*
X198380408Y-74284229D01*
X198439067Y-74244236D01*
X198510038Y-74242305D01*
X198570786Y-74279050D01*
X198585733Y-74301390D01*
X198586450Y-74300946D01*
X198679522Y-74451348D01*
X198804697Y-74576305D01*
X198810927Y-74580145D01*
X198810928Y-74580146D01*
X198948090Y-74664694D01*
X198955262Y-74669115D01*
X198997815Y-74683229D01*
X199116611Y-74722632D01*
X199116613Y-74722632D01*
X199123139Y-74724797D01*
X199129975Y-74725497D01*
X199129978Y-74725498D01*
X199173031Y-74729909D01*
X199227600Y-74735500D01*
X200568400Y-74735500D01*
X200571646Y-74735163D01*
X200571650Y-74735163D01*
X200667308Y-74725238D01*
X200667312Y-74725237D01*
X200674166Y-74724526D01*
X200680702Y-74722345D01*
X200680704Y-74722345D01*
X200812806Y-74678272D01*
X200841946Y-74668550D01*
X200992348Y-74575478D01*
X201023591Y-74544181D01*
X201112134Y-74455483D01*
X201117305Y-74450303D01*
X201188240Y-74335226D01*
X201241013Y-74287732D01*
X201311084Y-74276309D01*
X201376208Y-74304583D01*
X201415708Y-74363578D01*
X201421500Y-74401342D01*
X201421500Y-97448624D01*
X201420067Y-97467574D01*
X201417876Y-97481973D01*
X201417876Y-97481979D01*
X201416776Y-97489208D01*
X201417369Y-97496500D01*
X201417369Y-97496503D01*
X201421085Y-97542183D01*
X201421500Y-97552398D01*
X201421500Y-97560525D01*
X201424811Y-97588924D01*
X201425238Y-97593244D01*
X201431191Y-97666426D01*
X201433447Y-97673388D01*
X201434643Y-97679376D01*
X201436051Y-97685333D01*
X201436899Y-97692607D01*
X201439397Y-97699489D01*
X201439398Y-97699493D01*
X201461945Y-97761607D01*
X201463355Y-97765711D01*
X201485987Y-97835575D01*
X201489787Y-97841838D01*
X201492325Y-97847380D01*
X201495067Y-97852856D01*
X201497566Y-97859741D01*
X201501581Y-97865865D01*
X201537815Y-97921132D01*
X201540130Y-97924800D01*
X201578227Y-97987581D01*
X201581941Y-97991786D01*
X201581943Y-97991789D01*
X201585667Y-97996005D01*
X201585638Y-97996031D01*
X201588238Y-97998962D01*
X201591042Y-98002316D01*
X201595054Y-98008435D01*
X201600366Y-98013467D01*
X201651586Y-98061988D01*
X201654028Y-98064366D01*
X202893317Y-99303655D01*
X202927343Y-99365967D01*
X202922278Y-99436782D01*
X202879731Y-99493618D01*
X202830098Y-99516064D01*
X202807675Y-99520769D01*
X202807666Y-99520772D01*
X202802441Y-99521868D01*
X202584854Y-99607797D01*
X202545106Y-99631917D01*
X202389417Y-99726391D01*
X202389414Y-99726393D01*
X202384856Y-99729159D01*
X202208166Y-99882483D01*
X202059835Y-100063386D01*
X202057199Y-100068016D01*
X202057196Y-100068021D01*
X202038699Y-100100516D01*
X201987616Y-100149822D01*
X201917985Y-100163683D01*
X201851915Y-100137699D01*
X201824677Y-100108550D01*
X201785977Y-100051067D01*
X201738202Y-99980104D01*
X201707283Y-99947692D01*
X201617325Y-99853393D01*
X201576724Y-99810832D01*
X201389035Y-99671187D01*
X201384284Y-99668771D01*
X201384280Y-99668769D01*
X201185256Y-99567580D01*
X201185255Y-99567580D01*
X201180500Y-99565162D01*
X200957083Y-99495790D01*
X200951796Y-99495089D01*
X200951795Y-99495089D01*
X200730455Y-99465752D01*
X200730451Y-99465752D01*
X200725171Y-99465052D01*
X200719842Y-99465252D01*
X200719840Y-99465252D01*
X200608284Y-99469440D01*
X200491396Y-99473828D01*
X200407411Y-99491450D01*
X200267668Y-99520771D01*
X200267665Y-99520772D01*
X200262441Y-99521868D01*
X200044854Y-99607797D01*
X200005106Y-99631917D01*
X199849417Y-99726391D01*
X199849414Y-99726393D01*
X199844856Y-99729159D01*
X199668166Y-99882483D01*
X199519835Y-100063386D01*
X199404104Y-100266695D01*
X199324284Y-100486596D01*
X199323335Y-100491845D01*
X199323334Y-100491848D01*
X199310079Y-100565150D01*
X199282656Y-100716803D01*
X199282461Y-100720942D01*
X199282460Y-100720949D01*
X199282139Y-100727762D01*
X199281500Y-100741316D01*
X199281500Y-101355738D01*
X199281725Y-101358387D01*
X199291915Y-101478477D01*
X199296295Y-101530102D01*
X199297633Y-101535259D01*
X199297634Y-101535262D01*
X199317993Y-101613699D01*
X199355067Y-101756540D01*
X199357259Y-101761406D01*
X199357260Y-101761409D01*
X199423864Y-101909264D01*
X199451150Y-101969837D01*
X199581798Y-102163896D01*
X199585477Y-102167753D01*
X199585479Y-102167755D01*
X199652719Y-102238240D01*
X199743276Y-102333168D01*
X199930965Y-102472813D01*
X199935716Y-102475229D01*
X199935720Y-102475231D01*
X200134744Y-102576420D01*
X200139500Y-102578838D01*
X200362917Y-102648210D01*
X200368204Y-102648911D01*
X200368205Y-102648911D01*
X200589545Y-102678248D01*
X200589549Y-102678248D01*
X200594829Y-102678948D01*
X200600158Y-102678748D01*
X200600160Y-102678748D01*
X200711716Y-102674560D01*
X200828604Y-102670172D01*
X200922922Y-102650382D01*
X201052175Y-102623262D01*
X201122951Y-102628849D01*
X201167144Y-102657482D01*
X206189190Y-107679528D01*
X206201577Y-107693941D01*
X206214546Y-107711564D01*
X206220129Y-107716307D01*
X206255055Y-107745979D01*
X206262571Y-107752909D01*
X206268315Y-107758653D01*
X206271189Y-107760927D01*
X206271196Y-107760933D01*
X206290711Y-107776372D01*
X206294115Y-107779163D01*
X206344472Y-107821945D01*
X206344476Y-107821948D01*
X206350051Y-107826684D01*
X206356568Y-107830012D01*
X206361632Y-107833389D01*
X206366856Y-107836616D01*
X206372600Y-107841160D01*
X206379231Y-107844259D01*
X206439082Y-107872232D01*
X206443033Y-107874163D01*
X206508404Y-107907543D01*
X206515519Y-107909284D01*
X206521265Y-107911421D01*
X206527048Y-107913345D01*
X206533679Y-107916444D01*
X206605557Y-107931394D01*
X206609829Y-107932361D01*
X206681112Y-107949804D01*
X206686711Y-107950151D01*
X206686715Y-107950152D01*
X206692330Y-107950500D01*
X206692328Y-107950539D01*
X206696229Y-107950772D01*
X206700588Y-107951161D01*
X206707756Y-107952652D01*
X206715073Y-107952454D01*
X206785577Y-107950546D01*
X206788986Y-107950500D01*
X223960624Y-107950500D01*
X223979574Y-107951933D01*
X223993973Y-107954124D01*
X223993979Y-107954124D01*
X224001208Y-107955224D01*
X224008500Y-107954631D01*
X224008503Y-107954631D01*
X224054183Y-107950915D01*
X224064398Y-107950500D01*
X224072525Y-107950500D01*
X224076161Y-107950076D01*
X224076163Y-107950076D01*
X224079615Y-107949673D01*
X224100924Y-107947189D01*
X224105244Y-107946762D01*
X224178426Y-107940809D01*
X224185388Y-107938553D01*
X224191376Y-107937357D01*
X224197333Y-107935949D01*
X224204607Y-107935101D01*
X224211489Y-107932603D01*
X224211493Y-107932602D01*
X224273607Y-107910055D01*
X224277711Y-107908645D01*
X224347575Y-107886013D01*
X224353838Y-107882213D01*
X224359380Y-107879675D01*
X224364856Y-107876933D01*
X224371741Y-107874434D01*
X224433132Y-107834185D01*
X224436800Y-107831870D01*
X224499581Y-107793773D01*
X224503786Y-107790059D01*
X224503789Y-107790057D01*
X224508005Y-107786333D01*
X224508031Y-107786362D01*
X224510962Y-107783762D01*
X224514316Y-107780958D01*
X224520435Y-107776946D01*
X224573989Y-107720413D01*
X224576366Y-107717972D01*
X226043528Y-106250810D01*
X226057941Y-106238423D01*
X226069665Y-106229795D01*
X226075564Y-106225454D01*
X226109979Y-106184945D01*
X226116909Y-106177429D01*
X226122653Y-106171685D01*
X226124924Y-106168815D01*
X226124929Y-106168809D01*
X226140397Y-106149259D01*
X226143185Y-106145859D01*
X226185943Y-106095530D01*
X226185945Y-106095528D01*
X226190684Y-106089949D01*
X226194014Y-106083428D01*
X226197405Y-106078343D01*
X226200616Y-106073144D01*
X226205160Y-106067401D01*
X226236235Y-106000911D01*
X226238167Y-105996959D01*
X226268213Y-105938117D01*
X226271543Y-105931596D01*
X226273284Y-105924479D01*
X226275411Y-105918761D01*
X226277342Y-105912955D01*
X226280443Y-105906321D01*
X226295391Y-105834461D01*
X226296359Y-105830181D01*
X226299522Y-105817257D01*
X226313804Y-105758888D01*
X226314500Y-105747670D01*
X226314539Y-105747672D01*
X226314772Y-105743771D01*
X226315161Y-105739412D01*
X226316652Y-105732244D01*
X226314546Y-105654424D01*
X226314500Y-105651015D01*
X226314500Y-105156000D01*
X228810502Y-105156000D01*
X228830457Y-105384087D01*
X228831880Y-105389399D01*
X228831881Y-105389402D01*
X228858539Y-105488888D01*
X228889716Y-105605243D01*
X228892039Y-105610224D01*
X228892039Y-105610225D01*
X228984151Y-105807762D01*
X228984154Y-105807767D01*
X228986477Y-105812749D01*
X229117802Y-106000300D01*
X229279700Y-106162198D01*
X229284208Y-106165355D01*
X229284211Y-106165357D01*
X229362065Y-106219871D01*
X229467251Y-106293523D01*
X229472233Y-106295846D01*
X229472238Y-106295849D01*
X229574496Y-106343532D01*
X229674757Y-106390284D01*
X229680065Y-106391706D01*
X229680067Y-106391707D01*
X229890598Y-106448119D01*
X229890600Y-106448119D01*
X229895913Y-106449543D01*
X230124000Y-106469498D01*
X230352087Y-106449543D01*
X230357400Y-106448119D01*
X230357402Y-106448119D01*
X230567933Y-106391707D01*
X230567935Y-106391706D01*
X230573243Y-106390284D01*
X230673504Y-106343532D01*
X230775762Y-106295849D01*
X230775767Y-106295846D01*
X230780749Y-106293523D01*
X230885935Y-106219871D01*
X230963789Y-106165357D01*
X230963792Y-106165355D01*
X230968300Y-106162198D01*
X231130198Y-106000300D01*
X231261523Y-105812749D01*
X231263846Y-105807767D01*
X231263849Y-105807762D01*
X231355961Y-105610225D01*
X231355961Y-105610224D01*
X231358284Y-105605243D01*
X231389462Y-105488888D01*
X231416119Y-105389402D01*
X231416120Y-105389399D01*
X231417543Y-105384087D01*
X231437498Y-105156000D01*
X231417543Y-104927913D01*
X231358284Y-104706757D01*
X231286766Y-104553385D01*
X231263849Y-104504238D01*
X231263846Y-104504233D01*
X231261523Y-104499251D01*
X231130198Y-104311700D01*
X230968300Y-104149802D01*
X230963792Y-104146645D01*
X230963789Y-104146643D01*
X230885611Y-104091902D01*
X230780749Y-104018477D01*
X230775767Y-104016154D01*
X230775762Y-104016151D01*
X230741543Y-104000195D01*
X230688258Y-103953278D01*
X230668797Y-103885001D01*
X230689339Y-103817041D01*
X230741543Y-103771805D01*
X230775762Y-103755849D01*
X230775767Y-103755846D01*
X230780749Y-103753523D01*
X230953532Y-103632539D01*
X230963789Y-103625357D01*
X230963792Y-103625355D01*
X230968300Y-103622198D01*
X231130198Y-103460300D01*
X231150513Y-103431288D01*
X231258366Y-103277257D01*
X231261523Y-103272749D01*
X231263846Y-103267767D01*
X231263849Y-103267762D01*
X231355961Y-103070225D01*
X231355961Y-103070224D01*
X231358284Y-103065243D01*
X231417543Y-102844087D01*
X231437498Y-102616000D01*
X231417543Y-102387913D01*
X231358284Y-102166757D01*
X231318115Y-102080614D01*
X231263849Y-101964238D01*
X231263846Y-101964233D01*
X231261523Y-101959251D01*
X231130198Y-101771700D01*
X230968300Y-101609802D01*
X230963792Y-101606645D01*
X230963789Y-101606643D01*
X230846892Y-101524791D01*
X230780749Y-101478477D01*
X230775767Y-101476154D01*
X230775762Y-101476151D01*
X230741543Y-101460195D01*
X230688258Y-101413278D01*
X230668797Y-101345001D01*
X230689339Y-101277041D01*
X230741543Y-101231805D01*
X230775762Y-101215849D01*
X230775767Y-101215846D01*
X230780749Y-101213523D01*
X230885611Y-101140098D01*
X230963789Y-101085357D01*
X230963792Y-101085355D01*
X230968300Y-101082198D01*
X231130198Y-100920300D01*
X231141316Y-100904423D01*
X231222652Y-100788262D01*
X231261523Y-100732749D01*
X231263846Y-100727767D01*
X231263849Y-100727762D01*
X231355961Y-100530225D01*
X231355961Y-100530224D01*
X231358284Y-100525243D01*
X231413166Y-100320424D01*
X231416119Y-100309402D01*
X231416119Y-100309400D01*
X231417543Y-100304087D01*
X231437498Y-100076000D01*
X231417543Y-99847913D01*
X231394051Y-99760240D01*
X231359707Y-99632067D01*
X231359706Y-99632065D01*
X231358284Y-99626757D01*
X231348528Y-99605835D01*
X231263849Y-99424238D01*
X231263846Y-99424233D01*
X231261523Y-99419251D01*
X231130198Y-99231700D01*
X230968300Y-99069802D01*
X230963792Y-99066645D01*
X230963789Y-99066643D01*
X230885611Y-99011902D01*
X230780749Y-98938477D01*
X230775767Y-98936154D01*
X230775762Y-98936151D01*
X230740951Y-98919919D01*
X230687666Y-98873002D01*
X230668205Y-98804725D01*
X230688747Y-98736765D01*
X230740951Y-98691529D01*
X230775511Y-98675414D01*
X230785007Y-98669931D01*
X230963467Y-98544972D01*
X230971875Y-98537916D01*
X231125916Y-98383875D01*
X231132972Y-98375467D01*
X231257931Y-98197007D01*
X231263414Y-98187511D01*
X231355490Y-97990053D01*
X231359236Y-97979761D01*
X231405394Y-97807497D01*
X231405058Y-97793401D01*
X231397116Y-97790000D01*
X228856033Y-97790000D01*
X228842502Y-97793973D01*
X228841273Y-97802522D01*
X228888764Y-97979761D01*
X228892510Y-97990053D01*
X228984586Y-98187511D01*
X228990069Y-98197007D01*
X229115028Y-98375467D01*
X229122084Y-98383875D01*
X229276125Y-98537916D01*
X229284533Y-98544972D01*
X229462993Y-98669931D01*
X229472489Y-98675414D01*
X229507049Y-98691529D01*
X229560334Y-98738446D01*
X229579795Y-98806723D01*
X229559253Y-98874683D01*
X229507049Y-98919919D01*
X229472238Y-98936151D01*
X229472233Y-98936154D01*
X229467251Y-98938477D01*
X229362389Y-99011902D01*
X229284211Y-99066643D01*
X229284208Y-99066645D01*
X229279700Y-99069802D01*
X229117802Y-99231700D01*
X228986477Y-99419251D01*
X228984154Y-99424233D01*
X228984151Y-99424238D01*
X228899472Y-99605835D01*
X228889716Y-99626757D01*
X228888294Y-99632065D01*
X228888293Y-99632067D01*
X228853949Y-99760240D01*
X228830457Y-99847913D01*
X228810502Y-100076000D01*
X228830457Y-100304087D01*
X228831881Y-100309400D01*
X228831881Y-100309402D01*
X228834835Y-100320424D01*
X228889716Y-100525243D01*
X228892039Y-100530224D01*
X228892039Y-100530225D01*
X228984151Y-100727762D01*
X228984154Y-100727767D01*
X228986477Y-100732749D01*
X229025348Y-100788262D01*
X229106685Y-100904423D01*
X229117802Y-100920300D01*
X229279700Y-101082198D01*
X229284208Y-101085355D01*
X229284211Y-101085357D01*
X229362389Y-101140098D01*
X229467251Y-101213523D01*
X229472233Y-101215846D01*
X229472238Y-101215849D01*
X229506457Y-101231805D01*
X229559742Y-101278722D01*
X229579203Y-101346999D01*
X229558661Y-101414959D01*
X229506457Y-101460195D01*
X229472238Y-101476151D01*
X229472233Y-101476154D01*
X229467251Y-101478477D01*
X229401108Y-101524791D01*
X229284211Y-101606643D01*
X229284208Y-101606645D01*
X229279700Y-101609802D01*
X229117802Y-101771700D01*
X228986477Y-101959251D01*
X228984154Y-101964233D01*
X228984151Y-101964238D01*
X228929885Y-102080614D01*
X228889716Y-102166757D01*
X228830457Y-102387913D01*
X228810502Y-102616000D01*
X228830457Y-102844087D01*
X228889716Y-103065243D01*
X228892039Y-103070224D01*
X228892039Y-103070225D01*
X228984151Y-103267762D01*
X228984154Y-103267767D01*
X228986477Y-103272749D01*
X228989634Y-103277257D01*
X229097488Y-103431288D01*
X229117802Y-103460300D01*
X229279700Y-103622198D01*
X229284208Y-103625355D01*
X229284211Y-103625357D01*
X229294468Y-103632539D01*
X229467251Y-103753523D01*
X229472233Y-103755846D01*
X229472238Y-103755849D01*
X229506457Y-103771805D01*
X229559742Y-103818722D01*
X229579203Y-103886999D01*
X229558661Y-103954959D01*
X229506457Y-104000195D01*
X229472238Y-104016151D01*
X229472233Y-104016154D01*
X229467251Y-104018477D01*
X229362389Y-104091902D01*
X229284211Y-104146643D01*
X229284208Y-104146645D01*
X229279700Y-104149802D01*
X229117802Y-104311700D01*
X228986477Y-104499251D01*
X228984154Y-104504233D01*
X228984151Y-104504238D01*
X228961234Y-104553385D01*
X228889716Y-104706757D01*
X228830457Y-104927913D01*
X228810502Y-105156000D01*
X226314500Y-105156000D01*
X226314500Y-95262522D01*
X228841273Y-95262522D01*
X228888764Y-95439761D01*
X228892510Y-95450053D01*
X228984586Y-95647511D01*
X228990069Y-95657007D01*
X229115028Y-95835467D01*
X229122084Y-95843875D01*
X229276125Y-95997916D01*
X229284533Y-96004972D01*
X229462993Y-96129931D01*
X229472489Y-96135414D01*
X229507641Y-96151805D01*
X229560926Y-96198722D01*
X229580387Y-96266999D01*
X229559845Y-96334959D01*
X229507641Y-96380195D01*
X229472489Y-96396586D01*
X229462993Y-96402069D01*
X229284533Y-96527028D01*
X229276125Y-96534084D01*
X229122084Y-96688125D01*
X229115028Y-96696533D01*
X228990069Y-96874993D01*
X228984586Y-96884489D01*
X228892510Y-97081947D01*
X228888764Y-97092239D01*
X228842606Y-97264503D01*
X228842942Y-97278599D01*
X228850884Y-97282000D01*
X229851885Y-97282000D01*
X229867124Y-97277525D01*
X229868329Y-97276135D01*
X229870000Y-97268452D01*
X229870000Y-97263885D01*
X230378000Y-97263885D01*
X230382475Y-97279124D01*
X230383865Y-97280329D01*
X230391548Y-97282000D01*
X231391967Y-97282000D01*
X231405498Y-97278027D01*
X231406727Y-97269478D01*
X231359236Y-97092239D01*
X231355490Y-97081947D01*
X231263414Y-96884489D01*
X231257931Y-96874993D01*
X231132972Y-96696533D01*
X231125916Y-96688125D01*
X230971875Y-96534084D01*
X230963467Y-96527028D01*
X230785007Y-96402069D01*
X230775511Y-96396586D01*
X230740359Y-96380195D01*
X230687074Y-96333278D01*
X230667613Y-96265001D01*
X230688155Y-96197041D01*
X230740359Y-96151805D01*
X230775511Y-96135414D01*
X230785007Y-96129931D01*
X230963467Y-96004972D01*
X230971875Y-95997916D01*
X231125916Y-95843875D01*
X231132972Y-95835467D01*
X231257931Y-95657007D01*
X231263414Y-95647511D01*
X231355490Y-95450053D01*
X231359236Y-95439761D01*
X231405394Y-95267497D01*
X231405058Y-95253401D01*
X231397116Y-95250000D01*
X230396115Y-95250000D01*
X230380876Y-95254475D01*
X230379671Y-95255865D01*
X230378000Y-95263548D01*
X230378000Y-97263885D01*
X229870000Y-97263885D01*
X229870000Y-95268115D01*
X229865525Y-95252876D01*
X229864135Y-95251671D01*
X229856452Y-95250000D01*
X228856033Y-95250000D01*
X228842502Y-95253973D01*
X228841273Y-95262522D01*
X226314500Y-95262522D01*
X226314500Y-94256071D01*
X226331381Y-94193071D01*
X226383223Y-94103279D01*
X226383224Y-94103278D01*
X226386527Y-94097556D01*
X226445542Y-93915928D01*
X226465504Y-93726000D01*
X226451580Y-93593523D01*
X226446232Y-93542635D01*
X226446232Y-93542633D01*
X226445542Y-93536072D01*
X226386527Y-93354444D01*
X226291040Y-93189056D01*
X226163253Y-93047134D01*
X226008752Y-92934882D01*
X226002724Y-92932198D01*
X226002722Y-92932197D01*
X225840319Y-92859891D01*
X225840318Y-92859891D01*
X225834288Y-92857206D01*
X225740888Y-92837353D01*
X225653944Y-92818872D01*
X225653939Y-92818872D01*
X225647487Y-92817500D01*
X225456513Y-92817500D01*
X225450061Y-92818872D01*
X225450056Y-92818872D01*
X225363112Y-92837353D01*
X225269712Y-92857206D01*
X225263682Y-92859891D01*
X225263681Y-92859891D01*
X225101278Y-92932197D01*
X225101276Y-92932198D01*
X225095248Y-92934882D01*
X224940747Y-93047134D01*
X224812960Y-93189056D01*
X224717473Y-93354444D01*
X224658458Y-93536072D01*
X224657768Y-93542633D01*
X224657768Y-93542635D01*
X224652420Y-93593523D01*
X224638496Y-93726000D01*
X224658458Y-93915928D01*
X224717473Y-94097556D01*
X224720776Y-94103278D01*
X224720777Y-94103279D01*
X224772619Y-94193071D01*
X224789500Y-94256071D01*
X224789500Y-99553489D01*
X224769498Y-99621610D01*
X224715842Y-99668103D01*
X224645568Y-99678207D01*
X224638250Y-99676905D01*
X224637947Y-99676873D01*
X224631487Y-99675500D01*
X224440513Y-99675500D01*
X224434053Y-99676873D01*
X224434054Y-99676873D01*
X224418696Y-99680137D01*
X224347905Y-99674734D01*
X224291273Y-99631917D01*
X224266780Y-99565280D01*
X224266500Y-99556890D01*
X224266500Y-92456000D01*
X228810502Y-92456000D01*
X228830457Y-92684087D01*
X228889716Y-92905243D01*
X228892039Y-92910224D01*
X228892039Y-92910225D01*
X228984151Y-93107762D01*
X228984154Y-93107767D01*
X228986477Y-93112749D01*
X229117802Y-93300300D01*
X229279700Y-93462198D01*
X229284208Y-93465355D01*
X229284211Y-93465357D01*
X229362389Y-93520098D01*
X229467251Y-93593523D01*
X229472233Y-93595846D01*
X229472238Y-93595849D01*
X229507049Y-93612081D01*
X229560334Y-93658998D01*
X229579795Y-93727275D01*
X229559253Y-93795235D01*
X229507049Y-93840471D01*
X229472489Y-93856586D01*
X229462993Y-93862069D01*
X229284533Y-93987028D01*
X229276125Y-93994084D01*
X229122084Y-94148125D01*
X229115028Y-94156533D01*
X228990069Y-94334993D01*
X228984586Y-94344489D01*
X228892510Y-94541947D01*
X228888764Y-94552239D01*
X228842606Y-94724503D01*
X228842942Y-94738599D01*
X228850884Y-94742000D01*
X231391967Y-94742000D01*
X231405498Y-94738027D01*
X231406727Y-94729478D01*
X231359236Y-94552239D01*
X231355490Y-94541947D01*
X231263414Y-94344489D01*
X231257931Y-94334993D01*
X231132972Y-94156533D01*
X231125916Y-94148125D01*
X230971875Y-93994084D01*
X230963467Y-93987028D01*
X230785007Y-93862069D01*
X230775511Y-93856586D01*
X230740951Y-93840471D01*
X230687666Y-93793554D01*
X230668205Y-93725277D01*
X230688747Y-93657317D01*
X230740951Y-93612081D01*
X230775762Y-93595849D01*
X230775767Y-93595846D01*
X230780749Y-93593523D01*
X230885611Y-93520098D01*
X230963789Y-93465357D01*
X230963792Y-93465355D01*
X230968300Y-93462198D01*
X231130198Y-93300300D01*
X231261523Y-93112749D01*
X231263846Y-93107767D01*
X231263849Y-93107762D01*
X231355961Y-92910225D01*
X231355961Y-92910224D01*
X231358284Y-92905243D01*
X231417543Y-92684087D01*
X231437498Y-92456000D01*
X231417543Y-92227913D01*
X231358284Y-92006757D01*
X231355961Y-92001775D01*
X231263849Y-91804238D01*
X231263846Y-91804233D01*
X231261523Y-91799251D01*
X231166038Y-91662885D01*
X231133357Y-91616211D01*
X231133355Y-91616208D01*
X231130198Y-91611700D01*
X230968300Y-91449802D01*
X230963792Y-91446645D01*
X230963789Y-91446643D01*
X230883308Y-91390290D01*
X230780749Y-91318477D01*
X230775767Y-91316154D01*
X230775762Y-91316151D01*
X230741543Y-91300195D01*
X230688258Y-91253278D01*
X230668797Y-91185001D01*
X230689339Y-91117041D01*
X230741543Y-91071805D01*
X230775762Y-91055849D01*
X230775767Y-91055846D01*
X230780749Y-91053523D01*
X230912927Y-90960971D01*
X230963789Y-90925357D01*
X230963792Y-90925355D01*
X230968300Y-90922198D01*
X231130198Y-90760300D01*
X231172104Y-90700453D01*
X231235610Y-90609756D01*
X231261523Y-90572749D01*
X231263846Y-90567767D01*
X231263849Y-90567762D01*
X231355961Y-90370225D01*
X231355961Y-90370224D01*
X231358284Y-90365243D01*
X231364223Y-90343081D01*
X231416119Y-90149402D01*
X231416119Y-90149400D01*
X231417543Y-90144087D01*
X231437498Y-89916000D01*
X231417543Y-89687913D01*
X231398801Y-89617968D01*
X231359707Y-89472067D01*
X231359706Y-89472065D01*
X231358284Y-89466757D01*
X231284684Y-89308920D01*
X231263849Y-89264238D01*
X231263846Y-89264233D01*
X231261523Y-89259251D01*
X231130198Y-89071700D01*
X230968300Y-88909802D01*
X230963792Y-88906645D01*
X230963789Y-88906643D01*
X230883017Y-88850086D01*
X230780749Y-88778477D01*
X230775767Y-88776154D01*
X230775762Y-88776151D01*
X230741543Y-88760195D01*
X230688258Y-88713278D01*
X230668797Y-88645001D01*
X230689339Y-88577041D01*
X230741543Y-88531805D01*
X230775762Y-88515849D01*
X230775767Y-88515846D01*
X230780749Y-88513523D01*
X230926617Y-88411385D01*
X230963789Y-88385357D01*
X230963792Y-88385355D01*
X230968300Y-88382198D01*
X231130198Y-88220300D01*
X231261523Y-88032749D01*
X231263846Y-88027767D01*
X231263849Y-88027762D01*
X231355961Y-87830225D01*
X231355961Y-87830224D01*
X231358284Y-87825243D01*
X231417543Y-87604087D01*
X231437498Y-87376000D01*
X231417543Y-87147913D01*
X231358284Y-86926757D01*
X231320076Y-86844819D01*
X231263849Y-86724238D01*
X231263846Y-86724233D01*
X231261523Y-86719251D01*
X231130198Y-86531700D01*
X230968300Y-86369802D01*
X230963792Y-86366645D01*
X230963789Y-86366643D01*
X230885382Y-86311742D01*
X230780749Y-86238477D01*
X230775767Y-86236154D01*
X230775762Y-86236151D01*
X230578225Y-86144039D01*
X230578224Y-86144039D01*
X230573243Y-86141716D01*
X230567935Y-86140294D01*
X230567933Y-86140293D01*
X230357402Y-86083881D01*
X230357400Y-86083881D01*
X230352087Y-86082457D01*
X230124000Y-86062502D01*
X229895913Y-86082457D01*
X229890600Y-86083881D01*
X229890598Y-86083881D01*
X229680067Y-86140293D01*
X229680065Y-86140294D01*
X229674757Y-86141716D01*
X229669776Y-86144039D01*
X229669775Y-86144039D01*
X229472238Y-86236151D01*
X229472233Y-86236154D01*
X229467251Y-86238477D01*
X229362618Y-86311742D01*
X229284211Y-86366643D01*
X229284208Y-86366645D01*
X229279700Y-86369802D01*
X229117802Y-86531700D01*
X228986477Y-86719251D01*
X228984154Y-86724233D01*
X228984151Y-86724238D01*
X228927924Y-86844819D01*
X228889716Y-86926757D01*
X228830457Y-87147913D01*
X228810502Y-87376000D01*
X228830457Y-87604087D01*
X228889716Y-87825243D01*
X228892039Y-87830224D01*
X228892039Y-87830225D01*
X228984151Y-88027762D01*
X228984154Y-88027767D01*
X228986477Y-88032749D01*
X229117802Y-88220300D01*
X229279700Y-88382198D01*
X229284208Y-88385355D01*
X229284211Y-88385357D01*
X229321383Y-88411385D01*
X229467251Y-88513523D01*
X229472233Y-88515846D01*
X229472238Y-88515849D01*
X229506457Y-88531805D01*
X229559742Y-88578722D01*
X229579203Y-88646999D01*
X229558661Y-88714959D01*
X229506457Y-88760195D01*
X229472238Y-88776151D01*
X229472233Y-88776154D01*
X229467251Y-88778477D01*
X229364983Y-88850086D01*
X229284211Y-88906643D01*
X229284208Y-88906645D01*
X229279700Y-88909802D01*
X229117802Y-89071700D01*
X228986477Y-89259251D01*
X228984154Y-89264233D01*
X228984151Y-89264238D01*
X228963316Y-89308920D01*
X228889716Y-89466757D01*
X228888294Y-89472065D01*
X228888293Y-89472067D01*
X228849199Y-89617968D01*
X228830457Y-89687913D01*
X228810502Y-89916000D01*
X228830457Y-90144087D01*
X228831881Y-90149400D01*
X228831881Y-90149402D01*
X228883778Y-90343081D01*
X228889716Y-90365243D01*
X228892039Y-90370224D01*
X228892039Y-90370225D01*
X228984151Y-90567762D01*
X228984154Y-90567767D01*
X228986477Y-90572749D01*
X229012390Y-90609756D01*
X229075897Y-90700453D01*
X229117802Y-90760300D01*
X229279700Y-90922198D01*
X229284208Y-90925355D01*
X229284211Y-90925357D01*
X229335073Y-90960971D01*
X229467251Y-91053523D01*
X229472233Y-91055846D01*
X229472238Y-91055849D01*
X229506457Y-91071805D01*
X229559742Y-91118722D01*
X229579203Y-91186999D01*
X229558661Y-91254959D01*
X229506457Y-91300195D01*
X229472238Y-91316151D01*
X229472233Y-91316154D01*
X229467251Y-91318477D01*
X229364692Y-91390290D01*
X229284211Y-91446643D01*
X229284208Y-91446645D01*
X229279700Y-91449802D01*
X229117802Y-91611700D01*
X229114645Y-91616208D01*
X229114643Y-91616211D01*
X229081962Y-91662885D01*
X228986477Y-91799251D01*
X228984154Y-91804233D01*
X228984151Y-91804238D01*
X228892039Y-92001775D01*
X228889716Y-92006757D01*
X228830457Y-92227913D01*
X228810502Y-92456000D01*
X224266500Y-92456000D01*
X224266500Y-82764101D01*
X224286502Y-82695980D01*
X224340158Y-82649487D01*
X224398794Y-82638384D01*
X224399866Y-82638500D01*
X226196134Y-82638500D01*
X226258316Y-82631745D01*
X226394705Y-82580615D01*
X226511261Y-82493261D01*
X226598615Y-82376705D01*
X226649745Y-82240316D01*
X226656500Y-82178134D01*
X226656500Y-80381866D01*
X226649745Y-80319684D01*
X226598615Y-80183295D01*
X226511261Y-80066739D01*
X226394705Y-79979385D01*
X226329501Y-79954941D01*
X226276203Y-79934960D01*
X226219439Y-79892318D01*
X226194739Y-79825756D01*
X226209947Y-79756408D01*
X226231493Y-79727727D01*
X226332435Y-79627137D01*
X226336096Y-79623489D01*
X226466453Y-79442077D01*
X226565430Y-79241811D01*
X226630370Y-79028069D01*
X226659529Y-78806590D01*
X226661156Y-78740000D01*
X226642852Y-78517361D01*
X226588431Y-78300702D01*
X226499354Y-78095840D01*
X226378014Y-77908277D01*
X226227670Y-77743051D01*
X226223619Y-77739852D01*
X226223615Y-77739848D01*
X226056414Y-77607800D01*
X226056410Y-77607798D01*
X226052359Y-77604598D01*
X226011053Y-77581796D01*
X225961084Y-77531364D01*
X225946312Y-77461921D01*
X225971428Y-77395516D01*
X225998780Y-77368909D01*
X226063251Y-77322922D01*
X226177860Y-77241173D01*
X226336096Y-77083489D01*
X226466453Y-76902077D01*
X226565430Y-76701811D01*
X226630370Y-76488069D01*
X226659529Y-76266590D01*
X226661156Y-76200000D01*
X226642852Y-75977361D01*
X226588431Y-75760702D01*
X226499354Y-75555840D01*
X226378014Y-75368277D01*
X226227670Y-75203051D01*
X226223619Y-75199852D01*
X226223615Y-75199848D01*
X226056414Y-75067800D01*
X226056410Y-75067798D01*
X226052359Y-75064598D01*
X226011053Y-75041796D01*
X225961084Y-74991364D01*
X225946312Y-74921921D01*
X225971428Y-74855516D01*
X225998780Y-74828909D01*
X226063251Y-74782922D01*
X226177860Y-74701173D01*
X226336096Y-74543489D01*
X226343768Y-74532813D01*
X226463435Y-74366277D01*
X226466453Y-74362077D01*
X226503197Y-74287732D01*
X226563136Y-74166453D01*
X226563137Y-74166451D01*
X226565430Y-74161811D01*
X226630370Y-73948069D01*
X226659529Y-73726590D01*
X226661156Y-73660000D01*
X226642852Y-73437361D01*
X226588431Y-73220702D01*
X226499354Y-73015840D01*
X226378014Y-72828277D01*
X226227670Y-72663051D01*
X226223619Y-72659852D01*
X226223615Y-72659848D01*
X226056414Y-72527800D01*
X226056410Y-72527798D01*
X226052359Y-72524598D01*
X226011053Y-72501796D01*
X225961084Y-72451364D01*
X225946312Y-72381921D01*
X225971428Y-72315516D01*
X225998780Y-72288909D01*
X226063251Y-72242922D01*
X226177860Y-72161173D01*
X226336096Y-72003489D01*
X226347422Y-71987728D01*
X226463435Y-71826277D01*
X226466453Y-71822077D01*
X226511374Y-71731187D01*
X226563136Y-71626453D01*
X226563137Y-71626451D01*
X226565430Y-71621811D01*
X226630370Y-71408069D01*
X226659529Y-71186590D01*
X226661156Y-71120000D01*
X226642852Y-70897361D01*
X226588431Y-70680702D01*
X226499354Y-70475840D01*
X226378014Y-70288277D01*
X226227670Y-70123051D01*
X226223619Y-70119852D01*
X226223615Y-70119848D01*
X226056414Y-69987800D01*
X226056410Y-69987798D01*
X226052359Y-69984598D01*
X226011053Y-69961796D01*
X225961084Y-69911364D01*
X225946312Y-69841921D01*
X225971428Y-69775516D01*
X225998780Y-69748909D01*
X226064163Y-69702272D01*
X226177860Y-69621173D01*
X226336096Y-69463489D01*
X226466453Y-69282077D01*
X226565430Y-69081811D01*
X226630370Y-68868069D01*
X226659529Y-68646590D01*
X226661156Y-68580000D01*
X226642852Y-68357361D01*
X226588431Y-68140702D01*
X226499354Y-67935840D01*
X226378014Y-67748277D01*
X226227670Y-67583051D01*
X226223619Y-67579852D01*
X226223615Y-67579848D01*
X226056414Y-67447800D01*
X226056410Y-67447798D01*
X226052359Y-67444598D01*
X226011053Y-67421796D01*
X225961084Y-67371364D01*
X225946312Y-67301921D01*
X225971428Y-67235516D01*
X225998780Y-67208909D01*
X226063251Y-67162922D01*
X226177860Y-67081173D01*
X226336096Y-66923489D01*
X226466453Y-66742077D01*
X226471313Y-66732245D01*
X226563136Y-66546453D01*
X226563137Y-66546451D01*
X226565430Y-66541811D01*
X226630370Y-66328069D01*
X226659529Y-66106590D01*
X226661156Y-66040000D01*
X226642852Y-65817361D01*
X226588431Y-65600702D01*
X226499354Y-65395840D01*
X226378014Y-65208277D01*
X226227670Y-65043051D01*
X226223619Y-65039852D01*
X226223615Y-65039848D01*
X226056414Y-64907800D01*
X226056410Y-64907798D01*
X226052359Y-64904598D01*
X226011053Y-64881796D01*
X225961084Y-64831364D01*
X225946312Y-64761921D01*
X225971428Y-64695516D01*
X225998780Y-64668909D01*
X226063251Y-64622922D01*
X226177860Y-64541173D01*
X226336096Y-64383489D01*
X226466453Y-64202077D01*
X226527383Y-64078795D01*
X226563136Y-64006453D01*
X226563137Y-64006451D01*
X226565430Y-64001811D01*
X226606259Y-63867428D01*
X226628865Y-63793023D01*
X226628865Y-63793021D01*
X226630370Y-63788069D01*
X226659529Y-63566590D01*
X226659952Y-63549276D01*
X226661074Y-63503365D01*
X226661074Y-63503361D01*
X226661156Y-63500000D01*
X226642852Y-63277361D01*
X226615389Y-63168024D01*
X226618194Y-63097083D01*
X226648498Y-63048234D01*
X226704732Y-62992000D01*
X227922693Y-62992000D01*
X227941885Y-63211371D01*
X227998880Y-63424076D01*
X228001205Y-63429061D01*
X228089618Y-63618666D01*
X228089621Y-63618671D01*
X228091944Y-63623653D01*
X228095100Y-63628160D01*
X228095101Y-63628162D01*
X228173947Y-63740765D01*
X228218251Y-63804038D01*
X228373962Y-63959749D01*
X228554346Y-64086056D01*
X228753924Y-64179120D01*
X228966629Y-64236115D01*
X229186000Y-64255307D01*
X229405371Y-64236115D01*
X229618076Y-64179120D01*
X229817654Y-64086056D01*
X229998038Y-63959749D01*
X230153749Y-63804038D01*
X230198054Y-63740765D01*
X230276899Y-63628162D01*
X230276900Y-63628160D01*
X230280056Y-63623653D01*
X230282379Y-63618671D01*
X230282382Y-63618666D01*
X230370795Y-63429061D01*
X230373120Y-63424076D01*
X230430115Y-63211371D01*
X230449307Y-62992000D01*
X231322693Y-62992000D01*
X231341885Y-63211371D01*
X231398880Y-63424076D01*
X231401205Y-63429061D01*
X231489618Y-63618666D01*
X231489621Y-63618671D01*
X231491944Y-63623653D01*
X231495100Y-63628160D01*
X231495101Y-63628162D01*
X231573947Y-63740765D01*
X231618251Y-63804038D01*
X231773962Y-63959749D01*
X231954346Y-64086056D01*
X232153924Y-64179120D01*
X232366629Y-64236115D01*
X232586000Y-64255307D01*
X232805371Y-64236115D01*
X233018076Y-64179120D01*
X233217654Y-64086056D01*
X233398038Y-63959749D01*
X233553749Y-63804038D01*
X233598054Y-63740765D01*
X233676899Y-63628162D01*
X233676900Y-63628160D01*
X233680056Y-63623653D01*
X233682379Y-63618671D01*
X233682382Y-63618666D01*
X233770795Y-63429061D01*
X233773120Y-63424076D01*
X233830115Y-63211371D01*
X233849307Y-62992000D01*
X233830115Y-62772629D01*
X233773120Y-62559924D01*
X233729585Y-62466562D01*
X233682382Y-62365334D01*
X233682379Y-62365329D01*
X233680056Y-62360347D01*
X233676899Y-62355838D01*
X233556908Y-62184473D01*
X233556906Y-62184470D01*
X233553749Y-62179962D01*
X233398038Y-62024251D01*
X233365080Y-62001173D01*
X233308268Y-61961393D01*
X233217654Y-61897944D01*
X233018076Y-61804880D01*
X232805371Y-61747885D01*
X232586000Y-61728693D01*
X232366629Y-61747885D01*
X232153924Y-61804880D01*
X232063303Y-61847137D01*
X231959334Y-61895618D01*
X231959329Y-61895621D01*
X231954347Y-61897944D01*
X231949840Y-61901100D01*
X231949838Y-61901101D01*
X231778473Y-62021092D01*
X231778470Y-62021094D01*
X231773962Y-62024251D01*
X231618251Y-62179962D01*
X231615094Y-62184470D01*
X231615092Y-62184473D01*
X231495101Y-62355838D01*
X231491944Y-62360347D01*
X231489621Y-62365329D01*
X231489618Y-62365334D01*
X231442415Y-62466562D01*
X231398880Y-62559924D01*
X231341885Y-62772629D01*
X231322693Y-62992000D01*
X230449307Y-62992000D01*
X230430115Y-62772629D01*
X230373120Y-62559924D01*
X230329585Y-62466562D01*
X230282382Y-62365334D01*
X230282379Y-62365329D01*
X230280056Y-62360347D01*
X230276899Y-62355838D01*
X230156908Y-62184473D01*
X230156906Y-62184470D01*
X230153749Y-62179962D01*
X229998038Y-62024251D01*
X229965080Y-62001173D01*
X229908268Y-61961393D01*
X229817654Y-61897944D01*
X229618076Y-61804880D01*
X229405371Y-61747885D01*
X229186000Y-61728693D01*
X228966629Y-61747885D01*
X228753924Y-61804880D01*
X228663303Y-61847137D01*
X228559334Y-61895618D01*
X228559329Y-61895621D01*
X228554347Y-61897944D01*
X228549840Y-61901100D01*
X228549838Y-61901101D01*
X228378473Y-62021092D01*
X228378470Y-62021094D01*
X228373962Y-62024251D01*
X228218251Y-62179962D01*
X228215094Y-62184470D01*
X228215092Y-62184473D01*
X228095101Y-62355838D01*
X228091944Y-62360347D01*
X228089621Y-62365329D01*
X228089618Y-62365334D01*
X228042415Y-62466562D01*
X227998880Y-62559924D01*
X227941885Y-62772629D01*
X227922693Y-62992000D01*
X226704732Y-62992000D01*
X229579015Y-60117718D01*
X232549483Y-57147250D01*
X232557809Y-57139674D01*
X232564303Y-57135553D01*
X232611086Y-57085734D01*
X232613840Y-57082893D01*
X232633639Y-57063094D01*
X232636068Y-57059963D01*
X232636072Y-57059958D01*
X232636139Y-57059872D01*
X232643847Y-57050847D01*
X232668792Y-57024283D01*
X232674217Y-57018506D01*
X232678035Y-57011561D01*
X232678038Y-57011557D01*
X232684026Y-57000666D01*
X232694878Y-56984145D01*
X232696847Y-56981606D01*
X232707350Y-56968066D01*
X232724971Y-56927345D01*
X232730192Y-56916689D01*
X232747748Y-56884755D01*
X232747750Y-56884749D01*
X232751569Y-56877803D01*
X232753540Y-56870128D01*
X232753542Y-56870122D01*
X232756631Y-56858089D01*
X232763034Y-56839387D01*
X232771117Y-56820708D01*
X232774244Y-56800965D01*
X232804656Y-56736812D01*
X232864924Y-56699285D01*
X232885687Y-56695349D01*
X232899321Y-56693934D01*
X232925308Y-56691238D01*
X232925312Y-56691237D01*
X232932166Y-56690526D01*
X232938702Y-56688345D01*
X232938704Y-56688345D01*
X233092998Y-56636868D01*
X233099946Y-56634550D01*
X233250348Y-56541478D01*
X233375305Y-56416303D01*
X233439038Y-56312909D01*
X233464275Y-56271968D01*
X233464276Y-56271966D01*
X233468115Y-56265738D01*
X233523797Y-56097861D01*
X233534500Y-55993400D01*
X233534500Y-54202600D01*
X233534163Y-54199350D01*
X233524238Y-54103692D01*
X233524237Y-54103688D01*
X233523526Y-54096834D01*
X233519665Y-54085259D01*
X233469868Y-53936002D01*
X233467550Y-53929054D01*
X233374478Y-53778652D01*
X233249303Y-53653695D01*
X233215584Y-53632910D01*
X233104968Y-53564725D01*
X233104966Y-53564724D01*
X233098738Y-53560885D01*
X233018995Y-53534436D01*
X232937389Y-53507368D01*
X232937387Y-53507368D01*
X232930861Y-53505203D01*
X232924025Y-53504503D01*
X232924022Y-53504502D01*
X232880969Y-53500091D01*
X232826400Y-53494500D01*
X231485600Y-53494500D01*
X231482354Y-53494837D01*
X231482350Y-53494837D01*
X231386692Y-53504762D01*
X231386688Y-53504763D01*
X231379834Y-53505474D01*
X231373298Y-53507655D01*
X231373296Y-53507655D01*
X231241194Y-53551728D01*
X231212054Y-53561450D01*
X231061652Y-53654522D01*
X230936695Y-53779697D01*
X230843885Y-53930262D01*
X230841738Y-53928938D01*
X230802688Y-53973290D01*
X230734411Y-53992752D01*
X230666451Y-53972212D01*
X230644239Y-53953728D01*
X230536410Y-53840694D01*
X230536398Y-53840684D01*
X230532724Y-53836832D01*
X230429287Y-53759873D01*
X230386574Y-53703163D01*
X230378500Y-53658784D01*
X230378500Y-36897376D01*
X230379933Y-36878426D01*
X230382124Y-36864027D01*
X230382124Y-36864021D01*
X230383224Y-36856792D01*
X230382132Y-36843357D01*
X230378915Y-36803817D01*
X230378500Y-36793602D01*
X230378500Y-36785475D01*
X230375189Y-36757076D01*
X230374760Y-36752736D01*
X230373960Y-36742894D01*
X230368809Y-36679574D01*
X230366553Y-36672612D01*
X230365357Y-36666624D01*
X230363949Y-36660667D01*
X230363101Y-36653393D01*
X230360603Y-36646511D01*
X230360602Y-36646507D01*
X230338055Y-36584393D01*
X230336645Y-36580289D01*
X230314013Y-36510425D01*
X230310213Y-36504162D01*
X230307675Y-36498620D01*
X230304933Y-36493144D01*
X230302434Y-36486259D01*
X230283995Y-36458134D01*
X230262185Y-36424868D01*
X230259870Y-36421200D01*
X230221773Y-36358419D01*
X230214333Y-36349995D01*
X230214362Y-36349969D01*
X230211762Y-36347038D01*
X230208958Y-36343684D01*
X230204946Y-36337565D01*
X230148413Y-36284011D01*
X230145972Y-36281634D01*
X227408810Y-33544472D01*
X227396423Y-33530059D01*
X227387795Y-33518335D01*
X227383454Y-33512436D01*
X227373037Y-33503586D01*
X227364725Y-33496524D01*
X227325761Y-33437175D01*
X227325069Y-33366182D01*
X227362868Y-33306084D01*
X227427159Y-33275963D01*
X227446305Y-33274500D01*
X235078000Y-33274500D01*
X235146121Y-33294502D01*
X235192614Y-33348158D01*
X235204000Y-33400500D01*
X235204000Y-130938000D01*
X235183998Y-131006121D01*
X235130342Y-131052614D01*
X235078000Y-131064000D01*
X195452328Y-131064000D01*
X195384207Y-131043998D01*
X195337714Y-130990342D01*
X195326328Y-130937673D01*
X195343751Y-124230057D01*
X195344538Y-123926906D01*
X214140839Y-123926906D01*
X214149553Y-123938427D01*
X214256452Y-124016809D01*
X214264351Y-124021745D01*
X214493905Y-124142519D01*
X214502454Y-124146236D01*
X214747327Y-124231749D01*
X214756336Y-124234163D01*
X215011166Y-124282544D01*
X215020423Y-124283598D01*
X215279607Y-124293783D01*
X215288921Y-124293457D01*
X215546753Y-124265220D01*
X215555930Y-124263519D01*
X215806758Y-124197481D01*
X215815574Y-124194445D01*
X216053880Y-124092062D01*
X216062167Y-124087748D01*
X216282718Y-123951266D01*
X216290268Y-123945780D01*
X216295559Y-123941301D01*
X216303997Y-123928497D01*
X216297935Y-123918145D01*
X215233812Y-122854022D01*
X215219868Y-122846408D01*
X215218035Y-122846539D01*
X215211420Y-122850790D01*
X214147497Y-123914713D01*
X214140839Y-123926906D01*
X195344538Y-123926906D01*
X195348402Y-122439211D01*
X213408775Y-122439211D01*
X213421220Y-122698288D01*
X213422356Y-122707543D01*
X213472961Y-122961945D01*
X213475449Y-122970917D01*
X213563095Y-123215033D01*
X213566895Y-123223568D01*
X213689658Y-123452042D01*
X213694666Y-123459904D01*
X213764720Y-123553716D01*
X213775979Y-123562165D01*
X213788397Y-123555393D01*
X214848978Y-122494812D01*
X214855356Y-122483132D01*
X215585408Y-122483132D01*
X215585539Y-122484965D01*
X215589790Y-122491580D01*
X216657094Y-123558884D01*
X216669474Y-123565644D01*
X216677815Y-123559400D01*
X216811832Y-123351048D01*
X216816275Y-123342864D01*
X216922807Y-123106370D01*
X216925997Y-123097605D01*
X216942733Y-123038263D01*
X222772064Y-123038263D01*
X222808404Y-123275744D01*
X222830342Y-123342864D01*
X222881434Y-123499183D01*
X222881437Y-123499189D01*
X222883042Y-123504101D01*
X222993975Y-123717200D01*
X223138223Y-123909320D01*
X223311912Y-124075301D01*
X223510378Y-124210686D01*
X223515061Y-124212860D01*
X223515065Y-124212862D01*
X223723595Y-124309658D01*
X223723599Y-124309659D01*
X223728290Y-124311837D01*
X223959798Y-124376040D01*
X223964935Y-124376589D01*
X224152593Y-124396644D01*
X224152601Y-124396644D01*
X224155928Y-124397000D01*
X224390402Y-124397000D01*
X224392975Y-124396788D01*
X224392986Y-124396788D01*
X224493946Y-124388487D01*
X224568937Y-124382322D01*
X224801944Y-124323794D01*
X224940568Y-124263519D01*
X225017526Y-124230057D01*
X225017529Y-124230055D01*
X225022263Y-124227997D01*
X225223977Y-124097502D01*
X225401670Y-123935814D01*
X225462347Y-123858983D01*
X225547367Y-123751330D01*
X225547370Y-123751325D01*
X225550568Y-123747276D01*
X225564885Y-123721342D01*
X225664177Y-123541474D01*
X225664179Y-123541470D01*
X225666674Y-123536950D01*
X225746870Y-123310485D01*
X225752183Y-123280659D01*
X225788095Y-123079052D01*
X225788096Y-123079046D01*
X225789001Y-123073963D01*
X225791936Y-122833737D01*
X225755596Y-122596256D01*
X225717222Y-122478851D01*
X225682566Y-122372817D01*
X225682563Y-122372811D01*
X225680958Y-122367899D01*
X225570025Y-122154800D01*
X225425777Y-121962680D01*
X225252088Y-121796699D01*
X225214649Y-121771160D01*
X225169648Y-121716249D01*
X225161477Y-121645725D01*
X225192731Y-121581978D01*
X225217210Y-121561284D01*
X225219326Y-121559915D01*
X225227498Y-121553622D01*
X225397480Y-121398950D01*
X225404506Y-121391417D01*
X225546945Y-121211056D01*
X225552650Y-121202469D01*
X225663714Y-121001278D01*
X225667944Y-120991866D01*
X225744659Y-120775232D01*
X225747293Y-120765261D01*
X225764647Y-120667837D01*
X225763187Y-120654540D01*
X225748630Y-120650000D01*
X222813904Y-120650000D01*
X222800560Y-120653918D01*
X222798573Y-120668194D01*
X222808110Y-120730515D01*
X222810499Y-120740543D01*
X222881898Y-120958988D01*
X222885895Y-120968497D01*
X222992011Y-121172344D01*
X222997505Y-121181069D01*
X223135493Y-121364852D01*
X223142336Y-121372559D01*
X223308491Y-121531339D01*
X223316498Y-121537823D01*
X223349356Y-121560237D01*
X223394359Y-121615148D01*
X223402532Y-121685672D01*
X223371278Y-121749420D01*
X223346796Y-121770116D01*
X223345181Y-121771161D01*
X223340023Y-121774498D01*
X223162330Y-121936186D01*
X223138141Y-121966815D01*
X223016633Y-122120670D01*
X223016630Y-122120675D01*
X223013432Y-122124724D01*
X223010939Y-122129240D01*
X223010937Y-122129243D01*
X222966657Y-122209457D01*
X222897326Y-122335050D01*
X222895602Y-122339919D01*
X222895600Y-122339923D01*
X222844887Y-122483132D01*
X222817130Y-122561515D01*
X222816223Y-122566608D01*
X222816222Y-122566611D01*
X222810942Y-122596256D01*
X222774999Y-122798037D01*
X222772064Y-123038263D01*
X216942733Y-123038263D01*
X216996402Y-122847972D01*
X216998262Y-122838830D01*
X217031187Y-122580019D01*
X217031668Y-122573733D01*
X217033987Y-122485160D01*
X217033836Y-122478851D01*
X217014501Y-122218663D01*
X217013125Y-122209457D01*
X216955878Y-121956467D01*
X216953154Y-121947556D01*
X216859143Y-121705806D01*
X216855132Y-121697397D01*
X216726422Y-121472202D01*
X216721211Y-121464476D01*
X216677996Y-121409658D01*
X216666071Y-121401187D01*
X216654537Y-121407673D01*
X215593022Y-122469188D01*
X215585408Y-122483132D01*
X214855356Y-122483132D01*
X214856592Y-122480868D01*
X214856461Y-122479035D01*
X214852210Y-122472420D01*
X213786816Y-121407026D01*
X213773507Y-121399758D01*
X213763472Y-121406878D01*
X213747937Y-121425556D01*
X213742531Y-121433135D01*
X213607965Y-121654891D01*
X213603736Y-121663192D01*
X213503432Y-121902389D01*
X213500471Y-121911239D01*
X213436628Y-122162625D01*
X213435006Y-122171822D01*
X213409020Y-122429885D01*
X213408775Y-122439211D01*
X195348402Y-122439211D01*
X195352050Y-121034689D01*
X214138102Y-121034689D01*
X214142675Y-121044465D01*
X215208188Y-122109978D01*
X215222132Y-122117592D01*
X215223965Y-122117461D01*
X215230580Y-122113210D01*
X216295349Y-121048441D01*
X216301733Y-121036751D01*
X216292321Y-121024641D01*
X216145045Y-120922471D01*
X216137010Y-120917738D01*
X215904376Y-120803016D01*
X215895743Y-120799528D01*
X215648703Y-120720450D01*
X215639643Y-120718274D01*
X215383630Y-120676580D01*
X215374343Y-120675768D01*
X215114992Y-120672373D01*
X215105681Y-120672943D01*
X214848682Y-120707919D01*
X214839546Y-120709860D01*
X214590543Y-120782439D01*
X214581800Y-120785707D01*
X214346252Y-120894296D01*
X214338097Y-120898816D01*
X214147240Y-121023947D01*
X214138102Y-121034689D01*
X195352050Y-121034689D01*
X195356207Y-119434526D01*
X218108050Y-119434526D01*
X218108274Y-119439192D01*
X218108274Y-119439197D01*
X218110179Y-119478851D01*
X218120947Y-119703019D01*
X218173388Y-119966656D01*
X218264220Y-120219646D01*
X218391450Y-120456431D01*
X218394241Y-120460168D01*
X218394245Y-120460175D01*
X218475887Y-120569506D01*
X218552281Y-120671810D01*
X218555590Y-120675090D01*
X218555595Y-120675096D01*
X218684637Y-120803016D01*
X218743180Y-120861050D01*
X218746942Y-120863808D01*
X218746945Y-120863811D01*
X218859299Y-120946192D01*
X218959954Y-121019995D01*
X218964089Y-121022171D01*
X218964093Y-121022173D01*
X219193698Y-121142975D01*
X219197840Y-121145154D01*
X219451613Y-121233775D01*
X219456206Y-121234647D01*
X219711109Y-121283042D01*
X219711112Y-121283042D01*
X219715698Y-121283913D01*
X219843370Y-121288929D01*
X219979625Y-121294283D01*
X219979630Y-121294283D01*
X219984293Y-121294466D01*
X220088607Y-121283042D01*
X220246844Y-121265713D01*
X220246850Y-121265712D01*
X220251497Y-121265203D01*
X220256021Y-121264012D01*
X220506918Y-121197956D01*
X220506920Y-121197955D01*
X220511441Y-121196765D01*
X220515738Y-121194919D01*
X220754120Y-121092502D01*
X220754122Y-121092501D01*
X220758414Y-121090657D01*
X220955823Y-120968497D01*
X220983017Y-120951669D01*
X220983021Y-120951666D01*
X220986990Y-120949210D01*
X221192149Y-120775530D01*
X221369382Y-120573434D01*
X221514797Y-120347361D01*
X221625199Y-120102278D01*
X221662209Y-119971051D01*
X221696893Y-119848072D01*
X221696894Y-119848069D01*
X221698163Y-119843568D01*
X221716043Y-119703019D01*
X221731688Y-119580045D01*
X221731688Y-119580041D01*
X221732086Y-119576915D01*
X221734571Y-119482000D01*
X221714650Y-119213937D01*
X221713619Y-119209379D01*
X221656361Y-118956331D01*
X221656360Y-118956326D01*
X221655327Y-118951763D01*
X221618333Y-118856634D01*
X222773500Y-118856634D01*
X222780255Y-118918816D01*
X222831385Y-119055205D01*
X222918739Y-119171761D01*
X223035295Y-119259115D01*
X223054368Y-119266265D01*
X223055683Y-119266758D01*
X223112447Y-119309401D01*
X223137146Y-119375962D01*
X223121938Y-119445311D01*
X223110334Y-119462832D01*
X223017055Y-119580944D01*
X223011350Y-119589531D01*
X222900286Y-119790722D01*
X222896056Y-119800134D01*
X222819341Y-120016768D01*
X222816707Y-120026739D01*
X222799353Y-120124163D01*
X222800813Y-120137460D01*
X222815370Y-120142000D01*
X225750096Y-120142000D01*
X225763440Y-120138082D01*
X225765427Y-120123806D01*
X225755890Y-120061485D01*
X225753501Y-120051457D01*
X225682102Y-119833012D01*
X225678105Y-119823503D01*
X225571989Y-119619656D01*
X225566500Y-119610939D01*
X225453098Y-119459901D01*
X225428193Y-119393416D01*
X225443186Y-119324020D01*
X225493316Y-119273747D01*
X225509625Y-119266268D01*
X225528705Y-119259115D01*
X225645261Y-119171761D01*
X225732615Y-119055205D01*
X225783745Y-118918816D01*
X225790500Y-118856634D01*
X225790500Y-116855366D01*
X225783745Y-116793184D01*
X225732615Y-116656795D01*
X225645261Y-116540239D01*
X225528705Y-116452885D01*
X225392316Y-116401755D01*
X225330134Y-116395000D01*
X223233866Y-116395000D01*
X223171684Y-116401755D01*
X223035295Y-116452885D01*
X222918739Y-116540239D01*
X222831385Y-116656795D01*
X222780255Y-116793184D01*
X222773500Y-116855366D01*
X222773500Y-118856634D01*
X221618333Y-118856634D01*
X221557902Y-118701238D01*
X221424518Y-118467864D01*
X221258105Y-118256769D01*
X221062317Y-118072591D01*
X220841457Y-117919374D01*
X220837264Y-117917306D01*
X220604564Y-117802551D01*
X220604561Y-117802550D01*
X220600376Y-117800486D01*
X220552745Y-117785239D01*
X220498621Y-117767914D01*
X220344370Y-117718538D01*
X220339763Y-117717788D01*
X220339760Y-117717787D01*
X220083674Y-117676081D01*
X220083675Y-117676081D01*
X220079063Y-117675330D01*
X219948719Y-117673624D01*
X219814961Y-117671873D01*
X219814958Y-117671873D01*
X219810284Y-117671812D01*
X219543937Y-117708060D01*
X219285874Y-117783278D01*
X219041763Y-117895815D01*
X219037854Y-117898378D01*
X218820881Y-118040631D01*
X218820876Y-118040635D01*
X218816968Y-118043197D01*
X218616426Y-118222188D01*
X218444544Y-118428854D01*
X218305096Y-118658656D01*
X218201148Y-118906545D01*
X218134981Y-119167077D01*
X218108050Y-119434526D01*
X195356207Y-119434526D01*
X195360374Y-117830134D01*
X213412500Y-117830134D01*
X213419255Y-117892316D01*
X213470385Y-118028705D01*
X213557739Y-118145261D01*
X213674295Y-118232615D01*
X213810684Y-118283745D01*
X213872866Y-118290500D01*
X216569134Y-118290500D01*
X216631316Y-118283745D01*
X216767705Y-118232615D01*
X216884261Y-118145261D01*
X216971615Y-118028705D01*
X217022745Y-117892316D01*
X217029500Y-117830134D01*
X217029500Y-115133866D01*
X217022745Y-115071684D01*
X216971615Y-114935295D01*
X216884261Y-114818739D01*
X216767705Y-114731385D01*
X216631316Y-114680255D01*
X216569134Y-114673500D01*
X213872866Y-114673500D01*
X213810684Y-114680255D01*
X213674295Y-114731385D01*
X213557739Y-114818739D01*
X213470385Y-114935295D01*
X213419255Y-115071684D01*
X213412500Y-115133866D01*
X213412500Y-117830134D01*
X195360374Y-117830134D01*
X195386461Y-107786362D01*
X195429016Y-91402670D01*
X198474408Y-91402670D01*
X198480135Y-91410320D01*
X198651290Y-91515205D01*
X198660085Y-91519687D01*
X198870236Y-91606734D01*
X198879621Y-91609783D01*
X199100802Y-91662885D01*
X199110549Y-91664428D01*
X199337318Y-91682275D01*
X199347178Y-91682275D01*
X199573947Y-91664428D01*
X199583694Y-91662885D01*
X199804875Y-91609783D01*
X199814260Y-91606734D01*
X200024411Y-91519687D01*
X200033206Y-91515205D01*
X200200693Y-91412568D01*
X200210155Y-91402110D01*
X200206372Y-91393334D01*
X199355060Y-90542022D01*
X199341116Y-90534408D01*
X199339283Y-90534539D01*
X199332668Y-90538790D01*
X198481168Y-91390290D01*
X198474408Y-91402670D01*
X195429016Y-91402670D01*
X195432205Y-90174930D01*
X197829973Y-90174930D01*
X197847820Y-90401699D01*
X197849363Y-90411446D01*
X197902465Y-90632627D01*
X197905514Y-90642012D01*
X197992561Y-90852163D01*
X197997043Y-90860958D01*
X198099680Y-91028445D01*
X198110138Y-91037907D01*
X198118914Y-91034124D01*
X198970226Y-90182812D01*
X198976604Y-90171132D01*
X199706656Y-90171132D01*
X199706787Y-90172965D01*
X199711038Y-90179580D01*
X200562538Y-91031080D01*
X200574918Y-91037840D01*
X200582568Y-91032113D01*
X200687453Y-90860958D01*
X200691935Y-90852163D01*
X200778982Y-90642012D01*
X200782031Y-90632627D01*
X200835133Y-90411446D01*
X200836676Y-90401699D01*
X200854523Y-90174930D01*
X200854523Y-90165070D01*
X200836676Y-89938301D01*
X200835133Y-89928554D01*
X200782031Y-89707373D01*
X200778982Y-89697988D01*
X200691935Y-89487837D01*
X200687453Y-89479042D01*
X200584816Y-89311555D01*
X200574358Y-89302093D01*
X200565582Y-89305876D01*
X199714270Y-90157188D01*
X199706656Y-90171132D01*
X198976604Y-90171132D01*
X198977840Y-90168868D01*
X198977709Y-90167035D01*
X198973458Y-90160420D01*
X198121958Y-89308920D01*
X198109578Y-89302160D01*
X198101928Y-89307887D01*
X197997043Y-89479042D01*
X197992561Y-89487837D01*
X197905514Y-89697988D01*
X197902465Y-89707373D01*
X197849363Y-89928554D01*
X197847820Y-89938301D01*
X197829973Y-90165070D01*
X197829973Y-90174930D01*
X195432205Y-90174930D01*
X195435418Y-88937890D01*
X198474341Y-88937890D01*
X198478124Y-88946666D01*
X199329436Y-89797978D01*
X199343380Y-89805592D01*
X199345213Y-89805461D01*
X199351828Y-89801210D01*
X200203328Y-88949710D01*
X200210088Y-88937330D01*
X200204361Y-88929680D01*
X200033206Y-88824795D01*
X200024411Y-88820313D01*
X199814260Y-88733266D01*
X199804875Y-88730217D01*
X199583694Y-88677115D01*
X199573947Y-88675572D01*
X199347178Y-88657725D01*
X199337318Y-88657725D01*
X199110549Y-88675572D01*
X199100802Y-88677115D01*
X198879621Y-88730217D01*
X198870236Y-88733266D01*
X198660085Y-88820313D01*
X198651290Y-88824795D01*
X198483803Y-88927432D01*
X198474341Y-88937890D01*
X195435418Y-88937890D01*
X195503205Y-62840263D01*
X197809064Y-62840263D01*
X197845404Y-63077744D01*
X197874912Y-63168024D01*
X197918434Y-63301183D01*
X197918437Y-63301189D01*
X197920042Y-63306101D01*
X197922429Y-63310687D01*
X197922431Y-63310691D01*
X197981456Y-63424076D01*
X198030975Y-63519200D01*
X198147415Y-63674283D01*
X198172320Y-63740765D01*
X198157328Y-63810161D01*
X198107198Y-63860435D01*
X198090885Y-63867915D01*
X198080707Y-63871731D01*
X198080704Y-63871733D01*
X198072295Y-63874885D01*
X197955739Y-63962239D01*
X197868385Y-64078795D01*
X197817255Y-64215184D01*
X197810500Y-64277366D01*
X197810500Y-66278634D01*
X197817255Y-66340816D01*
X197868385Y-66477205D01*
X197955739Y-66593761D01*
X198072295Y-66681115D01*
X198208684Y-66732245D01*
X198270866Y-66739000D01*
X200367134Y-66739000D01*
X200429316Y-66732245D01*
X200565705Y-66681115D01*
X200682261Y-66593761D01*
X200769615Y-66477205D01*
X200820745Y-66340816D01*
X200827500Y-66278634D01*
X200827500Y-64277366D01*
X200820745Y-64215184D01*
X200769615Y-64078795D01*
X200682261Y-63962239D01*
X200565705Y-63874885D01*
X200545811Y-63867427D01*
X200489047Y-63824787D01*
X200464346Y-63758226D01*
X200479553Y-63688877D01*
X200491158Y-63671353D01*
X200584367Y-63553330D01*
X200584370Y-63553325D01*
X200587568Y-63549276D01*
X200601885Y-63523342D01*
X200701177Y-63343474D01*
X200701179Y-63343470D01*
X200703674Y-63338950D01*
X200723657Y-63282522D01*
X200782144Y-63117360D01*
X200782145Y-63117356D01*
X200783870Y-63112485D01*
X200784778Y-63107389D01*
X200825095Y-62881052D01*
X200825096Y-62881046D01*
X200826001Y-62875963D01*
X200827197Y-62778106D01*
X200828873Y-62640907D01*
X200828873Y-62640905D01*
X200828936Y-62635737D01*
X200792596Y-62398256D01*
X200755906Y-62286003D01*
X200719566Y-62174817D01*
X200719563Y-62174811D01*
X200717958Y-62169899D01*
X200708143Y-62151043D01*
X200609416Y-61961393D01*
X200607025Y-61956800D01*
X200521949Y-61843489D01*
X200465882Y-61768815D01*
X200465880Y-61768812D01*
X200462777Y-61764680D01*
X200289088Y-61598699D01*
X200251649Y-61573160D01*
X200206648Y-61518249D01*
X200198477Y-61447725D01*
X200229731Y-61383978D01*
X200254210Y-61363284D01*
X200256326Y-61361915D01*
X200264498Y-61355622D01*
X200434480Y-61200950D01*
X200441506Y-61193417D01*
X200583945Y-61013056D01*
X200589650Y-61004469D01*
X200700714Y-60803278D01*
X200704944Y-60793866D01*
X200781659Y-60577232D01*
X200784293Y-60567261D01*
X200801647Y-60469837D01*
X200800187Y-60456540D01*
X200785630Y-60452000D01*
X197850904Y-60452000D01*
X197837560Y-60455918D01*
X197835573Y-60470194D01*
X197845110Y-60532515D01*
X197847499Y-60542543D01*
X197918898Y-60760988D01*
X197922895Y-60770497D01*
X198029011Y-60974344D01*
X198034505Y-60983069D01*
X198172493Y-61166852D01*
X198179336Y-61174559D01*
X198345491Y-61333339D01*
X198353498Y-61339823D01*
X198386356Y-61362237D01*
X198431359Y-61417148D01*
X198439532Y-61487672D01*
X198408278Y-61551420D01*
X198383796Y-61572116D01*
X198382181Y-61573161D01*
X198377023Y-61576498D01*
X198199330Y-61738186D01*
X198175141Y-61768815D01*
X198053633Y-61922670D01*
X198053630Y-61922675D01*
X198050432Y-61926724D01*
X198047939Y-61931240D01*
X198047937Y-61931243D01*
X197964206Y-62082922D01*
X197934326Y-62137050D01*
X197932602Y-62141919D01*
X197932600Y-62141923D01*
X197855856Y-62358640D01*
X197854130Y-62363515D01*
X197853223Y-62368608D01*
X197853222Y-62368611D01*
X197828595Y-62506870D01*
X197811999Y-62600037D01*
X197809064Y-62840263D01*
X195503205Y-62840263D01*
X195510774Y-59926163D01*
X197836353Y-59926163D01*
X197837813Y-59939460D01*
X197852370Y-59944000D01*
X199046885Y-59944000D01*
X199062124Y-59939525D01*
X199063329Y-59938135D01*
X199065000Y-59930452D01*
X199065000Y-59925885D01*
X199573000Y-59925885D01*
X199577475Y-59941124D01*
X199578865Y-59942329D01*
X199586548Y-59944000D01*
X200787096Y-59944000D01*
X200800440Y-59940082D01*
X200802427Y-59925806D01*
X200792890Y-59863485D01*
X200790501Y-59853457D01*
X200719102Y-59635012D01*
X200715105Y-59625503D01*
X200608989Y-59421656D01*
X200603495Y-59412931D01*
X200465507Y-59229148D01*
X200458664Y-59221441D01*
X200292509Y-59062661D01*
X200284499Y-59056174D01*
X200094653Y-58926670D01*
X200085679Y-58921571D01*
X199877231Y-58824813D01*
X199867544Y-58821250D01*
X199646092Y-58759835D01*
X199635970Y-58757904D01*
X199591013Y-58753099D01*
X199576392Y-58755747D01*
X199573000Y-58768124D01*
X199573000Y-59925885D01*
X199065000Y-59925885D01*
X199065000Y-58767588D01*
X199060675Y-58752859D01*
X199048889Y-58750798D01*
X199037296Y-58751751D01*
X199027134Y-58753433D01*
X198804229Y-58809422D01*
X198794481Y-58812741D01*
X198583711Y-58904385D01*
X198574636Y-58909251D01*
X198381673Y-59034085D01*
X198373502Y-59040378D01*
X198203520Y-59195050D01*
X198196494Y-59202583D01*
X198054055Y-59382944D01*
X198048350Y-59391531D01*
X197937286Y-59592722D01*
X197933056Y-59602134D01*
X197856341Y-59818768D01*
X197853707Y-59828739D01*
X197836353Y-59926163D01*
X195510774Y-59926163D01*
X195579673Y-33400173D01*
X195599852Y-33332104D01*
X195653629Y-33285751D01*
X195705673Y-33274500D01*
X204864106Y-33274500D01*
X204932227Y-33294502D01*
G37*
G04 #@! TD.AperFunction*
G04 #@! TA.AperFunction,Conductor*
G36*
X221433101Y-88613403D02*
G01*
X221449579Y-88620940D01*
X221450113Y-88621232D01*
X221457295Y-88626615D01*
X221465696Y-88629764D01*
X221465697Y-88629765D01*
X221509004Y-88646000D01*
X221593684Y-88677745D01*
X221604474Y-88678917D01*
X221606606Y-88679803D01*
X221609222Y-88680425D01*
X221609121Y-88680848D01*
X221670035Y-88706155D01*
X221710463Y-88764517D01*
X221712922Y-88835471D01*
X221676629Y-88896490D01*
X221667969Y-88903489D01*
X221664207Y-88906646D01*
X221659700Y-88909802D01*
X221497802Y-89071700D01*
X221366477Y-89259251D01*
X221364154Y-89264233D01*
X221364151Y-89264238D01*
X221343316Y-89308920D01*
X221269716Y-89466757D01*
X221268294Y-89472065D01*
X221268293Y-89472067D01*
X221229199Y-89617968D01*
X221210457Y-89687913D01*
X221190502Y-89916000D01*
X221210457Y-90144087D01*
X221211881Y-90149400D01*
X221211881Y-90149402D01*
X221263778Y-90343081D01*
X221269716Y-90365243D01*
X221272039Y-90370224D01*
X221272039Y-90370225D01*
X221364151Y-90567762D01*
X221364154Y-90567767D01*
X221366477Y-90572749D01*
X221392390Y-90609756D01*
X221455897Y-90700453D01*
X221497802Y-90760300D01*
X221659700Y-90922198D01*
X221664208Y-90925355D01*
X221664211Y-90925357D01*
X221715073Y-90960971D01*
X221847251Y-91053523D01*
X221852233Y-91055846D01*
X221852238Y-91055849D01*
X221886457Y-91071805D01*
X221939742Y-91118722D01*
X221959203Y-91186999D01*
X221938661Y-91254959D01*
X221886457Y-91300195D01*
X221852238Y-91316151D01*
X221852233Y-91316154D01*
X221847251Y-91318477D01*
X221744692Y-91390290D01*
X221664211Y-91446643D01*
X221664208Y-91446645D01*
X221659700Y-91449802D01*
X221497802Y-91611700D01*
X221494645Y-91616208D01*
X221494643Y-91616211D01*
X221461962Y-91662885D01*
X221366477Y-91799251D01*
X221364154Y-91804233D01*
X221364151Y-91804238D01*
X221272039Y-92001775D01*
X221269716Y-92006757D01*
X221210457Y-92227913D01*
X221190502Y-92456000D01*
X221210457Y-92684087D01*
X221269716Y-92905243D01*
X221272039Y-92910224D01*
X221272039Y-92910225D01*
X221364151Y-93107762D01*
X221364154Y-93107767D01*
X221366477Y-93112749D01*
X221497802Y-93300300D01*
X221659700Y-93462198D01*
X221664208Y-93465355D01*
X221664211Y-93465357D01*
X221742389Y-93520098D01*
X221847251Y-93593523D01*
X221852233Y-93595846D01*
X221852238Y-93595849D01*
X221887049Y-93612081D01*
X221940334Y-93658998D01*
X221959795Y-93727275D01*
X221939253Y-93795235D01*
X221887049Y-93840471D01*
X221852489Y-93856586D01*
X221842993Y-93862069D01*
X221664533Y-93987028D01*
X221656125Y-93994084D01*
X221502084Y-94148125D01*
X221495028Y-94156533D01*
X221370069Y-94334993D01*
X221364586Y-94344489D01*
X221272510Y-94541947D01*
X221268764Y-94552239D01*
X221222606Y-94724503D01*
X221222942Y-94738599D01*
X221230884Y-94742000D01*
X222632000Y-94742000D01*
X222700121Y-94762002D01*
X222746614Y-94815658D01*
X222758000Y-94868000D01*
X222758000Y-97664000D01*
X222737998Y-97732121D01*
X222684342Y-97778614D01*
X222632000Y-97790000D01*
X221236033Y-97790000D01*
X221222502Y-97793973D01*
X221221273Y-97802522D01*
X221268764Y-97979761D01*
X221272510Y-97990053D01*
X221364586Y-98187511D01*
X221370069Y-98197007D01*
X221495028Y-98375467D01*
X221502084Y-98383875D01*
X221656125Y-98537916D01*
X221664533Y-98544972D01*
X221842993Y-98669931D01*
X221852489Y-98675414D01*
X221887049Y-98691529D01*
X221940334Y-98738446D01*
X221959795Y-98806723D01*
X221939253Y-98874683D01*
X221887049Y-98919919D01*
X221852238Y-98936151D01*
X221852233Y-98936154D01*
X221847251Y-98938477D01*
X221742389Y-99011902D01*
X221664211Y-99066643D01*
X221664208Y-99066645D01*
X221659700Y-99069802D01*
X221497802Y-99231700D01*
X221366477Y-99419251D01*
X221364154Y-99424233D01*
X221364151Y-99424238D01*
X221279472Y-99605835D01*
X221269716Y-99626757D01*
X221268294Y-99632065D01*
X221268293Y-99632067D01*
X221233949Y-99760240D01*
X221210457Y-99847913D01*
X221190502Y-100076000D01*
X221210457Y-100304087D01*
X221211881Y-100309400D01*
X221211881Y-100309402D01*
X221214835Y-100320424D01*
X221269716Y-100525243D01*
X221272039Y-100530224D01*
X221272039Y-100530225D01*
X221364151Y-100727762D01*
X221364154Y-100727767D01*
X221366477Y-100732749D01*
X221405348Y-100788262D01*
X221486685Y-100904423D01*
X221497802Y-100920300D01*
X221659700Y-101082198D01*
X221664208Y-101085355D01*
X221664211Y-101085357D01*
X221742389Y-101140098D01*
X221847251Y-101213523D01*
X221852233Y-101215846D01*
X221852238Y-101215849D01*
X221886457Y-101231805D01*
X221939742Y-101278722D01*
X221959203Y-101346999D01*
X221938661Y-101414959D01*
X221886457Y-101460195D01*
X221852238Y-101476151D01*
X221852233Y-101476154D01*
X221847251Y-101478477D01*
X221781108Y-101524791D01*
X221664211Y-101606643D01*
X221664208Y-101606645D01*
X221659700Y-101609802D01*
X221497802Y-101771700D01*
X221366477Y-101959251D01*
X221364154Y-101964233D01*
X221364151Y-101964238D01*
X221309885Y-102080614D01*
X221269716Y-102166757D01*
X221210457Y-102387913D01*
X221190502Y-102616000D01*
X221210457Y-102844087D01*
X221269716Y-103065243D01*
X221272039Y-103070224D01*
X221272039Y-103070225D01*
X221364151Y-103267762D01*
X221364154Y-103267767D01*
X221366477Y-103272749D01*
X221369634Y-103277257D01*
X221477488Y-103431288D01*
X221497802Y-103460300D01*
X221659700Y-103622198D01*
X221664208Y-103625355D01*
X221664211Y-103625357D01*
X221674468Y-103632539D01*
X221847251Y-103753523D01*
X221852233Y-103755846D01*
X221852238Y-103755849D01*
X221886457Y-103771805D01*
X221939742Y-103818722D01*
X221959203Y-103886999D01*
X221938661Y-103954959D01*
X221886457Y-104000195D01*
X221852238Y-104016151D01*
X221852233Y-104016154D01*
X221847251Y-104018477D01*
X221742389Y-104091902D01*
X221664211Y-104146643D01*
X221664208Y-104146645D01*
X221659700Y-104149802D01*
X221497802Y-104311700D01*
X221366477Y-104499251D01*
X221364154Y-104504233D01*
X221364151Y-104504238D01*
X221341234Y-104553385D01*
X221269716Y-104706757D01*
X221210457Y-104927913D01*
X221190502Y-105156000D01*
X221210457Y-105384087D01*
X221238539Y-105488888D01*
X221236849Y-105559865D01*
X221197055Y-105618661D01*
X221131791Y-105646609D01*
X221116832Y-105647500D01*
X208906028Y-105647500D01*
X208837907Y-105627498D01*
X208816933Y-105610595D01*
X206046683Y-102840345D01*
X206012657Y-102778033D01*
X206017722Y-102707218D01*
X206060269Y-102650382D01*
X206109904Y-102627935D01*
X206132175Y-102623262D01*
X206202951Y-102628849D01*
X206247144Y-102657482D01*
X206951190Y-103361528D01*
X206963577Y-103375941D01*
X206976546Y-103393564D01*
X206982129Y-103398307D01*
X207017055Y-103427979D01*
X207024571Y-103434909D01*
X207030315Y-103440653D01*
X207033189Y-103442927D01*
X207033196Y-103442933D01*
X207052711Y-103458372D01*
X207056115Y-103461163D01*
X207106472Y-103503945D01*
X207106476Y-103503948D01*
X207112051Y-103508684D01*
X207118568Y-103512012D01*
X207123632Y-103515389D01*
X207128856Y-103518616D01*
X207134600Y-103523160D01*
X207141231Y-103526259D01*
X207201082Y-103554232D01*
X207205033Y-103556163D01*
X207270404Y-103589543D01*
X207277519Y-103591284D01*
X207283265Y-103593421D01*
X207289048Y-103595345D01*
X207295679Y-103598444D01*
X207367557Y-103613394D01*
X207371829Y-103614361D01*
X207443112Y-103631804D01*
X207448711Y-103632151D01*
X207448715Y-103632152D01*
X207454330Y-103632500D01*
X207454328Y-103632539D01*
X207458229Y-103632772D01*
X207462588Y-103633161D01*
X207469756Y-103634652D01*
X207477073Y-103634454D01*
X207547577Y-103632546D01*
X207550986Y-103632500D01*
X215578624Y-103632500D01*
X215597574Y-103633933D01*
X215611973Y-103636124D01*
X215611979Y-103636124D01*
X215619208Y-103637224D01*
X215626500Y-103636631D01*
X215626503Y-103636631D01*
X215672183Y-103632915D01*
X215682398Y-103632500D01*
X215690525Y-103632500D01*
X215694161Y-103632076D01*
X215694163Y-103632076D01*
X215697615Y-103631673D01*
X215718924Y-103629189D01*
X215723244Y-103628762D01*
X215796426Y-103622809D01*
X215803388Y-103620553D01*
X215809376Y-103619357D01*
X215815333Y-103617949D01*
X215822607Y-103617101D01*
X215829489Y-103614603D01*
X215829493Y-103614602D01*
X215891607Y-103592055D01*
X215895711Y-103590645D01*
X215965575Y-103568013D01*
X215971838Y-103564213D01*
X215977380Y-103561675D01*
X215982856Y-103558933D01*
X215989741Y-103556434D01*
X216051132Y-103516185D01*
X216054800Y-103513870D01*
X216117581Y-103475773D01*
X216121786Y-103472059D01*
X216121789Y-103472057D01*
X216126005Y-103468333D01*
X216126031Y-103468362D01*
X216128962Y-103465762D01*
X216132316Y-103462958D01*
X216138435Y-103458946D01*
X216191989Y-103402413D01*
X216194366Y-103399972D01*
X218677528Y-100916810D01*
X218691941Y-100904423D01*
X218703665Y-100895795D01*
X218709564Y-100891454D01*
X218743979Y-100850945D01*
X218750909Y-100843429D01*
X218756653Y-100837685D01*
X218758927Y-100834811D01*
X218758933Y-100834804D01*
X218774372Y-100815289D01*
X218777163Y-100811885D01*
X218819945Y-100761528D01*
X218819948Y-100761524D01*
X218824684Y-100755949D01*
X218828011Y-100749434D01*
X218831392Y-100744364D01*
X218834617Y-100739142D01*
X218839160Y-100733400D01*
X218870246Y-100666888D01*
X218872152Y-100662988D01*
X218902213Y-100604117D01*
X218905543Y-100597596D01*
X218907284Y-100590479D01*
X218909411Y-100584761D01*
X218911342Y-100578955D01*
X218914443Y-100572321D01*
X218929391Y-100500461D01*
X218930359Y-100496181D01*
X218931420Y-100491848D01*
X218947804Y-100424888D01*
X218948500Y-100413670D01*
X218948539Y-100413672D01*
X218948772Y-100409771D01*
X218949161Y-100405412D01*
X218950652Y-100398244D01*
X218948546Y-100320424D01*
X218948500Y-100317015D01*
X218948500Y-95262522D01*
X221221273Y-95262522D01*
X221268764Y-95439761D01*
X221272510Y-95450053D01*
X221364586Y-95647511D01*
X221370069Y-95657007D01*
X221495028Y-95835467D01*
X221502084Y-95843875D01*
X221656125Y-95997916D01*
X221664533Y-96004972D01*
X221842993Y-96129931D01*
X221852489Y-96135414D01*
X221887641Y-96151805D01*
X221940926Y-96198722D01*
X221960387Y-96266999D01*
X221939845Y-96334959D01*
X221887641Y-96380195D01*
X221852489Y-96396586D01*
X221842993Y-96402069D01*
X221664533Y-96527028D01*
X221656125Y-96534084D01*
X221502084Y-96688125D01*
X221495028Y-96696533D01*
X221370069Y-96874993D01*
X221364586Y-96884489D01*
X221272510Y-97081947D01*
X221268764Y-97092239D01*
X221222606Y-97264503D01*
X221222942Y-97278599D01*
X221230884Y-97282000D01*
X222231885Y-97282000D01*
X222247124Y-97277525D01*
X222248329Y-97276135D01*
X222250000Y-97268452D01*
X222250000Y-95268115D01*
X222245525Y-95252876D01*
X222244135Y-95251671D01*
X222236452Y-95250000D01*
X221236033Y-95250000D01*
X221222502Y-95253973D01*
X221221273Y-95262522D01*
X218948500Y-95262522D01*
X218948500Y-91046028D01*
X218968502Y-90977907D01*
X218985405Y-90956933D01*
X221299974Y-88642364D01*
X221362286Y-88608338D01*
X221433101Y-88613403D01*
G37*
G04 #@! TD.AperFunction*
G04 #@! TA.AperFunction,Conductor*
G36*
X224024947Y-34818502D02*
G01*
X224071440Y-34872158D01*
X224081544Y-34942432D01*
X224071114Y-34977550D01*
X224021338Y-35084783D01*
X224017775Y-35094470D01*
X223962389Y-35294183D01*
X223963912Y-35302607D01*
X223976292Y-35306000D01*
X226616344Y-35306000D01*
X226629875Y-35302027D01*
X226631180Y-35292947D01*
X226618320Y-35241748D01*
X226621124Y-35170806D01*
X226661837Y-35112643D01*
X226727532Y-35085724D01*
X226797352Y-35098595D01*
X226829619Y-35121957D01*
X228816595Y-37108933D01*
X228850621Y-37171245D01*
X228853500Y-37198028D01*
X228853500Y-53653267D01*
X228833498Y-53721388D01*
X228802735Y-53754019D01*
X228800856Y-53755159D01*
X228624166Y-53908483D01*
X228475835Y-54089386D01*
X228360104Y-54292695D01*
X228280284Y-54512596D01*
X228238656Y-54742803D01*
X228238461Y-54746942D01*
X228238460Y-54746949D01*
X228237570Y-54765828D01*
X228237500Y-54767316D01*
X228237500Y-55381738D01*
X228252295Y-55556102D01*
X228253633Y-55561259D01*
X228253634Y-55561262D01*
X228278577Y-55657361D01*
X228311067Y-55782540D01*
X228313259Y-55787406D01*
X228313260Y-55787409D01*
X228354969Y-55880000D01*
X228407150Y-55995837D01*
X228537798Y-56189896D01*
X228541477Y-56193753D01*
X228541479Y-56193755D01*
X228570911Y-56224607D01*
X228699276Y-56359168D01*
X228886965Y-56498813D01*
X228891716Y-56501229D01*
X228891720Y-56501231D01*
X229058993Y-56586277D01*
X229095500Y-56604838D01*
X229318917Y-56674210D01*
X229324204Y-56674911D01*
X229324205Y-56674911D01*
X229545545Y-56704248D01*
X229545549Y-56704248D01*
X229550829Y-56704948D01*
X229556158Y-56704748D01*
X229556160Y-56704748D01*
X229667716Y-56700560D01*
X229784604Y-56696172D01*
X229923955Y-56666933D01*
X230008332Y-56649229D01*
X230008335Y-56649228D01*
X230013559Y-56648132D01*
X230231146Y-56562203D01*
X230340860Y-56495627D01*
X230426583Y-56443609D01*
X230426586Y-56443607D01*
X230431144Y-56440841D01*
X230607834Y-56287517D01*
X230638408Y-56250229D01*
X230697067Y-56210236D01*
X230768038Y-56208305D01*
X230828786Y-56245050D01*
X230843733Y-56267390D01*
X230844450Y-56266946D01*
X230937522Y-56417348D01*
X231062697Y-56542305D01*
X231068929Y-56546147D01*
X231068931Y-56546148D01*
X231109054Y-56570881D01*
X231156547Y-56623654D01*
X231167969Y-56693725D01*
X231139695Y-56758849D01*
X231132032Y-56767235D01*
X226874662Y-61024605D01*
X226812350Y-61058631D01*
X226741535Y-61053566D01*
X226684699Y-61011019D01*
X226659991Y-60945834D01*
X226643276Y-60742522D01*
X226642852Y-60737361D01*
X226588431Y-60520702D01*
X226499354Y-60315840D01*
X226378014Y-60128277D01*
X226227670Y-59963051D01*
X226223619Y-59959852D01*
X226223615Y-59959848D01*
X226056414Y-59827800D01*
X226056410Y-59827798D01*
X226052359Y-59824598D01*
X226011053Y-59801796D01*
X225961084Y-59751364D01*
X225946312Y-59681921D01*
X225971428Y-59615516D01*
X225998780Y-59588909D01*
X226063251Y-59542922D01*
X226177860Y-59461173D01*
X226336096Y-59303489D01*
X226466453Y-59122077D01*
X226565430Y-58921811D01*
X226630370Y-58708069D01*
X226659529Y-58486590D01*
X226661156Y-58420000D01*
X226642852Y-58197361D01*
X226588431Y-57980702D01*
X226499354Y-57775840D01*
X226378014Y-57588277D01*
X226227670Y-57423051D01*
X226223619Y-57419852D01*
X226223615Y-57419848D01*
X226056414Y-57287800D01*
X226056410Y-57287798D01*
X226052359Y-57284598D01*
X226011053Y-57261796D01*
X225961084Y-57211364D01*
X225946312Y-57141921D01*
X225971428Y-57075516D01*
X225998780Y-57048909D01*
X226066414Y-57000666D01*
X226177860Y-56921173D01*
X226214406Y-56884755D01*
X226316866Y-56782652D01*
X226336096Y-56763489D01*
X226378306Y-56704748D01*
X226463435Y-56586277D01*
X226466453Y-56582077D01*
X226471987Y-56570881D01*
X226563136Y-56386453D01*
X226563137Y-56386451D01*
X226565430Y-56381811D01*
X226602806Y-56258791D01*
X226628865Y-56173023D01*
X226628865Y-56173021D01*
X226630370Y-56168069D01*
X226659529Y-55946590D01*
X226661156Y-55880000D01*
X226642852Y-55657361D01*
X226588431Y-55440702D01*
X226499354Y-55235840D01*
X226378014Y-55048277D01*
X226227670Y-54883051D01*
X226223619Y-54879852D01*
X226223615Y-54879848D01*
X226056414Y-54747800D01*
X226056410Y-54747798D01*
X226052359Y-54744598D01*
X226010569Y-54721529D01*
X225960598Y-54671097D01*
X225945826Y-54601654D01*
X225970942Y-54535248D01*
X225998294Y-54508641D01*
X226173328Y-54383792D01*
X226181200Y-54377139D01*
X226332052Y-54226812D01*
X226338730Y-54218965D01*
X226463003Y-54046020D01*
X226468313Y-54037183D01*
X226562670Y-53846267D01*
X226566469Y-53836672D01*
X226628377Y-53632910D01*
X226630555Y-53622837D01*
X226631986Y-53611962D01*
X226629775Y-53597778D01*
X226616617Y-53594000D01*
X223981225Y-53594000D01*
X223967694Y-53597973D01*
X223966257Y-53607966D01*
X223996565Y-53742446D01*
X223999645Y-53752275D01*
X224079770Y-53949603D01*
X224084413Y-53958794D01*
X224195694Y-54140388D01*
X224201777Y-54148699D01*
X224341213Y-54309667D01*
X224348580Y-54316883D01*
X224512434Y-54452916D01*
X224520881Y-54458831D01*
X224589969Y-54499203D01*
X224638693Y-54550842D01*
X224651764Y-54620625D01*
X224625033Y-54686396D01*
X224584584Y-54719752D01*
X224571607Y-54726507D01*
X224567474Y-54729610D01*
X224567471Y-54729612D01*
X224397100Y-54857530D01*
X224392965Y-54860635D01*
X224238629Y-55022138D01*
X224112743Y-55206680D01*
X224097003Y-55240590D01*
X224030255Y-55384387D01*
X224018688Y-55409305D01*
X223958989Y-55624570D01*
X223935251Y-55846695D01*
X223935548Y-55851848D01*
X223935548Y-55851851D01*
X223941124Y-55948560D01*
X223948110Y-56069715D01*
X223949247Y-56074761D01*
X223949248Y-56074767D01*
X223963550Y-56138227D01*
X223978490Y-56204518D01*
X223980933Y-56215360D01*
X223976397Y-56286212D01*
X223947111Y-56332156D01*
X220586517Y-59692750D01*
X220578191Y-59700326D01*
X220571697Y-59704447D01*
X220566274Y-59710222D01*
X220524915Y-59754265D01*
X220522160Y-59757107D01*
X220502361Y-59776906D01*
X220499937Y-59780031D01*
X220499929Y-59780040D01*
X220499863Y-59780126D01*
X220492155Y-59789151D01*
X220461783Y-59821494D01*
X220457965Y-59828438D01*
X220457964Y-59828440D01*
X220451978Y-59839329D01*
X220441127Y-59855847D01*
X220428650Y-59871933D01*
X220411024Y-59912666D01*
X220405807Y-59923314D01*
X220384431Y-59962197D01*
X220382460Y-59969872D01*
X220382458Y-59969878D01*
X220379369Y-59981911D01*
X220372966Y-60000613D01*
X220364883Y-60019292D01*
X220363644Y-60027117D01*
X220357940Y-60063127D01*
X220355535Y-60074740D01*
X220344500Y-60117718D01*
X220344500Y-60138065D01*
X220342949Y-60157776D01*
X220339765Y-60177879D01*
X220340511Y-60185771D01*
X220343941Y-60222056D01*
X220344500Y-60233914D01*
X220344500Y-84643697D01*
X220324498Y-84711818D01*
X220312136Y-84728006D01*
X220240960Y-84807056D01*
X220145473Y-84972444D01*
X220086458Y-85154072D01*
X220066496Y-85344000D01*
X220086458Y-85533928D01*
X220145473Y-85715556D01*
X220240960Y-85880944D01*
X220368747Y-86022866D01*
X220430180Y-86067500D01*
X220509852Y-86125385D01*
X220523248Y-86135118D01*
X220529276Y-86137802D01*
X220529278Y-86137803D01*
X220691681Y-86210109D01*
X220697712Y-86212794D01*
X220791113Y-86232647D01*
X220878056Y-86251128D01*
X220878061Y-86251128D01*
X220884513Y-86252500D01*
X221075487Y-86252500D01*
X221081947Y-86251127D01*
X221088226Y-86250467D01*
X221158064Y-86263239D01*
X221209911Y-86311742D01*
X221227305Y-86380575D01*
X221219378Y-86420005D01*
X221205030Y-86458279D01*
X221205028Y-86458286D01*
X221202255Y-86465684D01*
X221195500Y-86527866D01*
X221195500Y-86587914D01*
X221175498Y-86656035D01*
X221138585Y-86693286D01*
X221091375Y-86724238D01*
X221082867Y-86729816D01*
X221079200Y-86732130D01*
X221016419Y-86770227D01*
X221012212Y-86773943D01*
X221012208Y-86773946D01*
X221007995Y-86777668D01*
X221007969Y-86777638D01*
X221005041Y-86780236D01*
X221001687Y-86783040D01*
X220995565Y-86787054D01*
X220990532Y-86792367D01*
X220941995Y-86843604D01*
X220939617Y-86846046D01*
X217694472Y-90091190D01*
X217680059Y-90103577D01*
X217662436Y-90116546D01*
X217657692Y-90122129D01*
X217657693Y-90122129D01*
X217628021Y-90157055D01*
X217621091Y-90164571D01*
X217615347Y-90170315D01*
X217613073Y-90173189D01*
X217613067Y-90173196D01*
X217597628Y-90192711D01*
X217594837Y-90196115D01*
X217552055Y-90246472D01*
X217552052Y-90246476D01*
X217547316Y-90252051D01*
X217543988Y-90258568D01*
X217540611Y-90263632D01*
X217537384Y-90268856D01*
X217532840Y-90274600D01*
X217529741Y-90281231D01*
X217501768Y-90341082D01*
X217499837Y-90345033D01*
X217484938Y-90374211D01*
X217466457Y-90410404D01*
X217464716Y-90417519D01*
X217462579Y-90423265D01*
X217460655Y-90429048D01*
X217457556Y-90435679D01*
X217442781Y-90506717D01*
X217442608Y-90507547D01*
X217441639Y-90511829D01*
X217424196Y-90583112D01*
X217423500Y-90594330D01*
X217423461Y-90594328D01*
X217423228Y-90598229D01*
X217422839Y-90602588D01*
X217421348Y-90609756D01*
X217421546Y-90617073D01*
X217423454Y-90687577D01*
X217423500Y-90690986D01*
X217423500Y-99961972D01*
X217403498Y-100030093D01*
X217386595Y-100051067D01*
X215367067Y-102070595D01*
X215304755Y-102104621D01*
X215277972Y-102107500D01*
X214863211Y-102107500D01*
X214795090Y-102087498D01*
X214748597Y-102033842D01*
X214738727Y-101973839D01*
X214737508Y-101973777D01*
X214738000Y-101964146D01*
X214738000Y-101344115D01*
X214733525Y-101328876D01*
X214732135Y-101327671D01*
X214724452Y-101326000D01*
X213232000Y-101326000D01*
X213163879Y-101305998D01*
X213117386Y-101252342D01*
X213106000Y-101200000D01*
X213106000Y-100799885D01*
X213614000Y-100799885D01*
X213618475Y-100815124D01*
X213619865Y-100816329D01*
X213627548Y-100818000D01*
X214719884Y-100818000D01*
X214735123Y-100813525D01*
X214736328Y-100812135D01*
X214737999Y-100804452D01*
X214737999Y-100179905D01*
X214737662Y-100173386D01*
X214727743Y-100077794D01*
X214724851Y-100064400D01*
X214673412Y-99910216D01*
X214667239Y-99897038D01*
X214581937Y-99759193D01*
X214572901Y-99747792D01*
X214458171Y-99633261D01*
X214446760Y-99624249D01*
X214308757Y-99539184D01*
X214295576Y-99533037D01*
X214141290Y-99481862D01*
X214127914Y-99478995D01*
X214033562Y-99469328D01*
X214027145Y-99469000D01*
X213632115Y-99469000D01*
X213616876Y-99473475D01*
X213615671Y-99474865D01*
X213614000Y-99482548D01*
X213614000Y-100799885D01*
X213106000Y-100799885D01*
X213106000Y-99487116D01*
X213101525Y-99471877D01*
X213100135Y-99470672D01*
X213092452Y-99469001D01*
X212692905Y-99469001D01*
X212686386Y-99469338D01*
X212590794Y-99479257D01*
X212577400Y-99482149D01*
X212423216Y-99533588D01*
X212410038Y-99539761D01*
X212272193Y-99625063D01*
X212260792Y-99634099D01*
X212146261Y-99748829D01*
X212137249Y-99760240D01*
X212048342Y-99904475D01*
X212046245Y-99903183D01*
X212007044Y-99947692D01*
X211938764Y-99967144D01*
X211870807Y-99946593D01*
X211848614Y-99928122D01*
X211736724Y-99810832D01*
X211633287Y-99733873D01*
X211590574Y-99677163D01*
X211582500Y-99632784D01*
X211582500Y-97603368D01*
X211583933Y-97584417D01*
X211586123Y-97570024D01*
X211586123Y-97570022D01*
X211587223Y-97562792D01*
X211582915Y-97509825D01*
X211582500Y-97499611D01*
X211582500Y-97491475D01*
X211579190Y-97463084D01*
X211578757Y-97458709D01*
X211573403Y-97392872D01*
X211573402Y-97392869D01*
X211572809Y-97385573D01*
X211570553Y-97378609D01*
X211569355Y-97372614D01*
X211567949Y-97366664D01*
X211567101Y-97359393D01*
X211542057Y-97290398D01*
X211540634Y-97286252D01*
X211520269Y-97223388D01*
X211520268Y-97223386D01*
X211518013Y-97216425D01*
X211514217Y-97210170D01*
X211511682Y-97204633D01*
X211508932Y-97199142D01*
X211506434Y-97192259D01*
X211466185Y-97130868D01*
X211463870Y-97127200D01*
X211425773Y-97064419D01*
X211422057Y-97060212D01*
X211422054Y-97060208D01*
X211418332Y-97055995D01*
X211418362Y-97055969D01*
X211415764Y-97053041D01*
X211412960Y-97049687D01*
X211408946Y-97043565D01*
X211352395Y-96989994D01*
X211349954Y-96987617D01*
X210349405Y-95987067D01*
X210315379Y-95924755D01*
X210312500Y-95897972D01*
X210312500Y-90803666D01*
X210332502Y-90735545D01*
X210386158Y-90689052D01*
X210456432Y-90678948D01*
X210510771Y-90700453D01*
X210647128Y-90795931D01*
X210656623Y-90801414D01*
X210854081Y-90893490D01*
X210864373Y-90897236D01*
X211074822Y-90953625D01*
X211085615Y-90955528D01*
X211302659Y-90974517D01*
X211313609Y-90974517D01*
X211530653Y-90955528D01*
X211541446Y-90953625D01*
X211751895Y-90897236D01*
X211762187Y-90893490D01*
X211959645Y-90801414D01*
X211969140Y-90795931D01*
X212021182Y-90759491D01*
X212029558Y-90749012D01*
X212022490Y-90735566D01*
X211797058Y-90510134D01*
X213499634Y-90510134D01*
X213506389Y-90572316D01*
X213557519Y-90708705D01*
X213644873Y-90825261D01*
X213761429Y-90912615D01*
X213897818Y-90963745D01*
X213960000Y-90970500D01*
X215656268Y-90970500D01*
X215718450Y-90963745D01*
X215854839Y-90912615D01*
X215971395Y-90825261D01*
X216058749Y-90708705D01*
X216109879Y-90572316D01*
X216116634Y-90510134D01*
X216116634Y-88813866D01*
X216109879Y-88751684D01*
X216058749Y-88615295D01*
X215971395Y-88498739D01*
X215854839Y-88411385D01*
X215718450Y-88360255D01*
X215656268Y-88353500D01*
X213960000Y-88353500D01*
X213897818Y-88360255D01*
X213761429Y-88411385D01*
X213644873Y-88498739D01*
X213557519Y-88615295D01*
X213506389Y-88751684D01*
X213499634Y-88813866D01*
X213499634Y-90510134D01*
X211797058Y-90510134D01*
X211038019Y-89751095D01*
X211003993Y-89688783D01*
X211005828Y-89663132D01*
X211672542Y-89663132D01*
X211672673Y-89664965D01*
X211676924Y-89671580D01*
X212382421Y-90377077D01*
X212394196Y-90383507D01*
X212406211Y-90374211D01*
X212442065Y-90323006D01*
X212447548Y-90313511D01*
X212539624Y-90116053D01*
X212543370Y-90105761D01*
X212599759Y-89895312D01*
X212601662Y-89884519D01*
X212620651Y-89667475D01*
X212620651Y-89656525D01*
X212601662Y-89439481D01*
X212599759Y-89428688D01*
X212543370Y-89218239D01*
X212539624Y-89207947D01*
X212447548Y-89010489D01*
X212442065Y-89000994D01*
X212405625Y-88948952D01*
X212395146Y-88940576D01*
X212381700Y-88947644D01*
X211680156Y-89649188D01*
X211672542Y-89663132D01*
X211005828Y-89663132D01*
X211009058Y-89617968D01*
X211038019Y-89572905D01*
X212023211Y-88587713D01*
X212029641Y-88575938D01*
X212020345Y-88563923D01*
X211969140Y-88528069D01*
X211959645Y-88522586D01*
X211762187Y-88430510D01*
X211751895Y-88426764D01*
X211541446Y-88370375D01*
X211530653Y-88368472D01*
X211313609Y-88349483D01*
X211302659Y-88349483D01*
X211085615Y-88368472D01*
X211074822Y-88370375D01*
X210864373Y-88426764D01*
X210854081Y-88430510D01*
X210656623Y-88522586D01*
X210647128Y-88528069D01*
X210510771Y-88623547D01*
X210443497Y-88646235D01*
X210374636Y-88628950D01*
X210326052Y-88577180D01*
X210312500Y-88520334D01*
X210312500Y-56455368D01*
X210313933Y-56436417D01*
X210316123Y-56422024D01*
X210316123Y-56422022D01*
X210317223Y-56414792D01*
X210312915Y-56361825D01*
X210312500Y-56351611D01*
X210312500Y-56343475D01*
X210309190Y-56315084D01*
X210308757Y-56310709D01*
X210303403Y-56244872D01*
X210303402Y-56244869D01*
X210302809Y-56237573D01*
X210300554Y-56230611D01*
X210299354Y-56224607D01*
X210297948Y-56218660D01*
X210297101Y-56211393D01*
X210272053Y-56142387D01*
X210270625Y-56138227D01*
X210250268Y-56075387D01*
X210250266Y-56075382D01*
X210248012Y-56068425D01*
X210244218Y-56062173D01*
X210241666Y-56056598D01*
X210238930Y-56051135D01*
X210236434Y-56044259D01*
X210196181Y-55982863D01*
X210193834Y-55979144D01*
X210155772Y-55916419D01*
X210148332Y-55907994D01*
X210148360Y-55907969D01*
X210145766Y-55905044D01*
X210142961Y-55901690D01*
X210138946Y-55895565D01*
X210082413Y-55842011D01*
X210079972Y-55839634D01*
X205342268Y-51101930D01*
X205308242Y-51039618D01*
X205306441Y-50996389D01*
X205323092Y-50869911D01*
X205323092Y-50869907D01*
X205323529Y-50866590D01*
X205325156Y-50800000D01*
X205322418Y-50766695D01*
X223935251Y-50766695D01*
X223935548Y-50771848D01*
X223935548Y-50771851D01*
X223941011Y-50866590D01*
X223948110Y-50989715D01*
X223949247Y-50994761D01*
X223949248Y-50994767D01*
X223949614Y-50996389D01*
X223997222Y-51207639D01*
X224081266Y-51414616D01*
X224197987Y-51605088D01*
X224344250Y-51773938D01*
X224516126Y-51916632D01*
X224589445Y-51959476D01*
X224589955Y-51959774D01*
X224638679Y-52011412D01*
X224651750Y-52081195D01*
X224625019Y-52146967D01*
X224584562Y-52180327D01*
X224576457Y-52184546D01*
X224567738Y-52190036D01*
X224397433Y-52317905D01*
X224389726Y-52324748D01*
X224242590Y-52478717D01*
X224236104Y-52486727D01*
X224116098Y-52662649D01*
X224111000Y-52671623D01*
X224021338Y-52864783D01*
X224017775Y-52874470D01*
X223962389Y-53074183D01*
X223963912Y-53082607D01*
X223976292Y-53086000D01*
X226616344Y-53086000D01*
X226629875Y-53082027D01*
X226631180Y-53072947D01*
X226589214Y-52905875D01*
X226585894Y-52896124D01*
X226500972Y-52700814D01*
X226496105Y-52691739D01*
X226380426Y-52512926D01*
X226374136Y-52504757D01*
X226230806Y-52347240D01*
X226223273Y-52340215D01*
X226056139Y-52208222D01*
X226047556Y-52202520D01*
X226010602Y-52182120D01*
X225960631Y-52131687D01*
X225945859Y-52062245D01*
X225970975Y-51995839D01*
X225998327Y-51969232D01*
X226063251Y-51922922D01*
X226177860Y-51841173D01*
X226336096Y-51683489D01*
X226395594Y-51600689D01*
X226463435Y-51506277D01*
X226466453Y-51502077D01*
X226565430Y-51301811D01*
X226630370Y-51088069D01*
X226659529Y-50866590D01*
X226661156Y-50800000D01*
X226642852Y-50577361D01*
X226588431Y-50360702D01*
X226499354Y-50155840D01*
X226378014Y-49968277D01*
X226227670Y-49803051D01*
X226223619Y-49799852D01*
X226223615Y-49799848D01*
X226056414Y-49667800D01*
X226056410Y-49667798D01*
X226052359Y-49664598D01*
X226011053Y-49641796D01*
X225961084Y-49591364D01*
X225946312Y-49521921D01*
X225971428Y-49455516D01*
X225998780Y-49428909D01*
X226063251Y-49382922D01*
X226177860Y-49301173D01*
X226336096Y-49143489D01*
X226395594Y-49060689D01*
X226463435Y-48966277D01*
X226466453Y-48962077D01*
X226565430Y-48761811D01*
X226630370Y-48548069D01*
X226659529Y-48326590D01*
X226661156Y-48260000D01*
X226642852Y-48037361D01*
X226588431Y-47820702D01*
X226499354Y-47615840D01*
X226378014Y-47428277D01*
X226227670Y-47263051D01*
X226223619Y-47259852D01*
X226223615Y-47259848D01*
X226056414Y-47127800D01*
X226056410Y-47127798D01*
X226052359Y-47124598D01*
X226011053Y-47101796D01*
X225961084Y-47051364D01*
X225946312Y-46981921D01*
X225971428Y-46915516D01*
X225998780Y-46888909D01*
X226063251Y-46842922D01*
X226177860Y-46761173D01*
X226336096Y-46603489D01*
X226395594Y-46520689D01*
X226463435Y-46426277D01*
X226466453Y-46422077D01*
X226565430Y-46221811D01*
X226630370Y-46008069D01*
X226659529Y-45786590D01*
X226661156Y-45720000D01*
X226642852Y-45497361D01*
X226588431Y-45280702D01*
X226499354Y-45075840D01*
X226378014Y-44888277D01*
X226227670Y-44723051D01*
X226223619Y-44719852D01*
X226223615Y-44719848D01*
X226056414Y-44587800D01*
X226056410Y-44587798D01*
X226052359Y-44584598D01*
X226011053Y-44561796D01*
X225961084Y-44511364D01*
X225946312Y-44441921D01*
X225971428Y-44375516D01*
X225998780Y-44348909D01*
X226063251Y-44302922D01*
X226177860Y-44221173D01*
X226336096Y-44063489D01*
X226395594Y-43980689D01*
X226463435Y-43886277D01*
X226466453Y-43882077D01*
X226565430Y-43681811D01*
X226630370Y-43468069D01*
X226659529Y-43246590D01*
X226661156Y-43180000D01*
X226642852Y-42957361D01*
X226588431Y-42740702D01*
X226499354Y-42535840D01*
X226378014Y-42348277D01*
X226227670Y-42183051D01*
X226223619Y-42179852D01*
X226223615Y-42179848D01*
X226056414Y-42047800D01*
X226056410Y-42047798D01*
X226052359Y-42044598D01*
X226011053Y-42021796D01*
X225961084Y-41971364D01*
X225946312Y-41901921D01*
X225971428Y-41835516D01*
X225998780Y-41808909D01*
X226063251Y-41762922D01*
X226177860Y-41681173D01*
X226336096Y-41523489D01*
X226395594Y-41440689D01*
X226463435Y-41346277D01*
X226466453Y-41342077D01*
X226565430Y-41141811D01*
X226630370Y-40928069D01*
X226659529Y-40706590D01*
X226661156Y-40640000D01*
X226642852Y-40417361D01*
X226588431Y-40200702D01*
X226499354Y-39995840D01*
X226378014Y-39808277D01*
X226227670Y-39643051D01*
X226223619Y-39639852D01*
X226223615Y-39639848D01*
X226056414Y-39507800D01*
X226056410Y-39507798D01*
X226052359Y-39504598D01*
X226011053Y-39481796D01*
X225961084Y-39431364D01*
X225946312Y-39361921D01*
X225971428Y-39295516D01*
X225998780Y-39268909D01*
X226063251Y-39222922D01*
X226177860Y-39141173D01*
X226336096Y-38983489D01*
X226395594Y-38900689D01*
X226463435Y-38806277D01*
X226466453Y-38802077D01*
X226565430Y-38601811D01*
X226630370Y-38388069D01*
X226659529Y-38166590D01*
X226661156Y-38100000D01*
X226642852Y-37877361D01*
X226588431Y-37660702D01*
X226499354Y-37455840D01*
X226378014Y-37268277D01*
X226227670Y-37103051D01*
X226223619Y-37099852D01*
X226223615Y-37099848D01*
X226056414Y-36967800D01*
X226056410Y-36967798D01*
X226052359Y-36964598D01*
X226010569Y-36941529D01*
X225960598Y-36891097D01*
X225945826Y-36821654D01*
X225970942Y-36755248D01*
X225998294Y-36728641D01*
X226173328Y-36603792D01*
X226181200Y-36597139D01*
X226332052Y-36446812D01*
X226338730Y-36438965D01*
X226463003Y-36266020D01*
X226468313Y-36257183D01*
X226562670Y-36066267D01*
X226566469Y-36056672D01*
X226628377Y-35852910D01*
X226630555Y-35842837D01*
X226631986Y-35831962D01*
X226629775Y-35817778D01*
X226616617Y-35814000D01*
X223981225Y-35814000D01*
X223967694Y-35817973D01*
X223966257Y-35827966D01*
X223996565Y-35962446D01*
X223999645Y-35972275D01*
X224079770Y-36169603D01*
X224084413Y-36178794D01*
X224195694Y-36360388D01*
X224201777Y-36368699D01*
X224341213Y-36529667D01*
X224348580Y-36536883D01*
X224512434Y-36672916D01*
X224520881Y-36678831D01*
X224589969Y-36719203D01*
X224638693Y-36770842D01*
X224651764Y-36840625D01*
X224625033Y-36906396D01*
X224584584Y-36939752D01*
X224571607Y-36946507D01*
X224567474Y-36949610D01*
X224567471Y-36949612D01*
X224443567Y-37042642D01*
X224392965Y-37080635D01*
X224389393Y-37084373D01*
X224280782Y-37198028D01*
X224238629Y-37242138D01*
X224112743Y-37426680D01*
X224018688Y-37629305D01*
X223958989Y-37844570D01*
X223935251Y-38066695D01*
X223935548Y-38071848D01*
X223935548Y-38071851D01*
X223941011Y-38166590D01*
X223948110Y-38289715D01*
X223949247Y-38294761D01*
X223949248Y-38294767D01*
X223969119Y-38382939D01*
X223997222Y-38507639D01*
X224081266Y-38714616D01*
X224197987Y-38905088D01*
X224344250Y-39073938D01*
X224516126Y-39216632D01*
X224586595Y-39257811D01*
X224589445Y-39259476D01*
X224638169Y-39311114D01*
X224651240Y-39380897D01*
X224624509Y-39446669D01*
X224584055Y-39480027D01*
X224571607Y-39486507D01*
X224567474Y-39489610D01*
X224567471Y-39489612D01*
X224397100Y-39617530D01*
X224392965Y-39620635D01*
X224238629Y-39782138D01*
X224112743Y-39966680D01*
X224018688Y-40169305D01*
X223958989Y-40384570D01*
X223935251Y-40606695D01*
X223935548Y-40611848D01*
X223935548Y-40611851D01*
X223941011Y-40706590D01*
X223948110Y-40829715D01*
X223949247Y-40834761D01*
X223949248Y-40834767D01*
X223969119Y-40922939D01*
X223997222Y-41047639D01*
X224081266Y-41254616D01*
X224197987Y-41445088D01*
X224344250Y-41613938D01*
X224516126Y-41756632D01*
X224586595Y-41797811D01*
X224589445Y-41799476D01*
X224638169Y-41851114D01*
X224651240Y-41920897D01*
X224624509Y-41986669D01*
X224584055Y-42020027D01*
X224571607Y-42026507D01*
X224567474Y-42029610D01*
X224567471Y-42029612D01*
X224397100Y-42157530D01*
X224392965Y-42160635D01*
X224238629Y-42322138D01*
X224112743Y-42506680D01*
X224018688Y-42709305D01*
X223958989Y-42924570D01*
X223935251Y-43146695D01*
X223935548Y-43151848D01*
X223935548Y-43151851D01*
X223941011Y-43246590D01*
X223948110Y-43369715D01*
X223949247Y-43374761D01*
X223949248Y-43374767D01*
X223969119Y-43462939D01*
X223997222Y-43587639D01*
X224081266Y-43794616D01*
X224197987Y-43985088D01*
X224344250Y-44153938D01*
X224516126Y-44296632D01*
X224586595Y-44337811D01*
X224589445Y-44339476D01*
X224638169Y-44391114D01*
X224651240Y-44460897D01*
X224624509Y-44526669D01*
X224584055Y-44560027D01*
X224571607Y-44566507D01*
X224567474Y-44569610D01*
X224567471Y-44569612D01*
X224397100Y-44697530D01*
X224392965Y-44700635D01*
X224238629Y-44862138D01*
X224112743Y-45046680D01*
X224018688Y-45249305D01*
X223958989Y-45464570D01*
X223935251Y-45686695D01*
X223935548Y-45691848D01*
X223935548Y-45691851D01*
X223941011Y-45786590D01*
X223948110Y-45909715D01*
X223949247Y-45914761D01*
X223949248Y-45914767D01*
X223969119Y-46002939D01*
X223997222Y-46127639D01*
X224081266Y-46334616D01*
X224197987Y-46525088D01*
X224344250Y-46693938D01*
X224516126Y-46836632D01*
X224586595Y-46877811D01*
X224589445Y-46879476D01*
X224638169Y-46931114D01*
X224651240Y-47000897D01*
X224624509Y-47066669D01*
X224584055Y-47100027D01*
X224571607Y-47106507D01*
X224567474Y-47109610D01*
X224567471Y-47109612D01*
X224397100Y-47237530D01*
X224392965Y-47240635D01*
X224238629Y-47402138D01*
X224112743Y-47586680D01*
X224018688Y-47789305D01*
X223958989Y-48004570D01*
X223935251Y-48226695D01*
X223935548Y-48231848D01*
X223935548Y-48231851D01*
X223941011Y-48326590D01*
X223948110Y-48449715D01*
X223949247Y-48454761D01*
X223949248Y-48454767D01*
X223969119Y-48542939D01*
X223997222Y-48667639D01*
X224081266Y-48874616D01*
X224197987Y-49065088D01*
X224344250Y-49233938D01*
X224516126Y-49376632D01*
X224586595Y-49417811D01*
X224589445Y-49419476D01*
X224638169Y-49471114D01*
X224651240Y-49540897D01*
X224624509Y-49606669D01*
X224584055Y-49640027D01*
X224571607Y-49646507D01*
X224567474Y-49649610D01*
X224567471Y-49649612D01*
X224397100Y-49777530D01*
X224392965Y-49780635D01*
X224238629Y-49942138D01*
X224112743Y-50126680D01*
X224018688Y-50329305D01*
X223958989Y-50544570D01*
X223935251Y-50766695D01*
X205322418Y-50766695D01*
X205306852Y-50577361D01*
X205252431Y-50360702D01*
X205163354Y-50155840D01*
X205042014Y-49968277D01*
X204891670Y-49803051D01*
X204887619Y-49799852D01*
X204887615Y-49799848D01*
X204720414Y-49667800D01*
X204720410Y-49667798D01*
X204716359Y-49664598D01*
X204675053Y-49641796D01*
X204625084Y-49591364D01*
X204610312Y-49521921D01*
X204635428Y-49455516D01*
X204662780Y-49428909D01*
X204727251Y-49382922D01*
X204841860Y-49301173D01*
X205000096Y-49143489D01*
X205059594Y-49060689D01*
X205127435Y-48966277D01*
X205130453Y-48962077D01*
X205229430Y-48761811D01*
X205294370Y-48548069D01*
X205323529Y-48326590D01*
X205325156Y-48260000D01*
X205306852Y-48037361D01*
X205252431Y-47820702D01*
X205163354Y-47615840D01*
X205042014Y-47428277D01*
X204891670Y-47263051D01*
X204887619Y-47259852D01*
X204887615Y-47259848D01*
X204720414Y-47127800D01*
X204720410Y-47127798D01*
X204716359Y-47124598D01*
X204675053Y-47101796D01*
X204625084Y-47051364D01*
X204610312Y-46981921D01*
X204635428Y-46915516D01*
X204662780Y-46888909D01*
X204727251Y-46842922D01*
X204841860Y-46761173D01*
X205000096Y-46603489D01*
X205059594Y-46520689D01*
X205127435Y-46426277D01*
X205130453Y-46422077D01*
X205229430Y-46221811D01*
X205294370Y-46008069D01*
X205323529Y-45786590D01*
X205325156Y-45720000D01*
X205306852Y-45497361D01*
X205252431Y-45280702D01*
X205163354Y-45075840D01*
X205042014Y-44888277D01*
X204891670Y-44723051D01*
X204887619Y-44719852D01*
X204887615Y-44719848D01*
X204720414Y-44587800D01*
X204720410Y-44587798D01*
X204716359Y-44584598D01*
X204675053Y-44561796D01*
X204625084Y-44511364D01*
X204610312Y-44441921D01*
X204635428Y-44375516D01*
X204662780Y-44348909D01*
X204727251Y-44302922D01*
X204841860Y-44221173D01*
X205000096Y-44063489D01*
X205059594Y-43980689D01*
X205127435Y-43886277D01*
X205130453Y-43882077D01*
X205229430Y-43681811D01*
X205294370Y-43468069D01*
X205323529Y-43246590D01*
X205325156Y-43180000D01*
X205306852Y-42957361D01*
X205252431Y-42740702D01*
X205163354Y-42535840D01*
X205042014Y-42348277D01*
X204891670Y-42183051D01*
X204887619Y-42179852D01*
X204887615Y-42179848D01*
X204720414Y-42047800D01*
X204720410Y-42047798D01*
X204716359Y-42044598D01*
X204675053Y-42021796D01*
X204625084Y-41971364D01*
X204610312Y-41901921D01*
X204635428Y-41835516D01*
X204662780Y-41808909D01*
X204727251Y-41762922D01*
X204841860Y-41681173D01*
X205000096Y-41523489D01*
X205059594Y-41440689D01*
X205127435Y-41346277D01*
X205130453Y-41342077D01*
X205229430Y-41141811D01*
X205294370Y-40928069D01*
X205323529Y-40706590D01*
X205325156Y-40640000D01*
X205306852Y-40417361D01*
X205252431Y-40200702D01*
X205163354Y-39995840D01*
X205042014Y-39808277D01*
X204891670Y-39643051D01*
X204887619Y-39639852D01*
X204887615Y-39639848D01*
X204720414Y-39507800D01*
X204720410Y-39507798D01*
X204716359Y-39504598D01*
X204675053Y-39481796D01*
X204625084Y-39431364D01*
X204610312Y-39361921D01*
X204635428Y-39295516D01*
X204662780Y-39268909D01*
X204727251Y-39222922D01*
X204841860Y-39141173D01*
X205000096Y-38983489D01*
X205059594Y-38900689D01*
X205127435Y-38806277D01*
X205130453Y-38802077D01*
X205229430Y-38601811D01*
X205294370Y-38388069D01*
X205323529Y-38166590D01*
X205325156Y-38100000D01*
X205306852Y-37877361D01*
X205252431Y-37660702D01*
X205163354Y-37455840D01*
X205042014Y-37268277D01*
X205038532Y-37264450D01*
X204894798Y-37106488D01*
X204863746Y-37042642D01*
X204872141Y-36972143D01*
X204917317Y-36917375D01*
X204943761Y-36903706D01*
X205044614Y-36865897D01*
X205058705Y-36860615D01*
X205175261Y-36773261D01*
X205262615Y-36656705D01*
X205313745Y-36520316D01*
X205320500Y-36458134D01*
X205320500Y-35332028D01*
X205340502Y-35263907D01*
X205357405Y-35242933D01*
X205764933Y-34835405D01*
X205827245Y-34801379D01*
X205854028Y-34798500D01*
X223956826Y-34798500D01*
X224024947Y-34818502D01*
G37*
G04 #@! TD.AperFunction*
G04 #@! TA.AperFunction,Conductor*
G36*
X205523592Y-55979930D02*
G01*
X207480595Y-57936933D01*
X207514621Y-57999245D01*
X207517500Y-58026028D01*
X207517500Y-99627267D01*
X207497498Y-99695388D01*
X207466735Y-99728019D01*
X207464856Y-99729159D01*
X207288166Y-99882483D01*
X207139835Y-100063386D01*
X207137199Y-100068016D01*
X207137196Y-100068021D01*
X207118699Y-100100516D01*
X207067616Y-100149822D01*
X206997985Y-100163683D01*
X206931915Y-100137699D01*
X206904677Y-100108550D01*
X206865977Y-100051067D01*
X206818202Y-99980104D01*
X206787283Y-99947692D01*
X206697325Y-99853393D01*
X206656724Y-99810832D01*
X206469035Y-99671187D01*
X206464284Y-99668771D01*
X206464280Y-99668769D01*
X206265256Y-99567580D01*
X206265255Y-99567580D01*
X206260500Y-99565162D01*
X206037083Y-99495790D01*
X206031796Y-99495089D01*
X206031795Y-99495089D01*
X205810455Y-99465752D01*
X205810451Y-99465752D01*
X205805171Y-99465052D01*
X205799842Y-99465252D01*
X205799840Y-99465252D01*
X205688284Y-99469440D01*
X205571396Y-99473828D01*
X205497408Y-99489352D01*
X205347825Y-99520738D01*
X205277049Y-99515151D01*
X205232856Y-99486518D01*
X202983405Y-97237067D01*
X202949379Y-97174755D01*
X202946500Y-97147972D01*
X202946500Y-91746540D01*
X202966502Y-91678419D01*
X203020158Y-91631926D01*
X203090432Y-91621822D01*
X203116729Y-91628558D01*
X203224530Y-91668971D01*
X203224536Y-91668973D01*
X203231932Y-91671745D01*
X203294114Y-91678500D01*
X205390382Y-91678500D01*
X205452564Y-91671745D01*
X205588953Y-91620615D01*
X205705509Y-91533261D01*
X205792863Y-91416705D01*
X205843993Y-91280316D01*
X205850748Y-91218134D01*
X205850748Y-89121866D01*
X205843993Y-89059684D01*
X205792863Y-88923295D01*
X205705509Y-88806739D01*
X205588953Y-88719385D01*
X205452564Y-88668255D01*
X205390382Y-88661500D01*
X203294114Y-88661500D01*
X203231932Y-88668255D01*
X203224536Y-88671027D01*
X203224530Y-88671029D01*
X203116729Y-88711442D01*
X203045922Y-88716625D01*
X202983553Y-88682704D01*
X202949424Y-88620448D01*
X202946500Y-88593460D01*
X202946500Y-82471043D01*
X202966502Y-82402922D01*
X203020158Y-82356429D01*
X203090432Y-82346325D01*
X203152985Y-82374099D01*
X203180126Y-82396632D01*
X203373000Y-82509338D01*
X203581692Y-82589030D01*
X203586760Y-82590061D01*
X203586763Y-82590062D01*
X203694017Y-82611883D01*
X203800597Y-82633567D01*
X203805772Y-82633757D01*
X203805774Y-82633757D01*
X204018673Y-82641564D01*
X204018677Y-82641564D01*
X204023837Y-82641753D01*
X204028957Y-82641097D01*
X204028959Y-82641097D01*
X204240288Y-82614025D01*
X204240289Y-82614025D01*
X204245416Y-82613368D01*
X204250366Y-82611883D01*
X204454429Y-82550661D01*
X204454434Y-82550659D01*
X204459384Y-82549174D01*
X204659994Y-82450896D01*
X204841860Y-82321173D01*
X205000096Y-82163489D01*
X205130453Y-81982077D01*
X205229430Y-81781811D01*
X205294370Y-81568069D01*
X205323529Y-81346590D01*
X205325156Y-81280000D01*
X205306852Y-81057361D01*
X205252431Y-80840702D01*
X205163354Y-80635840D01*
X205042014Y-80448277D01*
X204891670Y-80283051D01*
X204887619Y-80279852D01*
X204887615Y-80279848D01*
X204720414Y-80147800D01*
X204720410Y-80147798D01*
X204716359Y-80144598D01*
X204675053Y-80121796D01*
X204625084Y-80071364D01*
X204610312Y-80001921D01*
X204635428Y-79935516D01*
X204662780Y-79908909D01*
X204727251Y-79862922D01*
X204841860Y-79781173D01*
X205000096Y-79623489D01*
X205130453Y-79442077D01*
X205229430Y-79241811D01*
X205294370Y-79028069D01*
X205323529Y-78806590D01*
X205325156Y-78740000D01*
X205306852Y-78517361D01*
X205252431Y-78300702D01*
X205163354Y-78095840D01*
X205042014Y-77908277D01*
X204891670Y-77743051D01*
X204887619Y-77739852D01*
X204887615Y-77739848D01*
X204720414Y-77607800D01*
X204720410Y-77607798D01*
X204716359Y-77604598D01*
X204675053Y-77581796D01*
X204625084Y-77531364D01*
X204610312Y-77461921D01*
X204635428Y-77395516D01*
X204662780Y-77368909D01*
X204727251Y-77322922D01*
X204841860Y-77241173D01*
X205000096Y-77083489D01*
X205130453Y-76902077D01*
X205229430Y-76701811D01*
X205294370Y-76488069D01*
X205323529Y-76266590D01*
X205325156Y-76200000D01*
X205306852Y-75977361D01*
X205252431Y-75760702D01*
X205163354Y-75555840D01*
X205042014Y-75368277D01*
X204891670Y-75203051D01*
X204887619Y-75199852D01*
X204887615Y-75199848D01*
X204720414Y-75067800D01*
X204720410Y-75067798D01*
X204716359Y-75064598D01*
X204675053Y-75041796D01*
X204625084Y-74991364D01*
X204610312Y-74921921D01*
X204635428Y-74855516D01*
X204662780Y-74828909D01*
X204727251Y-74782922D01*
X204841860Y-74701173D01*
X205000096Y-74543489D01*
X205007768Y-74532813D01*
X205127435Y-74366277D01*
X205130453Y-74362077D01*
X205167197Y-74287732D01*
X205227136Y-74166453D01*
X205227137Y-74166451D01*
X205229430Y-74161811D01*
X205294370Y-73948069D01*
X205323529Y-73726590D01*
X205325156Y-73660000D01*
X205306852Y-73437361D01*
X205252431Y-73220702D01*
X205163354Y-73015840D01*
X205042014Y-72828277D01*
X204891670Y-72663051D01*
X204887619Y-72659852D01*
X204887615Y-72659848D01*
X204720414Y-72527800D01*
X204720410Y-72527798D01*
X204716359Y-72524598D01*
X204675053Y-72501796D01*
X204625084Y-72451364D01*
X204610312Y-72381921D01*
X204635428Y-72315516D01*
X204662780Y-72288909D01*
X204727251Y-72242922D01*
X204841860Y-72161173D01*
X205000096Y-72003489D01*
X205011422Y-71987728D01*
X205127435Y-71826277D01*
X205130453Y-71822077D01*
X205175374Y-71731187D01*
X205227136Y-71626453D01*
X205227137Y-71626451D01*
X205229430Y-71621811D01*
X205294370Y-71408069D01*
X205323529Y-71186590D01*
X205325156Y-71120000D01*
X205306852Y-70897361D01*
X205252431Y-70680702D01*
X205163354Y-70475840D01*
X205042014Y-70288277D01*
X204891670Y-70123051D01*
X204887619Y-70119852D01*
X204887615Y-70119848D01*
X204720414Y-69987800D01*
X204720410Y-69987798D01*
X204716359Y-69984598D01*
X204674569Y-69961529D01*
X204624598Y-69911097D01*
X204609826Y-69841654D01*
X204634942Y-69775248D01*
X204662294Y-69748641D01*
X204837328Y-69623792D01*
X204845200Y-69617139D01*
X204996052Y-69466812D01*
X205002730Y-69458965D01*
X205127003Y-69286020D01*
X205132313Y-69277183D01*
X205226670Y-69086267D01*
X205230469Y-69076672D01*
X205292377Y-68872910D01*
X205294555Y-68862837D01*
X205295986Y-68851962D01*
X205293775Y-68837778D01*
X205280617Y-68834000D01*
X203834000Y-68834000D01*
X203765879Y-68813998D01*
X203719386Y-68760342D01*
X203708000Y-68708000D01*
X203708000Y-68452000D01*
X203728002Y-68383879D01*
X203781658Y-68337386D01*
X203834000Y-68326000D01*
X205280344Y-68326000D01*
X205293875Y-68322027D01*
X205295180Y-68312947D01*
X205253214Y-68145875D01*
X205249894Y-68136124D01*
X205164972Y-67940814D01*
X205160105Y-67931739D01*
X205044426Y-67752926D01*
X205038136Y-67744757D01*
X204894806Y-67587240D01*
X204887273Y-67580215D01*
X204720139Y-67448222D01*
X204711556Y-67442520D01*
X204674602Y-67422120D01*
X204624631Y-67371687D01*
X204609859Y-67302245D01*
X204634975Y-67235839D01*
X204662327Y-67209232D01*
X204727251Y-67162922D01*
X204841860Y-67081173D01*
X205000096Y-66923489D01*
X205130453Y-66742077D01*
X205135313Y-66732245D01*
X205227136Y-66546453D01*
X205227137Y-66546451D01*
X205229430Y-66541811D01*
X205294370Y-66328069D01*
X205323529Y-66106590D01*
X205325156Y-66040000D01*
X205306852Y-65817361D01*
X205252431Y-65600702D01*
X205163354Y-65395840D01*
X205042014Y-65208277D01*
X204891670Y-65043051D01*
X204887619Y-65039852D01*
X204887615Y-65039848D01*
X204720414Y-64907800D01*
X204720410Y-64907798D01*
X204716359Y-64904598D01*
X204675053Y-64881796D01*
X204625084Y-64831364D01*
X204610312Y-64761921D01*
X204635428Y-64695516D01*
X204662780Y-64668909D01*
X204727251Y-64622922D01*
X204841860Y-64541173D01*
X205000096Y-64383489D01*
X205130453Y-64202077D01*
X205191383Y-64078795D01*
X205227136Y-64006453D01*
X205227137Y-64006451D01*
X205229430Y-64001811D01*
X205270259Y-63867428D01*
X205292865Y-63793023D01*
X205292865Y-63793021D01*
X205294370Y-63788069D01*
X205323529Y-63566590D01*
X205323952Y-63549276D01*
X205325074Y-63503365D01*
X205325074Y-63503361D01*
X205325156Y-63500000D01*
X205306852Y-63277361D01*
X205252431Y-63060702D01*
X205163354Y-62855840D01*
X205042014Y-62668277D01*
X204891670Y-62503051D01*
X204887619Y-62499852D01*
X204887615Y-62499848D01*
X204720414Y-62367800D01*
X204720410Y-62367798D01*
X204716359Y-62364598D01*
X204675053Y-62341796D01*
X204625084Y-62291364D01*
X204610312Y-62221921D01*
X204635428Y-62155516D01*
X204662780Y-62128909D01*
X204727251Y-62082922D01*
X204841860Y-62001173D01*
X205000096Y-61843489D01*
X205059293Y-61761108D01*
X205127435Y-61666277D01*
X205130453Y-61662077D01*
X205160012Y-61602270D01*
X205227136Y-61466453D01*
X205227137Y-61466451D01*
X205229430Y-61461811D01*
X205294370Y-61248069D01*
X205323529Y-61026590D01*
X205323860Y-61013056D01*
X205325074Y-60963365D01*
X205325074Y-60963361D01*
X205325156Y-60960000D01*
X205306852Y-60737361D01*
X205252431Y-60520702D01*
X205163354Y-60315840D01*
X205042014Y-60128277D01*
X204891670Y-59963051D01*
X204887619Y-59959852D01*
X204887615Y-59959848D01*
X204720414Y-59827800D01*
X204720410Y-59827798D01*
X204716359Y-59824598D01*
X204675053Y-59801796D01*
X204625084Y-59751364D01*
X204610312Y-59681921D01*
X204635428Y-59615516D01*
X204662780Y-59588909D01*
X204727251Y-59542922D01*
X204841860Y-59461173D01*
X205000096Y-59303489D01*
X205130453Y-59122077D01*
X205229430Y-58921811D01*
X205294370Y-58708069D01*
X205323529Y-58486590D01*
X205325156Y-58420000D01*
X205306852Y-58197361D01*
X205252431Y-57980702D01*
X205163354Y-57775840D01*
X205042014Y-57588277D01*
X204891670Y-57423051D01*
X204887619Y-57419852D01*
X204887615Y-57419848D01*
X204720414Y-57287800D01*
X204720410Y-57287798D01*
X204716359Y-57284598D01*
X204675053Y-57261796D01*
X204625084Y-57211364D01*
X204610312Y-57141921D01*
X204635428Y-57075516D01*
X204662780Y-57048909D01*
X204730414Y-57000666D01*
X204841860Y-56921173D01*
X204878406Y-56884755D01*
X204980866Y-56782652D01*
X205000096Y-56763489D01*
X205042306Y-56704748D01*
X205127435Y-56586277D01*
X205130453Y-56582077D01*
X205135987Y-56570881D01*
X205227136Y-56386453D01*
X205227137Y-56386451D01*
X205229430Y-56381811D01*
X205266806Y-56258791D01*
X205292865Y-56173023D01*
X205292865Y-56173021D01*
X205294370Y-56168069D01*
X205309575Y-56052578D01*
X205338298Y-55987651D01*
X205397563Y-55948560D01*
X205468554Y-55947715D01*
X205523592Y-55979930D01*
G37*
G04 #@! TD.AperFunction*
M02*
